<?xml version="1.0" encoding="utf-8" standalone="no"?>
<!DOCTYPE svg PUBLIC "-//W3C//DTD SVG 1.1//EN"
  "http://www.w3.org/Graphics/SVG/1.1/DTD/svg11.dtd">
<svg xmlns:xlink="http://www.w3.org/1999/xlink" width="852.5525pt" height="420.775798pt" viewBox="0 0 852.5525 420.775798" xmlns="http://www.w3.org/2000/svg" version="1.1">
 <metadata>
  <rdf:RDF xmlns:dc="http://purl.org/dc/elements/1.1/" xmlns:cc="http://creativecommons.org/ns#" xmlns:rdf="http://www.w3.org/1999/02/22-rdf-syntax-ns#">
   <cc:Work>
    <dc:type rdf:resource="http://purl.org/dc/dcmitype/StillImage"/>
    <dc:date>2025-03-28T22:45:34.880842</dc:date>
    <dc:format>image/svg+xml</dc:format>
    <dc:creator>
     <cc:Agent>
      <dc:title>Matplotlib v3.8.4, https://matplotlib.org/</dc:title>
     </cc:Agent>
    </dc:creator>
   </cc:Work>
  </rdf:RDF>
 </metadata>
 <defs>
  <style type="text/css">*{stroke-linejoin: round; stroke-linecap: butt}</style>
 </defs>
 <g id="figure_1">
  <g id="patch_1">
   <path d="M 0 420.775798 
L 852.5525 420.775798 
L 852.5525 0 
L 0 0 
z
" style="fill: #ffffff"/>
  </g>
  <g id="axes_1">
   <g id="patch_2">
    <path d="M 56.1425 342.205107 
L 845.3525 342.205107 
L 845.3525 24.8475 
L 56.1425 24.8475 
z
" style="fill: #ffffff"/>
   </g>
   <g id="matplotlib.axis_1">
    <g id="xtick_1">
     <g id="line2d_1">
      <path d="M 92.015682 342.205107 
L 92.015682 24.8475 
" clip-path="url(#pe1e3d0aca6)" style="fill: none; stroke-dasharray: 3.7,1.6; stroke-dashoffset: 0; stroke: #cccccc; stroke-opacity: 0.7"/>
     </g>
     <g id="text_1">
      <!-- 2023-01-11 -->
      <g style="fill: #262626" transform="translate(74.421815 396.481871) rotate(-45) scale(0.11 -0.11)">
       <defs>
        <path id="ArialMT-32" d="M 3222 541 
L 3222 0 
L 194 0 
Q 188 203 259 391 
Q 375 700 629 1000 
Q 884 1300 1366 1694 
Q 2113 2306 2375 2664 
Q 2638 3022 2638 3341 
Q 2638 3675 2398 3904 
Q 2159 4134 1775 4134 
Q 1369 4134 1125 3890 
Q 881 3647 878 3216 
L 300 3275 
Q 359 3922 746 4261 
Q 1134 4600 1788 4600 
Q 2447 4600 2831 4234 
Q 3216 3869 3216 3328 
Q 3216 3053 3103 2787 
Q 2991 2522 2730 2228 
Q 2469 1934 1863 1422 
Q 1356 997 1212 845 
Q 1069 694 975 541 
L 3222 541 
z
" transform="scale(0.015625)"/>
        <path id="ArialMT-30" d="M 266 2259 
Q 266 3072 433 3567 
Q 600 4063 929 4331 
Q 1259 4600 1759 4600 
Q 2128 4600 2406 4451 
Q 2684 4303 2865 4023 
Q 3047 3744 3150 3342 
Q 3253 2941 3253 2259 
Q 3253 1453 3087 958 
Q 2922 463 2592 192 
Q 2263 -78 1759 -78 
Q 1097 -78 719 397 
Q 266 969 266 2259 
z
M 844 2259 
Q 844 1131 1108 757 
Q 1372 384 1759 384 
Q 2147 384 2411 759 
Q 2675 1134 2675 2259 
Q 2675 3391 2411 3762 
Q 2147 4134 1753 4134 
Q 1366 4134 1134 3806 
Q 844 3388 844 2259 
z
" transform="scale(0.015625)"/>
        <path id="ArialMT-33" d="M 269 1209 
L 831 1284 
Q 928 806 1161 595 
Q 1394 384 1728 384 
Q 2125 384 2398 659 
Q 2672 934 2672 1341 
Q 2672 1728 2419 1979 
Q 2166 2231 1775 2231 
Q 1616 2231 1378 2169 
L 1441 2663 
Q 1497 2656 1531 2656 
Q 1891 2656 2178 2843 
Q 2466 3031 2466 3422 
Q 2466 3731 2256 3934 
Q 2047 4138 1716 4138 
Q 1388 4138 1169 3931 
Q 950 3725 888 3313 
L 325 3413 
Q 428 3978 793 4289 
Q 1159 4600 1703 4600 
Q 2078 4600 2393 4439 
Q 2709 4278 2876 4000 
Q 3044 3722 3044 3409 
Q 3044 3113 2884 2869 
Q 2725 2625 2413 2481 
Q 2819 2388 3044 2092 
Q 3269 1797 3269 1353 
Q 3269 753 2831 336 
Q 2394 -81 1725 -81 
Q 1122 -81 723 278 
Q 325 638 269 1209 
z
" transform="scale(0.015625)"/>
        <path id="ArialMT-2d" d="M 203 1375 
L 203 1941 
L 1931 1941 
L 1931 1375 
L 203 1375 
z
" transform="scale(0.015625)"/>
        <path id="ArialMT-31" d="M 2384 0 
L 1822 0 
L 1822 3584 
Q 1619 3391 1289 3197 
Q 959 3003 697 2906 
L 697 3450 
Q 1169 3672 1522 3987 
Q 1875 4303 2022 4600 
L 2384 4600 
L 2384 0 
z
" transform="scale(0.015625)"/>
       </defs>
       <use xlink:href="#ArialMT-32"/>
       <use xlink:href="#ArialMT-30" x="55.615234"/>
       <use xlink:href="#ArialMT-32" x="111.230469"/>
       <use xlink:href="#ArialMT-33" x="166.845703"/>
       <use xlink:href="#ArialMT-2d" x="222.460938"/>
       <use xlink:href="#ArialMT-30" x="255.761719"/>
       <use xlink:href="#ArialMT-31" x="311.376953"/>
       <use xlink:href="#ArialMT-2d" x="366.992188"/>
       <use xlink:href="#ArialMT-31" x="400.292969"/>
       <use xlink:href="#ArialMT-31" x="448.533203"/>
      </g>
     </g>
    </g>
    <g id="xtick_2">
     <g id="line2d_2">
      <path d="M 150.54561 342.205107 
L 150.54561 24.8475 
" clip-path="url(#pe1e3d0aca6)" style="fill: none; stroke-dasharray: 3.7,1.6; stroke-dashoffset: 0; stroke: #cccccc; stroke-opacity: 0.7"/>
     </g>
     <g id="text_2">
      <!-- 2023-02-11 -->
      <g style="fill: #262626" transform="translate(132.951744 396.481871) rotate(-45) scale(0.11 -0.11)">
       <use xlink:href="#ArialMT-32"/>
       <use xlink:href="#ArialMT-30" x="55.615234"/>
       <use xlink:href="#ArialMT-32" x="111.230469"/>
       <use xlink:href="#ArialMT-33" x="166.845703"/>
       <use xlink:href="#ArialMT-2d" x="222.460938"/>
       <use xlink:href="#ArialMT-30" x="255.761719"/>
       <use xlink:href="#ArialMT-32" x="311.376953"/>
       <use xlink:href="#ArialMT-2d" x="366.992188"/>
       <use xlink:href="#ArialMT-31" x="400.292969"/>
       <use xlink:href="#ArialMT-31" x="448.533203"/>
      </g>
     </g>
    </g>
    <g id="xtick_3">
     <g id="line2d_3">
      <path d="M 203.411352 342.205107 
L 203.411352 24.8475 
" clip-path="url(#pe1e3d0aca6)" style="fill: none; stroke-dasharray: 3.7,1.6; stroke-dashoffset: 0; stroke: #cccccc; stroke-opacity: 0.7"/>
     </g>
     <g id="text_3">
      <!-- 2023-03-11 -->
      <g style="fill: #262626" transform="translate(185.817485 396.481871) rotate(-45) scale(0.11 -0.11)">
       <use xlink:href="#ArialMT-32"/>
       <use xlink:href="#ArialMT-30" x="55.615234"/>
       <use xlink:href="#ArialMT-32" x="111.230469"/>
       <use xlink:href="#ArialMT-33" x="166.845703"/>
       <use xlink:href="#ArialMT-2d" x="222.460938"/>
       <use xlink:href="#ArialMT-30" x="255.761719"/>
       <use xlink:href="#ArialMT-33" x="311.376953"/>
       <use xlink:href="#ArialMT-2d" x="366.992188"/>
       <use xlink:href="#ArialMT-31" x="400.292969"/>
       <use xlink:href="#ArialMT-31" x="448.533203"/>
      </g>
     </g>
    </g>
    <g id="xtick_4">
     <g id="line2d_4">
      <path d="M 261.94128 342.205107 
L 261.94128 24.8475 
" clip-path="url(#pe1e3d0aca6)" style="fill: none; stroke-dasharray: 3.7,1.6; stroke-dashoffset: 0; stroke: #cccccc; stroke-opacity: 0.7"/>
     </g>
     <g id="text_4">
      <!-- 2023-04-11 -->
      <g style="fill: #262626" transform="translate(244.347414 396.481871) rotate(-45) scale(0.11 -0.11)">
       <defs>
        <path id="ArialMT-34" d="M 2069 0 
L 2069 1097 
L 81 1097 
L 81 1613 
L 2172 4581 
L 2631 4581 
L 2631 1613 
L 3250 1613 
L 3250 1097 
L 2631 1097 
L 2631 0 
L 2069 0 
z
M 2069 1613 
L 2069 3678 
L 634 1613 
L 2069 1613 
z
" transform="scale(0.015625)"/>
       </defs>
       <use xlink:href="#ArialMT-32"/>
       <use xlink:href="#ArialMT-30" x="55.615234"/>
       <use xlink:href="#ArialMT-32" x="111.230469"/>
       <use xlink:href="#ArialMT-33" x="166.845703"/>
       <use xlink:href="#ArialMT-2d" x="222.460938"/>
       <use xlink:href="#ArialMT-30" x="255.761719"/>
       <use xlink:href="#ArialMT-34" x="311.376953"/>
       <use xlink:href="#ArialMT-2d" x="366.992188"/>
       <use xlink:href="#ArialMT-31" x="400.292969"/>
       <use xlink:href="#ArialMT-31" x="448.533203"/>
      </g>
     </g>
    </g>
    <g id="xtick_5">
     <g id="line2d_5">
      <path d="M 318.583146 342.205107 
L 318.583146 24.8475 
" clip-path="url(#pe1e3d0aca6)" style="fill: none; stroke-dasharray: 3.7,1.6; stroke-dashoffset: 0; stroke: #cccccc; stroke-opacity: 0.7"/>
     </g>
     <g id="text_5">
      <!-- 2023-05-11 -->
      <g style="fill: #262626" transform="translate(300.98928 396.481871) rotate(-45) scale(0.11 -0.11)">
       <defs>
        <path id="ArialMT-35" d="M 266 1200 
L 856 1250 
Q 922 819 1161 601 
Q 1400 384 1738 384 
Q 2144 384 2425 690 
Q 2706 997 2706 1503 
Q 2706 1984 2436 2262 
Q 2166 2541 1728 2541 
Q 1456 2541 1237 2417 
Q 1019 2294 894 2097 
L 366 2166 
L 809 4519 
L 3088 4519 
L 3088 3981 
L 1259 3981 
L 1013 2750 
Q 1425 3038 1878 3038 
Q 2478 3038 2890 2622 
Q 3303 2206 3303 1553 
Q 3303 931 2941 478 
Q 2500 -78 1738 -78 
Q 1113 -78 717 272 
Q 322 622 266 1200 
z
" transform="scale(0.015625)"/>
       </defs>
       <use xlink:href="#ArialMT-32"/>
       <use xlink:href="#ArialMT-30" x="55.615234"/>
       <use xlink:href="#ArialMT-32" x="111.230469"/>
       <use xlink:href="#ArialMT-33" x="166.845703"/>
       <use xlink:href="#ArialMT-2d" x="222.460938"/>
       <use xlink:href="#ArialMT-30" x="255.761719"/>
       <use xlink:href="#ArialMT-35" x="311.376953"/>
       <use xlink:href="#ArialMT-2d" x="366.992188"/>
       <use xlink:href="#ArialMT-31" x="400.292969"/>
       <use xlink:href="#ArialMT-31" x="448.533203"/>
      </g>
     </g>
    </g>
    <g id="xtick_6">
     <g id="line2d_6">
      <path d="M 377.113074 342.205107 
L 377.113074 24.8475 
" clip-path="url(#pe1e3d0aca6)" style="fill: none; stroke-dasharray: 3.7,1.6; stroke-dashoffset: 0; stroke: #cccccc; stroke-opacity: 0.7"/>
     </g>
     <g id="text_6">
      <!-- 2023-06-11 -->
      <g style="fill: #262626" transform="translate(359.519208 396.481871) rotate(-45) scale(0.11 -0.11)">
       <defs>
        <path id="ArialMT-36" d="M 3184 3459 
L 2625 3416 
Q 2550 3747 2413 3897 
Q 2184 4138 1850 4138 
Q 1581 4138 1378 3988 
Q 1113 3794 959 3422 
Q 806 3050 800 2363 
Q 1003 2672 1297 2822 
Q 1591 2972 1913 2972 
Q 2475 2972 2870 2558 
Q 3266 2144 3266 1488 
Q 3266 1056 3080 686 
Q 2894 316 2569 119 
Q 2244 -78 1831 -78 
Q 1128 -78 684 439 
Q 241 956 241 2144 
Q 241 3472 731 4075 
Q 1159 4600 1884 4600 
Q 2425 4600 2770 4297 
Q 3116 3994 3184 3459 
z
M 888 1484 
Q 888 1194 1011 928 
Q 1134 663 1356 523 
Q 1578 384 1822 384 
Q 2178 384 2434 671 
Q 2691 959 2691 1453 
Q 2691 1928 2437 2201 
Q 2184 2475 1800 2475 
Q 1419 2475 1153 2201 
Q 888 1928 888 1484 
z
" transform="scale(0.015625)"/>
       </defs>
       <use xlink:href="#ArialMT-32"/>
       <use xlink:href="#ArialMT-30" x="55.615234"/>
       <use xlink:href="#ArialMT-32" x="111.230469"/>
       <use xlink:href="#ArialMT-33" x="166.845703"/>
       <use xlink:href="#ArialMT-2d" x="222.460938"/>
       <use xlink:href="#ArialMT-30" x="255.761719"/>
       <use xlink:href="#ArialMT-36" x="311.376953"/>
       <use xlink:href="#ArialMT-2d" x="366.992188"/>
       <use xlink:href="#ArialMT-31" x="400.292969"/>
       <use xlink:href="#ArialMT-31" x="448.533203"/>
      </g>
     </g>
    </g>
    <g id="xtick_7">
     <g id="line2d_7">
      <path d="M 433.75494 342.205107 
L 433.75494 24.8475 
" clip-path="url(#pe1e3d0aca6)" style="fill: none; stroke-dasharray: 3.7,1.6; stroke-dashoffset: 0; stroke: #cccccc; stroke-opacity: 0.7"/>
     </g>
     <g id="text_7">
      <!-- 2023-07-11 -->
      <g style="fill: #262626" transform="translate(416.161074 396.481871) rotate(-45) scale(0.11 -0.11)">
       <defs>
        <path id="ArialMT-37" d="M 303 3981 
L 303 4522 
L 3269 4522 
L 3269 4084 
Q 2831 3619 2401 2847 
Q 1972 2075 1738 1259 
Q 1569 684 1522 0 
L 944 0 
Q 953 541 1156 1306 
Q 1359 2072 1739 2783 
Q 2119 3494 2547 3981 
L 303 3981 
z
" transform="scale(0.015625)"/>
       </defs>
       <use xlink:href="#ArialMT-32"/>
       <use xlink:href="#ArialMT-30" x="55.615234"/>
       <use xlink:href="#ArialMT-32" x="111.230469"/>
       <use xlink:href="#ArialMT-33" x="166.845703"/>
       <use xlink:href="#ArialMT-2d" x="222.460938"/>
       <use xlink:href="#ArialMT-30" x="255.761719"/>
       <use xlink:href="#ArialMT-37" x="311.376953"/>
       <use xlink:href="#ArialMT-2d" x="366.992188"/>
       <use xlink:href="#ArialMT-31" x="400.292969"/>
       <use xlink:href="#ArialMT-31" x="448.533203"/>
      </g>
     </g>
    </g>
    <g id="xtick_8">
     <g id="line2d_8">
      <path d="M 492.284868 342.205107 
L 492.284868 24.8475 
" clip-path="url(#pe1e3d0aca6)" style="fill: none; stroke-dasharray: 3.7,1.6; stroke-dashoffset: 0; stroke: #cccccc; stroke-opacity: 0.7"/>
     </g>
     <g id="text_8">
      <!-- 2023-08-12 -->
      <g style="fill: #262626" transform="translate(474.404182 397.055511) rotate(-45) scale(0.11 -0.11)">
       <defs>
        <path id="ArialMT-38" d="M 1131 2484 
Q 781 2613 612 2850 
Q 444 3088 444 3419 
Q 444 3919 803 4259 
Q 1163 4600 1759 4600 
Q 2359 4600 2725 4251 
Q 3091 3903 3091 3403 
Q 3091 3084 2923 2848 
Q 2756 2613 2416 2484 
Q 2838 2347 3058 2040 
Q 3278 1734 3278 1309 
Q 3278 722 2862 322 
Q 2447 -78 1769 -78 
Q 1091 -78 675 323 
Q 259 725 259 1325 
Q 259 1772 486 2073 
Q 713 2375 1131 2484 
z
M 1019 3438 
Q 1019 3113 1228 2906 
Q 1438 2700 1772 2700 
Q 2097 2700 2305 2904 
Q 2513 3109 2513 3406 
Q 2513 3716 2298 3927 
Q 2084 4138 1766 4138 
Q 1444 4138 1231 3931 
Q 1019 3725 1019 3438 
z
M 838 1322 
Q 838 1081 952 856 
Q 1066 631 1291 507 
Q 1516 384 1775 384 
Q 2178 384 2440 643 
Q 2703 903 2703 1303 
Q 2703 1709 2433 1975 
Q 2163 2241 1756 2241 
Q 1359 2241 1098 1978 
Q 838 1716 838 1322 
z
" transform="scale(0.015625)"/>
       </defs>
       <use xlink:href="#ArialMT-32"/>
       <use xlink:href="#ArialMT-30" x="55.615234"/>
       <use xlink:href="#ArialMT-32" x="111.230469"/>
       <use xlink:href="#ArialMT-33" x="166.845703"/>
       <use xlink:href="#ArialMT-2d" x="222.460938"/>
       <use xlink:href="#ArialMT-30" x="255.761719"/>
       <use xlink:href="#ArialMT-38" x="311.376953"/>
       <use xlink:href="#ArialMT-2d" x="366.992188"/>
       <use xlink:href="#ArialMT-31" x="400.292969"/>
       <use xlink:href="#ArialMT-32" x="455.908203"/>
      </g>
     </g>
    </g>
    <g id="xtick_9">
     <g id="line2d_9">
      <path d="M 550.814797 342.205107 
L 550.814797 24.8475 
" clip-path="url(#pe1e3d0aca6)" style="fill: none; stroke-dasharray: 3.7,1.6; stroke-dashoffset: 0; stroke: #cccccc; stroke-opacity: 0.7"/>
     </g>
     <g id="text_9">
      <!-- 2023-09-12 -->
      <g style="fill: #262626" transform="translate(532.93411 397.055511) rotate(-45) scale(0.11 -0.11)">
       <defs>
        <path id="ArialMT-39" d="M 350 1059 
L 891 1109 
Q 959 728 1153 556 
Q 1347 384 1650 384 
Q 1909 384 2104 503 
Q 2300 622 2425 820 
Q 2550 1019 2634 1356 
Q 2719 1694 2719 2044 
Q 2719 2081 2716 2156 
Q 2547 1888 2255 1720 
Q 1963 1553 1622 1553 
Q 1053 1553 659 1965 
Q 266 2378 266 3053 
Q 266 3750 677 4175 
Q 1088 4600 1706 4600 
Q 2153 4600 2523 4359 
Q 2894 4119 3086 3673 
Q 3278 3228 3278 2384 
Q 3278 1506 3087 986 
Q 2897 466 2520 194 
Q 2144 -78 1638 -78 
Q 1100 -78 759 220 
Q 419 519 350 1059 
z
M 2653 3081 
Q 2653 3566 2395 3850 
Q 2138 4134 1775 4134 
Q 1400 4134 1122 3828 
Q 844 3522 844 3034 
Q 844 2597 1108 2323 
Q 1372 2050 1759 2050 
Q 2150 2050 2401 2323 
Q 2653 2597 2653 3081 
z
" transform="scale(0.015625)"/>
       </defs>
       <use xlink:href="#ArialMT-32"/>
       <use xlink:href="#ArialMT-30" x="55.615234"/>
       <use xlink:href="#ArialMT-32" x="111.230469"/>
       <use xlink:href="#ArialMT-33" x="166.845703"/>
       <use xlink:href="#ArialMT-2d" x="222.460938"/>
       <use xlink:href="#ArialMT-30" x="255.761719"/>
       <use xlink:href="#ArialMT-39" x="311.376953"/>
       <use xlink:href="#ArialMT-2d" x="366.992188"/>
       <use xlink:href="#ArialMT-31" x="400.292969"/>
       <use xlink:href="#ArialMT-32" x="455.908203"/>
      </g>
     </g>
    </g>
    <g id="xtick_10">
     <g id="line2d_10">
      <path d="M 607.456663 342.205107 
L 607.456663 24.8475 
" clip-path="url(#pe1e3d0aca6)" style="fill: none; stroke-dasharray: 3.7,1.6; stroke-dashoffset: 0; stroke: #cccccc; stroke-opacity: 0.7"/>
     </g>
     <g id="text_10">
      <!-- 2023-10-14 -->
      <g style="fill: #262626" transform="translate(589.575976 397.055511) rotate(-45) scale(0.11 -0.11)">
       <use xlink:href="#ArialMT-32"/>
       <use xlink:href="#ArialMT-30" x="55.615234"/>
       <use xlink:href="#ArialMT-32" x="111.230469"/>
       <use xlink:href="#ArialMT-33" x="166.845703"/>
       <use xlink:href="#ArialMT-2d" x="222.460938"/>
       <use xlink:href="#ArialMT-31" x="255.761719"/>
       <use xlink:href="#ArialMT-30" x="311.376953"/>
       <use xlink:href="#ArialMT-2d" x="366.992188"/>
       <use xlink:href="#ArialMT-31" x="400.292969"/>
       <use xlink:href="#ArialMT-34" x="455.908203"/>
      </g>
     </g>
    </g>
    <g id="xtick_11">
     <g id="line2d_11">
      <path d="M 665.986591 342.205107 
L 665.986591 24.8475 
" clip-path="url(#pe1e3d0aca6)" style="fill: none; stroke-dasharray: 3.7,1.6; stroke-dashoffset: 0; stroke: #cccccc; stroke-opacity: 0.7"/>
     </g>
     <g id="text_11">
      <!-- 2023-11-14 -->
      <g style="fill: #262626" transform="translate(648.392725 396.481871) rotate(-45) scale(0.11 -0.11)">
       <use xlink:href="#ArialMT-32"/>
       <use xlink:href="#ArialMT-30" x="55.615234"/>
       <use xlink:href="#ArialMT-32" x="111.230469"/>
       <use xlink:href="#ArialMT-33" x="166.845703"/>
       <use xlink:href="#ArialMT-2d" x="222.460938"/>
       <use xlink:href="#ArialMT-31" x="255.761719"/>
       <use xlink:href="#ArialMT-31" x="304.001953"/>
       <use xlink:href="#ArialMT-2d" x="359.617188"/>
       <use xlink:href="#ArialMT-31" x="392.917969"/>
       <use xlink:href="#ArialMT-34" x="448.533203"/>
      </g>
     </g>
    </g>
    <g id="xtick_12">
     <g id="line2d_12">
      <path d="M 722.628457 342.205107 
L 722.628457 24.8475 
" clip-path="url(#pe1e3d0aca6)" style="fill: none; stroke-dasharray: 3.7,1.6; stroke-dashoffset: 0; stroke: #cccccc; stroke-opacity: 0.7"/>
     </g>
     <g id="text_12">
      <!-- 2023-12-14 -->
      <g style="fill: #262626" transform="translate(704.74777 397.055511) rotate(-45) scale(0.11 -0.11)">
       <use xlink:href="#ArialMT-32"/>
       <use xlink:href="#ArialMT-30" x="55.615234"/>
       <use xlink:href="#ArialMT-32" x="111.230469"/>
       <use xlink:href="#ArialMT-33" x="166.845703"/>
       <use xlink:href="#ArialMT-2d" x="222.460938"/>
       <use xlink:href="#ArialMT-31" x="255.761719"/>
       <use xlink:href="#ArialMT-32" x="311.376953"/>
       <use xlink:href="#ArialMT-2d" x="366.992188"/>
       <use xlink:href="#ArialMT-31" x="400.292969"/>
       <use xlink:href="#ArialMT-34" x="455.908203"/>
      </g>
     </g>
    </g>
    <g id="xtick_13">
     <g id="line2d_13">
      <path d="M 781.158385 342.205107 
L 781.158385 24.8475 
" clip-path="url(#pe1e3d0aca6)" style="fill: none; stroke-dasharray: 3.7,1.6; stroke-dashoffset: 0; stroke: #cccccc; stroke-opacity: 0.7"/>
     </g>
     <g id="text_13">
      <!-- 2024-01-16 -->
      <g style="fill: #262626" transform="translate(763.277699 397.055511) rotate(-45) scale(0.11 -0.11)">
       <use xlink:href="#ArialMT-32"/>
       <use xlink:href="#ArialMT-30" x="55.615234"/>
       <use xlink:href="#ArialMT-32" x="111.230469"/>
       <use xlink:href="#ArialMT-34" x="166.845703"/>
       <use xlink:href="#ArialMT-2d" x="222.460938"/>
       <use xlink:href="#ArialMT-30" x="255.761719"/>
       <use xlink:href="#ArialMT-31" x="311.376953"/>
       <use xlink:href="#ArialMT-2d" x="366.992188"/>
       <use xlink:href="#ArialMT-31" x="400.292969"/>
       <use xlink:href="#ArialMT-36" x="455.908203"/>
      </g>
     </g>
    </g>
    <g id="xtick_14">
     <g id="line2d_14">
      <path d="M 839.688313 342.205107 
L 839.688313 24.8475 
" clip-path="url(#pe1e3d0aca6)" style="fill: none; stroke-dasharray: 3.7,1.6; stroke-dashoffset: 0; stroke: #cccccc; stroke-opacity: 0.7"/>
     </g>
    </g>
    <g id="text_14">
     <!-- Fecha -->
     <g style="fill: #262626" transform="translate(434.073125 411.190798) scale(0.12 -0.12)">
      <defs>
       <path id="ArialMT-46" d="M 525 0 
L 525 4581 
L 3616 4581 
L 3616 4041 
L 1131 4041 
L 1131 2622 
L 3281 2622 
L 3281 2081 
L 1131 2081 
L 1131 0 
L 525 0 
z
" transform="scale(0.015625)"/>
       <path id="ArialMT-65" d="M 2694 1069 
L 3275 997 
Q 3138 488 2766 206 
Q 2394 -75 1816 -75 
Q 1088 -75 661 373 
Q 234 822 234 1631 
Q 234 2469 665 2931 
Q 1097 3394 1784 3394 
Q 2450 3394 2872 2941 
Q 3294 2488 3294 1666 
Q 3294 1616 3291 1516 
L 816 1516 
Q 847 969 1125 678 
Q 1403 388 1819 388 
Q 2128 388 2347 550 
Q 2566 713 2694 1069 
z
M 847 1978 
L 2700 1978 
Q 2663 2397 2488 2606 
Q 2219 2931 1791 2931 
Q 1403 2931 1139 2672 
Q 875 2413 847 1978 
z
" transform="scale(0.015625)"/>
       <path id="ArialMT-63" d="M 2588 1216 
L 3141 1144 
Q 3050 572 2676 248 
Q 2303 -75 1759 -75 
Q 1078 -75 664 370 
Q 250 816 250 1647 
Q 250 2184 428 2587 
Q 606 2991 970 3192 
Q 1334 3394 1763 3394 
Q 2303 3394 2647 3120 
Q 2991 2847 3088 2344 
L 2541 2259 
Q 2463 2594 2264 2762 
Q 2066 2931 1784 2931 
Q 1359 2931 1093 2626 
Q 828 2322 828 1663 
Q 828 994 1084 691 
Q 1341 388 1753 388 
Q 2084 388 2306 591 
Q 2528 794 2588 1216 
z
" transform="scale(0.015625)"/>
       <path id="ArialMT-68" d="M 422 0 
L 422 4581 
L 984 4581 
L 984 2938 
Q 1378 3394 1978 3394 
Q 2347 3394 2619 3248 
Q 2891 3103 3008 2847 
Q 3125 2591 3125 2103 
L 3125 0 
L 2563 0 
L 2563 2103 
Q 2563 2525 2380 2717 
Q 2197 2909 1863 2909 
Q 1613 2909 1392 2779 
Q 1172 2650 1078 2428 
Q 984 2206 984 1816 
L 984 0 
L 422 0 
z
" transform="scale(0.015625)"/>
       <path id="ArialMT-61" d="M 2588 409 
Q 2275 144 1986 34 
Q 1697 -75 1366 -75 
Q 819 -75 525 192 
Q 231 459 231 875 
Q 231 1119 342 1320 
Q 453 1522 633 1644 
Q 813 1766 1038 1828 
Q 1203 1872 1538 1913 
Q 2219 1994 2541 2106 
Q 2544 2222 2544 2253 
Q 2544 2597 2384 2738 
Q 2169 2928 1744 2928 
Q 1347 2928 1158 2789 
Q 969 2650 878 2297 
L 328 2372 
Q 403 2725 575 2942 
Q 747 3159 1072 3276 
Q 1397 3394 1825 3394 
Q 2250 3394 2515 3294 
Q 2781 3194 2906 3042 
Q 3031 2891 3081 2659 
Q 3109 2516 3109 2141 
L 3109 1391 
Q 3109 606 3145 398 
Q 3181 191 3288 0 
L 2700 0 
Q 2613 175 2588 409 
z
M 2541 1666 
Q 2234 1541 1622 1453 
Q 1275 1403 1131 1340 
Q 988 1278 909 1158 
Q 831 1038 831 891 
Q 831 666 1001 516 
Q 1172 366 1500 366 
Q 1825 366 2078 508 
Q 2331 650 2450 897 
Q 2541 1088 2541 1459 
L 2541 1666 
z
" transform="scale(0.015625)"/>
      </defs>
      <use xlink:href="#ArialMT-46"/>
      <use xlink:href="#ArialMT-65" x="61.083984"/>
      <use xlink:href="#ArialMT-63" x="116.699219"/>
      <use xlink:href="#ArialMT-68" x="166.699219"/>
      <use xlink:href="#ArialMT-61" x="222.314453"/>
     </g>
    </g>
   </g>
   <g id="matplotlib.axis_2">
    <g id="ytick_1">
     <g id="line2d_15">
      <path d="M 56.1425 328.242112 
L 845.3525 328.242112 
" clip-path="url(#pe1e3d0aca6)" style="fill: none; stroke-dasharray: 3.7,1.6; stroke-dashoffset: 0; stroke: #cccccc; stroke-opacity: 0.7"/>
     </g>
     <g id="text_15">
      <!-- 0 -->
      <g style="fill: #262626" transform="translate(40.525469 332.178909) scale(0.11 -0.11)">
       <use xlink:href="#ArialMT-30"/>
      </g>
     </g>
    </g>
    <g id="ytick_2">
     <g id="line2d_16">
      <path d="M 56.1425 289.712877 
L 845.3525 289.712877 
" clip-path="url(#pe1e3d0aca6)" style="fill: none; stroke-dasharray: 3.7,1.6; stroke-dashoffset: 0; stroke: #cccccc; stroke-opacity: 0.7"/>
     </g>
     <g id="text_16">
      <!-- 250 -->
      <g style="fill: #262626" transform="translate(28.291406 293.649674) scale(0.11 -0.11)">
       <use xlink:href="#ArialMT-32"/>
       <use xlink:href="#ArialMT-35" x="55.615234"/>
       <use xlink:href="#ArialMT-30" x="111.230469"/>
      </g>
     </g>
    </g>
    <g id="ytick_3">
     <g id="line2d_17">
      <path d="M 56.1425 251.183641 
L 845.3525 251.183641 
" clip-path="url(#pe1e3d0aca6)" style="fill: none; stroke-dasharray: 3.7,1.6; stroke-dashoffset: 0; stroke: #cccccc; stroke-opacity: 0.7"/>
     </g>
     <g id="text_17">
      <!-- 500 -->
      <g style="fill: #262626" transform="translate(28.291406 255.120438) scale(0.11 -0.11)">
       <use xlink:href="#ArialMT-35"/>
       <use xlink:href="#ArialMT-30" x="55.615234"/>
       <use xlink:href="#ArialMT-30" x="111.230469"/>
      </g>
     </g>
    </g>
    <g id="ytick_4">
     <g id="line2d_18">
      <path d="M 56.1425 212.654406 
L 845.3525 212.654406 
" clip-path="url(#pe1e3d0aca6)" style="fill: none; stroke-dasharray: 3.7,1.6; stroke-dashoffset: 0; stroke: #cccccc; stroke-opacity: 0.7"/>
     </g>
     <g id="text_18">
      <!-- 750 -->
      <g style="fill: #262626" transform="translate(28.291406 216.591203) scale(0.11 -0.11)">
       <use xlink:href="#ArialMT-37"/>
       <use xlink:href="#ArialMT-35" x="55.615234"/>
       <use xlink:href="#ArialMT-30" x="111.230469"/>
      </g>
     </g>
    </g>
    <g id="ytick_5">
     <g id="line2d_19">
      <path d="M 56.1425 174.12517 
L 845.3525 174.12517 
" clip-path="url(#pe1e3d0aca6)" style="fill: none; stroke-dasharray: 3.7,1.6; stroke-dashoffset: 0; stroke: #cccccc; stroke-opacity: 0.7"/>
     </g>
     <g id="text_19">
      <!-- 1000 -->
      <g style="fill: #262626" transform="translate(22.174375 178.061967) scale(0.11 -0.11)">
       <use xlink:href="#ArialMT-31"/>
       <use xlink:href="#ArialMT-30" x="55.615234"/>
       <use xlink:href="#ArialMT-30" x="111.230469"/>
       <use xlink:href="#ArialMT-30" x="166.845703"/>
      </g>
     </g>
    </g>
    <g id="ytick_6">
     <g id="line2d_20">
      <path d="M 56.1425 135.595935 
L 845.3525 135.595935 
" clip-path="url(#pe1e3d0aca6)" style="fill: none; stroke-dasharray: 3.7,1.6; stroke-dashoffset: 0; stroke: #cccccc; stroke-opacity: 0.7"/>
     </g>
     <g id="text_20">
      <!-- 1250 -->
      <g style="fill: #262626" transform="translate(22.174375 139.532731) scale(0.11 -0.11)">
       <use xlink:href="#ArialMT-31"/>
       <use xlink:href="#ArialMT-32" x="55.615234"/>
       <use xlink:href="#ArialMT-35" x="111.230469"/>
       <use xlink:href="#ArialMT-30" x="166.845703"/>
      </g>
     </g>
    </g>
    <g id="ytick_7">
     <g id="line2d_21">
      <path d="M 56.1425 97.066699 
L 845.3525 97.066699 
" clip-path="url(#pe1e3d0aca6)" style="fill: none; stroke-dasharray: 3.7,1.6; stroke-dashoffset: 0; stroke: #cccccc; stroke-opacity: 0.7"/>
     </g>
     <g id="text_21">
      <!-- 1500 -->
      <g style="fill: #262626" transform="translate(22.174375 101.003496) scale(0.11 -0.11)">
       <use xlink:href="#ArialMT-31"/>
       <use xlink:href="#ArialMT-35" x="55.615234"/>
       <use xlink:href="#ArialMT-30" x="111.230469"/>
       <use xlink:href="#ArialMT-30" x="166.845703"/>
      </g>
     </g>
    </g>
    <g id="ytick_8">
     <g id="line2d_22">
      <path d="M 56.1425 58.537464 
L 845.3525 58.537464 
" clip-path="url(#pe1e3d0aca6)" style="fill: none; stroke-dasharray: 3.7,1.6; stroke-dashoffset: 0; stroke: #cccccc; stroke-opacity: 0.7"/>
     </g>
     <g id="text_22">
      <!-- 1750 -->
      <g style="fill: #262626" transform="translate(22.174375 62.47426) scale(0.11 -0.11)">
       <use xlink:href="#ArialMT-31"/>
       <use xlink:href="#ArialMT-37" x="55.615234"/>
       <use xlink:href="#ArialMT-35" x="111.230469"/>
       <use xlink:href="#ArialMT-30" x="166.845703"/>
      </g>
     </g>
    </g>
    <g id="text_23">
     <!-- Número de Personas -->
     <g style="fill: #262626" transform="translate(15.789375 240.217866) rotate(-90) scale(0.12 -0.12)">
      <defs>
       <path id="ArialMT-4e" d="M 488 0 
L 488 4581 
L 1109 4581 
L 3516 984 
L 3516 4581 
L 4097 4581 
L 4097 0 
L 3475 0 
L 1069 3600 
L 1069 0 
L 488 0 
z
" transform="scale(0.015625)"/>
       <path id="ArialMT-fa" d="M 2597 0 
L 2597 488 
Q 2209 -75 1544 -75 
Q 1250 -75 995 37 
Q 741 150 617 320 
Q 494 491 444 738 
Q 409 903 409 1263 
L 409 3319 
L 972 3319 
L 972 1478 
Q 972 1038 1006 884 
Q 1059 663 1231 536 
Q 1403 409 1656 409 
Q 1909 409 2131 539 
Q 2353 669 2445 892 
Q 2538 1116 2538 1541 
L 2538 3319 
L 3100 3319 
L 3100 0 
L 2597 0 
z
M 1414 3731 
L 1829 4606 
L 2567 4606 
L 1879 3731 
L 1414 3731 
z
" transform="scale(0.015625)"/>
       <path id="ArialMT-6d" d="M 422 0 
L 422 3319 
L 925 3319 
L 925 2853 
Q 1081 3097 1340 3245 
Q 1600 3394 1931 3394 
Q 2300 3394 2536 3241 
Q 2772 3088 2869 2813 
Q 3263 3394 3894 3394 
Q 4388 3394 4653 3120 
Q 4919 2847 4919 2278 
L 4919 0 
L 4359 0 
L 4359 2091 
Q 4359 2428 4304 2576 
Q 4250 2725 4106 2815 
Q 3963 2906 3769 2906 
Q 3419 2906 3187 2673 
Q 2956 2441 2956 1928 
L 2956 0 
L 2394 0 
L 2394 2156 
Q 2394 2531 2256 2718 
Q 2119 2906 1806 2906 
Q 1569 2906 1367 2781 
Q 1166 2656 1075 2415 
Q 984 2175 984 1722 
L 984 0 
L 422 0 
z
" transform="scale(0.015625)"/>
       <path id="ArialMT-72" d="M 416 0 
L 416 3319 
L 922 3319 
L 922 2816 
Q 1116 3169 1280 3281 
Q 1444 3394 1641 3394 
Q 1925 3394 2219 3213 
L 2025 2691 
Q 1819 2813 1613 2813 
Q 1428 2813 1281 2702 
Q 1134 2591 1072 2394 
Q 978 2094 978 1738 
L 978 0 
L 416 0 
z
" transform="scale(0.015625)"/>
       <path id="ArialMT-6f" d="M 213 1659 
Q 213 2581 725 3025 
Q 1153 3394 1769 3394 
Q 2453 3394 2887 2945 
Q 3322 2497 3322 1706 
Q 3322 1066 3130 698 
Q 2938 331 2570 128 
Q 2203 -75 1769 -75 
Q 1072 -75 642 372 
Q 213 819 213 1659 
z
M 791 1659 
Q 791 1022 1069 705 
Q 1347 388 1769 388 
Q 2188 388 2466 706 
Q 2744 1025 2744 1678 
Q 2744 2294 2464 2611 
Q 2184 2928 1769 2928 
Q 1347 2928 1069 2612 
Q 791 2297 791 1659 
z
" transform="scale(0.015625)"/>
       <path id="ArialMT-20" transform="scale(0.015625)"/>
       <path id="ArialMT-64" d="M 2575 0 
L 2575 419 
Q 2259 -75 1647 -75 
Q 1250 -75 917 144 
Q 584 363 401 755 
Q 219 1147 219 1656 
Q 219 2153 384 2558 
Q 550 2963 881 3178 
Q 1213 3394 1622 3394 
Q 1922 3394 2156 3267 
Q 2391 3141 2538 2938 
L 2538 4581 
L 3097 4581 
L 3097 0 
L 2575 0 
z
M 797 1656 
Q 797 1019 1065 703 
Q 1334 388 1700 388 
Q 2069 388 2326 689 
Q 2584 991 2584 1609 
Q 2584 2291 2321 2609 
Q 2059 2928 1675 2928 
Q 1300 2928 1048 2622 
Q 797 2316 797 1656 
z
" transform="scale(0.015625)"/>
       <path id="ArialMT-50" d="M 494 0 
L 494 4581 
L 2222 4581 
Q 2678 4581 2919 4538 
Q 3256 4481 3484 4323 
Q 3713 4166 3852 3881 
Q 3991 3597 3991 3256 
Q 3991 2672 3619 2267 
Q 3247 1863 2275 1863 
L 1100 1863 
L 1100 0 
L 494 0 
z
M 1100 2403 
L 2284 2403 
Q 2872 2403 3119 2622 
Q 3366 2841 3366 3238 
Q 3366 3525 3220 3729 
Q 3075 3934 2838 4000 
Q 2684 4041 2272 4041 
L 1100 4041 
L 1100 2403 
z
" transform="scale(0.015625)"/>
       <path id="ArialMT-73" d="M 197 991 
L 753 1078 
Q 800 744 1014 566 
Q 1228 388 1613 388 
Q 2000 388 2187 545 
Q 2375 703 2375 916 
Q 2375 1106 2209 1216 
Q 2094 1291 1634 1406 
Q 1016 1563 777 1677 
Q 538 1791 414 1992 
Q 291 2194 291 2438 
Q 291 2659 392 2848 
Q 494 3038 669 3163 
Q 800 3259 1026 3326 
Q 1253 3394 1513 3394 
Q 1903 3394 2198 3281 
Q 2494 3169 2634 2976 
Q 2775 2784 2828 2463 
L 2278 2388 
Q 2241 2644 2061 2787 
Q 1881 2931 1553 2931 
Q 1166 2931 1000 2803 
Q 834 2675 834 2503 
Q 834 2394 903 2306 
Q 972 2216 1119 2156 
Q 1203 2125 1616 2013 
Q 2213 1853 2448 1751 
Q 2684 1650 2818 1456 
Q 2953 1263 2953 975 
Q 2953 694 2789 445 
Q 2625 197 2315 61 
Q 2006 -75 1616 -75 
Q 969 -75 630 194 
Q 291 463 197 991 
z
" transform="scale(0.015625)"/>
       <path id="ArialMT-6e" d="M 422 0 
L 422 3319 
L 928 3319 
L 928 2847 
Q 1294 3394 1984 3394 
Q 2284 3394 2536 3286 
Q 2788 3178 2913 3003 
Q 3038 2828 3088 2588 
Q 3119 2431 3119 2041 
L 3119 0 
L 2556 0 
L 2556 2019 
Q 2556 2363 2490 2533 
Q 2425 2703 2258 2804 
Q 2091 2906 1866 2906 
Q 1506 2906 1245 2678 
Q 984 2450 984 1813 
L 984 0 
L 422 0 
z
" transform="scale(0.015625)"/>
      </defs>
      <use xlink:href="#ArialMT-4e"/>
      <use xlink:href="#ArialMT-fa" x="72.216797"/>
      <use xlink:href="#ArialMT-6d" x="127.832031"/>
      <use xlink:href="#ArialMT-65" x="211.132812"/>
      <use xlink:href="#ArialMT-72" x="266.748047"/>
      <use xlink:href="#ArialMT-6f" x="300.048828"/>
      <use xlink:href="#ArialMT-20" x="355.664062"/>
      <use xlink:href="#ArialMT-64" x="383.447266"/>
      <use xlink:href="#ArialMT-65" x="439.0625"/>
      <use xlink:href="#ArialMT-20" x="494.677734"/>
      <use xlink:href="#ArialMT-50" x="522.460938"/>
      <use xlink:href="#ArialMT-65" x="589.160156"/>
      <use xlink:href="#ArialMT-72" x="644.775391"/>
      <use xlink:href="#ArialMT-73" x="678.076172"/>
      <use xlink:href="#ArialMT-6f" x="728.076172"/>
      <use xlink:href="#ArialMT-6e" x="783.691406"/>
      <use xlink:href="#ArialMT-61" x="839.306641"/>
      <use xlink:href="#ArialMT-73" x="894.921875"/>
     </g>
    </g>
   </g>
   <g id="line2d_23">
    <path d="M 92.015682 316.991575 
L 93.903744 152.394681 
L 95.791806 105.234897 
L 97.679868 120.492474 
L 99.567931 133.592414 
L 101.455993 39.272846 
L 103.344055 94.909062 
L 105.232117 130.664192 
L 107.120179 137.445338 
L 109.008242 115.560732 
L 110.896304 128.044204 
L 112.784366 191.540385 
L 114.672428 121.879527 
L 116.56049 126.194801 
L 118.448553 169.039311 
L 120.336615 170.734597 
L 122.224677 153.165266 
L 124.112739 151.007629 
L 126.000801 182.139251 
L 127.888864 116.331317 
L 129.776926 121.417176 
L 131.664988 265.054166 
L 133.55305 138.215923 
L 135.441112 131.588894 
L 137.329175 136.520636 
L 139.217237 169.964013 
L 141.105299 140.990028 
L 142.993361 142.531197 
L 144.881423 192.619203 
L 146.769486 224.059059 
L 148.657548 249.796589 
L 150.54561 283.394082 
L 152.433672 281.698796 
L 154.321734 282.315263 
L 156.209797 254.882448 
L 158.097859 184.605122 
L 159.985921 99.840804 
L 161.873983 107.392534 
L 163.762045 143.918249 
L 165.650108 152.394681 
L 167.53817 88.744384 
L 169.426232 155.322903 
L 171.314294 176.436924 
L 173.202356 173.816936 
L 175.090419 147.462939 
L 176.978481 151.007629 
L 178.866543 199.400349 
L 180.754605 135.441818 
L 182.642667 119.567773 
L 186.418792 155.47702 
L 188.306854 158.559359 
L 190.194916 167.806376 
L 192.082978 205.87326 
L 193.971041 144.534717 
L 195.859103 172.275767 
L 197.747165 173.046352 
L 199.635227 180.906316 
L 201.523289 157.326423 
L 203.411352 161.949932 
L 205.299414 189.382747 
L 207.187476 134.671233 
L 209.075538 148.233524 
L 210.9636 133.438297 
L 212.851663 110.62899 
L 214.739725 140.065326 
L 216.627787 151.93233 
L 218.515849 179.056912 
L 220.403911 129.123023 
L 222.291974 152.857032 
L 224.180036 161.333464 
L 226.068098 195.085074 
L 227.95616 176.899275 
L 229.844222 188.612163 
L 231.732285 217.277914 
L 233.620347 179.981614 
L 235.508409 181.985134 
L 237.396471 196.31801 
L 239.284533 194.930957 
L 241.172596 148.233524 
L 243.060658 165.340504 
L 244.94872 212.037938 
L 246.836782 114.17368 
L 248.724844 157.326423 
L 250.612907 177.053392 
L 252.500969 204.486208 
L 254.389031 248.409536 
L 256.277093 227.757866 
L 258.165156 241.782508 
L 260.053218 144.3806 
L 261.94128 173.200468 
L 263.829342 188.458046 
L 265.717404 183.834537 
L 267.605467 148.849992 
L 269.493529 219.589668 
L 271.381591 217.277914 
L 273.269653 98.299635 
L 275.157715 135.750052 
L 277.045778 148.387641 
L 278.93384 150.391161 
L 280.821902 168.57696 
L 282.709964 169.964013 
L 284.598026 198.475647 
L 286.486089 164.261686 
L 288.374151 183.21807 
L 290.262213 192.465086 
L 292.150275 194.930957 
L 294.038337 166.57344 
L 295.9264 156.401722 
L 297.814462 179.981614 
L 301.590586 136.058285 
L 305.366711 195.085074 
L 307.254773 175.66634 
L 309.142835 161.333464 
L 311.030897 181.060433 
L 312.918959 121.879527 
L 314.807022 177.207509 
L 316.695084 182.139251 
L 318.583146 157.788774 
L 320.471208 142.222963 
L 322.35927 165.340504 
L 324.247333 195.855659 
L 326.135395 70.712702 
L 328.023457 65.010375 
L 329.911519 143.918249 
L 331.799581 166.881674 
L 333.687644 144.842951 
L 335.575706 139.448858 
L 337.463768 195.239191 
L 339.35183 153.165266 
L 341.239892 182.139251 
L 343.127955 181.214549 
L 345.016017 214.812043 
L 346.904079 184.451005 
L 348.792141 181.831017 
L 350.680203 213.42499 
L 352.568266 176.899275 
L 354.456328 203.253272 
L 356.34439 166.265206 
L 358.232452 163.336984 
L 360.120514 164.107569 
L 362.008577 171.967533 
L 363.896639 184.913356 
L 365.784701 143.455899 
L 367.672763 158.559359 
L 369.560825 197.088595 
L 371.448888 202.328571 
L 373.33695 190.615683 
L 375.225012 181.060433 
L 377.113074 192.619203 
L 379.001136 142.685314 
L 380.889199 184.605122 
L 382.777261 172.738118 
L 384.665323 145.151185 
L 386.553385 77.185614 
L 388.441447 112.940744 
L 390.32951 177.978094 
L 392.217572 98.299635 
L 394.105634 164.56992 
L 395.993696 161.949932 
L 397.881758 164.107569 
L 399.769821 175.512223 
L 401.657883 163.799335 
L 403.545945 188.303929 
L 405.434007 146.230004 
L 407.322069 190.7698 
L 409.210132 186.300409 
L 411.098194 206.489728 
L 412.986256 124.345398 
L 414.874318 128.044204 
L 416.76238 155.322903 
L 418.650443 112.478393 
L 420.538505 141.452378 
L 422.426567 178.132211 
L 424.314629 165.494621 
L 426.202691 185.067473 
L 428.090754 158.097008 
L 429.978816 195.239191 
L 431.866878 126.194801 
L 433.75494 172.275767 
L 435.643002 156.864073 
L 437.531065 177.207509 
L 439.419127 129.585374 
L 441.307189 123.266579 
L 443.195251 125.73245 
L 445.083313 56.071592 
L 446.971376 111.707809 
L 448.859438 144.072366 
L 450.7475 141.144145 
L 452.635562 179.056912 
L 454.523624 207.568547 
L 456.411687 171.351065 
L 458.299749 176.12869 
L 460.187811 200.633284 
L 462.075873 214.195575 
L 463.963935 189.845098 
L 465.851998 187.22511 
L 467.74006 204.794442 
L 469.628122 142.993548 
L 471.516184 138.524157 
L 473.404246 158.097008 
L 475.292309 180.443965 
L 477.180371 191.540385 
L 479.068433 183.372187 
L 480.956495 218.819083 
L 482.844557 147.154705 
L 484.73262 220.51437 
L 486.620682 197.859179 
L 488.508744 193.543905 
L 490.396806 190.923917 
L 492.284868 178.286328 
L 494.172931 201.095635 
L 496.060993 136.366519 
L 497.949055 118.026603 
L 499.837117 113.711329 
L 501.725179 130.355959 
L 503.613242 177.053392 
L 505.501304 143.147665 
L 507.389366 175.203989 
L 509.277428 127.735971 
L 511.16549 175.512223 
L 513.053553 198.475647 
L 514.941615 214.503809 
L 516.829677 162.566399 
L 518.717739 164.415803 
L 520.605801 194.622723 
L 522.493864 171.042831 
L 524.381926 202.328571 
L 526.269988 171.659299 
L 528.15805 187.687461 
L 530.046112 136.82887 
L 531.934175 163.645218 
L 533.822237 206.643845 
L 535.710299 139.602975 
L 537.598361 173.971053 
L 539.486423 165.494621 
L 541.374486 188.458046 
L 543.262548 183.680421 
L 545.15061 173.971053 
L 547.038672 203.86974 
L 548.926734 153.4735 
L 550.814797 164.107569 
L 552.702859 169.655779 
L 554.590921 165.186387 
L 556.478983 150.699395 
L 558.367045 138.83239 
L 560.255108 174.587521 
L 562.14317 129.27714 
L 564.031232 133.130064 
L 565.919294 147.617056 
L 567.807356 185.375707 
L 569.695419 166.881674 
L 571.583481 169.501662 
L 573.471543 203.86974 
L 575.359605 156.093488 
L 577.247667 180.135731 
L 579.13573 144.534717 
L 581.023792 143.610016 
L 582.911854 199.400349 
L 584.799916 115.868966 
L 586.687978 161.02523 
L 590.464103 183.063953 
L 592.352165 187.22511 
L 594.240227 188.76628 
L 596.128289 196.934478 
L 598.016352 160.254645 
L 599.904414 192.156852 
L 601.792476 195.239191 
L 603.680538 195.701542 
L 605.5686 187.841578 
L 607.456663 171.505182 
L 609.344725 183.526304 
L 611.232787 117.256018 
L 613.120849 159.02171 
L 615.008911 181.6769 
L 616.896974 177.823977 
L 618.785036 185.22159 
L 620.673098 170.888714 
L 622.56116 199.708583 
L 624.449222 157.172307 
L 626.337285 192.927437 
L 628.225347 206.027377 
L 630.113409 194.160373 
L 632.001471 179.211029 
L 633.889533 196.163893 
L 635.777596 203.099155 
L 637.665658 153.4735 
L 639.55372 164.261686 
L 641.441782 171.042831 
L 643.329844 237.775467 
L 645.217907 171.196948 
L 647.105969 177.053392 
L 648.994031 207.260313 
L 650.882093 170.272247 
L 652.770156 187.687461 
L 654.658218 192.465086 
L 656.54628 201.095635 
L 658.434342 163.02875 
L 660.322404 146.384121 
L 662.210467 221.593188 
L 664.098529 153.319383 
L 665.986591 170.58048 
L 667.874653 131.897128 
L 669.762715 118.488954 
L 671.650778 136.366519 
L 673.53884 132.975947 
L 675.426902 159.946411 
L 677.314964 135.595935 
L 681.091089 202.020337 
L 682.979151 194.468606 
L 684.867213 172.584001 
L 686.755275 180.289848 
L 688.643337 230.686088 
L 690.5314 173.046352 
L 692.419462 199.246232 
L 694.307524 202.636804 
L 696.195586 169.964013 
L 698.083648 170.11813 
L 699.971711 153.165266 
L 701.859773 192.465086 
L 703.747835 155.785254 
L 705.635897 162.720516 
L 707.523959 188.612163 
L 709.412022 197.242711 
L 711.300084 194.006256 
L 713.188146 167.035791 
L 715.076208 194.006256 
L 716.96427 152.394681 
L 718.852333 176.436924 
L 720.740395 172.275767 
L 722.628457 168.57696 
L 724.516519 117.872486 
L 726.404581 93.98436 
L 728.292644 155.785254 
L 730.180706 93.98436 
L 732.068768 112.63251 
L 733.95683 113.403095 
L 735.844892 146.846471 
L 737.732955 138.678273 
L 739.621017 122.187761 
L 741.509079 208.801482 
L 743.397141 138.678273 
L 745.285203 181.060433 
L 747.173266 165.802855 
L 749.061328 164.878154 
L 750.94939 113.094861 
L 752.837452 235.309596 
L 754.725514 148.541758 
L 756.613577 155.168786 
L 758.501639 168.268726 
L 760.389701 161.795815 
L 762.277763 182.601602 
L 764.165825 237.775467 
L 766.053888 171.967533 
L 767.94195 200.479167 
L 769.830012 203.715623 
L 771.718074 197.396828 
L 773.606136 187.995695 
L 775.494199 169.655779 
L 777.382261 219.743785 
L 779.270323 110.012522 
L 781.158385 110.62899 
L 783.046447 153.4735 
L 784.93451 172.275767 
L 786.822572 147.771173 
L 788.710634 132.82183 
L 790.598696 218.356733 
L 792.486758 156.401722 
L 794.374821 187.22511 
L 796.262883 199.400349 
L 798.150945 224.52141 
L 800.039007 184.296888 
L 801.927069 193.852139 
L 803.815132 236.080181 
L 805.703194 157.172307 
L 807.591256 175.049872 
L 809.479318 191.386268 
L 809.479318 191.386268 
" clip-path="url(#pe1e3d0aca6)" style="fill: none; stroke: #4c72b0; stroke-width: 2; stroke-linecap: round"/>
   </g>
   <g id="line2d_24">
    <path d="M 92.015682 306.819857 
L 93.903744 287.401123 
L 95.791806 259.81419 
L 97.679868 245.018964 
L 99.567931 275.225884 
L 101.455993 212.96264 
L 103.344055 278.770574 
L 105.232117 277.845872 
L 107.120179 276.150586 
L 109.008242 286.938772 
L 110.896304 237.313116 
L 112.784366 276.921171 
L 114.672428 260.584775 
L 116.56049 295.415204 
L 118.448553 276.767054 
L 120.336615 293.5658 
L 122.224677 273.222364 
L 124.112739 268.444739 
L 126.000801 292.641099 
L 127.888864 250.567173 
L 129.776926 271.372961 
L 131.664988 281.852913 
L 133.55305 242.090742 
L 135.441112 242.553092 
L 137.329175 257.656553 
L 139.217237 289.866994 
L 141.105299 284.935252 
L 142.993361 267.520037 
L 144.881423 284.935252 
L 146.769486 287.247006 
L 148.657548 277.691755 
L 150.54561 271.989428 
L 152.433672 287.401123 
L 154.321734 279.387042 
L 156.209797 292.024631 
L 158.097859 269.985908 
L 159.985921 226.679047 
L 161.873983 266.595335 
L 163.762045 276.45882 
L 165.650108 301.888115 
L 167.53817 259.351839 
L 169.426232 284.164667 
L 171.314294 280.774094 
L 173.202356 279.232925 
L 175.090419 278.46234 
L 176.978481 270.756493 
L 178.866543 292.949333 
L 180.754605 264.591815 
L 182.642667 258.273021 
L 184.53073 210.342652 
L 186.418792 240.857806 
L 188.306854 226.52493 
L 190.194916 250.413056 
L 192.082978 291.716397 
L 193.971041 251.645992 
L 195.859103 279.695275 
L 197.747165 273.222364 
L 199.635227 286.01407 
L 201.523289 270.756493 
L 203.411352 260.430658 
L 205.299414 294.182268 
L 207.187476 266.287102 
L 209.075538 264.129464 
L 210.9636 219.743785 
L 212.851663 234.539011 
L 214.739725 268.598856 
L 216.627787 245.789548 
L 218.515849 289.404643 
L 220.403911 269.985908 
L 222.291974 245.327197 
L 224.180036 287.092889 
L 226.068098 296.185788 
L 227.95616 291.716397 
L 229.844222 276.150586 
L 231.732285 299.730478 
L 233.620347 279.232925 
L 235.508409 294.182268 
L 237.396471 286.938772 
L 239.284533 286.322304 
L 241.172596 267.982388 
L 243.060658 241.011923 
L 244.94872 287.55524 
L 246.836782 220.822604 
L 248.724844 251.645992 
L 250.612907 265.824751 
L 252.500969 295.10697 
L 254.389031 303.429285 
L 256.277093 302.966934 
L 258.165156 310.518664 
L 260.053218 272.760013 
L 261.94128 288.634058 
L 263.829342 280.774094 
L 265.717404 280.311743 
L 267.605467 249.950706 
L 269.493529 238.083701 
L 271.381591 271.835311 
L 273.269653 234.384895 
L 275.157715 269.831791 
L 277.045778 268.136505 
L 278.93384 258.581254 
L 280.821902 252.570694 
L 282.709964 267.520037 
L 284.598026 292.486982 
L 286.486089 262.125944 
L 288.374151 285.089368 
L 290.262213 280.46586 
L 292.150275 284.164667 
L 294.038337 258.889488 
L 295.9264 237.775467 
L 297.814462 282.315263 
L 299.702524 282.777614 
L 301.590586 267.520037 
L 303.478648 236.080181 
L 305.366711 258.427137 
L 307.254773 260.893009 
L 309.142835 266.287102 
L 311.030897 291.870514 
L 312.918959 262.434178 
L 314.807022 261.971827 
L 316.695084 291.254046 
L 318.583146 267.520037 
L 320.471208 228.0661 
L 322.35927 256.423617 
L 324.247333 286.476421 
L 326.135395 182.139251 
L 328.023457 194.622723 
L 329.911519 248.255419 
L 331.799581 266.749452 
L 333.687644 255.653033 
L 335.575706 234.076661 
L 337.463768 296.648139 
L 339.35183 258.735371 
L 341.239892 285.243485 
L 343.127955 299.11401 
L 345.016017 298.959893 
L 346.904079 275.688235 
L 348.792141 254.420097 
L 350.680203 292.024631 
L 352.568266 261.663593 
L 354.456328 273.530598 
L 356.34439 265.978868 
L 358.232452 220.668487 
L 360.120514 227.295515 
L 362.008577 252.878928 
L 363.896639 286.476421 
L 365.784701 233.922544 
L 367.672763 275.996469 
L 369.560825 288.479941 
L 371.448888 283.085848 
L 373.33695 268.444739 
L 375.225012 271.835311 
L 377.113074 300.038712 
L 379.001136 265.824751 
L 380.889199 274.147066 
L 382.777261 288.634058 
L 384.665323 243.16956 
L 386.553385 224.829644 
L 388.441447 229.761386 
L 390.32951 299.576361 
L 392.217572 239.16252 
L 394.105634 264.129464 
L 395.993696 271.681194 
L 397.881758 288.479941 
L 399.769821 282.161147 
L 401.657883 318.995096 
L 403.545945 300.65518 
L 405.434007 273.992949 
L 407.322069 290.021111 
L 409.210132 295.261087 
L 411.098194 286.322304 
L 412.986256 251.954226 
L 414.874318 233.922544 
L 416.76238 299.422244 
L 418.650443 210.034418 
L 420.538505 253.495395 
L 422.426567 252.724811 
L 424.314629 255.961266 
L 426.202691 257.964787 
L 428.090754 269.523557 
L 429.978816 300.501063 
L 431.866878 262.896529 
L 433.75494 279.695275 
L 435.643002 267.520037 
L 437.531065 267.828271 
L 439.419127 247.638952 
L 441.307189 232.689608 
L 443.195251 279.849392 
L 445.083313 230.377854 
L 446.971376 258.427137 
L 448.859438 266.749452 
L 450.7475 244.556613 
L 452.635562 284.781135 
L 454.523624 296.802256 
L 456.411687 263.050646 
L 458.299749 282.00703 
L 460.187811 287.247006 
L 462.075873 282.777614 
L 463.963935 270.91061 
L 465.851998 269.36944 
L 467.74006 296.802256 
L 469.628122 248.71777 
L 471.516184 221.439071 
L 473.404246 244.556613 
L 475.292309 262.434178 
L 477.180371 263.667114 
L 479.068433 272.297662 
L 480.956495 293.5658 
L 482.844557 257.81067 
L 484.73262 282.931731 
L 486.620682 288.788175 
L 488.508744 284.318784 
L 490.396806 274.609416 
L 492.284868 257.81067 
L 494.172931 288.171707 
L 496.060993 241.16604 
L 497.949055 235.61783 
L 499.837117 244.402496 
L 501.725179 276.612937 
L 503.613242 255.344799 
L 505.501304 314.833938 
L 507.389366 324.389189 
L 509.277428 310.21043 
L 511.16549 324.235072 
L 513.053553 315.604523 
L 514.941615 311.905716 
L 516.829677 314.679821 
L 518.717739 279.387042 
L 520.605801 299.268127 
L 522.493864 284.627018 
L 524.381926 279.849392 
L 526.269988 278.154106 
L 528.15805 265.824751 
L 530.046112 206.643845 
L 531.934175 219.127317 
L 533.822237 281.082328 
L 535.710299 252.26246 
L 537.598361 275.534118 
L 539.486423 289.404643 
L 541.374486 282.161147 
L 543.262548 262.588295 
L 545.15061 270.91061 
L 547.038672 298.959893 
L 548.926734 255.807149 
L 550.814797 271.681194 
L 552.702859 266.287102 
L 554.590921 262.434178 
L 556.478983 228.0661 
L 558.367045 230.377854 
L 560.255108 291.254046 
L 562.14317 219.589668 
L 564.031232 258.427137 
L 565.919294 261.663593 
L 567.807356 273.530598 
L 569.695419 279.078808 
L 571.583481 261.047125 
L 573.471543 307.590442 
L 575.359605 269.677674 
L 577.247667 284.935252 
L 579.13573 321.152733 
L 581.023792 310.364547 
L 582.911854 301.888115 
L 584.799916 279.387042 
L 586.687978 302.350466 
L 588.576041 308.669261 
L 590.464103 309.902196 
L 592.352165 303.121051 
L 594.240227 318.224511 
L 596.128289 327.779761 
L 598.016352 313.909237 
L 599.904414 313.909237 
L 601.792476 317.299809 
L 603.680538 309.131611 
L 605.5686 285.243485 
L 607.456663 298.343425 
L 609.344725 302.966934 
L 611.232787 247.176601 
L 613.120849 291.56228 
L 615.008911 296.494022 
L 616.896974 303.737518 
L 618.785036 297.881075 
L 620.673098 281.236445 
L 622.56116 315.604523 
L 624.449222 292.949333 
L 626.337285 300.809297 
L 628.225347 304.508103 
L 630.113409 302.196349 
L 633.889533 307.282208 
L 635.777596 316.529225 
L 637.665658 283.548199 
L 639.55372 290.945812 
L 641.441782 212.037938 
L 643.329844 291.254046 
L 645.217907 232.381374 
L 647.105969 240.395455 
L 648.994031 282.00703 
L 650.882093 237.158999 
L 652.770156 263.35888 
L 654.658218 269.831791 
L 656.54628 279.695275 
L 658.434342 261.81771 
L 660.322404 252.724811 
L 662.210467 284.781135 
L 664.098529 250.567173 
L 665.986591 235.771947 
L 667.874653 206.643845 
L 669.762715 187.995695 
L 671.650778 218.819083 
L 673.53884 219.435551 
L 675.426902 271.372961 
L 677.314964 263.512997 
L 679.203026 248.255419 
L 681.091089 260.122424 
L 682.979151 271.218844 
L 684.867213 266.749452 
L 686.755275 271.064727 
L 688.643337 272.451779 
L 690.5314 272.451779 
L 692.419462 280.928211 
L 694.307524 279.232925 
L 696.195586 265.054166 
L 698.083648 205.565026 
L 699.971711 225.446112 
L 701.859773 265.3624 
L 703.747835 235.771947 
L 705.635897 259.968307 
L 707.523959 274.301183 
L 709.412022 261.663593 
L 711.300084 250.413056 
L 713.188146 231.148439 
L 715.076208 267.211803 
L 716.96427 241.474274 
L 718.852333 256.115383 
L 720.740395 253.033044 
L 722.628457 241.628391 
L 724.516519 211.883821 
L 726.404581 202.945038 
L 728.292644 253.803629 
L 730.180706 214.195575 
L 732.068768 237.775467 
L 733.95683 235.926064 
L 735.844892 246.560133 
L 737.732955 255.498916 
L 739.621017 199.708583 
L 741.509079 236.542532 
L 743.397141 261.201242 
L 745.285203 271.527078 
L 747.173266 280.774094 
L 749.061328 248.255419 
L 750.94939 235.155479 
L 752.837452 294.490502 
L 754.725514 223.750825 
L 756.613577 231.919023 
L 758.501639 249.026004 
L 760.389701 242.707209 
L 762.277763 259.043605 
L 764.165825 293.5658 
L 766.053888 249.642472 
L 767.94195 264.129464 
L 769.830012 300.809297 
L 771.718074 306.66574 
L 773.606136 269.061206 
L 775.494199 250.25894 
L 777.382261 281.236445 
L 779.270323 192.156852 
L 781.158385 203.561506 
L 783.046447 248.255419 
L 784.93451 259.351839 
L 786.822572 239.008403 
L 788.710634 215.428511 
L 790.598696 280.311743 
L 792.486758 254.26598 
L 794.374821 271.372961 
L 796.262883 283.394082 
L 798.150945 281.082328 
L 800.039007 267.057686 
L 801.927069 259.043605 
L 803.815132 275.996469 
L 805.703194 243.940145 
L 807.591256 264.437698 
L 809.479318 255.190682 
L 809.479318 255.190682 
" clip-path="url(#pe1e3d0aca6)" style="fill: none; stroke: #dd8452; stroke-width: 2; stroke-linecap: round"/>
   </g>
   <g id="patch_3">
    <path d="M 56.1425 342.205107 
L 56.1425 24.8475 
" style="fill: none; stroke: #cccccc; stroke-width: 1.25; stroke-linejoin: miter; stroke-linecap: square"/>
   </g>
   <g id="patch_4">
    <path d="M 845.3525 342.205107 
L 845.3525 24.8475 
" style="fill: none; stroke: #cccccc; stroke-width: 1.25; stroke-linejoin: miter; stroke-linecap: square"/>
   </g>
   <g id="patch_5">
    <path d="M 56.1425 342.205107 
L 845.3525 342.205107 
" style="fill: none; stroke: #cccccc; stroke-width: 1.25; stroke-linejoin: miter; stroke-linecap: square"/>
   </g>
   <g id="patch_6">
    <path d="M 56.1425 24.8475 
L 845.3525 24.8475 
" style="fill: none; stroke: #cccccc; stroke-width: 1.25; stroke-linejoin: miter; stroke-linecap: square"/>
   </g>
   <g id="text_24">
    <!-- Comparación de Personas en Tienda Tienda AL vs Tienda C -->
    <g style="fill: #262626" transform="translate(223.12375 18.8475) scale(0.16 -0.16)">
     <defs>
      <path id="Arial-BoldMT-43" d="M 3397 1684 
L 4294 1400 
Q 4088 650 3608 286 
Q 3128 -78 2391 -78 
Q 1478 -78 890 545 
Q 303 1169 303 2250 
Q 303 3394 893 4026 
Q 1484 4659 2447 4659 
Q 3288 4659 3813 4163 
Q 4125 3869 4281 3319 
L 3366 3100 
Q 3284 3456 3026 3662 
Q 2769 3869 2400 3869 
Q 1891 3869 1573 3503 
Q 1256 3138 1256 2319 
Q 1256 1450 1568 1081 
Q 1881 713 2381 713 
Q 2750 713 3015 947 
Q 3281 1181 3397 1684 
z
" transform="scale(0.015625)"/>
      <path id="Arial-BoldMT-6f" d="M 256 1706 
Q 256 2144 472 2553 
Q 688 2963 1083 3178 
Q 1478 3394 1966 3394 
Q 2719 3394 3200 2905 
Q 3681 2416 3681 1669 
Q 3681 916 3195 420 
Q 2709 -75 1972 -75 
Q 1516 -75 1102 131 
Q 688 338 472 736 
Q 256 1134 256 1706 
z
M 1156 1659 
Q 1156 1166 1390 903 
Q 1625 641 1969 641 
Q 2313 641 2545 903 
Q 2778 1166 2778 1666 
Q 2778 2153 2545 2415 
Q 2313 2678 1969 2678 
Q 1625 2678 1390 2415 
Q 1156 2153 1156 1659 
z
" transform="scale(0.015625)"/>
      <path id="Arial-BoldMT-6d" d="M 394 3319 
L 1203 3319 
L 1203 2866 
Q 1638 3394 2238 3394 
Q 2556 3394 2790 3262 
Q 3025 3131 3175 2866 
Q 3394 3131 3647 3262 
Q 3900 3394 4188 3394 
Q 4553 3394 4806 3245 
Q 5059 3097 5184 2809 
Q 5275 2597 5275 2122 
L 5275 0 
L 4397 0 
L 4397 1897 
Q 4397 2391 4306 2534 
Q 4184 2722 3931 2722 
Q 3747 2722 3584 2609 
Q 3422 2497 3350 2280 
Q 3278 2063 3278 1594 
L 3278 0 
L 2400 0 
L 2400 1819 
Q 2400 2303 2353 2443 
Q 2306 2584 2207 2653 
Q 2109 2722 1941 2722 
Q 1738 2722 1575 2612 
Q 1413 2503 1342 2297 
Q 1272 2091 1272 1613 
L 1272 0 
L 394 0 
L 394 3319 
z
" transform="scale(0.015625)"/>
      <path id="Arial-BoldMT-70" d="M 434 3319 
L 1253 3319 
L 1253 2831 
Q 1413 3081 1684 3237 
Q 1956 3394 2288 3394 
Q 2866 3394 3269 2941 
Q 3672 2488 3672 1678 
Q 3672 847 3265 386 
Q 2859 -75 2281 -75 
Q 2006 -75 1782 34 
Q 1559 144 1313 409 
L 1313 -1263 
L 434 -1263 
L 434 3319 
z
M 1303 1716 
Q 1303 1156 1525 889 
Q 1747 622 2066 622 
Q 2372 622 2575 867 
Q 2778 1113 2778 1672 
Q 2778 2194 2568 2447 
Q 2359 2700 2050 2700 
Q 1728 2700 1515 2451 
Q 1303 2203 1303 1716 
z
" transform="scale(0.015625)"/>
      <path id="Arial-BoldMT-61" d="M 1116 2306 
L 319 2450 
Q 453 2931 781 3162 
Q 1109 3394 1756 3394 
Q 2344 3394 2631 3255 
Q 2919 3116 3036 2902 
Q 3153 2688 3153 2116 
L 3144 1091 
Q 3144 653 3186 445 
Q 3228 238 3344 0 
L 2475 0 
Q 2441 88 2391 259 
Q 2369 338 2359 363 
Q 2134 144 1878 34 
Q 1622 -75 1331 -75 
Q 819 -75 523 203 
Q 228 481 228 906 
Q 228 1188 362 1408 
Q 497 1628 739 1745 
Q 981 1863 1438 1950 
Q 2053 2066 2291 2166 
L 2291 2253 
Q 2291 2506 2166 2614 
Q 2041 2722 1694 2722 
Q 1459 2722 1328 2630 
Q 1197 2538 1116 2306 
z
M 2291 1594 
Q 2122 1538 1756 1459 
Q 1391 1381 1278 1306 
Q 1106 1184 1106 997 
Q 1106 813 1243 678 
Q 1381 544 1594 544 
Q 1831 544 2047 700 
Q 2206 819 2256 991 
Q 2291 1103 2291 1419 
L 2291 1594 
z
" transform="scale(0.015625)"/>
      <path id="Arial-BoldMT-72" d="M 1300 0 
L 422 0 
L 422 3319 
L 1238 3319 
L 1238 2847 
Q 1447 3181 1614 3287 
Q 1781 3394 1994 3394 
Q 2294 3394 2572 3228 
L 2300 2463 
Q 2078 2606 1888 2606 
Q 1703 2606 1575 2504 
Q 1447 2403 1373 2137 
Q 1300 1872 1300 1025 
L 1300 0 
z
" transform="scale(0.015625)"/>
      <path id="Arial-BoldMT-63" d="M 3353 2338 
L 2488 2181 
Q 2444 2441 2289 2572 
Q 2134 2703 1888 2703 
Q 1559 2703 1364 2476 
Q 1169 2250 1169 1719 
Q 1169 1128 1367 884 
Q 1566 641 1900 641 
Q 2150 641 2309 783 
Q 2469 925 2534 1272 
L 3397 1125 
Q 3263 531 2881 228 
Q 2500 -75 1859 -75 
Q 1131 -75 698 384 
Q 266 844 266 1656 
Q 266 2478 700 2936 
Q 1134 3394 1875 3394 
Q 2481 3394 2839 3133 
Q 3197 2872 3353 2338 
z
" transform="scale(0.015625)"/>
      <path id="Arial-BoldMT-69" d="M 459 3769 
L 459 4581 
L 1338 4581 
L 1338 3769 
L 459 3769 
z
M 459 0 
L 459 3319 
L 1338 3319 
L 1338 0 
L 459 0 
z
" transform="scale(0.015625)"/>
      <path id="Arial-BoldMT-f3" d="M 256 1706 
Q 256 2144 472 2553 
Q 688 2963 1083 3178 
Q 1478 3394 1966 3394 
Q 2719 3394 3200 2905 
Q 3681 2416 3681 1669 
Q 3681 916 3195 420 
Q 2709 -75 1972 -75 
Q 1516 -75 1102 131 
Q 688 338 472 736 
Q 256 1134 256 1706 
z
M 1156 1659 
Q 1156 1166 1390 903 
Q 1625 641 1969 641 
Q 2313 641 2545 903 
Q 2778 1166 2778 1666 
Q 2778 2153 2545 2415 
Q 2313 2678 1969 2678 
Q 1625 2678 1390 2415 
Q 1156 2153 1156 1659 
z
M 1528 3725 
L 1960 4659 
L 2944 4659 
L 2085 3725 
L 1528 3725 
z
" transform="scale(0.015625)"/>
      <path id="Arial-BoldMT-6e" d="M 3478 0 
L 2600 0 
L 2600 1694 
Q 2600 2231 2544 2389 
Q 2488 2547 2361 2634 
Q 2234 2722 2056 2722 
Q 1828 2722 1647 2597 
Q 1466 2472 1398 2265 
Q 1331 2059 1331 1503 
L 1331 0 
L 453 0 
L 453 3319 
L 1269 3319 
L 1269 2831 
Q 1703 3394 2363 3394 
Q 2653 3394 2893 3289 
Q 3134 3184 3257 3021 
Q 3381 2859 3429 2653 
Q 3478 2447 3478 2063 
L 3478 0 
z
" transform="scale(0.015625)"/>
      <path id="Arial-BoldMT-20" transform="scale(0.015625)"/>
      <path id="Arial-BoldMT-64" d="M 3503 0 
L 2688 0 
L 2688 488 
Q 2484 203 2207 64 
Q 1931 -75 1650 -75 
Q 1078 -75 670 386 
Q 263 847 263 1672 
Q 263 2516 659 2955 
Q 1056 3394 1663 3394 
Q 2219 3394 2625 2931 
L 2625 4581 
L 3503 4581 
L 3503 0 
z
M 1159 1731 
Q 1159 1200 1306 963 
Q 1519 619 1900 619 
Q 2203 619 2415 876 
Q 2628 1134 2628 1647 
Q 2628 2219 2422 2470 
Q 2216 2722 1894 2722 
Q 1581 2722 1370 2473 
Q 1159 2225 1159 1731 
z
" transform="scale(0.015625)"/>
      <path id="Arial-BoldMT-65" d="M 2381 1056 
L 3256 909 
Q 3088 428 2723 176 
Q 2359 -75 1813 -75 
Q 947 -75 531 491 
Q 203 944 203 1634 
Q 203 2459 634 2926 
Q 1066 3394 1725 3394 
Q 2466 3394 2894 2905 
Q 3322 2416 3303 1406 
L 1103 1406 
Q 1113 1016 1316 798 
Q 1519 581 1822 581 
Q 2028 581 2168 693 
Q 2309 806 2381 1056 
z
M 2431 1944 
Q 2422 2325 2234 2523 
Q 2047 2722 1778 2722 
Q 1491 2722 1303 2513 
Q 1116 2303 1119 1944 
L 2431 1944 
z
" transform="scale(0.015625)"/>
      <path id="Arial-BoldMT-50" d="M 466 0 
L 466 4581 
L 1950 4581 
Q 2794 4581 3050 4513 
Q 3444 4409 3709 4064 
Q 3975 3719 3975 3172 
Q 3975 2750 3822 2462 
Q 3669 2175 3433 2011 
Q 3197 1847 2953 1794 
Q 2622 1728 1994 1728 
L 1391 1728 
L 1391 0 
L 466 0 
z
M 1391 3806 
L 1391 2506 
L 1897 2506 
Q 2444 2506 2628 2578 
Q 2813 2650 2917 2803 
Q 3022 2956 3022 3159 
Q 3022 3409 2875 3571 
Q 2728 3734 2503 3775 
Q 2338 3806 1838 3806 
L 1391 3806 
z
" transform="scale(0.015625)"/>
      <path id="Arial-BoldMT-73" d="M 150 947 
L 1031 1081 
Q 1088 825 1259 692 
Q 1431 559 1741 559 
Q 2081 559 2253 684 
Q 2369 772 2369 919 
Q 2369 1019 2306 1084 
Q 2241 1147 2013 1200 
Q 950 1434 666 1628 
Q 272 1897 272 2375 
Q 272 2806 612 3100 
Q 953 3394 1669 3394 
Q 2350 3394 2681 3172 
Q 3013 2950 3138 2516 
L 2309 2363 
Q 2256 2556 2107 2659 
Q 1959 2763 1684 2763 
Q 1338 2763 1188 2666 
Q 1088 2597 1088 2488 
Q 1088 2394 1175 2328 
Q 1294 2241 1995 2081 
Q 2697 1922 2975 1691 
Q 3250 1456 3250 1038 
Q 3250 581 2869 253 
Q 2488 -75 1741 -75 
Q 1063 -75 667 200 
Q 272 475 150 947 
z
" transform="scale(0.015625)"/>
      <path id="Arial-BoldMT-54" d="M 1497 0 
L 1497 3806 
L 138 3806 
L 138 4581 
L 3778 4581 
L 3778 3806 
L 2422 3806 
L 2422 0 
L 1497 0 
z
" transform="scale(0.015625)"/>
      <path id="Arial-BoldMT-41" d="M 4597 0 
L 3591 0 
L 3191 1041 
L 1359 1041 
L 981 0 
L 0 0 
L 1784 4581 
L 2763 4581 
L 4597 0 
z
M 2894 1813 
L 2263 3513 
L 1644 1813 
L 2894 1813 
z
" transform="scale(0.015625)"/>
      <path id="Arial-BoldMT-4c" d="M 491 0 
L 491 4544 
L 1416 4544 
L 1416 772 
L 3716 772 
L 3716 0 
L 491 0 
z
" transform="scale(0.015625)"/>
      <path id="Arial-BoldMT-76" d="M 1372 0 
L 34 3319 
L 956 3319 
L 1581 1625 
L 1763 1059 
Q 1834 1275 1853 1344 
Q 1897 1484 1947 1625 
L 2578 3319 
L 3481 3319 
L 2163 0 
L 1372 0 
z
" transform="scale(0.015625)"/>
     </defs>
     <use xlink:href="#Arial-BoldMT-43"/>
     <use xlink:href="#Arial-BoldMT-6f" x="72.216797"/>
     <use xlink:href="#Arial-BoldMT-6d" x="133.300781"/>
     <use xlink:href="#Arial-BoldMT-70" x="222.216797"/>
     <use xlink:href="#Arial-BoldMT-61" x="283.300781"/>
     <use xlink:href="#Arial-BoldMT-72" x="338.916016"/>
     <use xlink:href="#Arial-BoldMT-61" x="377.832031"/>
     <use xlink:href="#Arial-BoldMT-63" x="433.447266"/>
     <use xlink:href="#Arial-BoldMT-69" x="489.0625"/>
     <use xlink:href="#Arial-BoldMT-f3" x="516.845703"/>
     <use xlink:href="#Arial-BoldMT-6e" x="577.929688"/>
     <use xlink:href="#Arial-BoldMT-20" x="639.013672"/>
     <use xlink:href="#Arial-BoldMT-64" x="666.796875"/>
     <use xlink:href="#Arial-BoldMT-65" x="727.880859"/>
     <use xlink:href="#Arial-BoldMT-20" x="783.496094"/>
     <use xlink:href="#Arial-BoldMT-50" x="811.279297"/>
     <use xlink:href="#Arial-BoldMT-65" x="877.978516"/>
     <use xlink:href="#Arial-BoldMT-72" x="933.59375"/>
     <use xlink:href="#Arial-BoldMT-73" x="972.509766"/>
     <use xlink:href="#Arial-BoldMT-6f" x="1028.125"/>
     <use xlink:href="#Arial-BoldMT-6e" x="1089.208984"/>
     <use xlink:href="#Arial-BoldMT-61" x="1150.292969"/>
     <use xlink:href="#Arial-BoldMT-73" x="1205.908203"/>
     <use xlink:href="#Arial-BoldMT-20" x="1261.523438"/>
     <use xlink:href="#Arial-BoldMT-65" x="1289.306641"/>
     <use xlink:href="#Arial-BoldMT-6e" x="1344.921875"/>
     <use xlink:href="#Arial-BoldMT-20" x="1406.005859"/>
     <use xlink:href="#Arial-BoldMT-54" x="1433.789062"/>
     <use xlink:href="#Arial-BoldMT-69" x="1493.123047"/>
     <use xlink:href="#Arial-BoldMT-65" x="1520.90625"/>
     <use xlink:href="#Arial-BoldMT-6e" x="1576.521484"/>
     <use xlink:href="#Arial-BoldMT-64" x="1637.605469"/>
     <use xlink:href="#Arial-BoldMT-61" x="1698.689453"/>
     <use xlink:href="#Arial-BoldMT-20" x="1754.304688"/>
     <use xlink:href="#Arial-BoldMT-54" x="1782.087891"/>
     <use xlink:href="#Arial-BoldMT-69" x="1841.421875"/>
     <use xlink:href="#Arial-BoldMT-65" x="1869.205078"/>
     <use xlink:href="#Arial-BoldMT-6e" x="1924.820312"/>
     <use xlink:href="#Arial-BoldMT-64" x="1985.904297"/>
     <use xlink:href="#Arial-BoldMT-61" x="2046.988281"/>
     <use xlink:href="#Arial-BoldMT-20" x="2102.603516"/>
     <use xlink:href="#Arial-BoldMT-41" x="2126.636719"/>
     <use xlink:href="#Arial-BoldMT-4c" x="2198.853516"/>
     <use xlink:href="#Arial-BoldMT-20" x="2258.1875"/>
     <use xlink:href="#Arial-BoldMT-76" x="2285.970703"/>
     <use xlink:href="#Arial-BoldMT-73" x="2341.585938"/>
     <use xlink:href="#Arial-BoldMT-20" x="2397.201172"/>
     <use xlink:href="#Arial-BoldMT-54" x="2424.984375"/>
     <use xlink:href="#Arial-BoldMT-69" x="2484.318359"/>
     <use xlink:href="#Arial-BoldMT-65" x="2512.101562"/>
     <use xlink:href="#Arial-BoldMT-6e" x="2567.716797"/>
     <use xlink:href="#Arial-BoldMT-64" x="2628.800781"/>
     <use xlink:href="#Arial-BoldMT-61" x="2689.884766"/>
     <use xlink:href="#Arial-BoldMT-20" x="2745.5"/>
     <use xlink:href="#Arial-BoldMT-43" x="2773.283203"/>
    </g>
   </g>
   <g id="legend_1">
    <g id="patch_7">
     <path d="M 753.328906 64.767187 
L 837.6525 64.767187 
Q 839.8525 64.767187 839.8525 62.567187 
L 839.8525 32.5475 
Q 839.8525 30.3475 837.6525 30.3475 
L 753.328906 30.3475 
Q 751.128906 30.3475 751.128906 32.5475 
L 751.128906 62.567187 
Q 751.128906 64.767187 753.328906 64.767187 
z
" style="fill: #ffffff; opacity: 0.8; stroke: #cccccc; stroke-linejoin: miter"/>
    </g>
    <g id="line2d_25">
     <path d="M 755.528906 38.771094 
L 766.528906 38.771094 
L 777.528906 38.771094 
" style="fill: none; stroke: #4c72b0; stroke-width: 2; stroke-linecap: round"/>
    </g>
    <g id="text_25">
     <!-- Tienda AL -->
     <g style="fill: #262626" transform="translate(786.328906 42.621094) scale(0.11 -0.11)">
      <defs>
       <path id="ArialMT-54" d="M 1659 0 
L 1659 4041 
L 150 4041 
L 150 4581 
L 3781 4581 
L 3781 4041 
L 2266 4041 
L 2266 0 
L 1659 0 
z
" transform="scale(0.015625)"/>
       <path id="ArialMT-69" d="M 425 3934 
L 425 4581 
L 988 4581 
L 988 3934 
L 425 3934 
z
M 425 0 
L 425 3319 
L 988 3319 
L 988 0 
L 425 0 
z
" transform="scale(0.015625)"/>
       <path id="ArialMT-41" d="M -9 0 
L 1750 4581 
L 2403 4581 
L 4278 0 
L 3588 0 
L 3053 1388 
L 1138 1388 
L 634 0 
L -9 0 
z
M 1313 1881 
L 2866 1881 
L 2388 3150 
Q 2169 3728 2063 4100 
Q 1975 3659 1816 3225 
L 1313 1881 
z
" transform="scale(0.015625)"/>
       <path id="ArialMT-4c" d="M 469 0 
L 469 4581 
L 1075 4581 
L 1075 541 
L 3331 541 
L 3331 0 
L 469 0 
z
" transform="scale(0.015625)"/>
      </defs>
      <use xlink:href="#ArialMT-54"/>
      <use xlink:href="#ArialMT-69" x="57.333984"/>
      <use xlink:href="#ArialMT-65" x="79.550781"/>
      <use xlink:href="#ArialMT-6e" x="135.166016"/>
      <use xlink:href="#ArialMT-64" x="190.78125"/>
      <use xlink:href="#ArialMT-61" x="246.396484"/>
      <use xlink:href="#ArialMT-20" x="302.011719"/>
      <use xlink:href="#ArialMT-41" x="324.294922"/>
      <use xlink:href="#ArialMT-4c" x="390.994141"/>
     </g>
    </g>
    <g id="line2d_26">
     <path d="M 755.528906 54.330938 
L 766.528906 54.330938 
L 777.528906 54.330938 
" style="fill: none; stroke: #dd8452; stroke-width: 2; stroke-linecap: round"/>
    </g>
    <g id="text_26">
     <!-- Tienda C -->
     <g style="fill: #262626" transform="translate(786.328906 58.180938) scale(0.11 -0.11)">
      <defs>
       <path id="ArialMT-43" d="M 3763 1606 
L 4369 1453 
Q 4178 706 3683 314 
Q 3188 -78 2472 -78 
Q 1731 -78 1267 223 
Q 803 525 561 1097 
Q 319 1669 319 2325 
Q 319 3041 592 3573 
Q 866 4106 1370 4382 
Q 1875 4659 2481 4659 
Q 3169 4659 3637 4309 
Q 4106 3959 4291 3325 
L 3694 3184 
Q 3534 3684 3231 3912 
Q 2928 4141 2469 4141 
Q 1941 4141 1586 3887 
Q 1231 3634 1087 3207 
Q 944 2781 944 2328 
Q 944 1744 1114 1308 
Q 1284 872 1643 656 
Q 2003 441 2422 441 
Q 2931 441 3284 734 
Q 3638 1028 3763 1606 
z
" transform="scale(0.015625)"/>
      </defs>
      <use xlink:href="#ArialMT-54"/>
      <use xlink:href="#ArialMT-69" x="57.333984"/>
      <use xlink:href="#ArialMT-65" x="79.550781"/>
      <use xlink:href="#ArialMT-6e" x="135.166016"/>
      <use xlink:href="#ArialMT-64" x="190.78125"/>
      <use xlink:href="#ArialMT-61" x="246.396484"/>
      <use xlink:href="#ArialMT-20" x="302.011719"/>
      <use xlink:href="#ArialMT-43" x="329.794922"/>
     </g>
    </g>
   </g>
  </g>
 </g>
 <defs>
  <clipPath id="pe1e3d0aca6">
   <rect x="56.1425" y="24.8475" width="789.21" height="317.357607"/>
  </clipPath>
 </defs>
</svg>
