<?xml version="1.0" encoding="utf-8" standalone="no"?>
<!DOCTYPE svg PUBLIC "-//W3C//DTD SVG 1.1//EN"
  "http://www.w3.org/Graphics/SVG/1.1/DTD/svg11.dtd">
<svg xmlns:xlink="http://www.w3.org/1999/xlink" width="852.551406pt" height="420.775798pt" viewBox="0 0 852.551406 420.775798" xmlns="http://www.w3.org/2000/svg" version="1.1">
 <metadata>
  <rdf:RDF xmlns:dc="http://purl.org/dc/elements/1.1/" xmlns:cc="http://creativecommons.org/ns#" xmlns:rdf="http://www.w3.org/1999/02/22-rdf-syntax-ns#">
   <cc:Work>
    <dc:type rdf:resource="http://purl.org/dc/dcmitype/StillImage"/>
    <dc:date>2025-03-28T22:45:46.707445</dc:date>
    <dc:format>image/svg+xml</dc:format>
    <dc:creator>
     <cc:Agent>
      <dc:title>Matplotlib v3.8.4, https://matplotlib.org/</dc:title>
     </cc:Agent>
    </dc:creator>
   </cc:Work>
  </rdf:RDF>
 </metadata>
 <defs>
  <style type="text/css">*{stroke-linejoin: round; stroke-linecap: butt}</style>
 </defs>
 <g id="figure_1">
  <g id="patch_1">
   <path d="M 0 420.775798 
L 852.551406 420.775798 
L 852.551406 0 
L 0 0 
z
" style="fill: #ffffff"/>
  </g>
  <g id="axes_1">
   <g id="patch_2">
    <path d="M 53.081406 342.205107 
L 845.351406 342.205107 
L 845.351406 24.8475 
L 53.081406 24.8475 
z
" style="fill: #ffffff"/>
   </g>
   <g id="matplotlib.axis_1">
    <g id="xtick_1">
     <g id="line2d_1">
      <path d="M 89.093679 342.205107 
L 89.093679 24.8475 
" clip-path="url(#p25872b337f)" style="fill: none; stroke-dasharray: 3.7,1.6; stroke-dashoffset: 0; stroke: #cccccc; stroke-opacity: 0.7"/>
     </g>
     <g id="text_1">
      <!-- 2023-01-11 -->
      <g style="fill: #262626" transform="translate(71.499813 396.481871) rotate(-45) scale(0.11 -0.11)">
       <defs>
        <path id="ArialMT-32" d="M 3222 541 
L 3222 0 
L 194 0 
Q 188 203 259 391 
Q 375 700 629 1000 
Q 884 1300 1366 1694 
Q 2113 2306 2375 2664 
Q 2638 3022 2638 3341 
Q 2638 3675 2398 3904 
Q 2159 4134 1775 4134 
Q 1369 4134 1125 3890 
Q 881 3647 878 3216 
L 300 3275 
Q 359 3922 746 4261 
Q 1134 4600 1788 4600 
Q 2447 4600 2831 4234 
Q 3216 3869 3216 3328 
Q 3216 3053 3103 2787 
Q 2991 2522 2730 2228 
Q 2469 1934 1863 1422 
Q 1356 997 1212 845 
Q 1069 694 975 541 
L 3222 541 
z
" transform="scale(0.015625)"/>
        <path id="ArialMT-30" d="M 266 2259 
Q 266 3072 433 3567 
Q 600 4063 929 4331 
Q 1259 4600 1759 4600 
Q 2128 4600 2406 4451 
Q 2684 4303 2865 4023 
Q 3047 3744 3150 3342 
Q 3253 2941 3253 2259 
Q 3253 1453 3087 958 
Q 2922 463 2592 192 
Q 2263 -78 1759 -78 
Q 1097 -78 719 397 
Q 266 969 266 2259 
z
M 844 2259 
Q 844 1131 1108 757 
Q 1372 384 1759 384 
Q 2147 384 2411 759 
Q 2675 1134 2675 2259 
Q 2675 3391 2411 3762 
Q 2147 4134 1753 4134 
Q 1366 4134 1134 3806 
Q 844 3388 844 2259 
z
" transform="scale(0.015625)"/>
        <path id="ArialMT-33" d="M 269 1209 
L 831 1284 
Q 928 806 1161 595 
Q 1394 384 1728 384 
Q 2125 384 2398 659 
Q 2672 934 2672 1341 
Q 2672 1728 2419 1979 
Q 2166 2231 1775 2231 
Q 1616 2231 1378 2169 
L 1441 2663 
Q 1497 2656 1531 2656 
Q 1891 2656 2178 2843 
Q 2466 3031 2466 3422 
Q 2466 3731 2256 3934 
Q 2047 4138 1716 4138 
Q 1388 4138 1169 3931 
Q 950 3725 888 3313 
L 325 3413 
Q 428 3978 793 4289 
Q 1159 4600 1703 4600 
Q 2078 4600 2393 4439 
Q 2709 4278 2876 4000 
Q 3044 3722 3044 3409 
Q 3044 3113 2884 2869 
Q 2725 2625 2413 2481 
Q 2819 2388 3044 2092 
Q 3269 1797 3269 1353 
Q 3269 753 2831 336 
Q 2394 -81 1725 -81 
Q 1122 -81 723 278 
Q 325 638 269 1209 
z
" transform="scale(0.015625)"/>
        <path id="ArialMT-2d" d="M 203 1375 
L 203 1941 
L 1931 1941 
L 1931 1375 
L 203 1375 
z
" transform="scale(0.015625)"/>
        <path id="ArialMT-31" d="M 2384 0 
L 1822 0 
L 1822 3584 
Q 1619 3391 1289 3197 
Q 959 3003 697 2906 
L 697 3450 
Q 1169 3672 1522 3987 
Q 1875 4303 2022 4600 
L 2384 4600 
L 2384 0 
z
" transform="scale(0.015625)"/>
       </defs>
       <use xlink:href="#ArialMT-32"/>
       <use xlink:href="#ArialMT-30" x="55.615234"/>
       <use xlink:href="#ArialMT-32" x="111.230469"/>
       <use xlink:href="#ArialMT-33" x="166.845703"/>
       <use xlink:href="#ArialMT-2d" x="222.460938"/>
       <use xlink:href="#ArialMT-30" x="255.761719"/>
       <use xlink:href="#ArialMT-31" x="311.376953"/>
       <use xlink:href="#ArialMT-2d" x="366.992188"/>
       <use xlink:href="#ArialMT-31" x="400.292969"/>
       <use xlink:href="#ArialMT-31" x="448.533203"/>
      </g>
     </g>
    </g>
    <g id="xtick_2">
     <g id="line2d_2">
      <path d="M 147.850545 342.205107 
L 147.850545 24.8475 
" clip-path="url(#p25872b337f)" style="fill: none; stroke-dasharray: 3.7,1.6; stroke-dashoffset: 0; stroke: #cccccc; stroke-opacity: 0.7"/>
     </g>
     <g id="text_2">
      <!-- 2023-02-11 -->
      <g style="fill: #262626" transform="translate(130.256679 396.481871) rotate(-45) scale(0.11 -0.11)">
       <use xlink:href="#ArialMT-32"/>
       <use xlink:href="#ArialMT-30" x="55.615234"/>
       <use xlink:href="#ArialMT-32" x="111.230469"/>
       <use xlink:href="#ArialMT-33" x="166.845703"/>
       <use xlink:href="#ArialMT-2d" x="222.460938"/>
       <use xlink:href="#ArialMT-30" x="255.761719"/>
       <use xlink:href="#ArialMT-32" x="311.376953"/>
       <use xlink:href="#ArialMT-2d" x="366.992188"/>
       <use xlink:href="#ArialMT-31" x="400.292969"/>
       <use xlink:href="#ArialMT-31" x="448.533203"/>
      </g>
     </g>
    </g>
    <g id="xtick_3">
     <g id="line2d_3">
      <path d="M 200.921263 342.205107 
L 200.921263 24.8475 
" clip-path="url(#p25872b337f)" style="fill: none; stroke-dasharray: 3.7,1.6; stroke-dashoffset: 0; stroke: #cccccc; stroke-opacity: 0.7"/>
     </g>
     <g id="text_3">
      <!-- 2023-03-11 -->
      <g style="fill: #262626" transform="translate(183.327396 396.481871) rotate(-45) scale(0.11 -0.11)">
       <use xlink:href="#ArialMT-32"/>
       <use xlink:href="#ArialMT-30" x="55.615234"/>
       <use xlink:href="#ArialMT-32" x="111.230469"/>
       <use xlink:href="#ArialMT-33" x="166.845703"/>
       <use xlink:href="#ArialMT-2d" x="222.460938"/>
       <use xlink:href="#ArialMT-30" x="255.761719"/>
       <use xlink:href="#ArialMT-33" x="311.376953"/>
       <use xlink:href="#ArialMT-2d" x="366.992188"/>
       <use xlink:href="#ArialMT-31" x="400.292969"/>
       <use xlink:href="#ArialMT-31" x="448.533203"/>
      </g>
     </g>
    </g>
    <g id="xtick_4">
     <g id="line2d_4">
      <path d="M 259.678129 342.205107 
L 259.678129 24.8475 
" clip-path="url(#p25872b337f)" style="fill: none; stroke-dasharray: 3.7,1.6; stroke-dashoffset: 0; stroke: #cccccc; stroke-opacity: 0.7"/>
     </g>
     <g id="text_4">
      <!-- 2023-04-11 -->
      <g style="fill: #262626" transform="translate(242.084262 396.481871) rotate(-45) scale(0.11 -0.11)">
       <defs>
        <path id="ArialMT-34" d="M 2069 0 
L 2069 1097 
L 81 1097 
L 81 1613 
L 2172 4581 
L 2631 4581 
L 2631 1613 
L 3250 1613 
L 3250 1097 
L 2631 1097 
L 2631 0 
L 2069 0 
z
M 2069 1613 
L 2069 3678 
L 634 1613 
L 2069 1613 
z
" transform="scale(0.015625)"/>
       </defs>
       <use xlink:href="#ArialMT-32"/>
       <use xlink:href="#ArialMT-30" x="55.615234"/>
       <use xlink:href="#ArialMT-32" x="111.230469"/>
       <use xlink:href="#ArialMT-33" x="166.845703"/>
       <use xlink:href="#ArialMT-2d" x="222.460938"/>
       <use xlink:href="#ArialMT-30" x="255.761719"/>
       <use xlink:href="#ArialMT-34" x="311.376953"/>
       <use xlink:href="#ArialMT-2d" x="366.992188"/>
       <use xlink:href="#ArialMT-31" x="400.292969"/>
       <use xlink:href="#ArialMT-31" x="448.533203"/>
      </g>
     </g>
    </g>
    <g id="xtick_5">
     <g id="line2d_5">
      <path d="M 316.539612 342.205107 
L 316.539612 24.8475 
" clip-path="url(#p25872b337f)" style="fill: none; stroke-dasharray: 3.7,1.6; stroke-dashoffset: 0; stroke: #cccccc; stroke-opacity: 0.7"/>
     </g>
     <g id="text_5">
      <!-- 2023-05-11 -->
      <g style="fill: #262626" transform="translate(298.945746 396.481871) rotate(-45) scale(0.11 -0.11)">
       <defs>
        <path id="ArialMT-35" d="M 266 1200 
L 856 1250 
Q 922 819 1161 601 
Q 1400 384 1738 384 
Q 2144 384 2425 690 
Q 2706 997 2706 1503 
Q 2706 1984 2436 2262 
Q 2166 2541 1728 2541 
Q 1456 2541 1237 2417 
Q 1019 2294 894 2097 
L 366 2166 
L 809 4519 
L 3088 4519 
L 3088 3981 
L 1259 3981 
L 1013 2750 
Q 1425 3038 1878 3038 
Q 2478 3038 2890 2622 
Q 3303 2206 3303 1553 
Q 3303 931 2941 478 
Q 2500 -78 1738 -78 
Q 1113 -78 717 272 
Q 322 622 266 1200 
z
" transform="scale(0.015625)"/>
       </defs>
       <use xlink:href="#ArialMT-32"/>
       <use xlink:href="#ArialMT-30" x="55.615234"/>
       <use xlink:href="#ArialMT-32" x="111.230469"/>
       <use xlink:href="#ArialMT-33" x="166.845703"/>
       <use xlink:href="#ArialMT-2d" x="222.460938"/>
       <use xlink:href="#ArialMT-30" x="255.761719"/>
       <use xlink:href="#ArialMT-35" x="311.376953"/>
       <use xlink:href="#ArialMT-2d" x="366.992188"/>
       <use xlink:href="#ArialMT-31" x="400.292969"/>
       <use xlink:href="#ArialMT-31" x="448.533203"/>
      </g>
     </g>
    </g>
    <g id="xtick_6">
     <g id="line2d_6">
      <path d="M 375.296478 342.205107 
L 375.296478 24.8475 
" clip-path="url(#p25872b337f)" style="fill: none; stroke-dasharray: 3.7,1.6; stroke-dashoffset: 0; stroke: #cccccc; stroke-opacity: 0.7"/>
     </g>
     <g id="text_6">
      <!-- 2023-06-11 -->
      <g style="fill: #262626" transform="translate(357.702612 396.481871) rotate(-45) scale(0.11 -0.11)">
       <defs>
        <path id="ArialMT-36" d="M 3184 3459 
L 2625 3416 
Q 2550 3747 2413 3897 
Q 2184 4138 1850 4138 
Q 1581 4138 1378 3988 
Q 1113 3794 959 3422 
Q 806 3050 800 2363 
Q 1003 2672 1297 2822 
Q 1591 2972 1913 2972 
Q 2475 2972 2870 2558 
Q 3266 2144 3266 1488 
Q 3266 1056 3080 686 
Q 2894 316 2569 119 
Q 2244 -78 1831 -78 
Q 1128 -78 684 439 
Q 241 956 241 2144 
Q 241 3472 731 4075 
Q 1159 4600 1884 4600 
Q 2425 4600 2770 4297 
Q 3116 3994 3184 3459 
z
M 888 1484 
Q 888 1194 1011 928 
Q 1134 663 1356 523 
Q 1578 384 1822 384 
Q 2178 384 2434 671 
Q 2691 959 2691 1453 
Q 2691 1928 2437 2201 
Q 2184 2475 1800 2475 
Q 1419 2475 1153 2201 
Q 888 1928 888 1484 
z
" transform="scale(0.015625)"/>
       </defs>
       <use xlink:href="#ArialMT-32"/>
       <use xlink:href="#ArialMT-30" x="55.615234"/>
       <use xlink:href="#ArialMT-32" x="111.230469"/>
       <use xlink:href="#ArialMT-33" x="166.845703"/>
       <use xlink:href="#ArialMT-2d" x="222.460938"/>
       <use xlink:href="#ArialMT-30" x="255.761719"/>
       <use xlink:href="#ArialMT-36" x="311.376953"/>
       <use xlink:href="#ArialMT-2d" x="366.992188"/>
       <use xlink:href="#ArialMT-31" x="400.292969"/>
       <use xlink:href="#ArialMT-31" x="448.533203"/>
      </g>
     </g>
    </g>
    <g id="xtick_7">
     <g id="line2d_7">
      <path d="M 432.157961 342.205107 
L 432.157961 24.8475 
" clip-path="url(#p25872b337f)" style="fill: none; stroke-dasharray: 3.7,1.6; stroke-dashoffset: 0; stroke: #cccccc; stroke-opacity: 0.7"/>
     </g>
     <g id="text_7">
      <!-- 2023-07-11 -->
      <g style="fill: #262626" transform="translate(414.564095 396.481871) rotate(-45) scale(0.11 -0.11)">
       <defs>
        <path id="ArialMT-37" d="M 303 3981 
L 303 4522 
L 3269 4522 
L 3269 4084 
Q 2831 3619 2401 2847 
Q 1972 2075 1738 1259 
Q 1569 684 1522 0 
L 944 0 
Q 953 541 1156 1306 
Q 1359 2072 1739 2783 
Q 2119 3494 2547 3981 
L 303 3981 
z
" transform="scale(0.015625)"/>
       </defs>
       <use xlink:href="#ArialMT-32"/>
       <use xlink:href="#ArialMT-30" x="55.615234"/>
       <use xlink:href="#ArialMT-32" x="111.230469"/>
       <use xlink:href="#ArialMT-33" x="166.845703"/>
       <use xlink:href="#ArialMT-2d" x="222.460938"/>
       <use xlink:href="#ArialMT-30" x="255.761719"/>
       <use xlink:href="#ArialMT-37" x="311.376953"/>
       <use xlink:href="#ArialMT-2d" x="366.992188"/>
       <use xlink:href="#ArialMT-31" x="400.292969"/>
       <use xlink:href="#ArialMT-31" x="448.533203"/>
      </g>
     </g>
    </g>
    <g id="xtick_8">
     <g id="line2d_8">
      <path d="M 490.914827 342.205107 
L 490.914827 24.8475 
" clip-path="url(#p25872b337f)" style="fill: none; stroke-dasharray: 3.7,1.6; stroke-dashoffset: 0; stroke: #cccccc; stroke-opacity: 0.7"/>
     </g>
     <g id="text_8">
      <!-- 2023-08-12 -->
      <g style="fill: #262626" transform="translate(473.034141 397.055511) rotate(-45) scale(0.11 -0.11)">
       <defs>
        <path id="ArialMT-38" d="M 1131 2484 
Q 781 2613 612 2850 
Q 444 3088 444 3419 
Q 444 3919 803 4259 
Q 1163 4600 1759 4600 
Q 2359 4600 2725 4251 
Q 3091 3903 3091 3403 
Q 3091 3084 2923 2848 
Q 2756 2613 2416 2484 
Q 2838 2347 3058 2040 
Q 3278 1734 3278 1309 
Q 3278 722 2862 322 
Q 2447 -78 1769 -78 
Q 1091 -78 675 323 
Q 259 725 259 1325 
Q 259 1772 486 2073 
Q 713 2375 1131 2484 
z
M 1019 3438 
Q 1019 3113 1228 2906 
Q 1438 2700 1772 2700 
Q 2097 2700 2305 2904 
Q 2513 3109 2513 3406 
Q 2513 3716 2298 3927 
Q 2084 4138 1766 4138 
Q 1444 4138 1231 3931 
Q 1019 3725 1019 3438 
z
M 838 1322 
Q 838 1081 952 856 
Q 1066 631 1291 507 
Q 1516 384 1775 384 
Q 2178 384 2440 643 
Q 2703 903 2703 1303 
Q 2703 1709 2433 1975 
Q 2163 2241 1756 2241 
Q 1359 2241 1098 1978 
Q 838 1716 838 1322 
z
" transform="scale(0.015625)"/>
       </defs>
       <use xlink:href="#ArialMT-32"/>
       <use xlink:href="#ArialMT-30" x="55.615234"/>
       <use xlink:href="#ArialMT-32" x="111.230469"/>
       <use xlink:href="#ArialMT-33" x="166.845703"/>
       <use xlink:href="#ArialMT-2d" x="222.460938"/>
       <use xlink:href="#ArialMT-30" x="255.761719"/>
       <use xlink:href="#ArialMT-38" x="311.376953"/>
       <use xlink:href="#ArialMT-2d" x="366.992188"/>
       <use xlink:href="#ArialMT-31" x="400.292969"/>
       <use xlink:href="#ArialMT-32" x="455.908203"/>
      </g>
     </g>
    </g>
    <g id="xtick_9">
     <g id="line2d_9">
      <path d="M 549.671693 342.205107 
L 549.671693 24.8475 
" clip-path="url(#p25872b337f)" style="fill: none; stroke-dasharray: 3.7,1.6; stroke-dashoffset: 0; stroke: #cccccc; stroke-opacity: 0.7"/>
     </g>
     <g id="text_9">
      <!-- 2023-09-12 -->
      <g style="fill: #262626" transform="translate(531.791007 397.055511) rotate(-45) scale(0.11 -0.11)">
       <defs>
        <path id="ArialMT-39" d="M 350 1059 
L 891 1109 
Q 959 728 1153 556 
Q 1347 384 1650 384 
Q 1909 384 2104 503 
Q 2300 622 2425 820 
Q 2550 1019 2634 1356 
Q 2719 1694 2719 2044 
Q 2719 2081 2716 2156 
Q 2547 1888 2255 1720 
Q 1963 1553 1622 1553 
Q 1053 1553 659 1965 
Q 266 2378 266 3053 
Q 266 3750 677 4175 
Q 1088 4600 1706 4600 
Q 2153 4600 2523 4359 
Q 2894 4119 3086 3673 
Q 3278 3228 3278 2384 
Q 3278 1506 3087 986 
Q 2897 466 2520 194 
Q 2144 -78 1638 -78 
Q 1100 -78 759 220 
Q 419 519 350 1059 
z
M 2653 3081 
Q 2653 3566 2395 3850 
Q 2138 4134 1775 4134 
Q 1400 4134 1122 3828 
Q 844 3522 844 3034 
Q 844 2597 1108 2323 
Q 1372 2050 1759 2050 
Q 2150 2050 2401 2323 
Q 2653 2597 2653 3081 
z
" transform="scale(0.015625)"/>
       </defs>
       <use xlink:href="#ArialMT-32"/>
       <use xlink:href="#ArialMT-30" x="55.615234"/>
       <use xlink:href="#ArialMT-32" x="111.230469"/>
       <use xlink:href="#ArialMT-33" x="166.845703"/>
       <use xlink:href="#ArialMT-2d" x="222.460938"/>
       <use xlink:href="#ArialMT-30" x="255.761719"/>
       <use xlink:href="#ArialMT-39" x="311.376953"/>
       <use xlink:href="#ArialMT-2d" x="366.992188"/>
       <use xlink:href="#ArialMT-31" x="400.292969"/>
       <use xlink:href="#ArialMT-32" x="455.908203"/>
      </g>
     </g>
    </g>
    <g id="xtick_10">
     <g id="line2d_10">
      <path d="M 606.533177 342.205107 
L 606.533177 24.8475 
" clip-path="url(#p25872b337f)" style="fill: none; stroke-dasharray: 3.7,1.6; stroke-dashoffset: 0; stroke: #cccccc; stroke-opacity: 0.7"/>
     </g>
     <g id="text_10">
      <!-- 2023-10-14 -->
      <g style="fill: #262626" transform="translate(588.65249 397.055511) rotate(-45) scale(0.11 -0.11)">
       <use xlink:href="#ArialMT-32"/>
       <use xlink:href="#ArialMT-30" x="55.615234"/>
       <use xlink:href="#ArialMT-32" x="111.230469"/>
       <use xlink:href="#ArialMT-33" x="166.845703"/>
       <use xlink:href="#ArialMT-2d" x="222.460938"/>
       <use xlink:href="#ArialMT-31" x="255.761719"/>
       <use xlink:href="#ArialMT-30" x="311.376953"/>
       <use xlink:href="#ArialMT-2d" x="366.992188"/>
       <use xlink:href="#ArialMT-31" x="400.292969"/>
       <use xlink:href="#ArialMT-34" x="455.908203"/>
      </g>
     </g>
    </g>
    <g id="xtick_11">
     <g id="line2d_11">
      <path d="M 665.290043 342.205107 
L 665.290043 24.8475 
" clip-path="url(#p25872b337f)" style="fill: none; stroke-dasharray: 3.7,1.6; stroke-dashoffset: 0; stroke: #cccccc; stroke-opacity: 0.7"/>
     </g>
     <g id="text_11">
      <!-- 2023-11-14 -->
      <g style="fill: #262626" transform="translate(647.696176 396.481871) rotate(-45) scale(0.11 -0.11)">
       <use xlink:href="#ArialMT-32"/>
       <use xlink:href="#ArialMT-30" x="55.615234"/>
       <use xlink:href="#ArialMT-32" x="111.230469"/>
       <use xlink:href="#ArialMT-33" x="166.845703"/>
       <use xlink:href="#ArialMT-2d" x="222.460938"/>
       <use xlink:href="#ArialMT-31" x="255.761719"/>
       <use xlink:href="#ArialMT-31" x="304.001953"/>
       <use xlink:href="#ArialMT-2d" x="359.617188"/>
       <use xlink:href="#ArialMT-31" x="392.917969"/>
       <use xlink:href="#ArialMT-34" x="448.533203"/>
      </g>
     </g>
    </g>
    <g id="xtick_12">
     <g id="line2d_12">
      <path d="M 722.151526 342.205107 
L 722.151526 24.8475 
" clip-path="url(#p25872b337f)" style="fill: none; stroke-dasharray: 3.7,1.6; stroke-dashoffset: 0; stroke: #cccccc; stroke-opacity: 0.7"/>
     </g>
     <g id="text_12">
      <!-- 2023-12-14 -->
      <g style="fill: #262626" transform="translate(704.270839 397.055511) rotate(-45) scale(0.11 -0.11)">
       <use xlink:href="#ArialMT-32"/>
       <use xlink:href="#ArialMT-30" x="55.615234"/>
       <use xlink:href="#ArialMT-32" x="111.230469"/>
       <use xlink:href="#ArialMT-33" x="166.845703"/>
       <use xlink:href="#ArialMT-2d" x="222.460938"/>
       <use xlink:href="#ArialMT-31" x="255.761719"/>
       <use xlink:href="#ArialMT-32" x="311.376953"/>
       <use xlink:href="#ArialMT-2d" x="366.992188"/>
       <use xlink:href="#ArialMT-31" x="400.292969"/>
       <use xlink:href="#ArialMT-34" x="455.908203"/>
      </g>
     </g>
    </g>
    <g id="xtick_13">
     <g id="line2d_13">
      <path d="M 780.908392 342.205107 
L 780.908392 24.8475 
" clip-path="url(#p25872b337f)" style="fill: none; stroke-dasharray: 3.7,1.6; stroke-dashoffset: 0; stroke: #cccccc; stroke-opacity: 0.7"/>
     </g>
     <g id="text_13">
      <!-- 2024-01-16 -->
      <g style="fill: #262626" transform="translate(763.027705 397.055511) rotate(-45) scale(0.11 -0.11)">
       <use xlink:href="#ArialMT-32"/>
       <use xlink:href="#ArialMT-30" x="55.615234"/>
       <use xlink:href="#ArialMT-32" x="111.230469"/>
       <use xlink:href="#ArialMT-34" x="166.845703"/>
       <use xlink:href="#ArialMT-2d" x="222.460938"/>
       <use xlink:href="#ArialMT-30" x="255.761719"/>
       <use xlink:href="#ArialMT-31" x="311.376953"/>
       <use xlink:href="#ArialMT-2d" x="366.992188"/>
       <use xlink:href="#ArialMT-31" x="400.292969"/>
       <use xlink:href="#ArialMT-36" x="455.908203"/>
      </g>
     </g>
    </g>
    <g id="xtick_14">
     <g id="line2d_14">
      <path d="M 839.665258 342.205107 
L 839.665258 24.8475 
" clip-path="url(#p25872b337f)" style="fill: none; stroke-dasharray: 3.7,1.6; stroke-dashoffset: 0; stroke: #cccccc; stroke-opacity: 0.7"/>
     </g>
    </g>
    <g id="text_14">
     <!-- Fecha -->
     <g style="fill: #262626" transform="translate(432.542031 411.190798) scale(0.12 -0.12)">
      <defs>
       <path id="ArialMT-46" d="M 525 0 
L 525 4581 
L 3616 4581 
L 3616 4041 
L 1131 4041 
L 1131 2622 
L 3281 2622 
L 3281 2081 
L 1131 2081 
L 1131 0 
L 525 0 
z
" transform="scale(0.015625)"/>
       <path id="ArialMT-65" d="M 2694 1069 
L 3275 997 
Q 3138 488 2766 206 
Q 2394 -75 1816 -75 
Q 1088 -75 661 373 
Q 234 822 234 1631 
Q 234 2469 665 2931 
Q 1097 3394 1784 3394 
Q 2450 3394 2872 2941 
Q 3294 2488 3294 1666 
Q 3294 1616 3291 1516 
L 816 1516 
Q 847 969 1125 678 
Q 1403 388 1819 388 
Q 2128 388 2347 550 
Q 2566 713 2694 1069 
z
M 847 1978 
L 2700 1978 
Q 2663 2397 2488 2606 
Q 2219 2931 1791 2931 
Q 1403 2931 1139 2672 
Q 875 2413 847 1978 
z
" transform="scale(0.015625)"/>
       <path id="ArialMT-63" d="M 2588 1216 
L 3141 1144 
Q 3050 572 2676 248 
Q 2303 -75 1759 -75 
Q 1078 -75 664 370 
Q 250 816 250 1647 
Q 250 2184 428 2587 
Q 606 2991 970 3192 
Q 1334 3394 1763 3394 
Q 2303 3394 2647 3120 
Q 2991 2847 3088 2344 
L 2541 2259 
Q 2463 2594 2264 2762 
Q 2066 2931 1784 2931 
Q 1359 2931 1093 2626 
Q 828 2322 828 1663 
Q 828 994 1084 691 
Q 1341 388 1753 388 
Q 2084 388 2306 591 
Q 2528 794 2588 1216 
z
" transform="scale(0.015625)"/>
       <path id="ArialMT-68" d="M 422 0 
L 422 4581 
L 984 4581 
L 984 2938 
Q 1378 3394 1978 3394 
Q 2347 3394 2619 3248 
Q 2891 3103 3008 2847 
Q 3125 2591 3125 2103 
L 3125 0 
L 2563 0 
L 2563 2103 
Q 2563 2525 2380 2717 
Q 2197 2909 1863 2909 
Q 1613 2909 1392 2779 
Q 1172 2650 1078 2428 
Q 984 2206 984 1816 
L 984 0 
L 422 0 
z
" transform="scale(0.015625)"/>
       <path id="ArialMT-61" d="M 2588 409 
Q 2275 144 1986 34 
Q 1697 -75 1366 -75 
Q 819 -75 525 192 
Q 231 459 231 875 
Q 231 1119 342 1320 
Q 453 1522 633 1644 
Q 813 1766 1038 1828 
Q 1203 1872 1538 1913 
Q 2219 1994 2541 2106 
Q 2544 2222 2544 2253 
Q 2544 2597 2384 2738 
Q 2169 2928 1744 2928 
Q 1347 2928 1158 2789 
Q 969 2650 878 2297 
L 328 2372 
Q 403 2725 575 2942 
Q 747 3159 1072 3276 
Q 1397 3394 1825 3394 
Q 2250 3394 2515 3294 
Q 2781 3194 2906 3042 
Q 3031 2891 3081 2659 
Q 3109 2516 3109 2141 
L 3109 1391 
Q 3109 606 3145 398 
Q 3181 191 3288 0 
L 2700 0 
Q 2613 175 2588 409 
z
M 2541 1666 
Q 2234 1541 1622 1453 
Q 1275 1403 1131 1340 
Q 988 1278 909 1158 
Q 831 1038 831 891 
Q 831 666 1001 516 
Q 1172 366 1500 366 
Q 1825 366 2078 508 
Q 2331 650 2450 897 
Q 2541 1088 2541 1459 
L 2541 1666 
z
" transform="scale(0.015625)"/>
      </defs>
      <use xlink:href="#ArialMT-46"/>
      <use xlink:href="#ArialMT-65" x="61.083984"/>
      <use xlink:href="#ArialMT-63" x="116.699219"/>
      <use xlink:href="#ArialMT-68" x="166.699219"/>
      <use xlink:href="#ArialMT-61" x="222.314453"/>
     </g>
    </g>
   </g>
   <g id="matplotlib.axis_2">
    <g id="ytick_1">
     <g id="line2d_15">
      <path d="M 53.081406 329.076129 
L 845.351406 329.076129 
" clip-path="url(#p25872b337f)" style="fill: none; stroke-dasharray: 3.7,1.6; stroke-dashoffset: 0; stroke: #cccccc; stroke-opacity: 0.7"/>
     </g>
     <g id="text_15">
      <!-- 0.00 -->
      <g style="fill: #262626" transform="translate(22.174375 333.012925) scale(0.11 -0.11)">
       <defs>
        <path id="ArialMT-2e" d="M 581 0 
L 581 641 
L 1222 641 
L 1222 0 
L 581 0 
z
" transform="scale(0.015625)"/>
       </defs>
       <use xlink:href="#ArialMT-30"/>
       <use xlink:href="#ArialMT-2e" x="55.615234"/>
       <use xlink:href="#ArialMT-30" x="83.398438"/>
       <use xlink:href="#ArialMT-30" x="139.013672"/>
      </g>
     </g>
    </g>
    <g id="ytick_2">
     <g id="line2d_16">
      <path d="M 53.081406 285.457086 
L 845.351406 285.457086 
" clip-path="url(#p25872b337f)" style="fill: none; stroke-dasharray: 3.7,1.6; stroke-dashoffset: 0; stroke: #cccccc; stroke-opacity: 0.7"/>
     </g>
     <g id="text_16">
      <!-- 0.02 -->
      <g style="fill: #262626" transform="translate(22.174375 289.393883) scale(0.11 -0.11)">
       <use xlink:href="#ArialMT-30"/>
       <use xlink:href="#ArialMT-2e" x="55.615234"/>
       <use xlink:href="#ArialMT-30" x="83.398438"/>
       <use xlink:href="#ArialMT-32" x="139.013672"/>
      </g>
     </g>
    </g>
    <g id="ytick_3">
     <g id="line2d_17">
      <path d="M 53.081406 241.838043 
L 845.351406 241.838043 
" clip-path="url(#p25872b337f)" style="fill: none; stroke-dasharray: 3.7,1.6; stroke-dashoffset: 0; stroke: #cccccc; stroke-opacity: 0.7"/>
     </g>
     <g id="text_17">
      <!-- 0.04 -->
      <g style="fill: #262626" transform="translate(22.174375 245.77484) scale(0.11 -0.11)">
       <use xlink:href="#ArialMT-30"/>
       <use xlink:href="#ArialMT-2e" x="55.615234"/>
       <use xlink:href="#ArialMT-30" x="83.398438"/>
       <use xlink:href="#ArialMT-34" x="139.013672"/>
      </g>
     </g>
    </g>
    <g id="ytick_4">
     <g id="line2d_18">
      <path d="M 53.081406 198.219 
L 845.351406 198.219 
" clip-path="url(#p25872b337f)" style="fill: none; stroke-dasharray: 3.7,1.6; stroke-dashoffset: 0; stroke: #cccccc; stroke-opacity: 0.7"/>
     </g>
     <g id="text_18">
      <!-- 0.06 -->
      <g style="fill: #262626" transform="translate(22.174375 202.155797) scale(0.11 -0.11)">
       <use xlink:href="#ArialMT-30"/>
       <use xlink:href="#ArialMT-2e" x="55.615234"/>
       <use xlink:href="#ArialMT-30" x="83.398438"/>
       <use xlink:href="#ArialMT-36" x="139.013672"/>
      </g>
     </g>
    </g>
    <g id="ytick_5">
     <g id="line2d_19">
      <path d="M 53.081406 154.599957 
L 845.351406 154.599957 
" clip-path="url(#p25872b337f)" style="fill: none; stroke-dasharray: 3.7,1.6; stroke-dashoffset: 0; stroke: #cccccc; stroke-opacity: 0.7"/>
     </g>
     <g id="text_19">
      <!-- 0.08 -->
      <g style="fill: #262626" transform="translate(22.174375 158.536754) scale(0.11 -0.11)">
       <use xlink:href="#ArialMT-30"/>
       <use xlink:href="#ArialMT-2e" x="55.615234"/>
       <use xlink:href="#ArialMT-30" x="83.398438"/>
       <use xlink:href="#ArialMT-38" x="139.013672"/>
      </g>
     </g>
    </g>
    <g id="ytick_6">
     <g id="line2d_20">
      <path d="M 53.081406 110.980914 
L 845.351406 110.980914 
" clip-path="url(#p25872b337f)" style="fill: none; stroke-dasharray: 3.7,1.6; stroke-dashoffset: 0; stroke: #cccccc; stroke-opacity: 0.7"/>
     </g>
     <g id="text_20">
      <!-- 0.10 -->
      <g style="fill: #262626" transform="translate(22.174375 114.917711) scale(0.11 -0.11)">
       <use xlink:href="#ArialMT-30"/>
       <use xlink:href="#ArialMT-2e" x="55.615234"/>
       <use xlink:href="#ArialMT-31" x="83.398438"/>
       <use xlink:href="#ArialMT-30" x="139.013672"/>
      </g>
     </g>
    </g>
    <g id="ytick_7">
     <g id="line2d_21">
      <path d="M 53.081406 67.361872 
L 845.351406 67.361872 
" clip-path="url(#p25872b337f)" style="fill: none; stroke-dasharray: 3.7,1.6; stroke-dashoffset: 0; stroke: #cccccc; stroke-opacity: 0.7"/>
     </g>
     <g id="text_21">
      <!-- 0.12 -->
      <g style="fill: #262626" transform="translate(22.174375 71.298669) scale(0.11 -0.11)">
       <use xlink:href="#ArialMT-30"/>
       <use xlink:href="#ArialMT-2e" x="55.615234"/>
       <use xlink:href="#ArialMT-31" x="83.398438"/>
       <use xlink:href="#ArialMT-32" x="139.013672"/>
      </g>
     </g>
    </g>
    <g id="text_22">
     <!-- Tiempo de Espera -->
     <g style="fill: #262626" transform="translate(15.789375 232.323179) rotate(-90) scale(0.12 -0.12)">
      <defs>
       <path id="ArialMT-54" d="M 1659 0 
L 1659 4041 
L 150 4041 
L 150 4581 
L 3781 4581 
L 3781 4041 
L 2266 4041 
L 2266 0 
L 1659 0 
z
" transform="scale(0.015625)"/>
       <path id="ArialMT-69" d="M 425 3934 
L 425 4581 
L 988 4581 
L 988 3934 
L 425 3934 
z
M 425 0 
L 425 3319 
L 988 3319 
L 988 0 
L 425 0 
z
" transform="scale(0.015625)"/>
       <path id="ArialMT-6d" d="M 422 0 
L 422 3319 
L 925 3319 
L 925 2853 
Q 1081 3097 1340 3245 
Q 1600 3394 1931 3394 
Q 2300 3394 2536 3241 
Q 2772 3088 2869 2813 
Q 3263 3394 3894 3394 
Q 4388 3394 4653 3120 
Q 4919 2847 4919 2278 
L 4919 0 
L 4359 0 
L 4359 2091 
Q 4359 2428 4304 2576 
Q 4250 2725 4106 2815 
Q 3963 2906 3769 2906 
Q 3419 2906 3187 2673 
Q 2956 2441 2956 1928 
L 2956 0 
L 2394 0 
L 2394 2156 
Q 2394 2531 2256 2718 
Q 2119 2906 1806 2906 
Q 1569 2906 1367 2781 
Q 1166 2656 1075 2415 
Q 984 2175 984 1722 
L 984 0 
L 422 0 
z
" transform="scale(0.015625)"/>
       <path id="ArialMT-70" d="M 422 -1272 
L 422 3319 
L 934 3319 
L 934 2888 
Q 1116 3141 1344 3267 
Q 1572 3394 1897 3394 
Q 2322 3394 2647 3175 
Q 2972 2956 3137 2557 
Q 3303 2159 3303 1684 
Q 3303 1175 3120 767 
Q 2938 359 2589 142 
Q 2241 -75 1856 -75 
Q 1575 -75 1351 44 
Q 1128 163 984 344 
L 984 -1272 
L 422 -1272 
z
M 931 1641 
Q 931 1000 1190 694 
Q 1450 388 1819 388 
Q 2194 388 2461 705 
Q 2728 1022 2728 1688 
Q 2728 2322 2467 2637 
Q 2206 2953 1844 2953 
Q 1484 2953 1207 2617 
Q 931 2281 931 1641 
z
" transform="scale(0.015625)"/>
       <path id="ArialMT-6f" d="M 213 1659 
Q 213 2581 725 3025 
Q 1153 3394 1769 3394 
Q 2453 3394 2887 2945 
Q 3322 2497 3322 1706 
Q 3322 1066 3130 698 
Q 2938 331 2570 128 
Q 2203 -75 1769 -75 
Q 1072 -75 642 372 
Q 213 819 213 1659 
z
M 791 1659 
Q 791 1022 1069 705 
Q 1347 388 1769 388 
Q 2188 388 2466 706 
Q 2744 1025 2744 1678 
Q 2744 2294 2464 2611 
Q 2184 2928 1769 2928 
Q 1347 2928 1069 2612 
Q 791 2297 791 1659 
z
" transform="scale(0.015625)"/>
       <path id="ArialMT-20" transform="scale(0.015625)"/>
       <path id="ArialMT-64" d="M 2575 0 
L 2575 419 
Q 2259 -75 1647 -75 
Q 1250 -75 917 144 
Q 584 363 401 755 
Q 219 1147 219 1656 
Q 219 2153 384 2558 
Q 550 2963 881 3178 
Q 1213 3394 1622 3394 
Q 1922 3394 2156 3267 
Q 2391 3141 2538 2938 
L 2538 4581 
L 3097 4581 
L 3097 0 
L 2575 0 
z
M 797 1656 
Q 797 1019 1065 703 
Q 1334 388 1700 388 
Q 2069 388 2326 689 
Q 2584 991 2584 1609 
Q 2584 2291 2321 2609 
Q 2059 2928 1675 2928 
Q 1300 2928 1048 2622 
Q 797 2316 797 1656 
z
" transform="scale(0.015625)"/>
       <path id="ArialMT-45" d="M 506 0 
L 506 4581 
L 3819 4581 
L 3819 4041 
L 1113 4041 
L 1113 2638 
L 3647 2638 
L 3647 2100 
L 1113 2100 
L 1113 541 
L 3925 541 
L 3925 0 
L 506 0 
z
" transform="scale(0.015625)"/>
       <path id="ArialMT-73" d="M 197 991 
L 753 1078 
Q 800 744 1014 566 
Q 1228 388 1613 388 
Q 2000 388 2187 545 
Q 2375 703 2375 916 
Q 2375 1106 2209 1216 
Q 2094 1291 1634 1406 
Q 1016 1563 777 1677 
Q 538 1791 414 1992 
Q 291 2194 291 2438 
Q 291 2659 392 2848 
Q 494 3038 669 3163 
Q 800 3259 1026 3326 
Q 1253 3394 1513 3394 
Q 1903 3394 2198 3281 
Q 2494 3169 2634 2976 
Q 2775 2784 2828 2463 
L 2278 2388 
Q 2241 2644 2061 2787 
Q 1881 2931 1553 2931 
Q 1166 2931 1000 2803 
Q 834 2675 834 2503 
Q 834 2394 903 2306 
Q 972 2216 1119 2156 
Q 1203 2125 1616 2013 
Q 2213 1853 2448 1751 
Q 2684 1650 2818 1456 
Q 2953 1263 2953 975 
Q 2953 694 2789 445 
Q 2625 197 2315 61 
Q 2006 -75 1616 -75 
Q 969 -75 630 194 
Q 291 463 197 991 
z
" transform="scale(0.015625)"/>
       <path id="ArialMT-72" d="M 416 0 
L 416 3319 
L 922 3319 
L 922 2816 
Q 1116 3169 1280 3281 
Q 1444 3394 1641 3394 
Q 1925 3394 2219 3213 
L 2025 2691 
Q 1819 2813 1613 2813 
Q 1428 2813 1281 2702 
Q 1134 2591 1072 2394 
Q 978 2094 978 1738 
L 978 0 
L 416 0 
z
" transform="scale(0.015625)"/>
      </defs>
      <use xlink:href="#ArialMT-54"/>
      <use xlink:href="#ArialMT-69" x="57.333984"/>
      <use xlink:href="#ArialMT-65" x="79.550781"/>
      <use xlink:href="#ArialMT-6d" x="135.166016"/>
      <use xlink:href="#ArialMT-70" x="218.466797"/>
      <use xlink:href="#ArialMT-6f" x="274.082031"/>
      <use xlink:href="#ArialMT-20" x="329.697266"/>
      <use xlink:href="#ArialMT-64" x="357.480469"/>
      <use xlink:href="#ArialMT-65" x="413.095703"/>
      <use xlink:href="#ArialMT-20" x="468.710938"/>
      <use xlink:href="#ArialMT-45" x="496.494141"/>
      <use xlink:href="#ArialMT-73" x="563.193359"/>
      <use xlink:href="#ArialMT-70" x="613.193359"/>
      <use xlink:href="#ArialMT-65" x="668.808594"/>
      <use xlink:href="#ArialMT-72" x="724.423828"/>
      <use xlink:href="#ArialMT-61" x="757.724609"/>
     </g>
    </g>
   </g>
   <g id="line2d_22">
    <path d="M 89.093679 39.272846 
L 90.989062 304.911997 
L 92.884445 302.997729 
L 94.779827 286.397088 
L 96.67521 305.529251 
L 98.570593 289.06885 
L 100.465976 302.375414 
L 102.361358 295.597956 
L 104.256741 306.778273 
L 106.152124 296.397881 
L 108.047507 301.418936 
L 109.94289 309.153648 
L 111.838272 300.479994 
L 113.733655 308.147592 
L 115.629038 302.038966 
L 117.524421 303.194908 
L 119.419803 300.069405 
L 121.315186 295.183087 
L 123.210569 312.687035 
L 125.105952 285.823276 
L 127.001334 297.038917 
L 128.896717 282.385566 
L 130.7921 298.668557 
L 132.687483 293.029183 
L 134.582866 298.15654 
L 136.478248 316.602965 
L 138.373631 274.717575 
L 140.269014 289.775271 
L 142.164397 257.960343 
L 144.059779 278.266109 
L 145.955162 241.67781 
L 147.850545 305.305759 
L 149.745928 281.547507 
L 151.641311 215.875198 
L 153.536693 263.193305 
L 155.432076 283.078142 
L 157.327459 287.879616 
L 159.222842 280.60399 
L 161.118224 268.866874 
L 163.013607 281.997314 
L 164.90899 271.92077 
L 166.804373 283.628399 
L 168.699756 290.815492 
L 170.595138 294.99928 
L 172.490521 293.352523 
L 174.385904 286.05586 
L 176.281287 286.660211 
L 178.176669 262.72923 
L 180.072052 268.795301 
L 181.967435 239.085363 
L 183.862818 281.527812 
L 185.758201 278.947363 
L 187.653583 255.717709 
L 189.548966 292.709409 
L 191.444349 266.942198 
L 193.339732 256.101054 
L 195.235114 274.946103 
L 197.130497 269.90987 
L 199.02588 270.314157 
L 200.921263 260.991113 
L 202.816645 277.467876 
L 204.712028 261.620286 
L 206.607411 261.765917 
L 208.502794 298.082091 
L 210.398177 290.017183 
L 212.293559 281.317109 
L 214.188942 258.585648 
L 216.084325 289.458387 
L 217.979708 241.644231 
L 219.87509 254.420055 
L 221.770473 282.976398 
L 225.561239 293.166639 
L 227.456622 297.001156 
L 229.352004 290.711838 
L 231.247387 242.862726 
L 233.14277 285.224397 
L 235.038153 289.139572 
L 236.933535 291.420153 
L 238.828918 296.838277 
L 240.724301 276.122017 
L 242.619684 312.448384 
L 244.515067 267.437665 
L 246.410449 276.196661 
L 248.305832 304.290771 
L 250.201215 298.097701 
L 252.096598 308.31997 
L 253.99198 286.616382 
L 255.887363 314.834363 
L 257.782746 251.302648 
L 259.678129 268.07396 
L 261.573512 268.588916 
L 263.468894 285.438174 
L 265.364277 299.696763 
L 267.25966 294.047199 
L 269.155043 287.055602 
L 271.050425 272.571381 
L 272.945808 295.34483 
L 274.841191 299.792642 
L 276.736574 305.317772 
L 278.631956 287.137393 
L 280.527339 297.725187 
L 282.422722 302.32894 
L 284.318105 275.637065 
L 286.213488 294.383945 
L 290.004253 307.205587 
L 291.899636 291.207178 
L 293.795019 252.576452 
L 295.690401 305.90199 
L 297.585784 288.676943 
L 299.481167 292.423854 
L 301.37655 288.255818 
L 303.271933 303.253955 
L 307.062698 278.086019 
L 308.958081 305.011566 
L 310.853464 291.378272 
L 312.748846 249.931124 
L 314.644229 297.835897 
L 316.539612 294.346144 
L 318.434995 286.89091 
L 320.330378 309.861594 
L 322.22576 319.412511 
L 324.121143 289.960493 
L 326.016526 280.293575 
L 327.911909 289.275352 
L 329.807291 308.311459 
L 331.702674 314.993188 
L 333.598057 290.197483 
L 335.49344 302.351544 
L 337.388823 296.844343 
L 339.284205 302.451813 
L 341.179588 305.937248 
L 343.074971 307.664245 
L 344.970354 310.930287 
L 346.865736 310.131604 
L 348.761119 313.284792 
L 350.656502 307.738092 
L 352.551885 305.983597 
L 354.447267 310.559397 
L 356.34265 311.79615 
L 358.238033 298.375795 
L 360.133416 313.277235 
L 362.028799 310.135268 
L 363.924181 295.902197 
L 367.714947 311.769502 
L 369.61033 315.267646 
L 371.505712 309.720501 
L 375.296478 314.860297 
L 377.191861 301.999185 
L 379.087244 296.882947 
L 380.982626 306.722155 
L 382.878009 313.894719 
L 384.773392 286.757656 
L 386.668775 290.322311 
L 388.564157 297.817653 
L 390.45954 304.682719 
L 392.354923 302.987124 
L 394.250306 294.226176 
L 396.145689 303.745337 
L 398.041071 294.119085 
L 399.936454 298.653709 
L 401.831837 312.452635 
L 403.72722 282.038276 
L 405.622602 297.496797 
L 407.517985 307.580042 
L 409.413368 307.584151 
L 411.308751 284.87668 
L 413.204134 289.026053 
L 415.099516 295.528709 
L 416.994899 286.333361 
L 418.890282 298.9602 
L 420.785665 304.728207 
L 422.681047 297.167431 
L 424.57643 294.816293 
L 426.471813 301.122459 
L 428.367196 305.851418 
L 430.262578 305.386975 
L 432.157961 297.260125 
L 434.053344 304.713278 
L 435.948727 314.685739 
L 437.84411 288.848452 
L 441.634875 305.968827 
L 443.530258 279.711972 
L 445.425641 306.178952 
L 447.321023 273.481451 
L 449.216406 306.187022 
L 451.111789 286.512786 
L 453.007172 294.990369 
L 454.902555 292.1006 
L 456.797937 295.787739 
L 458.69332 296.483638 
L 460.588703 294.161178 
L 462.484086 284.564631 
L 464.379468 281.11143 
L 466.274851 298.41629 
L 468.170234 297.426232 
L 471.961 269.761577 
L 473.856382 283.642653 
L 475.751765 292.680596 
L 477.647148 302.901883 
L 479.542531 304.27594 
L 481.437913 281.718231 
L 483.333296 273.353144 
L 485.228679 260.57141 
L 487.124062 295.019719 
L 489.019445 299.022848 
L 490.914827 308.171653 
L 492.81021 303.554368 
L 494.705593 282.49315 
L 496.600976 285.558963 
L 498.496358 292.2992 
L 500.391741 277.918267 
L 502.287124 282.933505 
L 504.182507 291.57071 
L 506.07789 302.016599 
L 507.973272 292.493457 
L 509.868655 278.195549 
L 511.764038 280.528352 
L 513.659421 306.377407 
L 515.554803 268.063758 
L 517.450186 289.281099 
L 519.345569 297.128671 
L 521.240952 296.54191 
L 523.136334 302.198117 
L 525.031717 300.215129 
L 526.9271 296.533064 
L 528.822483 301.630639 
L 530.717866 296.085337 
L 532.613248 271.925377 
L 534.508631 288.589424 
L 536.404014 287.782119 
L 538.299397 283.635849 
L 540.194779 303.59701 
L 542.090162 299.596224 
L 543.985545 297.752126 
L 545.880928 302.878353 
L 547.776311 262.286896 
L 549.671693 282.0242 
L 551.567076 290.222988 
L 553.462459 276.124041 
L 555.357842 306.174847 
L 557.253224 255.800905 
L 559.148607 275.166272 
L 561.04399 257.34783 
L 562.939373 287.536023 
L 564.834756 256.22838 
L 566.730138 294.301846 
L 568.625521 275.053052 
L 570.520904 272.97408 
L 572.416287 285.571193 
L 574.311669 268.850774 
L 576.207052 270.416206 
L 578.102435 270.445823 
L 579.997818 257.586498 
L 581.893201 255.000347 
L 583.788583 235.523039 
L 585.683966 261.174986 
L 587.579349 276.578976 
L 589.474732 237.223247 
L 591.370114 285.656019 
L 593.265497 263.819771 
L 595.16088 283.599747 
L 597.056263 258.08018 
L 598.951645 273.19955 
L 600.847028 279.492016 
L 602.742411 276.38543 
L 604.637794 274.997325 
L 606.533177 260.727228 
L 608.428559 279.897337 
L 610.323942 224.953169 
L 612.219325 250.070179 
L 614.114708 255.883279 
L 616.01009 273.574721 
L 617.905473 287.475316 
L 619.800856 256.877679 
L 621.696239 271.132632 
L 623.591622 260.42678 
L 625.487004 286.177589 
L 627.382387 300.307539 
L 629.27777 291.835431 
L 631.173153 268.02629 
L 633.068535 265.454951 
L 634.963918 278.005076 
L 636.859301 258.279927 
L 638.754684 267.501553 
L 640.650067 277.457811 
L 642.545449 300.28712 
L 644.440832 249.203849 
L 646.336215 285.012447 
L 648.231598 289.992182 
L 650.12698 292.666911 
L 652.022363 290.165975 
L 653.917746 300.836646 
L 655.813129 299.966078 
L 657.708512 279.053543 
L 659.603894 305.043171 
L 661.499277 305.268364 
L 663.39466 272.007747 
L 665.290043 283.998202 
L 667.185425 278.188077 
L 669.080808 275.892997 
L 670.976191 295.205638 
L 672.871574 288.645311 
L 674.766956 271.88901 
L 676.662339 279.087615 
L 678.557722 266.929016 
L 680.453105 293.416241 
L 682.348488 295.006371 
L 684.24387 286.868416 
L 686.139253 298.21675 
L 688.034636 307.146655 
L 689.930019 291.401657 
L 691.825401 301.385044 
L 693.720784 297.410572 
L 695.616167 292.991567 
L 697.51155 288.964194 
L 699.406933 294.443239 
L 701.302315 305.186436 
L 703.197698 290.235521 
L 705.093081 297.133176 
L 706.988464 294.847575 
L 708.883846 305.014115 
L 710.779229 304.733344 
L 712.674612 306.643219 
L 714.569995 301.439386 
L 716.465378 286.555876 
L 718.36076 295.415368 
L 720.256143 299.789564 
L 722.151526 291.478762 
L 724.046909 303.352503 
L 725.942291 290.050407 
L 727.837674 286.724647 
L 729.733057 289.220925 
L 731.62844 298.003908 
L 733.523823 298.368788 
L 735.419205 290.879377 
L 737.314588 272.27463 
L 739.209971 268.0438 
L 741.105354 297.339334 
L 743.000736 260.711554 
L 744.896119 309.44526 
L 746.791502 297.122139 
L 748.686885 297.94036 
L 750.582267 310.127545 
L 752.47765 315.290123 
L 754.373033 295.791747 
L 756.268416 301.201753 
L 758.163799 310.368468 
L 760.059181 307.578703 
L 761.954564 317.731721 
L 763.849947 316.913113 
L 765.74533 285.162092 
L 767.640712 306.941134 
L 769.536095 310.742325 
L 771.431478 305.518363 
L 773.326861 286.690362 
L 775.222244 301.251778 
L 777.117626 293.516902 
L 779.013009 284.313989 
L 780.908392 289.57206 
L 782.803775 295.876117 
L 784.699157 300.830193 
L 786.59454 297.880686 
L 788.489923 290.027113 
L 790.385306 303.23464 
L 792.280689 298.521314 
L 794.176071 309.803989 
L 796.071454 300.229445 
L 797.966837 301.359487 
L 799.86222 298.543215 
L 801.757602 302.25571 
L 803.652985 309.140082 
L 805.548368 293.746337 
L 807.443751 297.525947 
L 809.339134 299.777401 
L 809.339134 299.777401 
" clip-path="url(#p25872b337f)" style="fill: none; stroke: #4c72b0; stroke-width: 2; stroke-linecap: round"/>
   </g>
   <g id="line2d_23">
    <path d="M 89.093679 198.915076 
L 90.989062 310.895812 
L 92.884445 294.623013 
L 94.779827 320.194648 
L 96.67521 325.817278 
L 98.570593 316.261948 
L 100.465976 326.342861 
L 102.361358 325.565182 
L 104.256741 326.587352 
L 106.152124 324.717841 
L 108.047507 323.008131 
L 109.94289 323.849036 
L 111.838272 326.677401 
L 113.733655 315.490567 
L 115.629038 80.531127 
L 117.524421 327.424371 
L 119.419803 326.482656 
L 121.315186 326.08821 
L 123.210569 326.677872 
L 125.105952 325.476367 
L 127.001334 324.673467 
L 128.896717 323.574773 
L 130.7921 321.549302 
L 132.687483 320.402469 
L 134.582866 326.69446 
L 136.478248 324.680588 
L 138.373631 326.930965 
L 140.269014 319.297734 
L 142.164397 323.625545 
L 144.059779 327.472281 
L 145.955162 268.155044 
L 147.850545 323.37485 
L 149.745928 281.306361 
L 151.641311 256.787098 
L 153.536693 290.199239 
L 155.432076 319.384811 
L 157.327459 324.604912 
L 159.222842 325.465189 
L 161.118224 327.299162 
L 163.013607 326.370605 
L 164.90899 323.560444 
L 166.804373 327.571993 
L 168.699756 326.955185 
L 170.595138 325.73745 
L 172.490521 326.695831 
L 174.385904 326.419507 
L 176.281287 327.458955 
L 178.176669 325.68526 
L 180.072052 326.728687 
L 181.967435 322.251447 
L 183.862818 326.447747 
L 185.758201 321.890085 
L 187.653583 326.321847 
L 189.548966 326.968752 
L 191.444349 325.112751 
L 193.339732 325.854865 
L 195.235114 322.057299 
L 197.130497 325.955732 
L 199.02588 325.777549 
L 200.921263 325.897868 
L 202.816645 326.491342 
L 204.712028 326.160054 
L 206.607411 322.037172 
L 208.502794 325.317542 
L 210.398177 325.6796 
L 212.293559 324.523477 
L 214.188942 324.964243 
L 216.084325 325.663583 
L 217.979708 325.991134 
L 219.87509 324.411849 
L 221.770473 325.073159 
L 223.665856 321.669517 
L 225.561239 327.577555 
L 227.456622 327.026109 
L 229.352004 327.264126 
L 231.247387 327.708906 
L 233.14277 325.604428 
L 236.933535 324.155511 
L 238.828918 326.285057 
L 240.724301 325.958278 
L 242.619684 324.608493 
L 244.515067 320.688121 
L 246.410449 323.394534 
L 248.305832 323.260443 
L 250.201215 326.883436 
L 252.096598 326.496063 
L 253.99198 327.775986 
L 255.887363 327.779761 
L 257.782746 324.371066 
L 259.678129 326.786624 
L 261.573512 326.990754 
L 263.468894 326.447499 
L 265.364277 315.39186 
L 267.25966 326.897722 
L 269.155043 325.346032 
L 271.050425 326.551671 
L 272.945808 325.643814 
L 274.841191 325.151049 
L 276.736574 327.62865 
L 278.631956 321.475462 
L 280.527339 326.800203 
L 282.422722 327.278035 
L 284.318105 281.569211 
L 286.213488 314.973053 
L 288.10887 305.387588 
L 290.004253 309.455114 
L 291.899636 306.924543 
L 293.795019 322.62897 
L 295.690401 314.365341 
L 297.585784 324.991977 
L 299.481167 320.62713 
L 301.37655 303.686055 
L 303.271933 318.271168 
L 305.167315 322.078641 
L 307.062698 324.517031 
L 308.958081 317.060698 
L 310.853464 319.263594 
L 312.748846 326.155454 
L 314.644229 325.835096 
L 316.539612 324.086762 
L 318.434995 320.318378 
L 320.330378 326.411311 
L 322.22576 325.478187 
L 324.121143 312.577917 
L 326.016526 316.964968 
L 327.911909 310.797104 
L 329.807291 314.73573 
L 331.702674 314.692083 
L 333.598057 321.847643 
L 335.49344 294.146909 
L 337.388823 309.867033 
L 339.284205 309.668807 
L 341.179588 308.101079 
L 343.074971 314.525553 
L 344.970354 322.12541 
L 346.865736 324.916386 
L 348.761119 325.853359 
L 350.656502 318.066483 
L 352.551885 321.974311 
L 354.447267 322.242284 
L 356.34265 325.143904 
L 360.133416 325.723935 
L 362.028799 320.110756 
L 363.924181 322.172346 
L 365.819564 323.230144 
L 367.714947 321.940132 
L 369.61033 322.529102 
L 371.505712 319.81701 
L 373.401095 323.394497 
L 375.296478 324.451923 
L 377.191861 317.954719 
L 379.087244 323.414185 
L 380.982626 321.750892 
L 382.878009 317.13702 
L 384.773392 322.976058 
L 386.668775 320.682384 
L 388.564157 317.254495 
L 390.45954 318.55957 
L 392.354923 318.69248 
L 394.250306 320.370354 
L 396.145689 322.279634 
L 398.041071 320.698404 
L 399.936454 325.568262 
L 401.831837 315.499611 
L 403.72722 315.127782 
L 405.622602 323.2445 
L 407.517985 316.014313 
L 409.413368 316.651435 
L 411.308751 321.750551 
L 413.204134 321.186156 
L 415.099516 308.121208 
L 416.994899 321.494953 
L 418.890282 324.434787 
L 420.785665 319.47079 
L 422.681047 320.432159 
L 424.57643 321.752814 
L 426.471813 320.619559 
L 428.367196 326.417111 
L 430.262578 323.901475 
L 432.157961 320.291898 
L 434.053344 320.639303 
L 435.948727 317.832719 
L 437.84411 319.083042 
L 439.739492 324.809291 
L 441.634875 321.690607 
L 443.530258 323.27091 
L 445.425641 308.078045 
L 447.321023 322.154875 
L 449.216406 323.410605 
L 451.111789 325.149845 
L 453.007172 313.282242 
L 454.902555 321.57654 
L 456.797937 314.341155 
L 458.69332 318.851777 
L 460.588703 322.739576 
L 462.484086 320.388569 
L 464.379468 321.013066 
L 466.274851 325.51508 
L 468.170234 319.666839 
L 470.065617 321.4247 
L 471.961 314.641601 
L 473.856382 320.981798 
L 475.751765 320.741404 
L 477.647148 325.078286 
L 479.542531 322.312484 
L 481.437913 313.729792 
L 483.333296 320.300839 
L 485.228679 321.909033 
L 487.124062 318.901629 
L 489.019445 302.334164 
L 490.914827 318.870756 
L 492.81021 322.839677 
L 494.705593 308.462029 
L 496.600976 310.564219 
L 498.496358 321.280975 
L 500.391741 316.026433 
L 502.287124 317.97866 
L 504.182507 311.758612 
L 506.07789 289.644312 
L 507.973272 291.059195 
L 509.868655 317.8937 
L 511.764038 304.410818 
L 513.659421 314.527637 
L 515.554803 300.979216 
L 517.450186 319.897015 
L 519.345569 319.693705 
L 521.240952 314.779685 
L 523.136334 321.0298 
L 526.9271 321.800242 
L 528.822483 319.316686 
L 530.717866 315.478549 
L 532.613248 323.396236 
L 534.508631 320.0707 
L 536.404014 318.757555 
L 538.299397 318.475881 
L 540.194779 320.725082 
L 542.090162 315.384086 
L 543.985545 316.052626 
L 545.880928 324.056989 
L 547.776311 317.124932 
L 549.671693 320.08347 
L 551.567076 302.998552 
L 553.462459 315.69979 
L 555.357842 323.898814 
L 557.253224 304.307749 
L 559.148607 326.507599 
L 561.04399 321.340967 
L 562.939373 298.746956 
L 564.834756 308.880608 
L 566.730138 322.200142 
L 568.625521 316.18726 
L 570.520904 320.16732 
L 572.416287 320.983835 
L 574.311669 291.206198 
L 576.207052 303.052636 
L 578.102435 324.272371 
L 579.997818 303.908702 
L 581.893201 326.436589 
L 583.788583 323.343214 
L 585.683966 325.956125 
L 587.579349 323.06404 
L 589.474732 325.089934 
L 591.370114 323.916128 
L 593.265497 314.927901 
L 595.16088 327.64572 
L 597.056263 299.673228 
L 598.951645 311.364849 
L 600.847028 172.651546 
L 602.742411 301.369633 
L 604.637794 290.239861 
L 606.533177 317.916991 
L 608.428559 316.86122 
L 610.323942 283.941288 
L 612.219325 309.318992 
L 614.114708 304.755101 
L 616.01009 319.20123 
L 617.905473 293.091469 
L 619.800856 301.561553 
L 621.696239 319.687149 
L 623.591622 292.806732 
L 625.487004 302.993676 
L 627.382387 304.886436 
L 629.27777 276.016091 
L 631.173153 312.008544 
L 633.068535 321.904845 
L 634.963918 312.078293 
L 636.859301 305.266531 
L 638.754684 313.214554 
L 640.650067 313.129396 
L 642.545449 319.233762 
L 644.440832 319.588519 
L 646.336215 320.433007 
L 648.231598 312.60649 
L 650.12698 319.624584 
L 652.022363 316.65412 
L 653.917746 316.884799 
L 655.813129 322.047254 
L 657.708512 320.39792 
L 659.603894 324.271399 
L 661.499277 320.996022 
L 663.39466 316.534311 
L 665.290043 316.605491 
L 667.185425 320.758644 
L 669.080808 322.460402 
L 670.976191 322.627629 
L 672.871574 319.641225 
L 674.766956 317.152912 
L 676.662339 324.952946 
L 678.557722 313.257981 
L 680.453105 321.323083 
L 682.348488 323.432928 
L 684.24387 321.5104 
L 686.139253 324.592625 
L 688.034636 315.264784 
L 689.930019 321.01875 
L 691.825401 310.018369 
L 693.720784 319.87603 
L 695.616167 322.708246 
L 697.51155 319.974082 
L 699.406933 321.227224 
L 701.302315 317.984833 
L 703.197698 315.223338 
L 705.093081 318.293079 
L 706.988464 319.566557 
L 708.883846 317.816278 
L 710.779229 319.941892 
L 712.674612 316.700131 
L 714.569995 320.231564 
L 716.465378 316.886646 
L 718.36076 315.276139 
L 720.256143 310.832938 
L 722.151526 318.723065 
L 725.942291 321.344875 
L 727.837674 318.873454 
L 729.733057 316.218178 
L 731.62844 310.804471 
L 733.523823 318.165047 
L 735.419205 320.580836 
L 737.314588 320.225904 
L 739.209971 318.998983 
L 741.105354 317.428856 
L 743.000736 311.175017 
L 744.896119 323.452538 
L 746.791502 322.339085 
L 748.686885 318.007267 
L 750.582267 320.507344 
L 752.47765 323.352881 
L 754.373033 320.467095 
L 756.268416 325.189187 
L 758.163799 318.344775 
L 760.059181 318.714696 
L 761.954564 324.770905 
L 763.849947 323.771725 
L 765.74533 318.142413 
L 767.640712 309.003364 
L 769.536095 325.873025 
L 771.431478 326.679714 
L 773.326861 323.073475 
L 775.222244 321.521287 
L 777.117626 323.579305 
L 779.013009 320.518034 
L 780.908392 320.174948 
L 782.803775 318.590812 
L 784.699157 326.413976 
L 786.59454 322.505274 
L 788.489923 323.532744 
L 790.385306 322.294661 
L 792.280689 322.868261 
L 794.176071 310.79358 
L 796.071454 321.159698 
L 797.966837 315.861019 
L 799.86222 320.986574 
L 801.757602 322.475917 
L 803.652985 319.736924 
L 805.548368 314.86317 
L 807.443751 323.096216 
L 809.339134 321.285249 
L 809.339134 321.285249 
" clip-path="url(#p25872b337f)" style="fill: none; stroke: #dd8452; stroke-width: 2; stroke-linecap: round"/>
   </g>
   <g id="patch_3">
    <path d="M 53.081406 342.205107 
L 53.081406 24.8475 
" style="fill: none; stroke: #cccccc; stroke-width: 1.25; stroke-linejoin: miter; stroke-linecap: square"/>
   </g>
   <g id="patch_4">
    <path d="M 845.351406 342.205107 
L 845.351406 24.8475 
" style="fill: none; stroke: #cccccc; stroke-width: 1.25; stroke-linejoin: miter; stroke-linecap: square"/>
   </g>
   <g id="patch_5">
    <path d="M 53.081406 342.205107 
L 845.351406 342.205107 
" style="fill: none; stroke: #cccccc; stroke-width: 1.25; stroke-linejoin: miter; stroke-linecap: square"/>
   </g>
   <g id="patch_6">
    <path d="M 53.081406 24.8475 
L 845.351406 24.8475 
" style="fill: none; stroke: #cccccc; stroke-width: 1.25; stroke-linejoin: miter; stroke-linecap: square"/>
   </g>
   <g id="text_23">
    <!-- Comparacin de Tiempo de Espera de Tienda AL vs Tienda C -->
    <g style="fill: #262626" transform="translate(216.705156 18.8475) scale(0.16 -0.16)">
     <defs>
      <path id="Arial-BoldMT-43" d="M 3397 1684 
L 4294 1400 
Q 4088 650 3608 286 
Q 3128 -78 2391 -78 
Q 1478 -78 890 545 
Q 303 1169 303 2250 
Q 303 3394 893 4026 
Q 1484 4659 2447 4659 
Q 3288 4659 3813 4163 
Q 4125 3869 4281 3319 
L 3366 3100 
Q 3284 3456 3026 3662 
Q 2769 3869 2400 3869 
Q 1891 3869 1573 3503 
Q 1256 3138 1256 2319 
Q 1256 1450 1568 1081 
Q 1881 713 2381 713 
Q 2750 713 3015 947 
Q 3281 1181 3397 1684 
z
" transform="scale(0.015625)"/>
      <path id="Arial-BoldMT-6f" d="M 256 1706 
Q 256 2144 472 2553 
Q 688 2963 1083 3178 
Q 1478 3394 1966 3394 
Q 2719 3394 3200 2905 
Q 3681 2416 3681 1669 
Q 3681 916 3195 420 
Q 2709 -75 1972 -75 
Q 1516 -75 1102 131 
Q 688 338 472 736 
Q 256 1134 256 1706 
z
M 1156 1659 
Q 1156 1166 1390 903 
Q 1625 641 1969 641 
Q 2313 641 2545 903 
Q 2778 1166 2778 1666 
Q 2778 2153 2545 2415 
Q 2313 2678 1969 2678 
Q 1625 2678 1390 2415 
Q 1156 2153 1156 1659 
z
" transform="scale(0.015625)"/>
      <path id="Arial-BoldMT-6d" d="M 394 3319 
L 1203 3319 
L 1203 2866 
Q 1638 3394 2238 3394 
Q 2556 3394 2790 3262 
Q 3025 3131 3175 2866 
Q 3394 3131 3647 3262 
Q 3900 3394 4188 3394 
Q 4553 3394 4806 3245 
Q 5059 3097 5184 2809 
Q 5275 2597 5275 2122 
L 5275 0 
L 4397 0 
L 4397 1897 
Q 4397 2391 4306 2534 
Q 4184 2722 3931 2722 
Q 3747 2722 3584 2609 
Q 3422 2497 3350 2280 
Q 3278 2063 3278 1594 
L 3278 0 
L 2400 0 
L 2400 1819 
Q 2400 2303 2353 2443 
Q 2306 2584 2207 2653 
Q 2109 2722 1941 2722 
Q 1738 2722 1575 2612 
Q 1413 2503 1342 2297 
Q 1272 2091 1272 1613 
L 1272 0 
L 394 0 
L 394 3319 
z
" transform="scale(0.015625)"/>
      <path id="Arial-BoldMT-70" d="M 434 3319 
L 1253 3319 
L 1253 2831 
Q 1413 3081 1684 3237 
Q 1956 3394 2288 3394 
Q 2866 3394 3269 2941 
Q 3672 2488 3672 1678 
Q 3672 847 3265 386 
Q 2859 -75 2281 -75 
Q 2006 -75 1782 34 
Q 1559 144 1313 409 
L 1313 -1263 
L 434 -1263 
L 434 3319 
z
M 1303 1716 
Q 1303 1156 1525 889 
Q 1747 622 2066 622 
Q 2372 622 2575 867 
Q 2778 1113 2778 1672 
Q 2778 2194 2568 2447 
Q 2359 2700 2050 2700 
Q 1728 2700 1515 2451 
Q 1303 2203 1303 1716 
z
" transform="scale(0.015625)"/>
      <path id="Arial-BoldMT-61" d="M 1116 2306 
L 319 2450 
Q 453 2931 781 3162 
Q 1109 3394 1756 3394 
Q 2344 3394 2631 3255 
Q 2919 3116 3036 2902 
Q 3153 2688 3153 2116 
L 3144 1091 
Q 3144 653 3186 445 
Q 3228 238 3344 0 
L 2475 0 
Q 2441 88 2391 259 
Q 2369 338 2359 363 
Q 2134 144 1878 34 
Q 1622 -75 1331 -75 
Q 819 -75 523 203 
Q 228 481 228 906 
Q 228 1188 362 1408 
Q 497 1628 739 1745 
Q 981 1863 1438 1950 
Q 2053 2066 2291 2166 
L 2291 2253 
Q 2291 2506 2166 2614 
Q 2041 2722 1694 2722 
Q 1459 2722 1328 2630 
Q 1197 2538 1116 2306 
z
M 2291 1594 
Q 2122 1538 1756 1459 
Q 1391 1381 1278 1306 
Q 1106 1184 1106 997 
Q 1106 813 1243 678 
Q 1381 544 1594 544 
Q 1831 544 2047 700 
Q 2206 819 2256 991 
Q 2291 1103 2291 1419 
L 2291 1594 
z
" transform="scale(0.015625)"/>
      <path id="Arial-BoldMT-72" d="M 1300 0 
L 422 0 
L 422 3319 
L 1238 3319 
L 1238 2847 
Q 1447 3181 1614 3287 
Q 1781 3394 1994 3394 
Q 2294 3394 2572 3228 
L 2300 2463 
Q 2078 2606 1888 2606 
Q 1703 2606 1575 2504 
Q 1447 2403 1373 2137 
Q 1300 1872 1300 1025 
L 1300 0 
z
" transform="scale(0.015625)"/>
      <path id="Arial-BoldMT-63" d="M 3353 2338 
L 2488 2181 
Q 2444 2441 2289 2572 
Q 2134 2703 1888 2703 
Q 1559 2703 1364 2476 
Q 1169 2250 1169 1719 
Q 1169 1128 1367 884 
Q 1566 641 1900 641 
Q 2150 641 2309 783 
Q 2469 925 2534 1272 
L 3397 1125 
Q 3263 531 2881 228 
Q 2500 -75 1859 -75 
Q 1131 -75 698 384 
Q 266 844 266 1656 
Q 266 2478 700 2936 
Q 1134 3394 1875 3394 
Q 2481 3394 2839 3133 
Q 3197 2872 3353 2338 
z
" transform="scale(0.015625)"/>
      <path id="Arial-BoldMT-69" d="M 459 3769 
L 459 4581 
L 1338 4581 
L 1338 3769 
L 459 3769 
z
M 459 0 
L 459 3319 
L 1338 3319 
L 1338 0 
L 459 0 
z
" transform="scale(0.015625)"/>
      <path id="Arial-BoldMT-f3" d="M 256 1706 
Q 256 2144 472 2553 
Q 688 2963 1083 3178 
Q 1478 3394 1966 3394 
Q 2719 3394 3200 2905 
Q 3681 2416 3681 1669 
Q 3681 916 3195 420 
Q 2709 -75 1972 -75 
Q 1516 -75 1102 131 
Q 688 338 472 736 
Q 256 1134 256 1706 
z
M 1156 1659 
Q 1156 1166 1390 903 
Q 1625 641 1969 641 
Q 2313 641 2545 903 
Q 2778 1166 2778 1666 
Q 2778 2153 2545 2415 
Q 2313 2678 1969 2678 
Q 1625 2678 1390 2415 
Q 1156 2153 1156 1659 
z
M 1528 3725 
L 1960 4659 
L 2944 4659 
L 2085 3725 
L 1528 3725 
z
" transform="scale(0.015625)"/>
      <path id="Arial-BoldMT-6e" d="M 3478 0 
L 2600 0 
L 2600 1694 
Q 2600 2231 2544 2389 
Q 2488 2547 2361 2634 
Q 2234 2722 2056 2722 
Q 1828 2722 1647 2597 
Q 1466 2472 1398 2265 
Q 1331 2059 1331 1503 
L 1331 0 
L 453 0 
L 453 3319 
L 1269 3319 
L 1269 2831 
Q 1703 3394 2363 3394 
Q 2653 3394 2893 3289 
Q 3134 3184 3257 3021 
Q 3381 2859 3429 2653 
Q 3478 2447 3478 2063 
L 3478 0 
z
" transform="scale(0.015625)"/>
      <path id="Arial-BoldMT-20" transform="scale(0.015625)"/>
      <path id="Arial-BoldMT-64" d="M 3503 0 
L 2688 0 
L 2688 488 
Q 2484 203 2207 64 
Q 1931 -75 1650 -75 
Q 1078 -75 670 386 
Q 263 847 263 1672 
Q 263 2516 659 2955 
Q 1056 3394 1663 3394 
Q 2219 3394 2625 2931 
L 2625 4581 
L 3503 4581 
L 3503 0 
z
M 1159 1731 
Q 1159 1200 1306 963 
Q 1519 619 1900 619 
Q 2203 619 2415 876 
Q 2628 1134 2628 1647 
Q 2628 2219 2422 2470 
Q 2216 2722 1894 2722 
Q 1581 2722 1370 2473 
Q 1159 2225 1159 1731 
z
" transform="scale(0.015625)"/>
      <path id="Arial-BoldMT-65" d="M 2381 1056 
L 3256 909 
Q 3088 428 2723 176 
Q 2359 -75 1813 -75 
Q 947 -75 531 491 
Q 203 944 203 1634 
Q 203 2459 634 2926 
Q 1066 3394 1725 3394 
Q 2466 3394 2894 2905 
Q 3322 2416 3303 1406 
L 1103 1406 
Q 1113 1016 1316 798 
Q 1519 581 1822 581 
Q 2028 581 2168 693 
Q 2309 806 2381 1056 
z
M 2431 1944 
Q 2422 2325 2234 2523 
Q 2047 2722 1778 2722 
Q 1491 2722 1303 2513 
Q 1116 2303 1119 1944 
L 2431 1944 
z
" transform="scale(0.015625)"/>
      <path id="Arial-BoldMT-54" d="M 1497 0 
L 1497 3806 
L 138 3806 
L 138 4581 
L 3778 4581 
L 3778 3806 
L 2422 3806 
L 2422 0 
L 1497 0 
z
" transform="scale(0.015625)"/>
      <path id="Arial-BoldMT-45" d="M 466 0 
L 466 4581 
L 3863 4581 
L 3863 3806 
L 1391 3806 
L 1391 2791 
L 3691 2791 
L 3691 2019 
L 1391 2019 
L 1391 772 
L 3950 772 
L 3950 0 
L 466 0 
z
" transform="scale(0.015625)"/>
      <path id="Arial-BoldMT-73" d="M 150 947 
L 1031 1081 
Q 1088 825 1259 692 
Q 1431 559 1741 559 
Q 2081 559 2253 684 
Q 2369 772 2369 919 
Q 2369 1019 2306 1084 
Q 2241 1147 2013 1200 
Q 950 1434 666 1628 
Q 272 1897 272 2375 
Q 272 2806 612 3100 
Q 953 3394 1669 3394 
Q 2350 3394 2681 3172 
Q 3013 2950 3138 2516 
L 2309 2363 
Q 2256 2556 2107 2659 
Q 1959 2763 1684 2763 
Q 1338 2763 1188 2666 
Q 1088 2597 1088 2488 
Q 1088 2394 1175 2328 
Q 1294 2241 1995 2081 
Q 2697 1922 2975 1691 
Q 3250 1456 3250 1038 
Q 3250 581 2869 253 
Q 2488 -75 1741 -75 
Q 1063 -75 667 200 
Q 272 475 150 947 
z
" transform="scale(0.015625)"/>
      <path id="Arial-BoldMT-41" d="M 4597 0 
L 3591 0 
L 3191 1041 
L 1359 1041 
L 981 0 
L 0 0 
L 1784 4581 
L 2763 4581 
L 4597 0 
z
M 2894 1813 
L 2263 3513 
L 1644 1813 
L 2894 1813 
z
" transform="scale(0.015625)"/>
      <path id="Arial-BoldMT-4c" d="M 491 0 
L 491 4544 
L 1416 4544 
L 1416 772 
L 3716 772 
L 3716 0 
L 491 0 
z
" transform="scale(0.015625)"/>
      <path id="Arial-BoldMT-76" d="M 1372 0 
L 34 3319 
L 956 3319 
L 1581 1625 
L 1763 1059 
Q 1834 1275 1853 1344 
Q 1897 1484 1947 1625 
L 2578 3319 
L 3481 3319 
L 2163 0 
L 1372 0 
z
" transform="scale(0.015625)"/>
     </defs>
     <use xlink:href="#Arial-BoldMT-43"/>
     <use xlink:href="#Arial-BoldMT-6f" x="72.216797"/>
     <use xlink:href="#Arial-BoldMT-6d" x="133.300781"/>
     <use xlink:href="#Arial-BoldMT-70" x="222.216797"/>
     <use xlink:href="#Arial-BoldMT-61" x="283.300781"/>
     <use xlink:href="#Arial-BoldMT-72" x="338.916016"/>
     <use xlink:href="#Arial-BoldMT-61" x="377.832031"/>
     <use xlink:href="#Arial-BoldMT-63" x="433.447266"/>
     <use xlink:href="#Arial-BoldMT-69" x="489.0625"/>
     <use xlink:href="#Arial-BoldMT-f3" x="516.845703"/>
     <use xlink:href="#Arial-BoldMT-6e" x="577.929688"/>
     <use xlink:href="#Arial-BoldMT-20" x="639.013672"/>
     <use xlink:href="#Arial-BoldMT-64" x="666.796875"/>
     <use xlink:href="#Arial-BoldMT-65" x="727.880859"/>
     <use xlink:href="#Arial-BoldMT-20" x="783.496094"/>
     <use xlink:href="#Arial-BoldMT-54" x="811.279297"/>
     <use xlink:href="#Arial-BoldMT-69" x="870.613281"/>
     <use xlink:href="#Arial-BoldMT-65" x="898.396484"/>
     <use xlink:href="#Arial-BoldMT-6d" x="954.011719"/>
     <use xlink:href="#Arial-BoldMT-70" x="1042.927734"/>
     <use xlink:href="#Arial-BoldMT-6f" x="1104.011719"/>
     <use xlink:href="#Arial-BoldMT-20" x="1165.095703"/>
     <use xlink:href="#Arial-BoldMT-64" x="1192.878906"/>
     <use xlink:href="#Arial-BoldMT-65" x="1253.962891"/>
     <use xlink:href="#Arial-BoldMT-20" x="1309.578125"/>
     <use xlink:href="#Arial-BoldMT-45" x="1337.361328"/>
     <use xlink:href="#Arial-BoldMT-73" x="1404.060547"/>
     <use xlink:href="#Arial-BoldMT-70" x="1459.675781"/>
     <use xlink:href="#Arial-BoldMT-65" x="1520.759766"/>
     <use xlink:href="#Arial-BoldMT-72" x="1576.375"/>
     <use xlink:href="#Arial-BoldMT-61" x="1615.291016"/>
     <use xlink:href="#Arial-BoldMT-20" x="1670.90625"/>
     <use xlink:href="#Arial-BoldMT-64" x="1698.689453"/>
     <use xlink:href="#Arial-BoldMT-65" x="1759.773438"/>
     <use xlink:href="#Arial-BoldMT-20" x="1815.388672"/>
     <use xlink:href="#Arial-BoldMT-54" x="1843.171875"/>
     <use xlink:href="#Arial-BoldMT-69" x="1902.505859"/>
     <use xlink:href="#Arial-BoldMT-65" x="1930.289062"/>
     <use xlink:href="#Arial-BoldMT-6e" x="1985.904297"/>
     <use xlink:href="#Arial-BoldMT-64" x="2046.988281"/>
     <use xlink:href="#Arial-BoldMT-61" x="2108.072266"/>
     <use xlink:href="#Arial-BoldMT-20" x="2163.6875"/>
     <use xlink:href="#Arial-BoldMT-41" x="2187.720703"/>
     <use xlink:href="#Arial-BoldMT-4c" x="2259.9375"/>
     <use xlink:href="#Arial-BoldMT-20" x="2319.271484"/>
     <use xlink:href="#Arial-BoldMT-76" x="2347.054688"/>
     <use xlink:href="#Arial-BoldMT-73" x="2402.669922"/>
     <use xlink:href="#Arial-BoldMT-20" x="2458.285156"/>
     <use xlink:href="#Arial-BoldMT-54" x="2486.068359"/>
     <use xlink:href="#Arial-BoldMT-69" x="2545.402344"/>
     <use xlink:href="#Arial-BoldMT-65" x="2573.185547"/>
     <use xlink:href="#Arial-BoldMT-6e" x="2628.800781"/>
     <use xlink:href="#Arial-BoldMT-64" x="2689.884766"/>
     <use xlink:href="#Arial-BoldMT-61" x="2750.96875"/>
     <use xlink:href="#Arial-BoldMT-20" x="2806.583984"/>
     <use xlink:href="#Arial-BoldMT-43" x="2834.367188"/>
    </g>
   </g>
   <g id="legend_1">
    <g id="patch_7">
     <path d="M 753.327813 64.767187 
L 837.651406 64.767187 
Q 839.851406 64.767187 839.851406 62.567187 
L 839.851406 32.5475 
Q 839.851406 30.3475 837.651406 30.3475 
L 753.327813 30.3475 
Q 751.127813 30.3475 751.127813 32.5475 
L 751.127813 62.567187 
Q 751.127813 64.767187 753.327813 64.767187 
z
" style="fill: #ffffff; opacity: 0.8; stroke: #cccccc; stroke-linejoin: miter"/>
    </g>
    <g id="line2d_24">
     <path d="M 755.527812 38.771094 
L 766.527812 38.771094 
L 777.527812 38.771094 
" style="fill: none; stroke: #4c72b0; stroke-width: 2; stroke-linecap: round"/>
    </g>
    <g id="text_24">
     <!-- Tienda AL -->
     <g style="fill: #262626" transform="translate(786.327812 42.621094) scale(0.11 -0.11)">
      <defs>
       <path id="ArialMT-6e" d="M 422 0 
L 422 3319 
L 928 3319 
L 928 2847 
Q 1294 3394 1984 3394 
Q 2284 3394 2536 3286 
Q 2788 3178 2913 3003 
Q 3038 2828 3088 2588 
Q 3119 2431 3119 2041 
L 3119 0 
L 2556 0 
L 2556 2019 
Q 2556 2363 2490 2533 
Q 2425 2703 2258 2804 
Q 2091 2906 1866 2906 
Q 1506 2906 1245 2678 
Q 984 2450 984 1813 
L 984 0 
L 422 0 
z
" transform="scale(0.015625)"/>
       <path id="ArialMT-41" d="M -9 0 
L 1750 4581 
L 2403 4581 
L 4278 0 
L 3588 0 
L 3053 1388 
L 1138 1388 
L 634 0 
L -9 0 
z
M 1313 1881 
L 2866 1881 
L 2388 3150 
Q 2169 3728 2063 4100 
Q 1975 3659 1816 3225 
L 1313 1881 
z
" transform="scale(0.015625)"/>
       <path id="ArialMT-4c" d="M 469 0 
L 469 4581 
L 1075 4581 
L 1075 541 
L 3331 541 
L 3331 0 
L 469 0 
z
" transform="scale(0.015625)"/>
      </defs>
      <use xlink:href="#ArialMT-54"/>
      <use xlink:href="#ArialMT-69" x="57.333984"/>
      <use xlink:href="#ArialMT-65" x="79.550781"/>
      <use xlink:href="#ArialMT-6e" x="135.166016"/>
      <use xlink:href="#ArialMT-64" x="190.78125"/>
      <use xlink:href="#ArialMT-61" x="246.396484"/>
      <use xlink:href="#ArialMT-20" x="302.011719"/>
      <use xlink:href="#ArialMT-41" x="324.294922"/>
      <use xlink:href="#ArialMT-4c" x="390.994141"/>
     </g>
    </g>
    <g id="line2d_25">
     <path d="M 755.527812 54.330938 
L 766.527812 54.330938 
L 777.527812 54.330938 
" style="fill: none; stroke: #dd8452; stroke-width: 2; stroke-linecap: round"/>
    </g>
    <g id="text_25">
     <!-- Tienda C -->
     <g style="fill: #262626" transform="translate(786.327812 58.180938) scale(0.11 -0.11)">
      <defs>
       <path id="ArialMT-43" d="M 3763 1606 
L 4369 1453 
Q 4178 706 3683 314 
Q 3188 -78 2472 -78 
Q 1731 -78 1267 223 
Q 803 525 561 1097 
Q 319 1669 319 2325 
Q 319 3041 592 3573 
Q 866 4106 1370 4382 
Q 1875 4659 2481 4659 
Q 3169 4659 3637 4309 
Q 4106 3959 4291 3325 
L 3694 3184 
Q 3534 3684 3231 3912 
Q 2928 4141 2469 4141 
Q 1941 4141 1586 3887 
Q 1231 3634 1087 3207 
Q 944 2781 944 2328 
Q 944 1744 1114 1308 
Q 1284 872 1643 656 
Q 2003 441 2422 441 
Q 2931 441 3284 734 
Q 3638 1028 3763 1606 
z
" transform="scale(0.015625)"/>
      </defs>
      <use xlink:href="#ArialMT-54"/>
      <use xlink:href="#ArialMT-69" x="57.333984"/>
      <use xlink:href="#ArialMT-65" x="79.550781"/>
      <use xlink:href="#ArialMT-6e" x="135.166016"/>
      <use xlink:href="#ArialMT-64" x="190.78125"/>
      <use xlink:href="#ArialMT-61" x="246.396484"/>
      <use xlink:href="#ArialMT-20" x="302.011719"/>
      <use xlink:href="#ArialMT-43" x="329.794922"/>
     </g>
    </g>
   </g>
  </g>
 </g>
 <defs>
  <clipPath id="p25872b337f">
   <rect x="53.081406" y="24.8475" width="792.27" height="317.357607"/>
  </clipPath>
 </defs>
</svg>
