<?xml version="1.0" encoding="utf-8" standalone="no"?>
<!DOCTYPE svg PUBLIC "-//W3C//DTD SVG 1.1//EN"
  "http://www.w3.org/Graphics/SVG/1.1/DTD/svg11.dtd">
<svg xmlns:xlink="http://www.w3.org/1999/xlink" width="749.072109pt" height="534.240703pt" viewBox="0 0 749.072109 534.240703" xmlns="http://www.w3.org/2000/svg" version="1.1">
 <metadata>
  <rdf:RDF xmlns:dc="http://purl.org/dc/elements/1.1/" xmlns:cc="http://creativecommons.org/ns#" xmlns:rdf="http://www.w3.org/1999/02/22-rdf-syntax-ns#">
   <cc:Work>
    <dc:type rdf:resource="http://purl.org/dc/dcmitype/StillImage"/>
    <dc:date>2025-03-28T06:56:41.583762</dc:date>
    <dc:format>image/svg+xml</dc:format>
    <dc:creator>
     <cc:Agent>
      <dc:title>Matplotlib v3.8.4, https://matplotlib.org/</dc:title>
     </cc:Agent>
    </dc:creator>
   </cc:Work>
  </rdf:RDF>
 </metadata>
 <defs>
  <style type="text/css">*{stroke-linejoin: round; stroke-linecap: butt}</style>
 </defs>
 <g id="figure_1">
  <g id="patch_1">
   <path d="M 0 534.240703 
L 749.072109 534.240703 
L 749.072109 0 
L 0 0 
z
" style="fill: #ffffff"/>
  </g>
  <g id="axes_1">
   <g id="patch_2">
    <path d="M 72.272109 478.559062 
L 741.872109 478.559062 
L 741.872109 35.039062 
L 72.272109 35.039062 
z
" style="fill: #ffffff"/>
   </g>
   <g id="matplotlib.axis_1">
    <g id="xtick_1">
     <g id="text_1">
      <!-- Retail -->
      <g style="fill: #262626" transform="translate(162.780469 502.869453) scale(0.165 -0.165)">
       <defs>
        <path id="ArialMT-52" d="M 503 0 
L 503 4581 
L 2534 4581 
Q 3147 4581 3465 4457 
Q 3784 4334 3975 4021 
Q 4166 3709 4166 3331 
Q 4166 2844 3850 2509 
Q 3534 2175 2875 2084 
Q 3116 1969 3241 1856 
Q 3506 1613 3744 1247 
L 4541 0 
L 3778 0 
L 3172 953 
Q 2906 1366 2734 1584 
Q 2563 1803 2427 1890 
Q 2291 1978 2150 2013 
Q 2047 2034 1813 2034 
L 1109 2034 
L 1109 0 
L 503 0 
z
M 1109 2559 
L 2413 2559 
Q 2828 2559 3062 2645 
Q 3297 2731 3419 2920 
Q 3541 3109 3541 3331 
Q 3541 3656 3305 3865 
Q 3069 4075 2559 4075 
L 1109 4075 
L 1109 2559 
z
" transform="scale(0.015625)"/>
        <path id="ArialMT-65" d="M 2694 1069 
L 3275 997 
Q 3138 488 2766 206 
Q 2394 -75 1816 -75 
Q 1088 -75 661 373 
Q 234 822 234 1631 
Q 234 2469 665 2931 
Q 1097 3394 1784 3394 
Q 2450 3394 2872 2941 
Q 3294 2488 3294 1666 
Q 3294 1616 3291 1516 
L 816 1516 
Q 847 969 1125 678 
Q 1403 388 1819 388 
Q 2128 388 2347 550 
Q 2566 713 2694 1069 
z
M 847 1978 
L 2700 1978 
Q 2663 2397 2488 2606 
Q 2219 2931 1791 2931 
Q 1403 2931 1139 2672 
Q 875 2413 847 1978 
z
" transform="scale(0.015625)"/>
        <path id="ArialMT-74" d="M 1650 503 
L 1731 6 
Q 1494 -44 1306 -44 
Q 1000 -44 831 53 
Q 663 150 594 308 
Q 525 466 525 972 
L 525 2881 
L 113 2881 
L 113 3319 
L 525 3319 
L 525 4141 
L 1084 4478 
L 1084 3319 
L 1650 3319 
L 1650 2881 
L 1084 2881 
L 1084 941 
Q 1084 700 1114 631 
Q 1144 563 1211 522 
Q 1278 481 1403 481 
Q 1497 481 1650 503 
z
" transform="scale(0.015625)"/>
        <path id="ArialMT-61" d="M 2588 409 
Q 2275 144 1986 34 
Q 1697 -75 1366 -75 
Q 819 -75 525 192 
Q 231 459 231 875 
Q 231 1119 342 1320 
Q 453 1522 633 1644 
Q 813 1766 1038 1828 
Q 1203 1872 1538 1913 
Q 2219 1994 2541 2106 
Q 2544 2222 2544 2253 
Q 2544 2597 2384 2738 
Q 2169 2928 1744 2928 
Q 1347 2928 1158 2789 
Q 969 2650 878 2297 
L 328 2372 
Q 403 2725 575 2942 
Q 747 3159 1072 3276 
Q 1397 3394 1825 3394 
Q 2250 3394 2515 3294 
Q 2781 3194 2906 3042 
Q 3031 2891 3081 2659 
Q 3109 2516 3109 2141 
L 3109 1391 
Q 3109 606 3145 398 
Q 3181 191 3288 0 
L 2700 0 
Q 2613 175 2588 409 
z
M 2541 1666 
Q 2234 1541 1622 1453 
Q 1275 1403 1131 1340 
Q 988 1278 909 1158 
Q 831 1038 831 891 
Q 831 666 1001 516 
Q 1172 366 1500 366 
Q 1825 366 2078 508 
Q 2331 650 2450 897 
Q 2541 1088 2541 1459 
L 2541 1666 
z
" transform="scale(0.015625)"/>
        <path id="ArialMT-69" d="M 425 3934 
L 425 4581 
L 988 4581 
L 988 3934 
L 425 3934 
z
M 425 0 
L 425 3319 
L 988 3319 
L 988 0 
L 425 0 
z
" transform="scale(0.015625)"/>
        <path id="ArialMT-6c" d="M 409 0 
L 409 4581 
L 972 4581 
L 972 0 
L 409 0 
z
" transform="scale(0.015625)"/>
       </defs>
       <use xlink:href="#ArialMT-52"/>
       <use xlink:href="#ArialMT-65" x="72.216797"/>
       <use xlink:href="#ArialMT-74" x="127.832031"/>
       <use xlink:href="#ArialMT-61" x="155.615234"/>
       <use xlink:href="#ArialMT-69" x="211.230469"/>
       <use xlink:href="#ArialMT-6c" x="233.447266"/>
      </g>
     </g>
    </g>
    <g id="xtick_2">
     <g id="text_2">
      <!-- Banco -->
      <g style="fill: #262626" transform="translate(383.680781 502.869453) scale(0.165 -0.165)">
       <defs>
        <path id="ArialMT-42" d="M 469 0 
L 469 4581 
L 2188 4581 
Q 2713 4581 3030 4442 
Q 3347 4303 3526 4014 
Q 3706 3725 3706 3409 
Q 3706 3116 3547 2856 
Q 3388 2597 3066 2438 
Q 3481 2316 3704 2022 
Q 3928 1728 3928 1328 
Q 3928 1006 3792 729 
Q 3656 453 3456 303 
Q 3256 153 2954 76 
Q 2653 0 2216 0 
L 469 0 
z
M 1075 2656 
L 2066 2656 
Q 2469 2656 2644 2709 
Q 2875 2778 2992 2937 
Q 3109 3097 3109 3338 
Q 3109 3566 3000 3739 
Q 2891 3913 2687 3977 
Q 2484 4041 1991 4041 
L 1075 4041 
L 1075 2656 
z
M 1075 541 
L 2216 541 
Q 2509 541 2628 563 
Q 2838 600 2978 687 
Q 3119 775 3209 942 
Q 3300 1109 3300 1328 
Q 3300 1584 3169 1773 
Q 3038 1963 2805 2039 
Q 2572 2116 2134 2116 
L 1075 2116 
L 1075 541 
z
" transform="scale(0.015625)"/>
        <path id="ArialMT-6e" d="M 422 0 
L 422 3319 
L 928 3319 
L 928 2847 
Q 1294 3394 1984 3394 
Q 2284 3394 2536 3286 
Q 2788 3178 2913 3003 
Q 3038 2828 3088 2588 
Q 3119 2431 3119 2041 
L 3119 0 
L 2556 0 
L 2556 2019 
Q 2556 2363 2490 2533 
Q 2425 2703 2258 2804 
Q 2091 2906 1866 2906 
Q 1506 2906 1245 2678 
Q 984 2450 984 1813 
L 984 0 
L 422 0 
z
" transform="scale(0.015625)"/>
        <path id="ArialMT-63" d="M 2588 1216 
L 3141 1144 
Q 3050 572 2676 248 
Q 2303 -75 1759 -75 
Q 1078 -75 664 370 
Q 250 816 250 1647 
Q 250 2184 428 2587 
Q 606 2991 970 3192 
Q 1334 3394 1763 3394 
Q 2303 3394 2647 3120 
Q 2991 2847 3088 2344 
L 2541 2259 
Q 2463 2594 2264 2762 
Q 2066 2931 1784 2931 
Q 1359 2931 1093 2626 
Q 828 2322 828 1663 
Q 828 994 1084 691 
Q 1341 388 1753 388 
Q 2084 388 2306 591 
Q 2528 794 2588 1216 
z
" transform="scale(0.015625)"/>
        <path id="ArialMT-6f" d="M 213 1659 
Q 213 2581 725 3025 
Q 1153 3394 1769 3394 
Q 2453 3394 2887 2945 
Q 3322 2497 3322 1706 
Q 3322 1066 3130 698 
Q 2938 331 2570 128 
Q 2203 -75 1769 -75 
Q 1072 -75 642 372 
Q 213 819 213 1659 
z
M 791 1659 
Q 791 1022 1069 705 
Q 1347 388 1769 388 
Q 2188 388 2466 706 
Q 2744 1025 2744 1678 
Q 2744 2294 2464 2611 
Q 2184 2928 1769 2928 
Q 1347 2928 1069 2612 
Q 791 2297 791 1659 
z
" transform="scale(0.015625)"/>
       </defs>
       <use xlink:href="#ArialMT-42"/>
       <use xlink:href="#ArialMT-61" x="66.699219"/>
       <use xlink:href="#ArialMT-6e" x="122.314453"/>
       <use xlink:href="#ArialMT-63" x="177.929688"/>
       <use xlink:href="#ArialMT-6f" x="227.929688"/>
      </g>
     </g>
    </g>
    <g id="xtick_3">
     <g id="text_3">
      <!-- Afiliacion -->
      <g style="fill: #262626" transform="translate(597.256641 502.869453) scale(0.165 -0.165)">
       <defs>
        <path id="ArialMT-41" d="M -9 0 
L 1750 4581 
L 2403 4581 
L 4278 0 
L 3588 0 
L 3053 1388 
L 1138 1388 
L 634 0 
L -9 0 
z
M 1313 1881 
L 2866 1881 
L 2388 3150 
Q 2169 3728 2063 4100 
Q 1975 3659 1816 3225 
L 1313 1881 
z
" transform="scale(0.015625)"/>
        <path id="ArialMT-66" d="M 556 0 
L 556 2881 
L 59 2881 
L 59 3319 
L 556 3319 
L 556 3672 
Q 556 4006 616 4169 
Q 697 4388 901 4523 
Q 1106 4659 1475 4659 
Q 1713 4659 2000 4603 
L 1916 4113 
Q 1741 4144 1584 4144 
Q 1328 4144 1222 4034 
Q 1116 3925 1116 3625 
L 1116 3319 
L 1763 3319 
L 1763 2881 
L 1116 2881 
L 1116 0 
L 556 0 
z
" transform="scale(0.015625)"/>
       </defs>
       <use xlink:href="#ArialMT-41"/>
       <use xlink:href="#ArialMT-66" x="66.699219"/>
       <use xlink:href="#ArialMT-69" x="94.482422"/>
       <use xlink:href="#ArialMT-6c" x="116.699219"/>
       <use xlink:href="#ArialMT-69" x="138.916016"/>
       <use xlink:href="#ArialMT-61" x="161.132812"/>
       <use xlink:href="#ArialMT-63" x="216.748047"/>
       <use xlink:href="#ArialMT-69" x="266.748047"/>
       <use xlink:href="#ArialMT-6f" x="288.964844"/>
       <use xlink:href="#ArialMT-6e" x="344.580078"/>
      </g>
     </g>
    </g>
    <g id="text_4">
     <!-- Segmento -->
     <g style="fill: #262626" transform="translate(366.047578 523.252266) scale(0.18 -0.18)">
      <defs>
       <path id="ArialMT-53" d="M 288 1472 
L 859 1522 
Q 900 1178 1048 958 
Q 1197 738 1509 602 
Q 1822 466 2213 466 
Q 2559 466 2825 569 
Q 3091 672 3220 851 
Q 3350 1031 3350 1244 
Q 3350 1459 3225 1620 
Q 3100 1781 2813 1891 
Q 2628 1963 1997 2114 
Q 1366 2266 1113 2400 
Q 784 2572 623 2826 
Q 463 3081 463 3397 
Q 463 3744 659 4045 
Q 856 4347 1234 4503 
Q 1613 4659 2075 4659 
Q 2584 4659 2973 4495 
Q 3363 4331 3572 4012 
Q 3781 3694 3797 3291 
L 3216 3247 
Q 3169 3681 2898 3903 
Q 2628 4125 2100 4125 
Q 1550 4125 1298 3923 
Q 1047 3722 1047 3438 
Q 1047 3191 1225 3031 
Q 1400 2872 2139 2705 
Q 2878 2538 3153 2413 
Q 3553 2228 3743 1945 
Q 3934 1663 3934 1294 
Q 3934 928 3725 604 
Q 3516 281 3123 101 
Q 2731 -78 2241 -78 
Q 1619 -78 1198 103 
Q 778 284 539 648 
Q 300 1013 288 1472 
z
" transform="scale(0.015625)"/>
       <path id="ArialMT-67" d="M 319 -275 
L 866 -356 
Q 900 -609 1056 -725 
Q 1266 -881 1628 -881 
Q 2019 -881 2231 -725 
Q 2444 -569 2519 -288 
Q 2563 -116 2559 434 
Q 2191 0 1641 0 
Q 956 0 581 494 
Q 206 988 206 1678 
Q 206 2153 378 2554 
Q 550 2956 876 3175 
Q 1203 3394 1644 3394 
Q 2231 3394 2613 2919 
L 2613 3319 
L 3131 3319 
L 3131 450 
Q 3131 -325 2973 -648 
Q 2816 -972 2473 -1159 
Q 2131 -1347 1631 -1347 
Q 1038 -1347 672 -1080 
Q 306 -813 319 -275 
z
M 784 1719 
Q 784 1066 1043 766 
Q 1303 466 1694 466 
Q 2081 466 2343 764 
Q 2606 1063 2606 1700 
Q 2606 2309 2336 2618 
Q 2066 2928 1684 2928 
Q 1309 2928 1046 2623 
Q 784 2319 784 1719 
z
" transform="scale(0.015625)"/>
       <path id="ArialMT-6d" d="M 422 0 
L 422 3319 
L 925 3319 
L 925 2853 
Q 1081 3097 1340 3245 
Q 1600 3394 1931 3394 
Q 2300 3394 2536 3241 
Q 2772 3088 2869 2813 
Q 3263 3394 3894 3394 
Q 4388 3394 4653 3120 
Q 4919 2847 4919 2278 
L 4919 0 
L 4359 0 
L 4359 2091 
Q 4359 2428 4304 2576 
Q 4250 2725 4106 2815 
Q 3963 2906 3769 2906 
Q 3419 2906 3187 2673 
Q 2956 2441 2956 1928 
L 2956 0 
L 2394 0 
L 2394 2156 
Q 2394 2531 2256 2718 
Q 2119 2906 1806 2906 
Q 1569 2906 1367 2781 
Q 1166 2656 1075 2415 
Q 984 2175 984 1722 
L 984 0 
L 422 0 
z
" transform="scale(0.015625)"/>
      </defs>
      <use xlink:href="#ArialMT-53"/>
      <use xlink:href="#ArialMT-65" x="66.699219"/>
      <use xlink:href="#ArialMT-67" x="122.314453"/>
      <use xlink:href="#ArialMT-6d" x="177.929688"/>
      <use xlink:href="#ArialMT-65" x="261.230469"/>
      <use xlink:href="#ArialMT-6e" x="316.845703"/>
      <use xlink:href="#ArialMT-74" x="372.460938"/>
      <use xlink:href="#ArialMT-6f" x="400.244141"/>
     </g>
    </g>
   </g>
   <g id="matplotlib.axis_2">
    <g id="ytick_1">
     <g id="line2d_1">
      <path d="M 72.272109 458.416961 
L 741.872109 458.416961 
" clip-path="url(#p5e270baa8d)" style="fill: none; stroke: #cccccc; stroke-width: 1.5; stroke-linecap: round"/>
     </g>
     <g id="text_5">
      <!-- 0.00 -->
      <g style="fill: #262626" transform="translate(27.661563 464.322156) scale(0.165 -0.165)">
       <defs>
        <path id="ArialMT-30" d="M 266 2259 
Q 266 3072 433 3567 
Q 600 4063 929 4331 
Q 1259 4600 1759 4600 
Q 2128 4600 2406 4451 
Q 2684 4303 2865 4023 
Q 3047 3744 3150 3342 
Q 3253 2941 3253 2259 
Q 3253 1453 3087 958 
Q 2922 463 2592 192 
Q 2263 -78 1759 -78 
Q 1097 -78 719 397 
Q 266 969 266 2259 
z
M 844 2259 
Q 844 1131 1108 757 
Q 1372 384 1759 384 
Q 2147 384 2411 759 
Q 2675 1134 2675 2259 
Q 2675 3391 2411 3762 
Q 2147 4134 1753 4134 
Q 1366 4134 1134 3806 
Q 844 3388 844 2259 
z
" transform="scale(0.015625)"/>
        <path id="ArialMT-2e" d="M 581 0 
L 581 641 
L 1222 641 
L 1222 0 
L 581 0 
z
" transform="scale(0.015625)"/>
       </defs>
       <use xlink:href="#ArialMT-30"/>
       <use xlink:href="#ArialMT-2e" x="55.615234"/>
       <use xlink:href="#ArialMT-30" x="83.398438"/>
       <use xlink:href="#ArialMT-30" x="139.013672"/>
      </g>
     </g>
    </g>
    <g id="ytick_2">
     <g id="line2d_2">
      <path d="M 72.272109 381.095347 
L 741.872109 381.095347 
" clip-path="url(#p5e270baa8d)" style="fill: none; stroke: #cccccc; stroke-width: 1.5; stroke-linecap: round"/>
     </g>
     <g id="text_6">
      <!-- 0.05 -->
      <g style="fill: #262626" transform="translate(27.661563 387.000542) scale(0.165 -0.165)">
       <defs>
        <path id="ArialMT-35" d="M 266 1200 
L 856 1250 
Q 922 819 1161 601 
Q 1400 384 1738 384 
Q 2144 384 2425 690 
Q 2706 997 2706 1503 
Q 2706 1984 2436 2262 
Q 2166 2541 1728 2541 
Q 1456 2541 1237 2417 
Q 1019 2294 894 2097 
L 366 2166 
L 809 4519 
L 3088 4519 
L 3088 3981 
L 1259 3981 
L 1013 2750 
Q 1425 3038 1878 3038 
Q 2478 3038 2890 2622 
Q 3303 2206 3303 1553 
Q 3303 931 2941 478 
Q 2500 -78 1738 -78 
Q 1113 -78 717 272 
Q 322 622 266 1200 
z
" transform="scale(0.015625)"/>
       </defs>
       <use xlink:href="#ArialMT-30"/>
       <use xlink:href="#ArialMT-2e" x="55.615234"/>
       <use xlink:href="#ArialMT-30" x="83.398438"/>
       <use xlink:href="#ArialMT-35" x="139.013672"/>
      </g>
     </g>
    </g>
    <g id="ytick_3">
     <g id="line2d_3">
      <path d="M 72.272109 303.773733 
L 741.872109 303.773733 
" clip-path="url(#p5e270baa8d)" style="fill: none; stroke: #cccccc; stroke-width: 1.5; stroke-linecap: round"/>
     </g>
     <g id="text_7">
      <!-- 0.10 -->
      <g style="fill: #262626" transform="translate(27.661563 309.678928) scale(0.165 -0.165)">
       <defs>
        <path id="ArialMT-31" d="M 2384 0 
L 1822 0 
L 1822 3584 
Q 1619 3391 1289 3197 
Q 959 3003 697 2906 
L 697 3450 
Q 1169 3672 1522 3987 
Q 1875 4303 2022 4600 
L 2384 4600 
L 2384 0 
z
" transform="scale(0.015625)"/>
       </defs>
       <use xlink:href="#ArialMT-30"/>
       <use xlink:href="#ArialMT-2e" x="55.615234"/>
       <use xlink:href="#ArialMT-31" x="83.398438"/>
       <use xlink:href="#ArialMT-30" x="139.013672"/>
      </g>
     </g>
    </g>
    <g id="ytick_4">
     <g id="line2d_4">
      <path d="M 72.272109 226.452119 
L 741.872109 226.452119 
" clip-path="url(#p5e270baa8d)" style="fill: none; stroke: #cccccc; stroke-width: 1.5; stroke-linecap: round"/>
     </g>
     <g id="text_8">
      <!-- 0.15 -->
      <g style="fill: #262626" transform="translate(27.661563 232.357314) scale(0.165 -0.165)">
       <use xlink:href="#ArialMT-30"/>
       <use xlink:href="#ArialMT-2e" x="55.615234"/>
       <use xlink:href="#ArialMT-31" x="83.398438"/>
       <use xlink:href="#ArialMT-35" x="139.013672"/>
      </g>
     </g>
    </g>
    <g id="ytick_5">
     <g id="line2d_5">
      <path d="M 72.272109 149.130505 
L 741.872109 149.130505 
" clip-path="url(#p5e270baa8d)" style="fill: none; stroke: #cccccc; stroke-width: 1.5; stroke-linecap: round"/>
     </g>
     <g id="text_9">
      <!-- 0.20 -->
      <g style="fill: #262626" transform="translate(27.661563 155.0357) scale(0.165 -0.165)">
       <defs>
        <path id="ArialMT-32" d="M 3222 541 
L 3222 0 
L 194 0 
Q 188 203 259 391 
Q 375 700 629 1000 
Q 884 1300 1366 1694 
Q 2113 2306 2375 2664 
Q 2638 3022 2638 3341 
Q 2638 3675 2398 3904 
Q 2159 4134 1775 4134 
Q 1369 4134 1125 3890 
Q 881 3647 878 3216 
L 300 3275 
Q 359 3922 746 4261 
Q 1134 4600 1788 4600 
Q 2447 4600 2831 4234 
Q 3216 3869 3216 3328 
Q 3216 3053 3103 2787 
Q 2991 2522 2730 2228 
Q 2469 1934 1863 1422 
Q 1356 997 1212 845 
Q 1069 694 975 541 
L 3222 541 
z
" transform="scale(0.015625)"/>
       </defs>
       <use xlink:href="#ArialMT-30"/>
       <use xlink:href="#ArialMT-2e" x="55.615234"/>
       <use xlink:href="#ArialMT-32" x="83.398438"/>
       <use xlink:href="#ArialMT-30" x="139.013672"/>
      </g>
     </g>
    </g>
    <g id="ytick_6">
     <g id="line2d_6">
      <path d="M 72.272109 71.808891 
L 741.872109 71.808891 
" clip-path="url(#p5e270baa8d)" style="fill: none; stroke: #cccccc; stroke-width: 1.5; stroke-linecap: round"/>
     </g>
     <g id="text_10">
      <!-- 0.25 -->
      <g style="fill: #262626" transform="translate(27.661563 77.714086) scale(0.165 -0.165)">
       <use xlink:href="#ArialMT-30"/>
       <use xlink:href="#ArialMT-2e" x="55.615234"/>
       <use xlink:href="#ArialMT-32" x="83.398438"/>
       <use xlink:href="#ArialMT-35" x="139.013672"/>
      </g>
     </g>
    </g>
    <g id="text_11">
     <!-- Espera -->
     <g style="fill: #262626" transform="translate(20.084063 285.313594) rotate(-90) scale(0.18 -0.18)">
      <defs>
       <path id="ArialMT-45" d="M 506 0 
L 506 4581 
L 3819 4581 
L 3819 4041 
L 1113 4041 
L 1113 2638 
L 3647 2638 
L 3647 2100 
L 1113 2100 
L 1113 541 
L 3925 541 
L 3925 0 
L 506 0 
z
" transform="scale(0.015625)"/>
       <path id="ArialMT-73" d="M 197 991 
L 753 1078 
Q 800 744 1014 566 
Q 1228 388 1613 388 
Q 2000 388 2187 545 
Q 2375 703 2375 916 
Q 2375 1106 2209 1216 
Q 2094 1291 1634 1406 
Q 1016 1563 777 1677 
Q 538 1791 414 1992 
Q 291 2194 291 2438 
Q 291 2659 392 2848 
Q 494 3038 669 3163 
Q 800 3259 1026 3326 
Q 1253 3394 1513 3394 
Q 1903 3394 2198 3281 
Q 2494 3169 2634 2976 
Q 2775 2784 2828 2463 
L 2278 2388 
Q 2241 2644 2061 2787 
Q 1881 2931 1553 2931 
Q 1166 2931 1000 2803 
Q 834 2675 834 2503 
Q 834 2394 903 2306 
Q 972 2216 1119 2156 
Q 1203 2125 1616 2013 
Q 2213 1853 2448 1751 
Q 2684 1650 2818 1456 
Q 2953 1263 2953 975 
Q 2953 694 2789 445 
Q 2625 197 2315 61 
Q 2006 -75 1616 -75 
Q 969 -75 630 194 
Q 291 463 197 991 
z
" transform="scale(0.015625)"/>
       <path id="ArialMT-70" d="M 422 -1272 
L 422 3319 
L 934 3319 
L 934 2888 
Q 1116 3141 1344 3267 
Q 1572 3394 1897 3394 
Q 2322 3394 2647 3175 
Q 2972 2956 3137 2557 
Q 3303 2159 3303 1684 
Q 3303 1175 3120 767 
Q 2938 359 2589 142 
Q 2241 -75 1856 -75 
Q 1575 -75 1351 44 
Q 1128 163 984 344 
L 984 -1272 
L 422 -1272 
z
M 931 1641 
Q 931 1000 1190 694 
Q 1450 388 1819 388 
Q 2194 388 2461 705 
Q 2728 1022 2728 1688 
Q 2728 2322 2467 2637 
Q 2206 2953 1844 2953 
Q 1484 2953 1207 2617 
Q 931 2281 931 1641 
z
" transform="scale(0.015625)"/>
       <path id="ArialMT-72" d="M 416 0 
L 416 3319 
L 922 3319 
L 922 2816 
Q 1116 3169 1280 3281 
Q 1444 3394 1641 3394 
Q 1925 3394 2219 3213 
L 2025 2691 
Q 1819 2813 1613 2813 
Q 1428 2813 1281 2702 
Q 1134 2591 1072 2394 
Q 978 2094 978 1738 
L 978 0 
L 416 0 
z
" transform="scale(0.015625)"/>
      </defs>
      <use xlink:href="#ArialMT-45"/>
      <use xlink:href="#ArialMT-73" x="66.699219"/>
      <use xlink:href="#ArialMT-70" x="116.699219"/>
      <use xlink:href="#ArialMT-65" x="172.314453"/>
      <use xlink:href="#ArialMT-72" x="227.929688"/>
      <use xlink:href="#ArialMT-61" x="261.230469"/>
     </g>
    </g>
   </g>
   <g id="PolyCollection_1">
    <defs>
     <path id="m06f2cd8b2f" d="M 183.872109 -75.949032 
L 130.877489 -75.949032 
L 128.149138 -76.332675 
L 125.714382 -76.716318 
L 123.615863 -77.099961 
L 121.889029 -77.483604 
L 120.560975 -77.867247 
L 119.649611 -78.25089 
L 119.163212 -78.634533 
L 119.100345 -79.018176 
L 119.450177 -79.401819 
L 120.193138 -79.785462 
L 121.301876 -80.169105 
L 122.742471 -80.552749 
L 124.475806 -80.936392 
L 126.459043 -81.320035 
L 128.64712 -81.703678 
L 130.994201 -82.087321 
L 133.455024 -82.470964 
L 135.986093 -82.854607 
L 138.546684 -83.23825 
L 141.099651 -83.621893 
L 143.612017 -84.005536 
L 146.05536 -84.389179 
L 148.406013 -84.772822 
L 150.645093 -85.156465 
L 152.758389 -85.540108 
L 154.736139 -85.923751 
L 156.572721 -86.307394 
L 158.266276 -86.691038 
L 159.818294 -87.074681 
L 161.23318 -87.458324 
L 162.517805 -87.841967 
L 163.681055 -88.22561 
L 164.733392 -88.609253 
L 165.68642 -88.992896 
L 166.552471 -89.376539 
L 167.344206 -89.760182 
L 168.074239 -90.143825 
L 168.754789 -90.527468 
L 169.397362 -90.911111 
L 170.012471 -91.294754 
L 170.609396 -91.678397 
L 171.195997 -92.06204 
L 171.778578 -92.445683 
L 172.361807 -92.829327 
L 172.94869 -93.21297 
L 173.540612 -93.596613 
L 174.137421 -93.980256 
L 174.737568 -94.363899 
L 175.338284 -94.747542 
L 175.935799 -95.131185 
L 176.525568 -95.514828 
L 177.102527 -95.898471 
L 177.661342 -96.282114 
L 178.196648 -96.665757 
L 178.703285 -97.0494 
L 179.176495 -97.433043 
L 179.612103 -97.816686 
L 180.00666 -98.200329 
L 180.357552 -98.583972 
L 180.663077 -98.967616 
L 180.922483 -99.351259 
L 181.135975 -99.734902 
L 181.304692 -100.118545 
L 181.430652 -100.502188 
L 181.516678 -100.885831 
L 181.566289 -101.269474 
L 181.583586 -101.653117 
L 181.573108 -102.03676 
L 181.539687 -102.420403 
L 181.48829 -102.804046 
L 181.423856 -103.187689 
L 181.351139 -103.571332 
L 181.274561 -103.954975 
L 181.198076 -104.338618 
L 181.125055 -104.722261 
L 181.058202 -105.105905 
L 180.9995 -105.489548 
L 180.950187 -105.873191 
L 180.910781 -106.256834 
L 180.881125 -106.640477 
L 180.860484 -107.02412 
L 180.847661 -107.407763 
L 180.841133 -107.791406 
L 180.839215 -108.175049 
L 180.840211 -108.558692 
L 180.842571 -108.942335 
L 180.845031 -109.325978 
L 180.846718 -109.709621 
L 180.847239 -110.093264 
L 180.846715 -110.476907 
L 180.845789 -110.86055 
L 180.845585 -111.244194 
L 180.847636 -111.627837 
L 180.853782 -112.01148 
L 180.866041 -112.395123 
L 180.88647 -112.778766 
L 180.917023 -113.162409 
L 180.959416 -113.546052 
L 181.015009 -113.929695 
L 183.872109 -113.929695 
L 183.872109 -113.929695 
L 183.872109 -113.546052 
L 183.872109 -113.162409 
L 183.872109 -112.778766 
L 183.872109 -112.395123 
L 183.872109 -112.01148 
L 183.872109 -111.627837 
L 183.872109 -111.244194 
L 183.872109 -110.86055 
L 183.872109 -110.476907 
L 183.872109 -110.093264 
L 183.872109 -109.709621 
L 183.872109 -109.325978 
L 183.872109 -108.942335 
L 183.872109 -108.558692 
L 183.872109 -108.175049 
L 183.872109 -107.791406 
L 183.872109 -107.407763 
L 183.872109 -107.02412 
L 183.872109 -106.640477 
L 183.872109 -106.256834 
L 183.872109 -105.873191 
L 183.872109 -105.489548 
L 183.872109 -105.105905 
L 183.872109 -104.722261 
L 183.872109 -104.338618 
L 183.872109 -103.954975 
L 183.872109 -103.571332 
L 183.872109 -103.187689 
L 183.872109 -102.804046 
L 183.872109 -102.420403 
L 183.872109 -102.03676 
L 183.872109 -101.653117 
L 183.872109 -101.269474 
L 183.872109 -100.885831 
L 183.872109 -100.502188 
L 183.872109 -100.118545 
L 183.872109 -99.734902 
L 183.872109 -99.351259 
L 183.872109 -98.967616 
L 183.872109 -98.583972 
L 183.872109 -98.200329 
L 183.872109 -97.816686 
L 183.872109 -97.433043 
L 183.872109 -97.0494 
L 183.872109 -96.665757 
L 183.872109 -96.282114 
L 183.872109 -95.898471 
L 183.872109 -95.514828 
L 183.872109 -95.131185 
L 183.872109 -94.747542 
L 183.872109 -94.363899 
L 183.872109 -93.980256 
L 183.872109 -93.596613 
L 183.872109 -93.21297 
L 183.872109 -92.829327 
L 183.872109 -92.445683 
L 183.872109 -92.06204 
L 183.872109 -91.678397 
L 183.872109 -91.294754 
L 183.872109 -90.911111 
L 183.872109 -90.527468 
L 183.872109 -90.143825 
L 183.872109 -89.760182 
L 183.872109 -89.376539 
L 183.872109 -88.992896 
L 183.872109 -88.609253 
L 183.872109 -88.22561 
L 183.872109 -87.841967 
L 183.872109 -87.458324 
L 183.872109 -87.074681 
L 183.872109 -86.691038 
L 183.872109 -86.307394 
L 183.872109 -85.923751 
L 183.872109 -85.540108 
L 183.872109 -85.156465 
L 183.872109 -84.772822 
L 183.872109 -84.389179 
L 183.872109 -84.005536 
L 183.872109 -83.621893 
L 183.872109 -83.23825 
L 183.872109 -82.854607 
L 183.872109 -82.470964 
L 183.872109 -82.087321 
L 183.872109 -81.703678 
L 183.872109 -81.320035 
L 183.872109 -80.936392 
L 183.872109 -80.552749 
L 183.872109 -80.169105 
L 183.872109 -79.785462 
L 183.872109 -79.401819 
L 183.872109 -79.018176 
L 183.872109 -78.634533 
L 183.872109 -78.25089 
L 183.872109 -77.867247 
L 183.872109 -77.483604 
L 183.872109 -77.099961 
L 183.872109 -76.716318 
L 183.872109 -76.332675 
L 183.872109 -75.949032 
z
" style="stroke: #484848; stroke-width: 1.5"/>
    </defs>
    <g clip-path="url(#p5e270baa8d)">
     <use xlink:href="#m06f2cd8b2f" x="0" y="534.240703" style="fill: #e41a1c; stroke: #484848; stroke-width: 1.5"/>
    </g>
   </g>
   <g id="PolyCollection_2">
    <defs>
     <path id="m1867183cd0" d="M 268.394896 -75.841641 
L 183.872109 -75.841641 
L 183.872109 -78.925068 
L 183.872109 -82.008495 
L 183.872109 -85.091922 
L 183.872109 -88.175349 
L 183.872109 -91.258776 
L 183.872109 -94.342204 
L 183.872109 -97.425631 
L 183.872109 -100.509058 
L 183.872109 -103.592485 
L 183.872109 -106.675912 
L 183.872109 -109.759339 
L 183.872109 -112.842767 
L 183.872109 -115.926194 
L 183.872109 -119.009621 
L 183.872109 -122.093048 
L 183.872109 -125.176475 
L 183.872109 -128.259902 
L 183.872109 -131.34333 
L 183.872109 -134.426757 
L 183.872109 -137.510184 
L 183.872109 -140.593611 
L 183.872109 -143.677038 
L 183.872109 -146.760465 
L 183.872109 -149.843892 
L 183.872109 -152.92732 
L 183.872109 -156.010747 
L 183.872109 -159.094174 
L 183.872109 -162.177601 
L 183.872109 -165.261028 
L 183.872109 -168.344455 
L 183.872109 -171.427883 
L 183.872109 -174.51131 
L 183.872109 -177.594737 
L 183.872109 -180.678164 
L 183.872109 -183.761591 
L 183.872109 -186.845018 
L 183.872109 -189.928446 
L 183.872109 -193.011873 
L 183.872109 -196.0953 
L 183.872109 -199.178727 
L 183.872109 -202.262154 
L 183.872109 -205.345581 
L 183.872109 -208.429009 
L 183.872109 -211.512436 
L 183.872109 -214.595863 
L 183.872109 -217.67929 
L 183.872109 -220.762717 
L 183.872109 -223.846144 
L 183.872109 -226.929571 
L 183.872109 -230.012999 
L 183.872109 -233.096426 
L 183.872109 -236.179853 
L 183.872109 -239.26328 
L 183.872109 -242.346707 
L 183.872109 -245.430134 
L 183.872109 -248.513562 
L 183.872109 -251.596989 
L 183.872109 -254.680416 
L 183.872109 -257.763843 
L 183.872109 -260.84727 
L 183.872109 -263.930697 
L 183.872109 -267.014125 
L 183.872109 -270.097552 
L 183.872109 -273.180979 
L 183.872109 -276.264406 
L 183.872109 -279.347833 
L 183.872109 -282.43126 
L 183.872109 -285.514688 
L 183.872109 -288.598115 
L 183.872109 -291.681542 
L 183.872109 -294.764969 
L 183.872109 -297.848396 
L 183.872109 -300.931823 
L 183.872109 -304.01525 
L 183.872109 -307.098678 
L 183.872109 -310.182105 
L 183.872109 -313.265532 
L 183.872109 -316.348959 
L 183.872109 -319.432386 
L 183.872109 -322.515813 
L 183.872109 -325.599241 
L 183.872109 -328.682668 
L 183.872109 -331.766095 
L 183.872109 -334.849522 
L 183.872109 -337.932949 
L 183.872109 -341.016376 
L 183.872109 -344.099804 
L 183.872109 -347.183231 
L 183.872109 -350.266658 
L 183.872109 -353.350085 
L 183.872109 -356.433512 
L 183.872109 -359.516939 
L 183.872109 -362.600367 
L 183.872109 -365.683794 
L 183.872109 -368.767221 
L 183.872109 -371.850648 
L 183.872109 -374.934075 
L 183.872109 -378.017502 
L 183.872109 -381.100929 
L 184.009293 -381.100929 
L 184.009293 -381.100929 
L 183.970116 -378.017502 
L 183.907847 -374.934075 
L 183.878761 -371.850648 
L 183.872741 -368.767221 
L 183.87214 -365.683794 
L 183.87211 -362.600367 
L 183.872109 -359.516939 
L 183.872109 -356.433512 
L 183.872109 -353.350085 
L 183.872109 -350.266658 
L 183.872109 -347.183231 
L 183.872109 -344.099804 
L 183.872109 -341.016376 
L 183.872109 -337.932949 
L 183.872109 -334.849522 
L 183.872109 -331.766095 
L 183.872109 -328.682668 
L 183.872109 -325.599241 
L 183.872109 -322.515813 
L 183.872109 -319.432386 
L 183.872116 -316.348959 
L 183.872284 -313.265532 
L 183.874603 -310.182105 
L 183.890267 -307.098678 
L 183.939608 -304.01525 
L 184.000175 -300.931823 
L 183.996127 -297.848396 
L 183.933407 -294.764969 
L 183.887573 -291.681542 
L 183.874101 -288.598115 
L 183.87224 -285.514688 
L 183.872114 -282.43126 
L 183.872109 -279.347833 
L 183.872109 -276.264406 
L 183.872109 -273.180979 
L 183.872109 -270.097552 
L 183.872109 -267.014125 
L 183.872109 -263.930697 
L 183.872109 -260.84727 
L 183.872109 -257.763843 
L 183.872109 -254.680416 
L 183.872109 -251.596989 
L 183.872109 -248.513562 
L 183.872109 -245.430134 
L 183.872109 -242.346707 
L 183.872109 -239.26328 
L 183.872109 -236.179853 
L 183.872109 -233.096426 
L 183.872113 -230.012999 
L 183.872215 -226.929571 
L 183.873795 -223.846144 
L 183.885824 -220.762717 
L 183.92906 -217.67929 
L 183.992814 -214.595863 
L 184.002686 -211.512436 
L 183.944207 -208.429009 
L 183.892428 -205.345581 
L 183.875032 -202.262154 
L 183.872324 -199.178727 
L 183.872117 -196.0953 
L 183.87211 -193.011873 
L 183.872109 -189.928446 
L 183.872109 -186.845018 
L 183.872109 -183.761591 
L 183.872109 -180.678164 
L 183.872109 -177.594737 
L 183.87211 -174.51131 
L 183.872121 -171.427883 
L 183.87239 -168.344455 
L 183.875705 -165.261028 
L 183.895601 -162.177601 
L 183.950449 -159.094174 
L 184.005467 -156.010747 
L 183.988385 -152.92732 
L 183.928558 -149.843892 
L 183.913933 -146.760465 
L 183.967816 -143.677038 
L 184.040135 -140.593611 
L 184.082626 -137.510184 
L 184.119366 -134.426757 
L 184.161743 -131.34333 
L 184.166139 -128.259902 
L 184.086197 -125.176475 
L 183.971107 -122.093048 
L 183.930074 -119.009621 
L 184.075725 -115.926194 
L 184.544696 -112.842767 
L 185.217032 -109.759339 
L 185.705622 -106.675912 
L 186.101082 -103.592485 
L 186.853159 -100.509058 
L 188.244766 -97.425631 
L 190.823714 -94.342204 
L 195.580977 -91.258776 
L 204.036677 -88.175349 
L 219.652429 -85.091922 
L 246.558371 -82.008495 
L 273.152109 -78.925068 
L 268.394896 -75.841641 
z
" style="stroke: #484848; stroke-width: 1.5"/>
    </defs>
    <g clip-path="url(#p5e270baa8d)">
     <use xlink:href="#m1867183cd0" x="0" y="534.240703" style="fill: #377eb8; stroke: #484848; stroke-width: 1.5"/>
    </g>
   </g>
   <g id="PolyCollection_3">
    <defs>
     <path id="m977ca56b87" d="M 407.072109 -75.841641 
L 329.568472 -75.841641 
L 325.588662 -76.894038 
L 322.35458 -77.946434 
L 319.947278 -78.998831 
L 318.419211 -80.051228 
L 317.792109 -81.103625 
L 318.056685 -82.156022 
L 319.174145 -83.208419 
L 321.079317 -84.260816 
L 323.685088 -85.313213 
L 326.887742 -86.36561 
L 330.572781 -87.418007 
L 334.620779 -88.470404 
L 338.91288 -89.522801 
L 343.335617 -90.575198 
L 347.784824 -91.627594 
L 352.16852 -92.679991 
L 356.408732 -93.732388 
L 360.442337 -94.784785 
L 364.221035 -95.837182 
L 367.710638 -96.889579 
L 370.88988 -97.941976 
L 373.74891 -98.994373 
L 376.28767 -100.04677 
L 378.514264 -101.099167 
L 380.443421 -102.151564 
L 382.095109 -103.203961 
L 383.493301 -104.256358 
L 384.664887 -105.308754 
L 385.638722 -106.361151 
L 386.444743 -107.413548 
L 387.113166 -108.465945 
L 387.673716 -109.518342 
L 388.154901 -110.570739 
L 388.583338 -111.623136 
L 388.983142 -112.675533 
L 389.375419 -113.72793 
L 389.777874 -114.780327 
L 390.204572 -115.832724 
L 390.665849 -116.885121 
L 391.168396 -117.937517 
L 391.715479 -118.989914 
L 392.307306 -120.042311 
L 392.941481 -121.094708 
L 393.613522 -122.147105 
L 394.317411 -123.199502 
L 395.046122 -124.251899 
L 395.792103 -125.304296 
L 396.547697 -126.356693 
L 397.305461 -127.40909 
L 398.058409 -128.461487 
L 398.800152 -129.513884 
L 399.524976 -130.566281 
L 400.227846 -131.618677 
L 400.904384 -132.671074 
L 401.550818 -133.723471 
L 402.163938 -134.775868 
L 402.741056 -135.828265 
L 403.279994 -136.880662 
L 403.779081 -137.933059 
L 404.237176 -138.985456 
L 404.653694 -140.037853 
L 405.028626 -141.09025 
L 405.362553 -142.142647 
L 405.656636 -143.195044 
L 405.912577 -144.247441 
L 406.132557 -145.299837 
L 406.319145 -146.352234 
L 406.475185 -147.404631 
L 406.603675 -148.457028 
L 406.707632 -149.509425 
L 406.789971 -150.561822 
L 406.853386 -151.614219 
L 406.900248 -152.666616 
L 406.932527 -153.719013 
L 406.951736 -154.77141 
L 406.958893 -155.823807 
L 406.954521 -156.876204 
L 406.938658 -157.928601 
L 406.910911 -158.980997 
L 406.870525 -160.033394 
L 406.816487 -161.085791 
L 406.747656 -162.138188 
L 406.662917 -163.190585 
L 406.561359 -164.242982 
L 406.442457 -165.295379 
L 406.306266 -166.347776 
L 406.153586 -167.400173 
L 405.986111 -168.45257 
L 405.80651 -169.504967 
L 405.618461 -170.557364 
L 405.426592 -171.60976 
L 405.236342 -172.662157 
L 405.05374 -173.714554 
L 404.885106 -174.766951 
L 404.736702 -175.819348 
L 404.614347 -176.871745 
L 404.523044 -177.924142 
L 404.466642 -178.976539 
L 404.447566 -180.028936 
L 407.072109 -180.028936 
L 407.072109 -180.028936 
L 407.072109 -178.976539 
L 407.072109 -177.924142 
L 407.072109 -176.871745 
L 407.072109 -175.819348 
L 407.072109 -174.766951 
L 407.072109 -173.714554 
L 407.072109 -172.662157 
L 407.072109 -171.60976 
L 407.072109 -170.557364 
L 407.072109 -169.504967 
L 407.072109 -168.45257 
L 407.072109 -167.400173 
L 407.072109 -166.347776 
L 407.072109 -165.295379 
L 407.072109 -164.242982 
L 407.072109 -163.190585 
L 407.072109 -162.138188 
L 407.072109 -161.085791 
L 407.072109 -160.033394 
L 407.072109 -158.980997 
L 407.072109 -157.928601 
L 407.072109 -156.876204 
L 407.072109 -155.823807 
L 407.072109 -154.77141 
L 407.072109 -153.719013 
L 407.072109 -152.666616 
L 407.072109 -151.614219 
L 407.072109 -150.561822 
L 407.072109 -149.509425 
L 407.072109 -148.457028 
L 407.072109 -147.404631 
L 407.072109 -146.352234 
L 407.072109 -145.299837 
L 407.072109 -144.247441 
L 407.072109 -143.195044 
L 407.072109 -142.142647 
L 407.072109 -141.09025 
L 407.072109 -140.037853 
L 407.072109 -138.985456 
L 407.072109 -137.933059 
L 407.072109 -136.880662 
L 407.072109 -135.828265 
L 407.072109 -134.775868 
L 407.072109 -133.723471 
L 407.072109 -132.671074 
L 407.072109 -131.618677 
L 407.072109 -130.566281 
L 407.072109 -129.513884 
L 407.072109 -128.461487 
L 407.072109 -127.40909 
L 407.072109 -126.356693 
L 407.072109 -125.304296 
L 407.072109 -124.251899 
L 407.072109 -123.199502 
L 407.072109 -122.147105 
L 407.072109 -121.094708 
L 407.072109 -120.042311 
L 407.072109 -118.989914 
L 407.072109 -117.937517 
L 407.072109 -116.885121 
L 407.072109 -115.832724 
L 407.072109 -114.780327 
L 407.072109 -113.72793 
L 407.072109 -112.675533 
L 407.072109 -111.623136 
L 407.072109 -110.570739 
L 407.072109 -109.518342 
L 407.072109 -108.465945 
L 407.072109 -107.413548 
L 407.072109 -106.361151 
L 407.072109 -105.308754 
L 407.072109 -104.256358 
L 407.072109 -103.203961 
L 407.072109 -102.151564 
L 407.072109 -101.099167 
L 407.072109 -100.04677 
L 407.072109 -98.994373 
L 407.072109 -97.941976 
L 407.072109 -96.889579 
L 407.072109 -95.837182 
L 407.072109 -94.784785 
L 407.072109 -93.732388 
L 407.072109 -92.679991 
L 407.072109 -91.627594 
L 407.072109 -90.575198 
L 407.072109 -89.522801 
L 407.072109 -88.470404 
L 407.072109 -87.418007 
L 407.072109 -86.36561 
L 407.072109 -85.313213 
L 407.072109 -84.260816 
L 407.072109 -83.208419 
L 407.072109 -82.156022 
L 407.072109 -81.103625 
L 407.072109 -80.051228 
L 407.072109 -78.998831 
L 407.072109 -77.946434 
L 407.072109 -76.894038 
L 407.072109 -75.841641 
z
" style="stroke: #484848; stroke-width: 1.5"/>
    </defs>
    <g clip-path="url(#p5e270baa8d)">
     <use xlink:href="#m977ca56b87" x="0" y="534.240703" style="fill: #e41a1c; stroke: #484848; stroke-width: 1.5"/>
    </g>
   </g>
   <g id="PolyCollection_4">
    <defs>
     <path id="mb6703137f4" d="M 469.051737 -75.841641 
L 407.072109 -75.841641 
L 407.072109 -79.914368 
L 407.072109 -83.987095 
L 407.072109 -88.059822 
L 407.072109 -92.13255 
L 407.072109 -96.205277 
L 407.072109 -100.278004 
L 407.072109 -104.350732 
L 407.072109 -108.423459 
L 407.072109 -112.496186 
L 407.072109 -116.568913 
L 407.072109 -120.641641 
L 407.072109 -124.714368 
L 407.072109 -128.787095 
L 407.072109 -132.859822 
L 407.072109 -136.93255 
L 407.072109 -141.005277 
L 407.072109 -145.078004 
L 407.072109 -149.150732 
L 407.072109 -153.223459 
L 407.072109 -157.296186 
L 407.072109 -161.368913 
L 407.072109 -165.441641 
L 407.072109 -169.514368 
L 407.072109 -173.587095 
L 407.072109 -177.659822 
L 407.072109 -181.73255 
L 407.072109 -185.805277 
L 407.072109 -189.878004 
L 407.072109 -193.950732 
L 407.072109 -198.023459 
L 407.072109 -202.096186 
L 407.072109 -206.168913 
L 407.072109 -210.241641 
L 407.072109 -214.314368 
L 407.072109 -218.387095 
L 407.072109 -222.459822 
L 407.072109 -226.53255 
L 407.072109 -230.605277 
L 407.072109 -234.678004 
L 407.072109 -238.750732 
L 407.072109 -242.823459 
L 407.072109 -246.896186 
L 407.072109 -250.968913 
L 407.072109 -255.041641 
L 407.072109 -259.114368 
L 407.072109 -263.187095 
L 407.072109 -267.259822 
L 407.072109 -271.33255 
L 407.072109 -275.405277 
L 407.072109 -279.478004 
L 407.072109 -283.550732 
L 407.072109 -287.623459 
L 407.072109 -291.696186 
L 407.072109 -295.768913 
L 407.072109 -299.841641 
L 407.072109 -303.914368 
L 407.072109 -307.987095 
L 407.072109 -312.059822 
L 407.072109 -316.13255 
L 407.072109 -320.205277 
L 407.072109 -324.278004 
L 407.072109 -328.350732 
L 407.072109 -332.423459 
L 407.072109 -336.496186 
L 407.072109 -340.568913 
L 407.072109 -344.641641 
L 407.072109 -348.714368 
L 407.072109 -352.787095 
L 407.072109 -356.859822 
L 407.072109 -360.93255 
L 407.072109 -365.005277 
L 407.072109 -369.078004 
L 407.072109 -373.150732 
L 407.072109 -377.223459 
L 407.072109 -381.296186 
L 407.072109 -385.368913 
L 407.072109 -389.441641 
L 407.072109 -393.514368 
L 407.072109 -397.587095 
L 407.072109 -401.659822 
L 407.072109 -405.73255 
L 407.072109 -409.805277 
L 407.072109 -413.878004 
L 407.072109 -417.950732 
L 407.072109 -422.023459 
L 407.072109 -426.096186 
L 407.072109 -430.168913 
L 407.072109 -434.241641 
L 407.072109 -438.314368 
L 407.072109 -442.387095 
L 407.072109 -446.459822 
L 407.072109 -450.53255 
L 407.072109 -454.605277 
L 407.072109 -458.678004 
L 407.072109 -462.750732 
L 407.072109 -466.823459 
L 407.072109 -470.896186 
L 407.072109 -474.968913 
L 407.072109 -479.041641 
L 407.204473 -479.041641 
L 407.204473 -479.041641 
L 407.176971 -474.968913 
L 407.124249 -470.896186 
L 407.08838 -466.823459 
L 407.075296 -462.750732 
L 407.072501 -458.678004 
L 407.07214 -454.605277 
L 407.072111 -450.53255 
L 407.072109 -446.459822 
L 407.072109 -442.387095 
L 407.072109 -438.314368 
L 407.072109 -434.241641 
L 407.072109 -430.168913 
L 407.072109 -426.096186 
L 407.072109 -422.023459 
L 407.072109 -417.950732 
L 407.072109 -413.878004 
L 407.072109 -409.805277 
L 407.072109 -405.73255 
L 407.072109 -401.659822 
L 407.072109 -397.587095 
L 407.072109 -393.514368 
L 407.072109 -389.441641 
L 407.072109 -385.368913 
L 407.072109 -381.296186 
L 407.072109 -377.223459 
L 407.072109 -373.150732 
L 407.072109 -369.078004 
L 407.072109 -365.005277 
L 407.072109 -360.93255 
L 407.072109 -356.859822 
L 407.072109 -352.787095 
L 407.072109 -348.714368 
L 407.072109 -344.641641 
L 407.072109 -340.568913 
L 407.072109 -336.496186 
L 407.072109 -332.423459 
L 407.072109 -328.350732 
L 407.072109 -324.278004 
L 407.072109 -320.205277 
L 407.072109 -316.13255 
L 407.072109 -312.059822 
L 407.072109 -307.987095 
L 407.072109 -303.914368 
L 407.072109 -299.841641 
L 407.072109 -295.768913 
L 407.072109 -291.696186 
L 407.07211 -287.623459 
L 407.072122 -283.550732 
L 407.072302 -279.478004 
L 407.073906 -275.405277 
L 407.082656 -271.33255 
L 407.111112 -267.259822 
L 407.163895 -263.187095 
L 407.214592 -259.114368 
L 407.234431 -255.041641 
L 407.235869 -250.968913 
L 407.227755 -246.896186 
L 407.190131 -242.823459 
L 407.133377 -238.750732 
L 407.092581 -234.678004 
L 407.076432 -230.605277 
L 407.072683 -226.53255 
L 407.072157 -222.459822 
L 407.072115 -218.387095 
L 407.072169 -214.314368 
L 407.072799 -210.241641 
L 407.077108 -206.168913 
L 407.094842 -202.096186 
L 407.137121 -198.023459 
L 407.190141 -193.950732 
L 407.215773 -189.878004 
L 407.222508 -185.805277 
L 407.283997 -181.73255 
L 407.422242 -177.659822 
L 407.53504 -173.587095 
L 407.508198 -169.514368 
L 407.358514 -165.441641 
L 407.20141 -161.368913 
L 407.112496 -157.296186 
L 407.089446 -153.223459 
L 407.12724 -149.150732 
L 407.27463 -145.078004 
L 407.573499 -141.005277 
L 407.934604 -136.93255 
L 408.238614 -132.859822 
L 408.563112 -128.787095 
L 408.964559 -124.714368 
L 409.225209 -120.641641 
L 409.255048 -116.568913 
L 409.416082 -112.496186 
L 410.190302 -108.423459 
L 411.842181 -104.350732 
L 414.449672 -100.278004 
L 418.355661 -96.205277 
L 425.174486 -92.13255 
L 437.936942 -88.059822 
L 456.920719 -83.987095 
L 472.315186 -79.914368 
L 469.051737 -75.841641 
z
" style="stroke: #484848; stroke-width: 1.5"/>
    </defs>
    <g clip-path="url(#p5e270baa8d)">
     <use xlink:href="#mb6703137f4" x="0" y="534.240703" style="fill: #377eb8; stroke: #484848; stroke-width: 1.5"/>
    </g>
   </g>
   <g id="PolyCollection_5">
    <defs>
     <path id="m507a280d96" d="M 630.272109 -75.984829 
L 578.159535 -75.984829 
L 576.533258 -77.417976 
L 575.164648 -78.851123 
L 574.069706 -80.284271 
L 573.258948 -81.717418 
L 572.737053 -83.150565 
L 572.502698 -84.583713 
L 572.54858 -86.01686 
L 572.861644 -87.450007 
L 573.423489 -88.883154 
L 574.210953 -90.316302 
L 575.19685 -91.749449 
L 576.350827 -93.182596 
L 577.640319 -94.615744 
L 579.03155 -96.048891 
L 580.490552 -97.482038 
L 581.984174 -98.915186 
L 583.481013 -100.348333 
L 584.952277 -101.78148 
L 586.372509 -103.214627 
L 587.720182 -104.647775 
L 588.978134 -106.080922 
L 590.133832 -107.514069 
L 591.179469 -108.947217 
L 592.111896 -110.380364 
L 592.932397 -111.813511 
L 593.646334 -113.246658 
L 594.262665 -114.679806 
L 594.793374 -116.112953 
L 595.25284 -117.5461 
L 595.65716 -118.979248 
L 596.023466 -120.412395 
L 596.369258 -121.845542 
L 596.711771 -123.278689 
L 597.067404 -124.711837 
L 597.451226 -126.144984 
L 597.876561 -127.578131 
L 598.354673 -129.011279 
L 598.894546 -130.444426 
L 599.502756 -131.877573 
L 600.183437 -133.310721 
L 600.938326 -134.743868 
L 601.766878 -136.177015 
L 602.666444 -137.610162 
L 603.632492 -139.04331 
L 604.658865 -140.476457 
L 605.738048 -141.909604 
L 606.861462 -143.342752 
L 608.019737 -144.775899 
L 609.202992 -146.209046 
L 610.401085 -147.642193 
L 611.603847 -149.075341 
L 612.801292 -150.508488 
L 613.983797 -151.941635 
L 615.142256 -153.374783 
L 616.268211 -154.80793 
L 617.353947 -156.241077 
L 618.392576 -157.674225 
L 619.378094 -159.107372 
L 620.305414 -160.540519 
L 621.170394 -161.973666 
L 621.969835 -163.406814 
L 622.701477 -164.839961 
L 623.363978 -166.273108 
L 623.956882 -167.706256 
L 624.480577 -169.139403 
L 624.936247 -170.57255 
L 625.325808 -172.005697 
L 625.651849 -173.438845 
L 625.917556 -174.871992 
L 626.126632 -176.305139 
L 626.283221 -177.738287 
L 626.391815 -179.171434 
L 626.457175 -180.604581 
L 626.484237 -182.037729 
L 626.478032 -183.470876 
L 626.443604 -184.904023 
L 626.38593 -186.33717 
L 626.309856 -187.770318 
L 626.22003 -189.203465 
L 626.120851 -190.636612 
L 626.016429 -192.06976 
L 625.910551 -193.502907 
L 625.806658 -194.936054 
L 625.707836 -196.369201 
L 625.61681 -197.802349 
L 625.535952 -199.235496 
L 625.46729 -200.668643 
L 625.412522 -202.101791 
L 625.373038 -203.534938 
L 625.349934 -204.968085 
L 625.344039 -206.401233 
L 625.355922 -207.83438 
L 625.385916 -209.267527 
L 625.434124 -210.700674 
L 625.500431 -212.133822 
L 625.58451 -213.566969 
L 625.685827 -215.000116 
L 625.803644 -216.433264 
L 625.937027 -217.866411 
L 630.272109 -217.866411 
L 630.272109 -217.866411 
L 630.272109 -216.433264 
L 630.272109 -215.000116 
L 630.272109 -213.566969 
L 630.272109 -212.133822 
L 630.272109 -210.700674 
L 630.272109 -209.267527 
L 630.272109 -207.83438 
L 630.272109 -206.401233 
L 630.272109 -204.968085 
L 630.272109 -203.534938 
L 630.272109 -202.101791 
L 630.272109 -200.668643 
L 630.272109 -199.235496 
L 630.272109 -197.802349 
L 630.272109 -196.369201 
L 630.272109 -194.936054 
L 630.272109 -193.502907 
L 630.272109 -192.06976 
L 630.272109 -190.636612 
L 630.272109 -189.203465 
L 630.272109 -187.770318 
L 630.272109 -186.33717 
L 630.272109 -184.904023 
L 630.272109 -183.470876 
L 630.272109 -182.037729 
L 630.272109 -180.604581 
L 630.272109 -179.171434 
L 630.272109 -177.738287 
L 630.272109 -176.305139 
L 630.272109 -174.871992 
L 630.272109 -173.438845 
L 630.272109 -172.005697 
L 630.272109 -170.57255 
L 630.272109 -169.139403 
L 630.272109 -167.706256 
L 630.272109 -166.273108 
L 630.272109 -164.839961 
L 630.272109 -163.406814 
L 630.272109 -161.973666 
L 630.272109 -160.540519 
L 630.272109 -159.107372 
L 630.272109 -157.674225 
L 630.272109 -156.241077 
L 630.272109 -154.80793 
L 630.272109 -153.374783 
L 630.272109 -151.941635 
L 630.272109 -150.508488 
L 630.272109 -149.075341 
L 630.272109 -147.642193 
L 630.272109 -146.209046 
L 630.272109 -144.775899 
L 630.272109 -143.342752 
L 630.272109 -141.909604 
L 630.272109 -140.476457 
L 630.272109 -139.04331 
L 630.272109 -137.610162 
L 630.272109 -136.177015 
L 630.272109 -134.743868 
L 630.272109 -133.310721 
L 630.272109 -131.877573 
L 630.272109 -130.444426 
L 630.272109 -129.011279 
L 630.272109 -127.578131 
L 630.272109 -126.144984 
L 630.272109 -124.711837 
L 630.272109 -123.278689 
L 630.272109 -121.845542 
L 630.272109 -120.412395 
L 630.272109 -118.979248 
L 630.272109 -117.5461 
L 630.272109 -116.112953 
L 630.272109 -114.679806 
L 630.272109 -113.246658 
L 630.272109 -111.813511 
L 630.272109 -110.380364 
L 630.272109 -108.947217 
L 630.272109 -107.514069 
L 630.272109 -106.080922 
L 630.272109 -104.647775 
L 630.272109 -103.214627 
L 630.272109 -101.78148 
L 630.272109 -100.348333 
L 630.272109 -98.915186 
L 630.272109 -97.482038 
L 630.272109 -96.048891 
L 630.272109 -94.615744 
L 630.272109 -93.182596 
L 630.272109 -91.749449 
L 630.272109 -90.316302 
L 630.272109 -88.883154 
L 630.272109 -87.450007 
L 630.272109 -86.01686 
L 630.272109 -84.583713 
L 630.272109 -83.150565 
L 630.272109 -81.717418 
L 630.272109 -80.284271 
L 630.272109 -78.851123 
L 630.272109 -77.417976 
L 630.272109 -75.984829 
z
" style="stroke: #484848; stroke-width: 1.5"/>
    </defs>
    <g clip-path="url(#p5e270baa8d)">
     <use xlink:href="#m507a280d96" x="0" y="534.240703" style="fill: #e41a1c; stroke: #484848; stroke-width: 1.5"/>
    </g>
   </g>
   <g id="PolyCollection_6">
    <defs>
     <path id="md8f4a7b0c5" d="M 636.370381 -75.859539 
L 630.272109 -75.859539 
L 630.272109 -77.299195 
L 630.272109 -78.738851 
L 630.272109 -80.178507 
L 630.272109 -81.618163 
L 630.272109 -83.057818 
L 630.272109 -84.497474 
L 630.272109 -85.93713 
L 630.272109 -87.376786 
L 630.272109 -88.816442 
L 630.272109 -90.256098 
L 630.272109 -91.695753 
L 630.272109 -93.135409 
L 630.272109 -94.575065 
L 630.272109 -96.014721 
L 630.272109 -97.454377 
L 630.272109 -98.894033 
L 630.272109 -100.333689 
L 630.272109 -101.773344 
L 630.272109 -103.213 
L 630.272109 -104.652656 
L 630.272109 -106.092312 
L 630.272109 -107.531968 
L 630.272109 -108.971624 
L 630.272109 -110.411279 
L 630.272109 -111.850935 
L 630.272109 -113.290591 
L 630.272109 -114.730247 
L 630.272109 -116.169903 
L 630.272109 -117.609559 
L 630.272109 -119.049215 
L 630.272109 -120.48887 
L 630.272109 -121.928526 
L 630.272109 -123.368182 
L 630.272109 -124.807838 
L 630.272109 -126.247494 
L 630.272109 -127.68715 
L 630.272109 -129.126805 
L 630.272109 -130.566461 
L 630.272109 -132.006117 
L 630.272109 -133.445773 
L 630.272109 -134.885429 
L 630.272109 -136.325085 
L 630.272109 -137.764741 
L 630.272109 -139.204396 
L 630.272109 -140.644052 
L 630.272109 -142.083708 
L 630.272109 -143.523364 
L 630.272109 -144.96302 
L 630.272109 -146.402676 
L 630.272109 -147.842332 
L 630.272109 -149.281987 
L 630.272109 -150.721643 
L 630.272109 -152.161299 
L 630.272109 -153.600955 
L 630.272109 -155.040611 
L 630.272109 -156.480267 
L 630.272109 -157.919922 
L 630.272109 -159.359578 
L 630.272109 -160.799234 
L 630.272109 -162.23889 
L 630.272109 -163.678546 
L 630.272109 -165.118202 
L 630.272109 -166.557858 
L 630.272109 -167.997513 
L 630.272109 -169.437169 
L 630.272109 -170.876825 
L 630.272109 -172.316481 
L 630.272109 -173.756137 
L 630.272109 -175.195793 
L 630.272109 -176.635448 
L 630.272109 -178.075104 
L 630.272109 -179.51476 
L 630.272109 -180.954416 
L 630.272109 -182.394072 
L 630.272109 -183.833728 
L 630.272109 -185.273384 
L 630.272109 -186.713039 
L 630.272109 -188.152695 
L 630.272109 -189.592351 
L 630.272109 -191.032007 
L 630.272109 -192.471663 
L 630.272109 -193.911319 
L 630.272109 -195.350974 
L 630.272109 -196.79063 
L 630.272109 -198.230286 
L 630.272109 -199.669942 
L 630.272109 -201.109598 
L 630.272109 -202.549254 
L 630.272109 -203.98891 
L 630.272109 -205.428565 
L 630.272109 -206.868221 
L 630.272109 -208.307877 
L 630.272109 -209.747533 
L 630.272109 -211.187189 
L 630.272109 -212.626845 
L 630.272109 -214.0665 
L 630.272109 -215.506156 
L 630.272109 -216.945812 
L 630.272109 -218.385468 
L 630.434709 -218.385468 
L 630.434709 -218.385468 
L 630.435803 -216.945812 
L 630.435358 -215.506156 
L 630.433622 -214.0665 
L 630.430926 -212.626845 
L 630.427667 -211.187189 
L 630.42428 -209.747533 
L 630.42121 -208.307877 
L 630.418888 -206.868221 
L 630.417698 -205.428565 
L 630.417958 -203.98891 
L 630.419899 -202.549254 
L 630.423656 -201.109598 
L 630.429262 -199.669942 
L 630.436655 -198.230286 
L 630.445686 -196.79063 
L 630.456134 -195.350974 
L 630.467732 -193.911319 
L 630.480185 -192.471663 
L 630.493198 -191.032007 
L 630.506495 -189.592351 
L 630.51984 -188.152695 
L 630.533052 -186.713039 
L 630.546013 -185.273384 
L 630.558674 -183.833728 
L 630.571051 -182.394072 
L 630.583217 -180.954416 
L 630.595292 -179.51476 
L 630.607424 -178.075104 
L 630.619771 -176.635448 
L 630.632488 -175.195793 
L 630.645699 -173.756137 
L 630.65949 -172.316481 
L 630.673893 -170.876825 
L 630.688881 -169.437169 
L 630.704368 -167.997513 
L 630.720221 -166.557858 
L 630.736271 -165.118202 
L 630.752339 -163.678546 
L 630.76826 -162.23889 
L 630.783924 -160.799234 
L 630.7993 -159.359578 
L 630.81447 -157.919922 
L 630.829658 -156.480267 
L 630.845237 -155.040611 
L 630.861741 -153.600955 
L 630.879851 -152.161299 
L 630.90037 -150.721643 
L 630.924182 -149.281987 
L 630.952204 -147.842332 
L 630.985322 -146.402676 
L 631.024328 -144.96302 
L 631.069857 -143.523364 
L 631.122328 -142.083708 
L 631.181908 -140.644052 
L 631.24848 -139.204396 
L 631.32165 -137.764741 
L 631.400762 -136.325085 
L 631.48495 -134.885429 
L 631.573199 -133.445773 
L 631.664434 -132.006117 
L 631.757604 -130.566461 
L 631.851776 -129.126805 
L 631.94622 -127.68715 
L 632.040469 -126.247494 
L 632.134371 -124.807838 
L 632.228103 -123.368182 
L 632.322166 -121.928526 
L 632.417357 -120.48887 
L 632.514719 -119.049215 
L 632.615486 -117.609559 
L 632.721019 -116.169903 
L 632.832748 -114.730247 
L 632.95213 -113.290591 
L 633.080606 -111.850935 
L 633.219571 -110.411279 
L 633.370354 -108.971624 
L 633.534184 -107.531968 
L 633.712147 -106.092312 
L 633.905114 -104.652656 
L 634.113647 -103.213 
L 634.337867 -101.773344 
L 634.577291 -100.333689 
L 634.830666 -98.894033 
L 635.095784 -97.454377 
L 635.369337 -96.014721 
L 635.646811 -94.575065 
L 635.92246 -93.135409 
L 636.189371 -91.695753 
L 636.43964 -90.256098 
L 636.664664 -88.816442 
L 636.855534 -87.376786 
L 637.003507 -85.93713 
L 637.100537 -84.497474 
L 637.139802 -83.057818 
L 637.116199 -81.618163 
L 637.026755 -80.178507 
L 636.870905 -78.738851 
L 636.650624 -77.299195 
L 636.370381 -75.859539 
z
" style="stroke: #484848; stroke-width: 1.5"/>
    </defs>
    <g clip-path="url(#p5e270baa8d)">
     <use xlink:href="#md8f4a7b0c5" x="0" y="534.240703" style="fill: #377eb8; stroke: #484848; stroke-width: 1.5"/>
    </g>
   </g>
   <g id="patch_3">
    <path d="M 183.872109 458.416961 
L 183.872109 458.416961 
L 183.872109 458.416961 
L 183.872109 458.416961 
z
" clip-path="url(#p5e270baa8d)" style="fill: #e41a1c; stroke: #484848; stroke-width: 1.5; stroke-linejoin: miter"/>
   </g>
   <g id="patch_4">
    <path d="M 183.872109 458.416961 
L 183.872109 458.416961 
L 183.872109 458.416961 
L 183.872109 458.416961 
z
" clip-path="url(#p5e270baa8d)" style="fill: #377eb8; stroke: #484848; stroke-width: 1.5; stroke-linejoin: miter"/>
   </g>
   <g id="line2d_7">
    <path d="M 122.190127 456.823993 
L 183.872109 456.823993 
" clip-path="url(#p5e270baa8d)" style="fill: none; stroke-dasharray: 1.875,1.125; stroke-dashoffset: 0; stroke: #484848; stroke-width: 1.5"/>
   </g>
   <g id="line2d_8">
    <path d="M 120.485736 454.353997 
L 183.872109 454.353997 
" clip-path="url(#p5e270baa8d)" style="fill: none; stroke-dasharray: 3.75,1.5; stroke-dashoffset: 0; stroke: #484848; stroke-width: 1.5"/>
   </g>
   <g id="line2d_9">
    <path d="M 145.650056 449.915163 
L 183.872109 449.915163 
" clip-path="url(#p5e270baa8d)" style="fill: none; stroke-dasharray: 1.875,1.125; stroke-dashoffset: 0; stroke: #484848; stroke-width: 1.5"/>
   </g>
   <g id="line2d_10">
    <path d="M 183.872109 458.18428 
L 268.726269 458.18428 
" clip-path="url(#p5e270baa8d)" style="fill: none; stroke-dasharray: 1.875,1.125; stroke-dashoffset: 0; stroke: #484848; stroke-width: 1.5"/>
   </g>
   <g id="line2d_11">
    <path d="M 183.872109 456.313885 
L 271.611977 456.313885 
" clip-path="url(#p5e270baa8d)" style="fill: none; stroke-dasharray: 3.75,1.5; stroke-dashoffset: 0; stroke: #484848; stroke-width: 1.5"/>
   </g>
   <g id="line2d_12">
    <path d="M 183.872109 452.702858 
L 250.6176 452.702858 
" clip-path="url(#p5e270baa8d)" style="fill: none; stroke-dasharray: 1.875,1.125; stroke-dashoffset: 0; stroke: #484848; stroke-width: 1.5"/>
   </g>
   <g id="line2d_13">
    <path d="M 323.322416 456.60921 
L 407.072109 456.60921 
" clip-path="url(#p5e270baa8d)" style="fill: none; stroke-dasharray: 1.875,1.125; stroke-dashoffset: 0; stroke: #484848; stroke-width: 1.5"/>
   </g>
   <g id="line2d_14">
    <path d="M 319.576388 450.810089 
L 407.072109 450.810089 
" clip-path="url(#p5e270baa8d)" style="fill: none; stroke-dasharray: 3.75,1.5; stroke-dashoffset: 0; stroke: #484848; stroke-width: 1.5"/>
   </g>
   <g id="line2d_15">
    <path d="M 357.433244 440.241012 
L 407.072109 440.241012 
" clip-path="url(#p5e270baa8d)" style="fill: none; stroke-dasharray: 1.875,1.125; stroke-dashoffset: 0; stroke: #484848; stroke-width: 1.5"/>
   </g>
   <g id="line2d_16">
    <path d="M 407.072109 457.969498 
L 469.395944 457.969498 
" clip-path="url(#p5e270baa8d)" style="fill: none; stroke-dasharray: 1.875,1.125; stroke-dashoffset: 0; stroke: #484848; stroke-width: 1.5"/>
   </g>
   <g id="line2d_17">
    <path d="M 407.072109 455.669538 
L 471.238887 455.669538 
" clip-path="url(#p5e270baa8d)" style="fill: none; stroke-dasharray: 3.75,1.5; stroke-dashoffset: 0; stroke: #484848; stroke-width: 1.5"/>
   </g>
   <g id="line2d_18">
    <path d="M 407.072109 450.13442 
L 456.365161 450.13442 
" clip-path="url(#p5e270baa8d)" style="fill: none; stroke-dasharray: 1.875,1.125; stroke-dashoffset: 0; stroke: #484848; stroke-width: 1.5"/>
   </g>
   <g id="line2d_19">
    <path d="M 573.575703 453.083202 
L 630.272109 453.083202 
" clip-path="url(#p5e270baa8d)" style="fill: none; stroke-dasharray: 1.875,1.125; stroke-dashoffset: 0; stroke: #484848; stroke-width: 1.5"/>
   </g>
   <g id="line2d_20">
    <path d="M 574.350001 443.722275 
L 630.272109 443.722275 
" clip-path="url(#p5e270baa8d)" style="fill: none; stroke-dasharray: 3.75,1.5; stroke-dashoffset: 0; stroke: #484848; stroke-width: 1.5"/>
   </g>
   <g id="line2d_21">
    <path d="M 597.357873 408.444288 
L 630.272109 408.444288 
" clip-path="url(#p5e270baa8d)" style="fill: none; stroke-dasharray: 1.875,1.125; stroke-dashoffset: 0; stroke: #484848; stroke-width: 1.5"/>
   </g>
   <g id="line2d_22">
    <path d="M 630.272109 454.904376 
L 636.935585 454.904376 
" clip-path="url(#p5e270baa8d)" style="fill: none; stroke-dasharray: 1.875,1.125; stroke-dashoffset: 0; stroke: #484848; stroke-width: 1.5"/>
   </g>
   <g id="line2d_23">
    <path d="M 630.272109 448.313245 
L 637.004159 448.313245 
" clip-path="url(#p5e270baa8d)" style="fill: none; stroke-dasharray: 3.75,1.5; stroke-dashoffset: 0; stroke: #484848; stroke-width: 1.5"/>
   </g>
   <g id="line2d_24">
    <path d="M 630.272109 426.562067 
L 633.517494 426.562067 
" clip-path="url(#p5e270baa8d)" style="fill: none; stroke-dasharray: 1.875,1.125; stroke-dashoffset: 0; stroke: #484848; stroke-width: 1.5"/>
   </g>
   <g id="patch_5">
    <path d="M 72.272109 478.559062 
L 72.272109 35.039062 
" style="fill: none; stroke: #cccccc; stroke-width: 1.875; stroke-linejoin: miter; stroke-linecap: square"/>
   </g>
   <g id="patch_6">
    <path d="M 741.872109 478.559062 
L 741.872109 35.039062 
" style="fill: none; stroke: #cccccc; stroke-width: 1.875; stroke-linejoin: miter; stroke-linecap: square"/>
   </g>
   <g id="patch_7">
    <path d="M 72.272109 478.559062 
L 741.872109 478.559062 
" style="fill: none; stroke: #cccccc; stroke-width: 1.875; stroke-linejoin: miter; stroke-linecap: square"/>
   </g>
   <g id="patch_8">
    <path d="M 72.272109 35.039062 
L 741.872109 35.039062 
" style="fill: none; stroke: #cccccc; stroke-width: 1.875; stroke-linejoin: miter; stroke-linecap: square"/>
   </g>
   <g id="text_12">
    <!-- Frecuencia de Espera por Segmento y Status -->
    <g style="fill: #262626" transform="translate(84.490078 29.039062) scale(0.3 -0.3)">
     <defs>
      <path id="Arial-BoldMT-46" d="M 472 0 
L 472 4581 
L 3613 4581 
L 3613 3806 
L 1397 3806 
L 1397 2722 
L 3309 2722 
L 3309 1947 
L 1397 1947 
L 1397 0 
L 472 0 
z
" transform="scale(0.015625)"/>
      <path id="Arial-BoldMT-72" d="M 1300 0 
L 422 0 
L 422 3319 
L 1238 3319 
L 1238 2847 
Q 1447 3181 1614 3287 
Q 1781 3394 1994 3394 
Q 2294 3394 2572 3228 
L 2300 2463 
Q 2078 2606 1888 2606 
Q 1703 2606 1575 2504 
Q 1447 2403 1373 2137 
Q 1300 1872 1300 1025 
L 1300 0 
z
" transform="scale(0.015625)"/>
      <path id="Arial-BoldMT-65" d="M 2381 1056 
L 3256 909 
Q 3088 428 2723 176 
Q 2359 -75 1813 -75 
Q 947 -75 531 491 
Q 203 944 203 1634 
Q 203 2459 634 2926 
Q 1066 3394 1725 3394 
Q 2466 3394 2894 2905 
Q 3322 2416 3303 1406 
L 1103 1406 
Q 1113 1016 1316 798 
Q 1519 581 1822 581 
Q 2028 581 2168 693 
Q 2309 806 2381 1056 
z
M 2431 1944 
Q 2422 2325 2234 2523 
Q 2047 2722 1778 2722 
Q 1491 2722 1303 2513 
Q 1116 2303 1119 1944 
L 2431 1944 
z
" transform="scale(0.015625)"/>
      <path id="Arial-BoldMT-63" d="M 3353 2338 
L 2488 2181 
Q 2444 2441 2289 2572 
Q 2134 2703 1888 2703 
Q 1559 2703 1364 2476 
Q 1169 2250 1169 1719 
Q 1169 1128 1367 884 
Q 1566 641 1900 641 
Q 2150 641 2309 783 
Q 2469 925 2534 1272 
L 3397 1125 
Q 3263 531 2881 228 
Q 2500 -75 1859 -75 
Q 1131 -75 698 384 
Q 266 844 266 1656 
Q 266 2478 700 2936 
Q 1134 3394 1875 3394 
Q 2481 3394 2839 3133 
Q 3197 2872 3353 2338 
z
" transform="scale(0.015625)"/>
      <path id="Arial-BoldMT-75" d="M 2644 0 
L 2644 497 
Q 2463 231 2167 78 
Q 1872 -75 1544 -75 
Q 1209 -75 943 72 
Q 678 219 559 484 
Q 441 750 441 1219 
L 441 3319 
L 1319 3319 
L 1319 1794 
Q 1319 1094 1367 936 
Q 1416 778 1544 686 
Q 1672 594 1869 594 
Q 2094 594 2272 717 
Q 2450 841 2515 1023 
Q 2581 1206 2581 1919 
L 2581 3319 
L 3459 3319 
L 3459 0 
L 2644 0 
z
" transform="scale(0.015625)"/>
      <path id="Arial-BoldMT-6e" d="M 3478 0 
L 2600 0 
L 2600 1694 
Q 2600 2231 2544 2389 
Q 2488 2547 2361 2634 
Q 2234 2722 2056 2722 
Q 1828 2722 1647 2597 
Q 1466 2472 1398 2265 
Q 1331 2059 1331 1503 
L 1331 0 
L 453 0 
L 453 3319 
L 1269 3319 
L 1269 2831 
Q 1703 3394 2363 3394 
Q 2653 3394 2893 3289 
Q 3134 3184 3257 3021 
Q 3381 2859 3429 2653 
Q 3478 2447 3478 2063 
L 3478 0 
z
" transform="scale(0.015625)"/>
      <path id="Arial-BoldMT-69" d="M 459 3769 
L 459 4581 
L 1338 4581 
L 1338 3769 
L 459 3769 
z
M 459 0 
L 459 3319 
L 1338 3319 
L 1338 0 
L 459 0 
z
" transform="scale(0.015625)"/>
      <path id="Arial-BoldMT-61" d="M 1116 2306 
L 319 2450 
Q 453 2931 781 3162 
Q 1109 3394 1756 3394 
Q 2344 3394 2631 3255 
Q 2919 3116 3036 2902 
Q 3153 2688 3153 2116 
L 3144 1091 
Q 3144 653 3186 445 
Q 3228 238 3344 0 
L 2475 0 
Q 2441 88 2391 259 
Q 2369 338 2359 363 
Q 2134 144 1878 34 
Q 1622 -75 1331 -75 
Q 819 -75 523 203 
Q 228 481 228 906 
Q 228 1188 362 1408 
Q 497 1628 739 1745 
Q 981 1863 1438 1950 
Q 2053 2066 2291 2166 
L 2291 2253 
Q 2291 2506 2166 2614 
Q 2041 2722 1694 2722 
Q 1459 2722 1328 2630 
Q 1197 2538 1116 2306 
z
M 2291 1594 
Q 2122 1538 1756 1459 
Q 1391 1381 1278 1306 
Q 1106 1184 1106 997 
Q 1106 813 1243 678 
Q 1381 544 1594 544 
Q 1831 544 2047 700 
Q 2206 819 2256 991 
Q 2291 1103 2291 1419 
L 2291 1594 
z
" transform="scale(0.015625)"/>
      <path id="Arial-BoldMT-20" transform="scale(0.015625)"/>
      <path id="Arial-BoldMT-64" d="M 3503 0 
L 2688 0 
L 2688 488 
Q 2484 203 2207 64 
Q 1931 -75 1650 -75 
Q 1078 -75 670 386 
Q 263 847 263 1672 
Q 263 2516 659 2955 
Q 1056 3394 1663 3394 
Q 2219 3394 2625 2931 
L 2625 4581 
L 3503 4581 
L 3503 0 
z
M 1159 1731 
Q 1159 1200 1306 963 
Q 1519 619 1900 619 
Q 2203 619 2415 876 
Q 2628 1134 2628 1647 
Q 2628 2219 2422 2470 
Q 2216 2722 1894 2722 
Q 1581 2722 1370 2473 
Q 1159 2225 1159 1731 
z
" transform="scale(0.015625)"/>
      <path id="Arial-BoldMT-45" d="M 466 0 
L 466 4581 
L 3863 4581 
L 3863 3806 
L 1391 3806 
L 1391 2791 
L 3691 2791 
L 3691 2019 
L 1391 2019 
L 1391 772 
L 3950 772 
L 3950 0 
L 466 0 
z
" transform="scale(0.015625)"/>
      <path id="Arial-BoldMT-73" d="M 150 947 
L 1031 1081 
Q 1088 825 1259 692 
Q 1431 559 1741 559 
Q 2081 559 2253 684 
Q 2369 772 2369 919 
Q 2369 1019 2306 1084 
Q 2241 1147 2013 1200 
Q 950 1434 666 1628 
Q 272 1897 272 2375 
Q 272 2806 612 3100 
Q 953 3394 1669 3394 
Q 2350 3394 2681 3172 
Q 3013 2950 3138 2516 
L 2309 2363 
Q 2256 2556 2107 2659 
Q 1959 2763 1684 2763 
Q 1338 2763 1188 2666 
Q 1088 2597 1088 2488 
Q 1088 2394 1175 2328 
Q 1294 2241 1995 2081 
Q 2697 1922 2975 1691 
Q 3250 1456 3250 1038 
Q 3250 581 2869 253 
Q 2488 -75 1741 -75 
Q 1063 -75 667 200 
Q 272 475 150 947 
z
" transform="scale(0.015625)"/>
      <path id="Arial-BoldMT-70" d="M 434 3319 
L 1253 3319 
L 1253 2831 
Q 1413 3081 1684 3237 
Q 1956 3394 2288 3394 
Q 2866 3394 3269 2941 
Q 3672 2488 3672 1678 
Q 3672 847 3265 386 
Q 2859 -75 2281 -75 
Q 2006 -75 1782 34 
Q 1559 144 1313 409 
L 1313 -1263 
L 434 -1263 
L 434 3319 
z
M 1303 1716 
Q 1303 1156 1525 889 
Q 1747 622 2066 622 
Q 2372 622 2575 867 
Q 2778 1113 2778 1672 
Q 2778 2194 2568 2447 
Q 2359 2700 2050 2700 
Q 1728 2700 1515 2451 
Q 1303 2203 1303 1716 
z
" transform="scale(0.015625)"/>
      <path id="Arial-BoldMT-6f" d="M 256 1706 
Q 256 2144 472 2553 
Q 688 2963 1083 3178 
Q 1478 3394 1966 3394 
Q 2719 3394 3200 2905 
Q 3681 2416 3681 1669 
Q 3681 916 3195 420 
Q 2709 -75 1972 -75 
Q 1516 -75 1102 131 
Q 688 338 472 736 
Q 256 1134 256 1706 
z
M 1156 1659 
Q 1156 1166 1390 903 
Q 1625 641 1969 641 
Q 2313 641 2545 903 
Q 2778 1166 2778 1666 
Q 2778 2153 2545 2415 
Q 2313 2678 1969 2678 
Q 1625 2678 1390 2415 
Q 1156 2153 1156 1659 
z
" transform="scale(0.015625)"/>
      <path id="Arial-BoldMT-53" d="M 231 1491 
L 1131 1578 
Q 1213 1125 1461 912 
Q 1709 700 2131 700 
Q 2578 700 2804 889 
Q 3031 1078 3031 1331 
Q 3031 1494 2936 1608 
Q 2841 1722 2603 1806 
Q 2441 1863 1863 2006 
Q 1119 2191 819 2459 
Q 397 2838 397 3381 
Q 397 3731 595 4036 
Q 794 4341 1167 4500 
Q 1541 4659 2069 4659 
Q 2931 4659 3367 4281 
Q 3803 3903 3825 3272 
L 2900 3231 
Q 2841 3584 2645 3739 
Q 2450 3894 2059 3894 
Q 1656 3894 1428 3728 
Q 1281 3622 1281 3444 
Q 1281 3281 1419 3166 
Q 1594 3019 2269 2859 
Q 2944 2700 3267 2529 
Q 3591 2359 3773 2064 
Q 3956 1769 3956 1334 
Q 3956 941 3737 597 
Q 3519 253 3119 86 
Q 2719 -81 2122 -81 
Q 1253 -81 787 320 
Q 322 722 231 1491 
z
" transform="scale(0.015625)"/>
      <path id="Arial-BoldMT-67" d="M 378 -219 
L 1381 -341 
Q 1406 -516 1497 -581 
Q 1622 -675 1891 -675 
Q 2234 -675 2406 -572 
Q 2522 -503 2581 -350 
Q 2622 -241 2622 53 
L 2622 538 
Q 2228 0 1628 0 
Q 959 0 569 566 
Q 263 1013 263 1678 
Q 263 2513 664 2953 
Q 1066 3394 1663 3394 
Q 2278 3394 2678 2853 
L 2678 3319 
L 3500 3319 
L 3500 341 
Q 3500 -247 3403 -537 
Q 3306 -828 3131 -993 
Q 2956 -1159 2664 -1253 
Q 2372 -1347 1925 -1347 
Q 1081 -1347 728 -1058 
Q 375 -769 375 -325 
Q 375 -281 378 -219 
z
M 1163 1728 
Q 1163 1200 1367 954 
Q 1572 709 1872 709 
Q 2194 709 2416 961 
Q 2638 1213 2638 1706 
Q 2638 2222 2425 2472 
Q 2213 2722 1888 2722 
Q 1572 2722 1367 2476 
Q 1163 2231 1163 1728 
z
" transform="scale(0.015625)"/>
      <path id="Arial-BoldMT-6d" d="M 394 3319 
L 1203 3319 
L 1203 2866 
Q 1638 3394 2238 3394 
Q 2556 3394 2790 3262 
Q 3025 3131 3175 2866 
Q 3394 3131 3647 3262 
Q 3900 3394 4188 3394 
Q 4553 3394 4806 3245 
Q 5059 3097 5184 2809 
Q 5275 2597 5275 2122 
L 5275 0 
L 4397 0 
L 4397 1897 
Q 4397 2391 4306 2534 
Q 4184 2722 3931 2722 
Q 3747 2722 3584 2609 
Q 3422 2497 3350 2280 
Q 3278 2063 3278 1594 
L 3278 0 
L 2400 0 
L 2400 1819 
Q 2400 2303 2353 2443 
Q 2306 2584 2207 2653 
Q 2109 2722 1941 2722 
Q 1738 2722 1575 2612 
Q 1413 2503 1342 2297 
Q 1272 2091 1272 1613 
L 1272 0 
L 394 0 
L 394 3319 
z
" transform="scale(0.015625)"/>
      <path id="Arial-BoldMT-74" d="M 1981 3319 
L 1981 2619 
L 1381 2619 
L 1381 1281 
Q 1381 875 1398 808 
Q 1416 741 1477 697 
Q 1538 653 1625 653 
Q 1747 653 1978 738 
L 2053 56 
Q 1747 -75 1359 -75 
Q 1122 -75 931 4 
Q 741 84 652 211 
Q 563 338 528 553 
Q 500 706 500 1172 
L 500 2619 
L 97 2619 
L 97 3319 
L 500 3319 
L 500 3978 
L 1381 4491 
L 1381 3319 
L 1981 3319 
z
" transform="scale(0.015625)"/>
      <path id="Arial-BoldMT-79" d="M 44 3319 
L 978 3319 
L 1772 963 
L 2547 3319 
L 3456 3319 
L 2284 125 
L 2075 -453 
Q 1959 -744 1854 -897 
Q 1750 -1050 1614 -1145 
Q 1478 -1241 1279 -1294 
Q 1081 -1347 831 -1347 
Q 578 -1347 334 -1294 
L 256 -606 
Q 463 -647 628 -647 
Q 934 -647 1081 -467 
Q 1228 -288 1306 -9 
L 44 3319 
z
" transform="scale(0.015625)"/>
     </defs>
     <use xlink:href="#Arial-BoldMT-46"/>
     <use xlink:href="#Arial-BoldMT-72" x="61.083984"/>
     <use xlink:href="#Arial-BoldMT-65" x="100"/>
     <use xlink:href="#Arial-BoldMT-63" x="155.615234"/>
     <use xlink:href="#Arial-BoldMT-75" x="211.230469"/>
     <use xlink:href="#Arial-BoldMT-65" x="272.314453"/>
     <use xlink:href="#Arial-BoldMT-6e" x="327.929688"/>
     <use xlink:href="#Arial-BoldMT-63" x="389.013672"/>
     <use xlink:href="#Arial-BoldMT-69" x="444.628906"/>
     <use xlink:href="#Arial-BoldMT-61" x="472.412109"/>
     <use xlink:href="#Arial-BoldMT-20" x="528.027344"/>
     <use xlink:href="#Arial-BoldMT-64" x="555.810547"/>
     <use xlink:href="#Arial-BoldMT-65" x="616.894531"/>
     <use xlink:href="#Arial-BoldMT-20" x="672.509766"/>
     <use xlink:href="#Arial-BoldMT-45" x="700.292969"/>
     <use xlink:href="#Arial-BoldMT-73" x="766.992188"/>
     <use xlink:href="#Arial-BoldMT-70" x="822.607422"/>
     <use xlink:href="#Arial-BoldMT-65" x="883.691406"/>
     <use xlink:href="#Arial-BoldMT-72" x="939.306641"/>
     <use xlink:href="#Arial-BoldMT-61" x="978.222656"/>
     <use xlink:href="#Arial-BoldMT-20" x="1033.837891"/>
     <use xlink:href="#Arial-BoldMT-70" x="1061.621094"/>
     <use xlink:href="#Arial-BoldMT-6f" x="1122.705078"/>
     <use xlink:href="#Arial-BoldMT-72" x="1183.789062"/>
     <use xlink:href="#Arial-BoldMT-20" x="1222.705078"/>
     <use xlink:href="#Arial-BoldMT-53" x="1250.488281"/>
     <use xlink:href="#Arial-BoldMT-65" x="1317.1875"/>
     <use xlink:href="#Arial-BoldMT-67" x="1372.802734"/>
     <use xlink:href="#Arial-BoldMT-6d" x="1433.886719"/>
     <use xlink:href="#Arial-BoldMT-65" x="1522.802734"/>
     <use xlink:href="#Arial-BoldMT-6e" x="1578.417969"/>
     <use xlink:href="#Arial-BoldMT-74" x="1639.501953"/>
     <use xlink:href="#Arial-BoldMT-6f" x="1672.802734"/>
     <use xlink:href="#Arial-BoldMT-20" x="1733.886719"/>
     <use xlink:href="#Arial-BoldMT-79" x="1761.669922"/>
     <use xlink:href="#Arial-BoldMT-20" x="1817.285156"/>
     <use xlink:href="#Arial-BoldMT-53" x="1845.068359"/>
     <use xlink:href="#Arial-BoldMT-74" x="1911.767578"/>
     <use xlink:href="#Arial-BoldMT-61" x="1945.068359"/>
     <use xlink:href="#Arial-BoldMT-74" x="2000.683594"/>
     <use xlink:href="#Arial-BoldMT-75" x="2033.984375"/>
     <use xlink:href="#Arial-BoldMT-73" x="2095.068359"/>
    </g>
   </g>
   <g id="legend_1">
    <g id="patch_9">
     <path d="M 83.822109 94.918594 
L 201.755859 94.918594 
Q 205.055859 94.918594 205.055859 91.618594 
L 205.055859 46.589063 
Q 205.055859 43.289062 201.755859 43.289062 
L 83.822109 43.289062 
Q 80.522109 43.289062 80.522109 46.589063 
L 80.522109 91.618594 
Q 80.522109 94.918594 83.822109 94.918594 
z
" style="fill: #ffffff; opacity: 0.8; stroke: #cccccc; stroke-width: 1.5; stroke-linejoin: miter"/>
    </g>
    <g id="patch_10">
     <path d="M 87.122109 61.699453 
L 120.122109 61.699453 
L 120.122109 50.149453 
L 87.122109 50.149453 
z
" style="fill: #e41a1c; stroke: #484848; stroke-width: 1.5; stroke-linejoin: miter"/>
    </g>
    <g id="text_13">
     <!-- Ausente -->
     <g style="fill: #262626" transform="translate(133.322109 61.699453) scale(0.165 -0.165)">
      <defs>
       <path id="ArialMT-75" d="M 2597 0 
L 2597 488 
Q 2209 -75 1544 -75 
Q 1250 -75 995 37 
Q 741 150 617 320 
Q 494 491 444 738 
Q 409 903 409 1263 
L 409 3319 
L 972 3319 
L 972 1478 
Q 972 1038 1006 884 
Q 1059 663 1231 536 
Q 1403 409 1656 409 
Q 1909 409 2131 539 
Q 2353 669 2445 892 
Q 2538 1116 2538 1541 
L 2538 3319 
L 3100 3319 
L 3100 0 
L 2597 0 
z
" transform="scale(0.015625)"/>
      </defs>
      <use xlink:href="#ArialMT-41"/>
      <use xlink:href="#ArialMT-75" x="66.699219"/>
      <use xlink:href="#ArialMT-73" x="122.314453"/>
      <use xlink:href="#ArialMT-65" x="172.314453"/>
      <use xlink:href="#ArialMT-6e" x="227.929688"/>
      <use xlink:href="#ArialMT-74" x="283.544922"/>
      <use xlink:href="#ArialMT-65" x="311.328125"/>
     </g>
    </g>
    <g id="patch_11">
     <path d="M 87.122109 85.039219 
L 120.122109 85.039219 
L 120.122109 73.489219 
L 87.122109 73.489219 
z
" style="fill: #377eb8; stroke: #484848; stroke-width: 1.5; stroke-linejoin: miter"/>
    </g>
    <g id="text_14">
     <!-- Atendido -->
     <g style="fill: #262626" transform="translate(133.322109 85.039219) scale(0.165 -0.165)">
      <defs>
       <path id="ArialMT-64" d="M 2575 0 
L 2575 419 
Q 2259 -75 1647 -75 
Q 1250 -75 917 144 
Q 584 363 401 755 
Q 219 1147 219 1656 
Q 219 2153 384 2558 
Q 550 2963 881 3178 
Q 1213 3394 1622 3394 
Q 1922 3394 2156 3267 
Q 2391 3141 2538 2938 
L 2538 4581 
L 3097 4581 
L 3097 0 
L 2575 0 
z
M 797 1656 
Q 797 1019 1065 703 
Q 1334 388 1700 388 
Q 2069 388 2326 689 
Q 2584 991 2584 1609 
Q 2584 2291 2321 2609 
Q 2059 2928 1675 2928 
Q 1300 2928 1048 2622 
Q 797 2316 797 1656 
z
" transform="scale(0.015625)"/>
      </defs>
      <use xlink:href="#ArialMT-41"/>
      <use xlink:href="#ArialMT-74" x="66.699219"/>
      <use xlink:href="#ArialMT-65" x="94.482422"/>
      <use xlink:href="#ArialMT-6e" x="150.097656"/>
      <use xlink:href="#ArialMT-64" x="205.712891"/>
      <use xlink:href="#ArialMT-69" x="261.328125"/>
      <use xlink:href="#ArialMT-64" x="283.544922"/>
      <use xlink:href="#ArialMT-6f" x="339.160156"/>
     </g>
    </g>
   </g>
  </g>
 </g>
 <defs>
  <clipPath id="p5e270baa8d">
   <rect x="72.272109" y="35.039062" width="669.6" height="443.52"/>
  </clipPath>
 </defs>
</svg>
