<?xml version="1.0" encoding="utf-8" standalone="no"?>
<!DOCTYPE svg PUBLIC "-//W3C//DTD SVG 1.1//EN"
  "http://www.w3.org/Graphics/SVG/1.1/DTD/svg11.dtd">
<svg xmlns:xlink="http://www.w3.org/1999/xlink" width="749.072109pt" height="534.240703pt" viewBox="0 0 749.072109 534.240703" xmlns="http://www.w3.org/2000/svg" version="1.1">
 <metadata>
  <rdf:RDF xmlns:dc="http://purl.org/dc/elements/1.1/" xmlns:cc="http://creativecommons.org/ns#" xmlns:rdf="http://www.w3.org/1999/02/22-rdf-syntax-ns#">
   <cc:Work>
    <dc:type rdf:resource="http://purl.org/dc/dcmitype/StillImage"/>
    <dc:date>2025-03-28T20:19:51.984815</dc:date>
    <dc:format>image/svg+xml</dc:format>
    <dc:creator>
     <cc:Agent>
      <dc:title>Matplotlib v3.8.4, https://matplotlib.org/</dc:title>
     </cc:Agent>
    </dc:creator>
   </cc:Work>
  </rdf:RDF>
 </metadata>
 <defs>
  <style type="text/css">*{stroke-linejoin: round; stroke-linecap: butt}</style>
 </defs>
 <g id="figure_1">
  <g id="patch_1">
   <path d="M 0 534.240703 
L 749.072109 534.240703 
L 749.072109 0 
L 0 0 
z
" style="fill: #ffffff"/>
  </g>
  <g id="axes_1">
   <g id="patch_2">
    <path d="M 72.272109 478.559062 
L 741.872109 478.559062 
L 741.872109 35.039062 
L 72.272109 35.039062 
z
" style="fill: #ffffff"/>
   </g>
   <g id="matplotlib.axis_1">
    <g id="xtick_1">
     <g id="text_1">
      <!-- Retail -->
      <g style="fill: #262626" transform="translate(162.780469 502.869453) scale(0.165 -0.165)">
       <defs>
        <path id="ArialMT-52" d="M 503 0 
L 503 4581 
L 2534 4581 
Q 3147 4581 3465 4457 
Q 3784 4334 3975 4021 
Q 4166 3709 4166 3331 
Q 4166 2844 3850 2509 
Q 3534 2175 2875 2084 
Q 3116 1969 3241 1856 
Q 3506 1613 3744 1247 
L 4541 0 
L 3778 0 
L 3172 953 
Q 2906 1366 2734 1584 
Q 2563 1803 2427 1890 
Q 2291 1978 2150 2013 
Q 2047 2034 1813 2034 
L 1109 2034 
L 1109 0 
L 503 0 
z
M 1109 2559 
L 2413 2559 
Q 2828 2559 3062 2645 
Q 3297 2731 3419 2920 
Q 3541 3109 3541 3331 
Q 3541 3656 3305 3865 
Q 3069 4075 2559 4075 
L 1109 4075 
L 1109 2559 
z
" transform="scale(0.015625)"/>
        <path id="ArialMT-65" d="M 2694 1069 
L 3275 997 
Q 3138 488 2766 206 
Q 2394 -75 1816 -75 
Q 1088 -75 661 373 
Q 234 822 234 1631 
Q 234 2469 665 2931 
Q 1097 3394 1784 3394 
Q 2450 3394 2872 2941 
Q 3294 2488 3294 1666 
Q 3294 1616 3291 1516 
L 816 1516 
Q 847 969 1125 678 
Q 1403 388 1819 388 
Q 2128 388 2347 550 
Q 2566 713 2694 1069 
z
M 847 1978 
L 2700 1978 
Q 2663 2397 2488 2606 
Q 2219 2931 1791 2931 
Q 1403 2931 1139 2672 
Q 875 2413 847 1978 
z
" transform="scale(0.015625)"/>
        <path id="ArialMT-74" d="M 1650 503 
L 1731 6 
Q 1494 -44 1306 -44 
Q 1000 -44 831 53 
Q 663 150 594 308 
Q 525 466 525 972 
L 525 2881 
L 113 2881 
L 113 3319 
L 525 3319 
L 525 4141 
L 1084 4478 
L 1084 3319 
L 1650 3319 
L 1650 2881 
L 1084 2881 
L 1084 941 
Q 1084 700 1114 631 
Q 1144 563 1211 522 
Q 1278 481 1403 481 
Q 1497 481 1650 503 
z
" transform="scale(0.015625)"/>
        <path id="ArialMT-61" d="M 2588 409 
Q 2275 144 1986 34 
Q 1697 -75 1366 -75 
Q 819 -75 525 192 
Q 231 459 231 875 
Q 231 1119 342 1320 
Q 453 1522 633 1644 
Q 813 1766 1038 1828 
Q 1203 1872 1538 1913 
Q 2219 1994 2541 2106 
Q 2544 2222 2544 2253 
Q 2544 2597 2384 2738 
Q 2169 2928 1744 2928 
Q 1347 2928 1158 2789 
Q 969 2650 878 2297 
L 328 2372 
Q 403 2725 575 2942 
Q 747 3159 1072 3276 
Q 1397 3394 1825 3394 
Q 2250 3394 2515 3294 
Q 2781 3194 2906 3042 
Q 3031 2891 3081 2659 
Q 3109 2516 3109 2141 
L 3109 1391 
Q 3109 606 3145 398 
Q 3181 191 3288 0 
L 2700 0 
Q 2613 175 2588 409 
z
M 2541 1666 
Q 2234 1541 1622 1453 
Q 1275 1403 1131 1340 
Q 988 1278 909 1158 
Q 831 1038 831 891 
Q 831 666 1001 516 
Q 1172 366 1500 366 
Q 1825 366 2078 508 
Q 2331 650 2450 897 
Q 2541 1088 2541 1459 
L 2541 1666 
z
" transform="scale(0.015625)"/>
        <path id="ArialMT-69" d="M 425 3934 
L 425 4581 
L 988 4581 
L 988 3934 
L 425 3934 
z
M 425 0 
L 425 3319 
L 988 3319 
L 988 0 
L 425 0 
z
" transform="scale(0.015625)"/>
        <path id="ArialMT-6c" d="M 409 0 
L 409 4581 
L 972 4581 
L 972 0 
L 409 0 
z
" transform="scale(0.015625)"/>
       </defs>
       <use xlink:href="#ArialMT-52"/>
       <use xlink:href="#ArialMT-65" x="72.216797"/>
       <use xlink:href="#ArialMT-74" x="127.832031"/>
       <use xlink:href="#ArialMT-61" x="155.615234"/>
       <use xlink:href="#ArialMT-69" x="211.230469"/>
       <use xlink:href="#ArialMT-6c" x="233.447266"/>
      </g>
     </g>
    </g>
    <g id="xtick_2">
     <g id="text_2">
      <!-- Banco -->
      <g style="fill: #262626" transform="translate(383.680781 502.869453) scale(0.165 -0.165)">
       <defs>
        <path id="ArialMT-42" d="M 469 0 
L 469 4581 
L 2188 4581 
Q 2713 4581 3030 4442 
Q 3347 4303 3526 4014 
Q 3706 3725 3706 3409 
Q 3706 3116 3547 2856 
Q 3388 2597 3066 2438 
Q 3481 2316 3704 2022 
Q 3928 1728 3928 1328 
Q 3928 1006 3792 729 
Q 3656 453 3456 303 
Q 3256 153 2954 76 
Q 2653 0 2216 0 
L 469 0 
z
M 1075 2656 
L 2066 2656 
Q 2469 2656 2644 2709 
Q 2875 2778 2992 2937 
Q 3109 3097 3109 3338 
Q 3109 3566 3000 3739 
Q 2891 3913 2687 3977 
Q 2484 4041 1991 4041 
L 1075 4041 
L 1075 2656 
z
M 1075 541 
L 2216 541 
Q 2509 541 2628 563 
Q 2838 600 2978 687 
Q 3119 775 3209 942 
Q 3300 1109 3300 1328 
Q 3300 1584 3169 1773 
Q 3038 1963 2805 2039 
Q 2572 2116 2134 2116 
L 1075 2116 
L 1075 541 
z
" transform="scale(0.015625)"/>
        <path id="ArialMT-6e" d="M 422 0 
L 422 3319 
L 928 3319 
L 928 2847 
Q 1294 3394 1984 3394 
Q 2284 3394 2536 3286 
Q 2788 3178 2913 3003 
Q 3038 2828 3088 2588 
Q 3119 2431 3119 2041 
L 3119 0 
L 2556 0 
L 2556 2019 
Q 2556 2363 2490 2533 
Q 2425 2703 2258 2804 
Q 2091 2906 1866 2906 
Q 1506 2906 1245 2678 
Q 984 2450 984 1813 
L 984 0 
L 422 0 
z
" transform="scale(0.015625)"/>
        <path id="ArialMT-63" d="M 2588 1216 
L 3141 1144 
Q 3050 572 2676 248 
Q 2303 -75 1759 -75 
Q 1078 -75 664 370 
Q 250 816 250 1647 
Q 250 2184 428 2587 
Q 606 2991 970 3192 
Q 1334 3394 1763 3394 
Q 2303 3394 2647 3120 
Q 2991 2847 3088 2344 
L 2541 2259 
Q 2463 2594 2264 2762 
Q 2066 2931 1784 2931 
Q 1359 2931 1093 2626 
Q 828 2322 828 1663 
Q 828 994 1084 691 
Q 1341 388 1753 388 
Q 2084 388 2306 591 
Q 2528 794 2588 1216 
z
" transform="scale(0.015625)"/>
        <path id="ArialMT-6f" d="M 213 1659 
Q 213 2581 725 3025 
Q 1153 3394 1769 3394 
Q 2453 3394 2887 2945 
Q 3322 2497 3322 1706 
Q 3322 1066 3130 698 
Q 2938 331 2570 128 
Q 2203 -75 1769 -75 
Q 1072 -75 642 372 
Q 213 819 213 1659 
z
M 791 1659 
Q 791 1022 1069 705 
Q 1347 388 1769 388 
Q 2188 388 2466 706 
Q 2744 1025 2744 1678 
Q 2744 2294 2464 2611 
Q 2184 2928 1769 2928 
Q 1347 2928 1069 2612 
Q 791 2297 791 1659 
z
" transform="scale(0.015625)"/>
       </defs>
       <use xlink:href="#ArialMT-42"/>
       <use xlink:href="#ArialMT-61" x="66.699219"/>
       <use xlink:href="#ArialMT-6e" x="122.314453"/>
       <use xlink:href="#ArialMT-63" x="177.929688"/>
       <use xlink:href="#ArialMT-6f" x="227.929688"/>
      </g>
     </g>
    </g>
    <g id="xtick_3">
     <g id="text_3">
      <!-- Afiliacion -->
      <g style="fill: #262626" transform="translate(597.256641 502.869453) scale(0.165 -0.165)">
       <defs>
        <path id="ArialMT-41" d="M -9 0 
L 1750 4581 
L 2403 4581 
L 4278 0 
L 3588 0 
L 3053 1388 
L 1138 1388 
L 634 0 
L -9 0 
z
M 1313 1881 
L 2866 1881 
L 2388 3150 
Q 2169 3728 2063 4100 
Q 1975 3659 1816 3225 
L 1313 1881 
z
" transform="scale(0.015625)"/>
        <path id="ArialMT-66" d="M 556 0 
L 556 2881 
L 59 2881 
L 59 3319 
L 556 3319 
L 556 3672 
Q 556 4006 616 4169 
Q 697 4388 901 4523 
Q 1106 4659 1475 4659 
Q 1713 4659 2000 4603 
L 1916 4113 
Q 1741 4144 1584 4144 
Q 1328 4144 1222 4034 
Q 1116 3925 1116 3625 
L 1116 3319 
L 1763 3319 
L 1763 2881 
L 1116 2881 
L 1116 0 
L 556 0 
z
" transform="scale(0.015625)"/>
       </defs>
       <use xlink:href="#ArialMT-41"/>
       <use xlink:href="#ArialMT-66" x="66.699219"/>
       <use xlink:href="#ArialMT-69" x="94.482422"/>
       <use xlink:href="#ArialMT-6c" x="116.699219"/>
       <use xlink:href="#ArialMT-69" x="138.916016"/>
       <use xlink:href="#ArialMT-61" x="161.132812"/>
       <use xlink:href="#ArialMT-63" x="216.748047"/>
       <use xlink:href="#ArialMT-69" x="266.748047"/>
       <use xlink:href="#ArialMT-6f" x="288.964844"/>
       <use xlink:href="#ArialMT-6e" x="344.580078"/>
      </g>
     </g>
    </g>
    <g id="text_4">
     <!-- Segmento -->
     <g style="fill: #262626" transform="translate(366.047578 523.252266) scale(0.18 -0.18)">
      <defs>
       <path id="ArialMT-53" d="M 288 1472 
L 859 1522 
Q 900 1178 1048 958 
Q 1197 738 1509 602 
Q 1822 466 2213 466 
Q 2559 466 2825 569 
Q 3091 672 3220 851 
Q 3350 1031 3350 1244 
Q 3350 1459 3225 1620 
Q 3100 1781 2813 1891 
Q 2628 1963 1997 2114 
Q 1366 2266 1113 2400 
Q 784 2572 623 2826 
Q 463 3081 463 3397 
Q 463 3744 659 4045 
Q 856 4347 1234 4503 
Q 1613 4659 2075 4659 
Q 2584 4659 2973 4495 
Q 3363 4331 3572 4012 
Q 3781 3694 3797 3291 
L 3216 3247 
Q 3169 3681 2898 3903 
Q 2628 4125 2100 4125 
Q 1550 4125 1298 3923 
Q 1047 3722 1047 3438 
Q 1047 3191 1225 3031 
Q 1400 2872 2139 2705 
Q 2878 2538 3153 2413 
Q 3553 2228 3743 1945 
Q 3934 1663 3934 1294 
Q 3934 928 3725 604 
Q 3516 281 3123 101 
Q 2731 -78 2241 -78 
Q 1619 -78 1198 103 
Q 778 284 539 648 
Q 300 1013 288 1472 
z
" transform="scale(0.015625)"/>
       <path id="ArialMT-67" d="M 319 -275 
L 866 -356 
Q 900 -609 1056 -725 
Q 1266 -881 1628 -881 
Q 2019 -881 2231 -725 
Q 2444 -569 2519 -288 
Q 2563 -116 2559 434 
Q 2191 0 1641 0 
Q 956 0 581 494 
Q 206 988 206 1678 
Q 206 2153 378 2554 
Q 550 2956 876 3175 
Q 1203 3394 1644 3394 
Q 2231 3394 2613 2919 
L 2613 3319 
L 3131 3319 
L 3131 450 
Q 3131 -325 2973 -648 
Q 2816 -972 2473 -1159 
Q 2131 -1347 1631 -1347 
Q 1038 -1347 672 -1080 
Q 306 -813 319 -275 
z
M 784 1719 
Q 784 1066 1043 766 
Q 1303 466 1694 466 
Q 2081 466 2343 764 
Q 2606 1063 2606 1700 
Q 2606 2309 2336 2618 
Q 2066 2928 1684 2928 
Q 1309 2928 1046 2623 
Q 784 2319 784 1719 
z
" transform="scale(0.015625)"/>
       <path id="ArialMT-6d" d="M 422 0 
L 422 3319 
L 925 3319 
L 925 2853 
Q 1081 3097 1340 3245 
Q 1600 3394 1931 3394 
Q 2300 3394 2536 3241 
Q 2772 3088 2869 2813 
Q 3263 3394 3894 3394 
Q 4388 3394 4653 3120 
Q 4919 2847 4919 2278 
L 4919 0 
L 4359 0 
L 4359 2091 
Q 4359 2428 4304 2576 
Q 4250 2725 4106 2815 
Q 3963 2906 3769 2906 
Q 3419 2906 3187 2673 
Q 2956 2441 2956 1928 
L 2956 0 
L 2394 0 
L 2394 2156 
Q 2394 2531 2256 2718 
Q 2119 2906 1806 2906 
Q 1569 2906 1367 2781 
Q 1166 2656 1075 2415 
Q 984 2175 984 1722 
L 984 0 
L 422 0 
z
" transform="scale(0.015625)"/>
      </defs>
      <use xlink:href="#ArialMT-53"/>
      <use xlink:href="#ArialMT-65" x="66.699219"/>
      <use xlink:href="#ArialMT-67" x="122.314453"/>
      <use xlink:href="#ArialMT-6d" x="177.929688"/>
      <use xlink:href="#ArialMT-65" x="261.230469"/>
      <use xlink:href="#ArialMT-6e" x="316.845703"/>
      <use xlink:href="#ArialMT-74" x="372.460938"/>
      <use xlink:href="#ArialMT-6f" x="400.244141"/>
     </g>
    </g>
   </g>
   <g id="matplotlib.axis_2">
    <g id="ytick_1">
     <g id="line2d_1">
      <path d="M 72.272109 458.429477 
L 741.872109 458.429477 
" clip-path="url(#p517a110685)" style="fill: none; stroke: #cccccc; stroke-width: 1.5; stroke-linecap: round"/>
     </g>
     <g id="text_5">
      <!-- 0.00 -->
      <g style="fill: #262626" transform="translate(27.661563 464.334672) scale(0.165 -0.165)">
       <defs>
        <path id="ArialMT-30" d="M 266 2259 
Q 266 3072 433 3567 
Q 600 4063 929 4331 
Q 1259 4600 1759 4600 
Q 2128 4600 2406 4451 
Q 2684 4303 2865 4023 
Q 3047 3744 3150 3342 
Q 3253 2941 3253 2259 
Q 3253 1453 3087 958 
Q 2922 463 2592 192 
Q 2263 -78 1759 -78 
Q 1097 -78 719 397 
Q 266 969 266 2259 
z
M 844 2259 
Q 844 1131 1108 757 
Q 1372 384 1759 384 
Q 2147 384 2411 759 
Q 2675 1134 2675 2259 
Q 2675 3391 2411 3762 
Q 2147 4134 1753 4134 
Q 1366 4134 1134 3806 
Q 844 3388 844 2259 
z
" transform="scale(0.015625)"/>
        <path id="ArialMT-2e" d="M 581 0 
L 581 641 
L 1222 641 
L 1222 0 
L 581 0 
z
" transform="scale(0.015625)"/>
       </defs>
       <use xlink:href="#ArialMT-30"/>
       <use xlink:href="#ArialMT-2e" x="55.615234"/>
       <use xlink:href="#ArialMT-30" x="83.398438"/>
       <use xlink:href="#ArialMT-30" x="139.013672"/>
      </g>
     </g>
    </g>
    <g id="ytick_2">
     <g id="line2d_2">
      <path d="M 72.272109 405.873876 
L 741.872109 405.873876 
" clip-path="url(#p517a110685)" style="fill: none; stroke: #cccccc; stroke-width: 1.5; stroke-linecap: round"/>
     </g>
     <g id="text_6">
      <!-- 0.02 -->
      <g style="fill: #262626" transform="translate(27.661563 411.779071) scale(0.165 -0.165)">
       <defs>
        <path id="ArialMT-32" d="M 3222 541 
L 3222 0 
L 194 0 
Q 188 203 259 391 
Q 375 700 629 1000 
Q 884 1300 1366 1694 
Q 2113 2306 2375 2664 
Q 2638 3022 2638 3341 
Q 2638 3675 2398 3904 
Q 2159 4134 1775 4134 
Q 1369 4134 1125 3890 
Q 881 3647 878 3216 
L 300 3275 
Q 359 3922 746 4261 
Q 1134 4600 1788 4600 
Q 2447 4600 2831 4234 
Q 3216 3869 3216 3328 
Q 3216 3053 3103 2787 
Q 2991 2522 2730 2228 
Q 2469 1934 1863 1422 
Q 1356 997 1212 845 
Q 1069 694 975 541 
L 3222 541 
z
" transform="scale(0.015625)"/>
       </defs>
       <use xlink:href="#ArialMT-30"/>
       <use xlink:href="#ArialMT-2e" x="55.615234"/>
       <use xlink:href="#ArialMT-30" x="83.398438"/>
       <use xlink:href="#ArialMT-32" x="139.013672"/>
      </g>
     </g>
    </g>
    <g id="ytick_3">
     <g id="line2d_3">
      <path d="M 72.272109 353.318275 
L 741.872109 353.318275 
" clip-path="url(#p517a110685)" style="fill: none; stroke: #cccccc; stroke-width: 1.5; stroke-linecap: round"/>
     </g>
     <g id="text_7">
      <!-- 0.04 -->
      <g style="fill: #262626" transform="translate(27.661563 359.22347) scale(0.165 -0.165)">
       <defs>
        <path id="ArialMT-34" d="M 2069 0 
L 2069 1097 
L 81 1097 
L 81 1613 
L 2172 4581 
L 2631 4581 
L 2631 1613 
L 3250 1613 
L 3250 1097 
L 2631 1097 
L 2631 0 
L 2069 0 
z
M 2069 1613 
L 2069 3678 
L 634 1613 
L 2069 1613 
z
" transform="scale(0.015625)"/>
       </defs>
       <use xlink:href="#ArialMT-30"/>
       <use xlink:href="#ArialMT-2e" x="55.615234"/>
       <use xlink:href="#ArialMT-30" x="83.398438"/>
       <use xlink:href="#ArialMT-34" x="139.013672"/>
      </g>
     </g>
    </g>
    <g id="ytick_4">
     <g id="line2d_4">
      <path d="M 72.272109 300.762674 
L 741.872109 300.762674 
" clip-path="url(#p517a110685)" style="fill: none; stroke: #cccccc; stroke-width: 1.5; stroke-linecap: round"/>
     </g>
     <g id="text_8">
      <!-- 0.06 -->
      <g style="fill: #262626" transform="translate(27.661563 306.667869) scale(0.165 -0.165)">
       <defs>
        <path id="ArialMT-36" d="M 3184 3459 
L 2625 3416 
Q 2550 3747 2413 3897 
Q 2184 4138 1850 4138 
Q 1581 4138 1378 3988 
Q 1113 3794 959 3422 
Q 806 3050 800 2363 
Q 1003 2672 1297 2822 
Q 1591 2972 1913 2972 
Q 2475 2972 2870 2558 
Q 3266 2144 3266 1488 
Q 3266 1056 3080 686 
Q 2894 316 2569 119 
Q 2244 -78 1831 -78 
Q 1128 -78 684 439 
Q 241 956 241 2144 
Q 241 3472 731 4075 
Q 1159 4600 1884 4600 
Q 2425 4600 2770 4297 
Q 3116 3994 3184 3459 
z
M 888 1484 
Q 888 1194 1011 928 
Q 1134 663 1356 523 
Q 1578 384 1822 384 
Q 2178 384 2434 671 
Q 2691 959 2691 1453 
Q 2691 1928 2437 2201 
Q 2184 2475 1800 2475 
Q 1419 2475 1153 2201 
Q 888 1928 888 1484 
z
" transform="scale(0.015625)"/>
       </defs>
       <use xlink:href="#ArialMT-30"/>
       <use xlink:href="#ArialMT-2e" x="55.615234"/>
       <use xlink:href="#ArialMT-30" x="83.398438"/>
       <use xlink:href="#ArialMT-36" x="139.013672"/>
      </g>
     </g>
    </g>
    <g id="ytick_5">
     <g id="line2d_5">
      <path d="M 72.272109 248.207073 
L 741.872109 248.207073 
" clip-path="url(#p517a110685)" style="fill: none; stroke: #cccccc; stroke-width: 1.5; stroke-linecap: round"/>
     </g>
     <g id="text_9">
      <!-- 0.08 -->
      <g style="fill: #262626" transform="translate(27.661563 254.112269) scale(0.165 -0.165)">
       <defs>
        <path id="ArialMT-38" d="M 1131 2484 
Q 781 2613 612 2850 
Q 444 3088 444 3419 
Q 444 3919 803 4259 
Q 1163 4600 1759 4600 
Q 2359 4600 2725 4251 
Q 3091 3903 3091 3403 
Q 3091 3084 2923 2848 
Q 2756 2613 2416 2484 
Q 2838 2347 3058 2040 
Q 3278 1734 3278 1309 
Q 3278 722 2862 322 
Q 2447 -78 1769 -78 
Q 1091 -78 675 323 
Q 259 725 259 1325 
Q 259 1772 486 2073 
Q 713 2375 1131 2484 
z
M 1019 3438 
Q 1019 3113 1228 2906 
Q 1438 2700 1772 2700 
Q 2097 2700 2305 2904 
Q 2513 3109 2513 3406 
Q 2513 3716 2298 3927 
Q 2084 4138 1766 4138 
Q 1444 4138 1231 3931 
Q 1019 3725 1019 3438 
z
M 838 1322 
Q 838 1081 952 856 
Q 1066 631 1291 507 
Q 1516 384 1775 384 
Q 2178 384 2440 643 
Q 2703 903 2703 1303 
Q 2703 1709 2433 1975 
Q 2163 2241 1756 2241 
Q 1359 2241 1098 1978 
Q 838 1716 838 1322 
z
" transform="scale(0.015625)"/>
       </defs>
       <use xlink:href="#ArialMT-30"/>
       <use xlink:href="#ArialMT-2e" x="55.615234"/>
       <use xlink:href="#ArialMT-30" x="83.398438"/>
       <use xlink:href="#ArialMT-38" x="139.013672"/>
      </g>
     </g>
    </g>
    <g id="ytick_6">
     <g id="line2d_6">
      <path d="M 72.272109 195.651473 
L 741.872109 195.651473 
" clip-path="url(#p517a110685)" style="fill: none; stroke: #cccccc; stroke-width: 1.5; stroke-linecap: round"/>
     </g>
     <g id="text_10">
      <!-- 0.10 -->
      <g style="fill: #262626" transform="translate(27.661563 201.556668) scale(0.165 -0.165)">
       <defs>
        <path id="ArialMT-31" d="M 2384 0 
L 1822 0 
L 1822 3584 
Q 1619 3391 1289 3197 
Q 959 3003 697 2906 
L 697 3450 
Q 1169 3672 1522 3987 
Q 1875 4303 2022 4600 
L 2384 4600 
L 2384 0 
z
" transform="scale(0.015625)"/>
       </defs>
       <use xlink:href="#ArialMT-30"/>
       <use xlink:href="#ArialMT-2e" x="55.615234"/>
       <use xlink:href="#ArialMT-31" x="83.398438"/>
       <use xlink:href="#ArialMT-30" x="139.013672"/>
      </g>
     </g>
    </g>
    <g id="ytick_7">
     <g id="line2d_7">
      <path d="M 72.272109 143.095872 
L 741.872109 143.095872 
" clip-path="url(#p517a110685)" style="fill: none; stroke: #cccccc; stroke-width: 1.5; stroke-linecap: round"/>
     </g>
     <g id="text_11">
      <!-- 0.12 -->
      <g style="fill: #262626" transform="translate(27.661563 149.001067) scale(0.165 -0.165)">
       <use xlink:href="#ArialMT-30"/>
       <use xlink:href="#ArialMT-2e" x="55.615234"/>
       <use xlink:href="#ArialMT-31" x="83.398438"/>
       <use xlink:href="#ArialMT-32" x="139.013672"/>
      </g>
     </g>
    </g>
    <g id="ytick_8">
     <g id="line2d_8">
      <path d="M 72.272109 90.540271 
L 741.872109 90.540271 
" clip-path="url(#p517a110685)" style="fill: none; stroke: #cccccc; stroke-width: 1.5; stroke-linecap: round"/>
     </g>
     <g id="text_12">
      <!-- 0.14 -->
      <g style="fill: #262626" transform="translate(27.661563 96.445466) scale(0.165 -0.165)">
       <use xlink:href="#ArialMT-30"/>
       <use xlink:href="#ArialMT-2e" x="55.615234"/>
       <use xlink:href="#ArialMT-31" x="83.398438"/>
       <use xlink:href="#ArialMT-34" x="139.013672"/>
      </g>
     </g>
    </g>
    <g id="ytick_9">
     <g id="line2d_9">
      <path d="M 72.272109 37.98467 
L 741.872109 37.98467 
" clip-path="url(#p517a110685)" style="fill: none; stroke: #cccccc; stroke-width: 1.5; stroke-linecap: round"/>
     </g>
     <g id="text_13">
      <!-- 0.16 -->
      <g style="fill: #262626" transform="translate(27.661563 43.889865) scale(0.165 -0.165)">
       <use xlink:href="#ArialMT-30"/>
       <use xlink:href="#ArialMT-2e" x="55.615234"/>
       <use xlink:href="#ArialMT-31" x="83.398438"/>
       <use xlink:href="#ArialMT-36" x="139.013672"/>
      </g>
     </g>
    </g>
    <g id="text_14">
     <!-- Espera -->
     <g style="fill: #262626" transform="translate(20.084063 285.313594) rotate(-90) scale(0.18 -0.18)">
      <defs>
       <path id="ArialMT-45" d="M 506 0 
L 506 4581 
L 3819 4581 
L 3819 4041 
L 1113 4041 
L 1113 2638 
L 3647 2638 
L 3647 2100 
L 1113 2100 
L 1113 541 
L 3925 541 
L 3925 0 
L 506 0 
z
" transform="scale(0.015625)"/>
       <path id="ArialMT-73" d="M 197 991 
L 753 1078 
Q 800 744 1014 566 
Q 1228 388 1613 388 
Q 2000 388 2187 545 
Q 2375 703 2375 916 
Q 2375 1106 2209 1216 
Q 2094 1291 1634 1406 
Q 1016 1563 777 1677 
Q 538 1791 414 1992 
Q 291 2194 291 2438 
Q 291 2659 392 2848 
Q 494 3038 669 3163 
Q 800 3259 1026 3326 
Q 1253 3394 1513 3394 
Q 1903 3394 2198 3281 
Q 2494 3169 2634 2976 
Q 2775 2784 2828 2463 
L 2278 2388 
Q 2241 2644 2061 2787 
Q 1881 2931 1553 2931 
Q 1166 2931 1000 2803 
Q 834 2675 834 2503 
Q 834 2394 903 2306 
Q 972 2216 1119 2156 
Q 1203 2125 1616 2013 
Q 2213 1853 2448 1751 
Q 2684 1650 2818 1456 
Q 2953 1263 2953 975 
Q 2953 694 2789 445 
Q 2625 197 2315 61 
Q 2006 -75 1616 -75 
Q 969 -75 630 194 
Q 291 463 197 991 
z
" transform="scale(0.015625)"/>
       <path id="ArialMT-70" d="M 422 -1272 
L 422 3319 
L 934 3319 
L 934 2888 
Q 1116 3141 1344 3267 
Q 1572 3394 1897 3394 
Q 2322 3394 2647 3175 
Q 2972 2956 3137 2557 
Q 3303 2159 3303 1684 
Q 3303 1175 3120 767 
Q 2938 359 2589 142 
Q 2241 -75 1856 -75 
Q 1575 -75 1351 44 
Q 1128 163 984 344 
L 984 -1272 
L 422 -1272 
z
M 931 1641 
Q 931 1000 1190 694 
Q 1450 388 1819 388 
Q 2194 388 2461 705 
Q 2728 1022 2728 1688 
Q 2728 2322 2467 2637 
Q 2206 2953 1844 2953 
Q 1484 2953 1207 2617 
Q 931 2281 931 1641 
z
" transform="scale(0.015625)"/>
       <path id="ArialMT-72" d="M 416 0 
L 416 3319 
L 922 3319 
L 922 2816 
Q 1116 3169 1280 3281 
Q 1444 3394 1641 3394 
Q 1925 3394 2219 3213 
L 2025 2691 
Q 1819 2813 1613 2813 
Q 1428 2813 1281 2702 
Q 1134 2591 1072 2394 
Q 978 2094 978 1738 
L 978 0 
L 416 0 
z
" transform="scale(0.015625)"/>
      </defs>
      <use xlink:href="#ArialMT-45"/>
      <use xlink:href="#ArialMT-73" x="66.699219"/>
      <use xlink:href="#ArialMT-70" x="116.699219"/>
      <use xlink:href="#ArialMT-65" x="172.314453"/>
      <use xlink:href="#ArialMT-72" x="227.929688"/>
      <use xlink:href="#ArialMT-61" x="261.230469"/>
     </g>
    </g>
   </g>
   <g id="PolyCollection_1">
    <defs>
     <path id="mf17e076cc5" d="M 183.872109 -75.841641 
L 138.711714 -75.841641 
L 136.369668 -76.818272 
L 134.270264 -77.794903 
L 132.450379 -78.771534 
L 130.941475 -79.748165 
L 129.76867 -80.724797 
L 128.950051 -81.701428 
L 128.496248 -82.678059 
L 128.410291 -83.65469 
L 128.687738 -84.631322 
L 129.317049 -85.607953 
L 130.280189 -86.584584 
L 131.553399 -87.561215 
L 133.108107 -88.537846 
L 134.911917 -89.514478 
L 136.929637 -90.491109 
L 139.124301 -91.46774 
L 141.458145 -92.444371 
L 143.893512 -93.421002 
L 146.393663 -94.397634 
L 148.923487 -95.374265 
L 151.450092 -96.350896 
L 153.943287 -97.327527 
L 156.375961 -98.304159 
L 158.724348 -99.28079 
L 160.96821 -100.257421 
L 163.090928 -101.234052 
L 165.079511 -102.210683 
L 166.924541 -103.187315 
L 168.620043 -104.163946 
L 170.163301 -105.140577 
L 171.554616 -106.117208 
L 172.797014 -107.093839 
L 173.895916 -108.070471 
L 174.858775 -109.047102 
L 175.694682 -110.023733 
L 176.413971 -111.000364 
L 177.027815 -111.976996 
L 177.547836 -112.953627 
L 177.98574 -113.930258 
L 178.352985 -114.906889 
L 178.660488 -115.88352 
L 178.918396 -116.860152 
L 179.135896 -117.836783 
L 179.321099 -118.813414 
L 179.480972 -119.790045 
L 179.621332 -120.766676 
L 179.746878 -121.743308 
L 179.861282 -122.719939 
L 179.967295 -123.69657 
L 180.066881 -124.673201 
L 180.16137 -125.649833 
L 180.251599 -126.626464 
L 180.338055 -127.603095 
L 180.420995 -128.579726 
L 180.50055 -129.556357 
L 180.576802 -130.532989 
L 180.649828 -131.50962 
L 180.719731 -132.486251 
L 180.786634 -133.462882 
L 180.850668 -134.439513 
L 180.911941 -135.416145 
L 180.970511 -136.392776 
L 181.026345 -137.369407 
L 181.079307 -138.346038 
L 181.129135 -139.32267 
L 181.175454 -140.299301 
L 181.217787 -141.275932 
L 181.255595 -142.252563 
L 181.288317 -143.229194 
L 181.315425 -144.205826 
L 181.336477 -145.182457 
L 181.351168 -146.159088 
L 181.359373 -147.135719 
L 181.361176 -148.11235 
L 181.356881 -149.088982 
L 181.347007 -150.065613 
L 181.332272 -151.042244 
L 181.313554 -152.018875 
L 181.291845 -152.995507 
L 181.268205 -153.972138 
L 181.243705 -154.948769 
L 181.219389 -155.9254 
L 181.196231 -156.902031 
L 181.175111 -157.878663 
L 181.156808 -158.855294 
L 181.142003 -159.831925 
L 181.13129 -160.808556 
L 181.1252 -161.785187 
L 181.124232 -162.761819 
L 181.128873 -163.73845 
L 181.139627 -164.715081 
L 181.157018 -165.691712 
L 181.181597 -166.668343 
L 181.213929 -167.644975 
L 181.254564 -168.621606 
L 181.304002 -169.598237 
L 181.362651 -170.574868 
L 181.430781 -171.5515 
L 181.508474 -172.528131 
L 183.872109 -172.528131 
L 183.872109 -172.528131 
L 183.872109 -171.5515 
L 183.872109 -170.574868 
L 183.872109 -169.598237 
L 183.872109 -168.621606 
L 183.872109 -167.644975 
L 183.872109 -166.668343 
L 183.872109 -165.691712 
L 183.872109 -164.715081 
L 183.872109 -163.73845 
L 183.872109 -162.761819 
L 183.872109 -161.785187 
L 183.872109 -160.808556 
L 183.872109 -159.831925 
L 183.872109 -158.855294 
L 183.872109 -157.878663 
L 183.872109 -156.902031 
L 183.872109 -155.9254 
L 183.872109 -154.948769 
L 183.872109 -153.972138 
L 183.872109 -152.995507 
L 183.872109 -152.018875 
L 183.872109 -151.042244 
L 183.872109 -150.065613 
L 183.872109 -149.088982 
L 183.872109 -148.11235 
L 183.872109 -147.135719 
L 183.872109 -146.159088 
L 183.872109 -145.182457 
L 183.872109 -144.205826 
L 183.872109 -143.229194 
L 183.872109 -142.252563 
L 183.872109 -141.275932 
L 183.872109 -140.299301 
L 183.872109 -139.32267 
L 183.872109 -138.346038 
L 183.872109 -137.369407 
L 183.872109 -136.392776 
L 183.872109 -135.416145 
L 183.872109 -134.439513 
L 183.872109 -133.462882 
L 183.872109 -132.486251 
L 183.872109 -131.50962 
L 183.872109 -130.532989 
L 183.872109 -129.556357 
L 183.872109 -128.579726 
L 183.872109 -127.603095 
L 183.872109 -126.626464 
L 183.872109 -125.649833 
L 183.872109 -124.673201 
L 183.872109 -123.69657 
L 183.872109 -122.719939 
L 183.872109 -121.743308 
L 183.872109 -120.766676 
L 183.872109 -119.790045 
L 183.872109 -118.813414 
L 183.872109 -117.836783 
L 183.872109 -116.860152 
L 183.872109 -115.88352 
L 183.872109 -114.906889 
L 183.872109 -113.930258 
L 183.872109 -112.953627 
L 183.872109 -111.976996 
L 183.872109 -111.000364 
L 183.872109 -110.023733 
L 183.872109 -109.047102 
L 183.872109 -108.070471 
L 183.872109 -107.093839 
L 183.872109 -106.117208 
L 183.872109 -105.140577 
L 183.872109 -104.163946 
L 183.872109 -103.187315 
L 183.872109 -102.210683 
L 183.872109 -101.234052 
L 183.872109 -100.257421 
L 183.872109 -99.28079 
L 183.872109 -98.304159 
L 183.872109 -97.327527 
L 183.872109 -96.350896 
L 183.872109 -95.374265 
L 183.872109 -94.397634 
L 183.872109 -93.421002 
L 183.872109 -92.444371 
L 183.872109 -91.46774 
L 183.872109 -90.491109 
L 183.872109 -89.514478 
L 183.872109 -88.537846 
L 183.872109 -87.561215 
L 183.872109 -86.584584 
L 183.872109 -85.607953 
L 183.872109 -84.631322 
L 183.872109 -83.65469 
L 183.872109 -82.678059 
L 183.872109 -81.701428 
L 183.872109 -80.724797 
L 183.872109 -79.748165 
L 183.872109 -78.771534 
L 183.872109 -77.794903 
L 183.872109 -76.818272 
L 183.872109 -75.841641 
z
" style="stroke: #484848; stroke-width: 1.5"/>
    </defs>
    <g clip-path="url(#p517a110685)">
     <use xlink:href="#mf17e076cc5" x="0" y="534.240703" style="fill: #e41a1c; stroke: #484848; stroke-width: 1.5"/>
    </g>
   </g>
   <g id="PolyCollection_2">
    <defs>
     <path id="mefc2cc4921" d="M 263.847749 -75.841641 
L 183.872109 -75.841641 
L 183.872109 -78.119628 
L 183.872109 -80.397614 
L 183.872109 -82.675601 
L 183.872109 -84.953588 
L 183.872109 -87.231575 
L 183.872109 -89.509562 
L 183.872109 -91.787549 
L 183.872109 -94.065536 
L 183.872109 -96.343523 
L 183.872109 -98.62151 
L 183.872109 -100.899497 
L 183.872109 -103.177484 
L 183.872109 -105.455471 
L 183.872109 -107.733458 
L 183.872109 -110.011445 
L 183.872109 -112.289432 
L 183.872109 -114.567418 
L 183.872109 -116.845405 
L 183.872109 -119.123392 
L 183.872109 -121.401379 
L 183.872109 -123.679366 
L 183.872109 -125.957353 
L 183.872109 -128.23534 
L 183.872109 -130.513327 
L 183.872109 -132.791314 
L 183.872109 -135.069301 
L 183.872109 -137.347288 
L 183.872109 -139.625275 
L 183.872109 -141.903262 
L 183.872109 -144.181249 
L 183.872109 -146.459235 
L 183.872109 -148.737222 
L 183.872109 -151.015209 
L 183.872109 -153.293196 
L 183.872109 -155.571183 
L 183.872109 -157.84917 
L 183.872109 -160.127157 
L 183.872109 -162.405144 
L 183.872109 -164.683131 
L 183.872109 -166.961118 
L 183.872109 -169.239105 
L 183.872109 -171.517092 
L 183.872109 -173.795079 
L 183.872109 -176.073066 
L 183.872109 -178.351052 
L 183.872109 -180.629039 
L 183.872109 -182.907026 
L 183.872109 -185.185013 
L 183.872109 -187.463 
L 183.872109 -189.740987 
L 183.872109 -192.018974 
L 183.872109 -194.296961 
L 183.872109 -196.574948 
L 183.872109 -198.852935 
L 183.872109 -201.130922 
L 183.872109 -203.408909 
L 183.872109 -205.686896 
L 183.872109 -207.964883 
L 183.872109 -210.242869 
L 183.872109 -212.520856 
L 183.872109 -214.798843 
L 183.872109 -217.07683 
L 183.872109 -219.354817 
L 183.872109 -221.632804 
L 183.872109 -223.910791 
L 183.872109 -226.188778 
L 183.872109 -228.466765 
L 183.872109 -230.744752 
L 183.872109 -233.022739 
L 183.872109 -235.300726 
L 183.872109 -237.578713 
L 183.872109 -239.8567 
L 183.872109 -242.134686 
L 183.872109 -244.412673 
L 183.872109 -246.69066 
L 183.872109 -248.968647 
L 183.872109 -251.246634 
L 183.872109 -253.524621 
L 183.872109 -255.802608 
L 183.872109 -258.080595 
L 183.872109 -260.358582 
L 183.872109 -262.636569 
L 183.872109 -264.914556 
L 183.872109 -267.192543 
L 183.872109 -269.47053 
L 183.872109 -271.748517 
L 183.872109 -274.026504 
L 183.872109 -276.30449 
L 183.872109 -278.582477 
L 183.872109 -280.860464 
L 183.872109 -283.138451 
L 183.872109 -285.416438 
L 183.872109 -287.694425 
L 183.872109 -289.972412 
L 183.872109 -292.250399 
L 183.872109 -294.528386 
L 183.872109 -296.806373 
L 183.872109 -299.08436 
L 183.872109 -301.362347 
L 184.027918 -301.362347 
L 184.027918 -301.362347 
L 183.999325 -299.08436 
L 183.941353 -296.806373 
L 183.897235 -294.528386 
L 183.878187 -292.250399 
L 183.873089 -289.972412 
L 183.872215 -287.694425 
L 183.872117 -285.416438 
L 183.87211 -283.138451 
L 183.872109 -280.860464 
L 183.872109 -278.582477 
L 183.872109 -276.30449 
L 183.872109 -274.026504 
L 183.872109 -271.748517 
L 183.872109 -269.47053 
L 183.872109 -267.192543 
L 183.872109 -264.914556 
L 183.872109 -262.636569 
L 183.872109 -260.358582 
L 183.872109 -258.080595 
L 183.872109 -255.802608 
L 183.872109 -253.524621 
L 183.872109 -251.246634 
L 183.872109 -248.968647 
L 183.872109 -246.69066 
L 183.872109 -244.412673 
L 183.872109 -242.134686 
L 183.872109 -239.8567 
L 183.872109 -237.578713 
L 183.872109 -235.300726 
L 183.872109 -233.022739 
L 183.87211 -230.744752 
L 183.872116 -228.466765 
L 183.872208 -226.188778 
L 183.873039 -223.910791 
L 183.877936 -221.632804 
L 183.896453 -219.354817 
L 183.939905 -217.07683 
L 183.997979 -214.798843 
L 184.027897 -212.520856 
L 184.00065 -210.242869 
L 183.942813 -207.964883 
L 183.898036 -205.686896 
L 183.878447 -203.408909 
L 183.873142 -201.130922 
L 183.872222 -198.852935 
L 183.872118 -196.574948 
L 183.87211 -194.296961 
L 183.872114 -192.018974 
L 183.872173 -189.740987 
L 183.87275 -187.463 
L 183.876464 -185.185013 
L 183.892006 -182.907026 
L 183.933928 -180.629039 
L 184.00569 -178.351052 
L 184.081023 -176.073066 
L 184.121371 -173.795079 
L 184.10798 -171.517092 
L 184.051832 -169.239105 
L 183.996905 -166.961118 
L 183.996404 -164.683131 
L 184.058036 -162.405144 
L 184.128813 -160.127157 
L 184.14703 -157.84917 
L 184.105811 -155.571183 
L 184.062448 -153.293196 
L 184.07818 -151.015209 
L 184.155671 -148.737222 
L 184.252383 -146.459235 
L 184.320629 -144.181249 
L 184.317333 -141.903262 
L 184.235007 -139.625275 
L 184.133355 -137.347288 
L 184.084133 -135.069301 
L 184.095248 -132.791314 
L 184.146779 -130.513327 
L 184.269442 -128.23534 
L 184.52627 -125.957353 
L 184.937331 -123.679366 
L 185.419042 -121.401379 
L 185.817497 -119.123392 
L 186.111054 -116.845405 
L 186.497511 -114.567418 
L 187.097494 -112.289432 
L 187.717489 -110.011445 
L 188.111938 -107.733458 
L 188.334264 -105.455471 
L 188.7199 -103.177484 
L 189.655478 -100.899497 
L 191.295686 -98.62151 
L 193.484863 -96.343523 
L 196.116218 -94.065536 
L 199.45509 -91.787549 
L 204.286093 -89.509562 
L 212.104973 -87.231575 
L 224.678748 -84.953588 
L 242.561535 -82.675601 
L 262.222653 -80.397614 
L 273.152109 -78.119628 
L 263.847749 -75.841641 
z
" style="stroke: #484848; stroke-width: 1.5"/>
    </defs>
    <g clip-path="url(#p517a110685)">
     <use xlink:href="#mefc2cc4921" x="0" y="534.240703" style="fill: #377eb8; stroke: #484848; stroke-width: 1.5"/>
    </g>
   </g>
   <g id="PolyCollection_3">
    <defs>
     <path id="mbeb447ddbb" d="M 407.072109 -75.841641 
L 328.714086 -75.841641 
L 325.289816 -77.139003 
L 322.452955 -78.436365 
L 320.257701 -79.733726 
L 318.740571 -81.031088 
L 317.91921 -82.32845 
L 317.792109 -83.625812 
L 318.339216 -84.923174 
L 319.523372 -86.220536 
L 321.292467 -87.517898 
L 323.582148 -88.81526 
L 326.318905 -90.112622 
L 329.423346 -91.409984 
L 332.813466 -92.707346 
L 336.407755 -94.004708 
L 340.12798 -95.30207 
L 343.90155 -96.599432 
L 347.663376 -97.896794 
L 351.357195 -99.194156 
L 354.936355 -100.491518 
L 358.364082 -101.788879 
L 361.613289 -103.086241 
L 364.665993 -104.383603 
L 367.512411 -105.680965 
L 370.149846 -106.978327 
L 372.58142 -108.275689 
L 374.81476 -109.573051 
L 376.860697 -110.870413 
L 378.732051 -112.167775 
L 380.442549 -113.465137 
L 382.005913 -114.762499 
L 383.435148 -116.059861 
L 384.742045 -117.357223 
L 385.936882 -118.654585 
L 387.028337 -119.951947 
L 388.023566 -121.249309 
L 388.928431 -122.546671 
L 389.747838 -123.844033 
L 390.48614 -125.141394 
L 391.147563 -126.438756 
L 391.736613 -127.736118 
L 392.258426 -129.03348 
L 392.71902 -130.330842 
L 393.125437 -131.628204 
L 393.485739 -132.925566 
L 393.808874 -134.222928 
L 394.104409 -135.52029 
L 394.382151 -136.817652 
L 394.65169 -138.115014 
L 394.921898 -139.412376 
L 395.200434 -140.709738 
L 395.493291 -142.0071 
L 395.804433 -143.304462 
L 396.135559 -144.601824 
L 396.486014 -145.899186 
L 396.852862 -147.196547 
L 397.231126 -148.493909 
L 397.614171 -149.791271 
L 397.994211 -151.088633 
L 398.362898 -152.385995 
L 398.711949 -153.683357 
L 399.033773 -154.980719 
L 399.322033 -156.278081 
L 399.57212 -157.575443 
L 399.781495 -158.872805 
L 399.949882 -160.170167 
L 400.079296 -161.467529 
L 400.173909 -162.764891 
L 400.239775 -164.062253 
L 400.284426 -165.359615 
L 400.316376 -166.656977 
L 400.344576 -167.954339 
L 400.377846 -169.2517 
L 400.42434 -170.549062 
L 400.49106 -171.846424 
L 400.583469 -173.143786 
L 400.70521 -174.441148 
L 400.857952 -175.73851 
L 401.041365 -177.035872 
L 401.253227 -178.333234 
L 401.489644 -179.630596 
L 401.745355 -180.927958 
L 402.014126 -182.22532 
L 402.28917 -183.522682 
L 402.56359 -184.820044 
L 402.830803 -186.117406 
L 403.084923 -187.414768 
L 403.321077 -188.71213 
L 403.535642 -190.009492 
L 403.72639 -191.306854 
L 403.892536 -192.604215 
L 404.03469 -193.901577 
L 404.154726 -195.198939 
L 404.255577 -196.496301 
L 404.340979 -197.793663 
L 404.415181 -199.091025 
L 404.482635 -200.388387 
L 404.547707 -201.685749 
L 404.614409 -202.983111 
L 404.68617 -204.280473 
L 407.072109 -204.280473 
L 407.072109 -204.280473 
L 407.072109 -202.983111 
L 407.072109 -201.685749 
L 407.072109 -200.388387 
L 407.072109 -199.091025 
L 407.072109 -197.793663 
L 407.072109 -196.496301 
L 407.072109 -195.198939 
L 407.072109 -193.901577 
L 407.072109 -192.604215 
L 407.072109 -191.306854 
L 407.072109 -190.009492 
L 407.072109 -188.71213 
L 407.072109 -187.414768 
L 407.072109 -186.117406 
L 407.072109 -184.820044 
L 407.072109 -183.522682 
L 407.072109 -182.22532 
L 407.072109 -180.927958 
L 407.072109 -179.630596 
L 407.072109 -178.333234 
L 407.072109 -177.035872 
L 407.072109 -175.73851 
L 407.072109 -174.441148 
L 407.072109 -173.143786 
L 407.072109 -171.846424 
L 407.072109 -170.549062 
L 407.072109 -169.2517 
L 407.072109 -167.954339 
L 407.072109 -166.656977 
L 407.072109 -165.359615 
L 407.072109 -164.062253 
L 407.072109 -162.764891 
L 407.072109 -161.467529 
L 407.072109 -160.170167 
L 407.072109 -158.872805 
L 407.072109 -157.575443 
L 407.072109 -156.278081 
L 407.072109 -154.980719 
L 407.072109 -153.683357 
L 407.072109 -152.385995 
L 407.072109 -151.088633 
L 407.072109 -149.791271 
L 407.072109 -148.493909 
L 407.072109 -147.196547 
L 407.072109 -145.899186 
L 407.072109 -144.601824 
L 407.072109 -143.304462 
L 407.072109 -142.0071 
L 407.072109 -140.709738 
L 407.072109 -139.412376 
L 407.072109 -138.115014 
L 407.072109 -136.817652 
L 407.072109 -135.52029 
L 407.072109 -134.222928 
L 407.072109 -132.925566 
L 407.072109 -131.628204 
L 407.072109 -130.330842 
L 407.072109 -129.03348 
L 407.072109 -127.736118 
L 407.072109 -126.438756 
L 407.072109 -125.141394 
L 407.072109 -123.844033 
L 407.072109 -122.546671 
L 407.072109 -121.249309 
L 407.072109 -119.951947 
L 407.072109 -118.654585 
L 407.072109 -117.357223 
L 407.072109 -116.059861 
L 407.072109 -114.762499 
L 407.072109 -113.465137 
L 407.072109 -112.167775 
L 407.072109 -110.870413 
L 407.072109 -109.573051 
L 407.072109 -108.275689 
L 407.072109 -106.978327 
L 407.072109 -105.680965 
L 407.072109 -104.383603 
L 407.072109 -103.086241 
L 407.072109 -101.788879 
L 407.072109 -100.491518 
L 407.072109 -99.194156 
L 407.072109 -97.896794 
L 407.072109 -96.599432 
L 407.072109 -95.30207 
L 407.072109 -94.004708 
L 407.072109 -92.707346 
L 407.072109 -91.409984 
L 407.072109 -90.112622 
L 407.072109 -88.81526 
L 407.072109 -87.517898 
L 407.072109 -86.220536 
L 407.072109 -84.923174 
L 407.072109 -83.625812 
L 407.072109 -82.32845 
L 407.072109 -81.031088 
L 407.072109 -79.733726 
L 407.072109 -78.436365 
L 407.072109 -77.139003 
L 407.072109 -75.841641 
z
" style="stroke: #484848; stroke-width: 1.5"/>
    </defs>
    <g clip-path="url(#p517a110685)">
     <use xlink:href="#mbeb447ddbb" x="0" y="534.240703" style="fill: #e41a1c; stroke: #484848; stroke-width: 1.5"/>
    </g>
   </g>
   <g id="PolyCollection_4">
    <defs>
     <path id="m66da9762d8" d="M 463.489455 -75.841641 
L 407.072109 -75.841641 
L 407.072109 -79.914368 
L 407.072109 -83.987095 
L 407.072109 -88.059822 
L 407.072109 -92.13255 
L 407.072109 -96.205277 
L 407.072109 -100.278004 
L 407.072109 -104.350732 
L 407.072109 -108.423459 
L 407.072109 -112.496186 
L 407.072109 -116.568913 
L 407.072109 -120.641641 
L 407.072109 -124.714368 
L 407.072109 -128.787095 
L 407.072109 -132.859822 
L 407.072109 -136.93255 
L 407.072109 -141.005277 
L 407.072109 -145.078004 
L 407.072109 -149.150732 
L 407.072109 -153.223459 
L 407.072109 -157.296186 
L 407.072109 -161.368913 
L 407.072109 -165.441641 
L 407.072109 -169.514368 
L 407.072109 -173.587095 
L 407.072109 -177.659822 
L 407.072109 -181.73255 
L 407.072109 -185.805277 
L 407.072109 -189.878004 
L 407.072109 -193.950732 
L 407.072109 -198.023459 
L 407.072109 -202.096186 
L 407.072109 -206.168913 
L 407.072109 -210.241641 
L 407.072109 -214.314368 
L 407.072109 -218.387095 
L 407.072109 -222.459822 
L 407.072109 -226.53255 
L 407.072109 -230.605277 
L 407.072109 -234.678004 
L 407.072109 -238.750732 
L 407.072109 -242.823459 
L 407.072109 -246.896186 
L 407.072109 -250.968913 
L 407.072109 -255.041641 
L 407.072109 -259.114368 
L 407.072109 -263.187095 
L 407.072109 -267.259822 
L 407.072109 -271.33255 
L 407.072109 -275.405277 
L 407.072109 -279.478004 
L 407.072109 -283.550732 
L 407.072109 -287.623459 
L 407.072109 -291.696186 
L 407.072109 -295.768913 
L 407.072109 -299.841641 
L 407.072109 -303.914368 
L 407.072109 -307.987095 
L 407.072109 -312.059822 
L 407.072109 -316.13255 
L 407.072109 -320.205277 
L 407.072109 -324.278004 
L 407.072109 -328.350732 
L 407.072109 -332.423459 
L 407.072109 -336.496186 
L 407.072109 -340.568913 
L 407.072109 -344.641641 
L 407.072109 -348.714368 
L 407.072109 -352.787095 
L 407.072109 -356.859822 
L 407.072109 -360.93255 
L 407.072109 -365.005277 
L 407.072109 -369.078004 
L 407.072109 -373.150732 
L 407.072109 -377.223459 
L 407.072109 -381.296186 
L 407.072109 -385.368913 
L 407.072109 -389.441641 
L 407.072109 -393.514368 
L 407.072109 -397.587095 
L 407.072109 -401.659822 
L 407.072109 -405.73255 
L 407.072109 -409.805277 
L 407.072109 -413.878004 
L 407.072109 -417.950732 
L 407.072109 -422.023459 
L 407.072109 -426.096186 
L 407.072109 -430.168913 
L 407.072109 -434.241641 
L 407.072109 -438.314368 
L 407.072109 -442.387095 
L 407.072109 -446.459822 
L 407.072109 -450.53255 
L 407.072109 -454.605277 
L 407.072109 -458.678004 
L 407.072109 -462.750732 
L 407.072109 -466.823459 
L 407.072109 -470.896186 
L 407.072109 -474.968913 
L 407.072109 -479.041641 
L 407.221506 -479.041641 
L 407.221506 -479.041641 
L 407.201521 -474.968913 
L 407.156223 -470.896186 
L 407.113132 -466.823459 
L 407.087122 -462.750732 
L 407.076232 -458.678004 
L 407.072959 -454.605277 
L 407.072241 -450.53255 
L 407.072125 -446.459822 
L 407.072111 -442.387095 
L 407.072109 -438.314368 
L 407.072109 -434.241641 
L 407.072109 -430.168913 
L 407.072109 -426.096186 
L 407.072109 -422.023459 
L 407.072109 -417.950732 
L 407.072109 -413.878004 
L 407.072109 -409.805277 
L 407.072109 -405.73255 
L 407.072109 -401.659822 
L 407.072109 -397.587095 
L 407.072109 -393.514368 
L 407.072109 -389.441641 
L 407.072109 -385.368913 
L 407.072109 -381.296186 
L 407.072109 -377.223459 
L 407.072109 -373.150732 
L 407.072109 -369.078004 
L 407.072109 -365.005277 
L 407.072109 -360.93255 
L 407.072109 -356.859822 
L 407.072109 -352.787095 
L 407.072109 -348.714368 
L 407.07211 -344.641641 
L 407.072121 -340.568913 
L 407.072216 -336.496186 
L 407.072836 -332.423459 
L 407.075854 -328.350732 
L 407.086775 -324.278004 
L 407.115996 -320.205277 
L 407.173145 -316.13255 
L 407.252423 -312.059822 
L 407.323377 -307.987095 
L 407.346924 -303.914368 
L 407.308384 -299.841641 
L 407.231385 -295.768913 
L 407.155821 -291.696186 
L 407.106301 -287.623459 
L 407.083786 -283.550732 
L 407.079579 -279.478004 
L 407.089909 -275.405277 
L 407.117857 -271.33255 
L 407.162417 -267.259822 
L 407.206043 -263.187095 
L 407.221194 -259.114368 
L 407.196865 -255.041641 
L 407.151841 -250.968913 
L 407.11665 -246.896186 
L 407.112106 -242.823459 
L 407.146737 -238.750732 
L 407.217071 -234.678004 
L 407.298608 -230.605277 
L 407.348433 -226.53255 
L 407.334994 -222.459822 
L 407.267004 -218.387095 
L 407.184629 -214.314368 
L 407.124051 -210.241641 
L 407.09794 -206.168913 
L 407.105177 -202.096186 
L 407.144999 -198.023459 
L 407.215192 -193.950732 
L 407.303883 -189.878004 
L 407.393898 -185.805277 
L 407.474056 -181.73255 
L 407.53904 -177.659822 
L 407.58584 -173.587095 
L 407.619302 -169.514368 
L 407.646758 -165.441641 
L 407.665051 -161.368913 
L 407.692155 -157.296186 
L 407.823594 -153.223459 
L 408.207011 -149.150732 
L 408.923774 -145.078004 
L 409.886438 -141.005277 
L 410.837433 -136.93255 
L 411.497008 -132.859822 
L 411.811661 -128.787095 
L 412.054476 -124.714368 
L 412.633829 -120.641641 
L 413.831634 -116.568913 
L 415.709434 -112.496186 
L 418.196218 -108.423459 
L 421.317969 -104.350732 
L 425.47813 -100.278004 
L 431.56451 -96.205277 
L 440.586981 -92.13255 
L 452.458849 -88.059822 
L 464.130509 -83.987095 
L 469.462849 -79.914368 
L 463.489455 -75.841641 
z
" style="stroke: #484848; stroke-width: 1.5"/>
    </defs>
    <g clip-path="url(#p517a110685)">
     <use xlink:href="#m66da9762d8" x="0" y="534.240703" style="fill: #377eb8; stroke: #484848; stroke-width: 1.5"/>
    </g>
   </g>
   <g id="PolyCollection_5">
    <defs>
     <path id="m0f1d6e7ba9" d="M 630.272109 -78.183528 
L 593.814981 -78.183528 
L 592.009236 -80.040633 
L 590.340365 -81.897737 
L 588.824451 -83.754842 
L 587.474025 -85.611947 
L 586.297831 -87.469051 
L 585.30077 -89.326156 
L 584.484001 -91.18326 
L 583.845208 -93.040365 
L 583.378991 -94.89747 
L 583.077375 -96.754574 
L 582.930384 -98.611679 
L 582.926655 -100.468784 
L 583.054044 -102.325888 
L 583.300198 -104.182993 
L 583.653062 -106.040098 
L 584.101281 -107.897202 
L 584.634509 -109.754307 
L 585.243591 -111.611412 
L 585.920639 -113.468516 
L 586.658999 -115.325621 
L 587.453134 -117.182726 
L 588.298438 -119.03983 
L 589.191014 -120.896935 
L 590.127427 -122.75404 
L 591.104467 -124.611144 
L 592.118944 -126.468249 
L 593.167516 -128.325354 
L 594.246577 -130.182458 
L 595.352195 -132.039563 
L 596.48012 -133.896667 
L 597.625824 -135.753772 
L 598.784597 -137.610877 
L 599.951661 -139.467981 
L 601.122307 -141.325086 
L 602.29202 -143.182191 
L 603.456605 -145.039295 
L 604.61228 -146.8964 
L 605.755748 -148.753505 
L 606.884223 -150.610609 
L 607.995437 -152.467714 
L 609.087599 -154.324819 
L 610.159336 -156.181923 
L 611.209606 -158.039028 
L 612.237605 -159.896133 
L 613.242659 -161.753237 
L 614.224126 -163.610342 
L 615.181303 -165.467447 
L 616.113347 -167.324551 
L 617.019219 -169.181656 
L 617.89765 -171.03876 
L 618.747124 -172.895865 
L 619.565888 -174.75297 
L 620.351989 -176.610074 
L 621.103316 -178.467179 
L 621.817673 -180.324284 
L 622.492854 -182.181388 
L 623.126729 -184.038493 
L 623.717333 -185.895598 
L 624.262963 -187.752702 
L 624.762255 -189.609807 
L 625.214269 -191.466912 
L 625.618554 -193.324016 
L 625.975198 -195.181121 
L 626.284866 -197.038226 
L 626.548815 -198.89533 
L 626.768888 -200.752435 
L 626.947485 -202.60954 
L 627.087518 -204.466644 
L 627.192341 -206.323749 
L 627.265661 -208.180854 
L 627.311442 -210.037958 
L 627.33379 -211.895063 
L 627.336834 -213.752167 
L 627.324618 -215.609272 
L 627.30098 -217.466377 
L 627.26946 -219.323481 
L 627.233213 -221.180586 
L 627.194951 -223.037691 
L 627.156903 -224.894795 
L 627.120805 -226.7519 
L 627.087915 -228.609005 
L 627.059051 -230.466109 
L 627.034655 -232.323214 
L 627.01487 -234.180319 
L 626.999628 -236.037423 
L 626.988744 -237.894528 
L 626.98201 -239.751633 
L 626.979275 -241.608737 
L 626.980517 -243.465842 
L 626.985889 -245.322947 
L 626.995749 -247.180051 
L 627.010662 -249.037156 
L 627.031379 -250.894261 
L 627.058799 -252.751365 
L 627.093906 -254.60847 
L 627.137704 -256.465574 
L 627.191133 -258.322679 
L 627.254998 -260.179784 
L 627.329893 -262.036888 
L 630.272109 -262.036888 
L 630.272109 -262.036888 
L 630.272109 -260.179784 
L 630.272109 -258.322679 
L 630.272109 -256.465574 
L 630.272109 -254.60847 
L 630.272109 -252.751365 
L 630.272109 -250.894261 
L 630.272109 -249.037156 
L 630.272109 -247.180051 
L 630.272109 -245.322947 
L 630.272109 -243.465842 
L 630.272109 -241.608737 
L 630.272109 -239.751633 
L 630.272109 -237.894528 
L 630.272109 -236.037423 
L 630.272109 -234.180319 
L 630.272109 -232.323214 
L 630.272109 -230.466109 
L 630.272109 -228.609005 
L 630.272109 -226.7519 
L 630.272109 -224.894795 
L 630.272109 -223.037691 
L 630.272109 -221.180586 
L 630.272109 -219.323481 
L 630.272109 -217.466377 
L 630.272109 -215.609272 
L 630.272109 -213.752167 
L 630.272109 -211.895063 
L 630.272109 -210.037958 
L 630.272109 -208.180854 
L 630.272109 -206.323749 
L 630.272109 -204.466644 
L 630.272109 -202.60954 
L 630.272109 -200.752435 
L 630.272109 -198.89533 
L 630.272109 -197.038226 
L 630.272109 -195.181121 
L 630.272109 -193.324016 
L 630.272109 -191.466912 
L 630.272109 -189.609807 
L 630.272109 -187.752702 
L 630.272109 -185.895598 
L 630.272109 -184.038493 
L 630.272109 -182.181388 
L 630.272109 -180.324284 
L 630.272109 -178.467179 
L 630.272109 -176.610074 
L 630.272109 -174.75297 
L 630.272109 -172.895865 
L 630.272109 -171.03876 
L 630.272109 -169.181656 
L 630.272109 -167.324551 
L 630.272109 -165.467447 
L 630.272109 -163.610342 
L 630.272109 -161.753237 
L 630.272109 -159.896133 
L 630.272109 -158.039028 
L 630.272109 -156.181923 
L 630.272109 -154.324819 
L 630.272109 -152.467714 
L 630.272109 -150.610609 
L 630.272109 -148.753505 
L 630.272109 -146.8964 
L 630.272109 -145.039295 
L 630.272109 -143.182191 
L 630.272109 -141.325086 
L 630.272109 -139.467981 
L 630.272109 -137.610877 
L 630.272109 -135.753772 
L 630.272109 -133.896667 
L 630.272109 -132.039563 
L 630.272109 -130.182458 
L 630.272109 -128.325354 
L 630.272109 -126.468249 
L 630.272109 -124.611144 
L 630.272109 -122.75404 
L 630.272109 -120.896935 
L 630.272109 -119.03983 
L 630.272109 -117.182726 
L 630.272109 -115.325621 
L 630.272109 -113.468516 
L 630.272109 -111.611412 
L 630.272109 -109.754307 
L 630.272109 -107.897202 
L 630.272109 -106.040098 
L 630.272109 -104.182993 
L 630.272109 -102.325888 
L 630.272109 -100.468784 
L 630.272109 -98.611679 
L 630.272109 -96.754574 
L 630.272109 -94.89747 
L 630.272109 -93.040365 
L 630.272109 -91.18326 
L 630.272109 -89.326156 
L 630.272109 -87.469051 
L 630.272109 -85.611947 
L 630.272109 -83.754842 
L 630.272109 -81.897737 
L 630.272109 -80.040633 
L 630.272109 -78.183528 
z
" style="stroke: #484848; stroke-width: 1.5"/>
    </defs>
    <g clip-path="url(#p517a110685)">
     <use xlink:href="#m0f1d6e7ba9" x="0" y="534.240703" style="fill: #e41a1c; stroke: #484848; stroke-width: 1.5"/>
    </g>
   </g>
   <g id="PolyCollection_6">
    <defs>
     <path id="m569841855a" d="M 637.450333 -76.054539 
L 630.272109 -76.054539 
L 630.272109 -78.391511 
L 630.272109 -80.728483 
L 630.272109 -83.065455 
L 630.272109 -85.402427 
L 630.272109 -87.739399 
L 630.272109 -90.076371 
L 630.272109 -92.413343 
L 630.272109 -94.750315 
L 630.272109 -97.087286 
L 630.272109 -99.424258 
L 630.272109 -101.76123 
L 630.272109 -104.098202 
L 630.272109 -106.435174 
L 630.272109 -108.772146 
L 630.272109 -111.109118 
L 630.272109 -113.44609 
L 630.272109 -115.783062 
L 630.272109 -118.120034 
L 630.272109 -120.457005 
L 630.272109 -122.793977 
L 630.272109 -125.130949 
L 630.272109 -127.467921 
L 630.272109 -129.804893 
L 630.272109 -132.141865 
L 630.272109 -134.478837 
L 630.272109 -136.815809 
L 630.272109 -139.152781 
L 630.272109 -141.489752 
L 630.272109 -143.826724 
L 630.272109 -146.163696 
L 630.272109 -148.500668 
L 630.272109 -150.83764 
L 630.272109 -153.174612 
L 630.272109 -155.511584 
L 630.272109 -157.848556 
L 630.272109 -160.185528 
L 630.272109 -162.522499 
L 630.272109 -164.859471 
L 630.272109 -167.196443 
L 630.272109 -169.533415 
L 630.272109 -171.870387 
L 630.272109 -174.207359 
L 630.272109 -176.544331 
L 630.272109 -178.881303 
L 630.272109 -181.218275 
L 630.272109 -183.555246 
L 630.272109 -185.892218 
L 630.272109 -188.22919 
L 630.272109 -190.566162 
L 630.272109 -192.903134 
L 630.272109 -195.240106 
L 630.272109 -197.577078 
L 630.272109 -199.91405 
L 630.272109 -202.251022 
L 630.272109 -204.587993 
L 630.272109 -206.924965 
L 630.272109 -209.261937 
L 630.272109 -211.598909 
L 630.272109 -213.935881 
L 630.272109 -216.272853 
L 630.272109 -218.609825 
L 630.272109 -220.946797 
L 630.272109 -223.283769 
L 630.272109 -225.620741 
L 630.272109 -227.957712 
L 630.272109 -230.294684 
L 630.272109 -232.631656 
L 630.272109 -234.968628 
L 630.272109 -237.3056 
L 630.272109 -239.642572 
L 630.272109 -241.979544 
L 630.272109 -244.316516 
L 630.272109 -246.653488 
L 630.272109 -248.990459 
L 630.272109 -251.327431 
L 630.272109 -253.664403 
L 630.272109 -256.001375 
L 630.272109 -258.338347 
L 630.272109 -260.675319 
L 630.272109 -263.012291 
L 630.272109 -265.349263 
L 630.272109 -267.686235 
L 630.272109 -270.023206 
L 630.272109 -272.360178 
L 630.272109 -274.69715 
L 630.272109 -277.034122 
L 630.272109 -279.371094 
L 630.272109 -281.708066 
L 630.272109 -284.045038 
L 630.272109 -286.38201 
L 630.272109 -288.718982 
L 630.272109 -291.055953 
L 630.272109 -293.392925 
L 630.272109 -295.729897 
L 630.272109 -298.066869 
L 630.272109 -300.403841 
L 630.272109 -302.740813 
L 630.272109 -305.077785 
L 630.272109 -307.414757 
L 630.457423 -307.414757 
L 630.457423 -307.414757 
L 630.455611 -305.077785 
L 630.450283 -302.740813 
L 630.441744 -300.403841 
L 630.430472 -298.066869 
L 630.417074 -295.729897 
L 630.402228 -293.392925 
L 630.386632 -291.055953 
L 630.370946 -288.718982 
L 630.355753 -286.38201 
L 630.341526 -284.045038 
L 630.328612 -281.708066 
L 630.31723 -279.371094 
L 630.307483 -277.034122 
L 630.299378 -274.69715 
L 630.292848 -272.360178 
L 630.287788 -270.023206 
L 630.284077 -267.686235 
L 630.281608 -265.349263 
L 630.280312 -263.012291 
L 630.280177 -260.675319 
L 630.281264 -258.338347 
L 630.28372 -256.001375 
L 630.28778 -253.664403 
L 630.293775 -251.327431 
L 630.30212 -248.990459 
L 630.313298 -246.653488 
L 630.327839 -244.316516 
L 630.346283 -241.979544 
L 630.369133 -239.642572 
L 630.396804 -237.3056 
L 630.429569 -234.968628 
L 630.4675 -232.631656 
L 630.510431 -230.294684 
L 630.557922 -227.957712 
L 630.609264 -225.620741 
L 630.663497 -223.283769 
L 630.719461 -220.946797 
L 630.775884 -218.609825 
L 630.831472 -216.272853 
L 630.885029 -213.935881 
L 630.935558 -211.598909 
L 630.982362 -209.261937 
L 631.025116 -206.924965 
L 631.063904 -204.587993 
L 631.099225 -202.251022 
L 631.131973 -199.91405 
L 631.163378 -197.577078 
L 631.194943 -195.240106 
L 631.228374 -192.903134 
L 631.265502 -190.566162 
L 631.308232 -188.22919 
L 631.358482 -185.892218 
L 631.418145 -183.555246 
L 631.489046 -181.218275 
L 631.572882 -178.881303 
L 631.671162 -176.544331 
L 631.785114 -174.207359 
L 631.91558 -171.870387 
L 632.062895 -169.533415 
L 632.226769 -167.196443 
L 632.406182 -164.859471 
L 632.599323 -162.522499 
L 632.803579 -160.185528 
L 633.01559 -157.848556 
L 633.231388 -155.511584 
L 633.446591 -153.174612 
L 633.656679 -150.83764 
L 633.857294 -148.500668 
L 634.044562 -146.163696 
L 634.215412 -143.826724 
L 634.367841 -141.489752 
L 634.501136 -139.152781 
L 634.615998 -136.815809 
L 634.714589 -134.478837 
L 634.800474 -132.141865 
L 634.878465 -129.804893 
L 634.954387 -127.467921 
L 635.03475 -125.130949 
L 635.126368 -122.793977 
L 635.235914 -120.457005 
L 635.369445 -118.120034 
L 635.53191 -115.783062 
L 635.726652 -113.44609 
L 635.954953 -111.109118 
L 636.215621 -108.772146 
L 636.504688 -106.435174 
L 636.815242 -104.098202 
L 637.137433 -101.76123 
L 637.458706 -99.424258 
L 637.76427 -97.087286 
L 638.037819 -94.750315 
L 638.262475 -92.413343 
L 638.421911 -90.076371 
L 638.501563 -87.739399 
L 638.489813 -85.402427 
L 638.379046 -83.065455 
L 638.166429 -80.728483 
L 637.854335 -78.391511 
L 637.450333 -76.054539 
z
" style="stroke: #484848; stroke-width: 1.5"/>
    </defs>
    <g clip-path="url(#p517a110685)">
     <use xlink:href="#m569841855a" x="0" y="534.240703" style="fill: #377eb8; stroke: #484848; stroke-width: 1.5"/>
    </g>
   </g>
   <g id="patch_3">
    <path d="M 183.872109 458.429477 
L 183.872109 458.429477 
L 183.872109 458.429477 
L 183.872109 458.429477 
z
" clip-path="url(#p517a110685)" style="fill: #e41a1c; stroke: #484848; stroke-width: 1.5; stroke-linejoin: miter"/>
   </g>
   <g id="patch_4">
    <path d="M 183.872109 458.429477 
L 183.872109 458.429477 
L 183.872109 458.429477 
L 183.872109 458.429477 
z
" clip-path="url(#p517a110685)" style="fill: #377eb8; stroke: #484848; stroke-width: 1.5; stroke-linejoin: miter"/>
   </g>
   <g id="line2d_10">
    <path d="M 130.848137 454.414813 
L 183.872109 454.414813 
" clip-path="url(#p517a110685)" style="fill: none; stroke-dasharray: 1.875,1.125; stroke-dashoffset: 0; stroke: #484848; stroke-width: 1.5"/>
   </g>
   <g id="line2d_11">
    <path d="M 128.420701 450.70429 
L 183.872109 450.70429 
" clip-path="url(#p517a110685)" style="fill: none; stroke-dasharray: 3.75,1.5; stroke-dashoffset: 0; stroke: #484848; stroke-width: 1.5"/>
   </g>
   <g id="line2d_12">
    <path d="M 139.721895 442.522891 
L 183.872109 442.522891 
" clip-path="url(#p517a110685)" style="fill: none; stroke-dasharray: 1.875,1.125; stroke-dashoffset: 0; stroke: #484848; stroke-width: 1.5"/>
   </g>
   <g id="line2d_13">
    <path d="M 183.872109 457.973265 
L 265.586906 457.973265 
" clip-path="url(#p517a110685)" style="fill: none; stroke-dasharray: 1.875,1.125; stroke-dashoffset: 0; stroke: #484848; stroke-width: 1.5"/>
   </g>
   <g id="line2d_14">
    <path d="M 183.872109 455.114337 
L 268.321923 455.114337 
" clip-path="url(#p517a110685)" style="fill: none; stroke-dasharray: 3.75,1.5; stroke-dashoffset: 0; stroke: #484848; stroke-width: 1.5"/>
   </g>
   <g id="line2d_15">
    <path d="M 183.872109 449.67021 
L 227.686144 449.67021 
" clip-path="url(#p517a110685)" style="fill: none; stroke-dasharray: 1.875,1.125; stroke-dashoffset: 0; stroke: #484848; stroke-width: 1.5"/>
   </g>
   <g id="line2d_16">
    <path d="M 321.156752 455.038302 
L 407.072109 455.038302 
" clip-path="url(#p517a110685)" style="fill: none; stroke-dasharray: 1.875,1.125; stroke-dashoffset: 0; stroke: #484848; stroke-width: 1.5"/>
   </g>
   <g id="line2d_17">
    <path d="M 319.391441 448.164711 
L 407.072109 448.164711 
" clip-path="url(#p517a110685)" style="fill: none; stroke-dasharray: 3.75,1.5; stroke-dashoffset: 0; stroke: #484848; stroke-width: 1.5"/>
   </g>
   <g id="line2d_18">
    <path d="M 363.972213 430.151948 
L 407.072109 430.151948 
" clip-path="url(#p517a110685)" style="fill: none; stroke-dasharray: 1.875,1.125; stroke-dashoffset: 0; stroke: #484848; stroke-width: 1.5"/>
   </g>
   <g id="line2d_19">
    <path d="M 407.072109 457.364982 
L 465.006121 457.364982 
" clip-path="url(#p517a110685)" style="fill: none; stroke-dasharray: 1.875,1.125; stroke-dashoffset: 0; stroke: #484848; stroke-width: 1.5"/>
   </g>
   <g id="line2d_20">
    <path d="M 407.072109 452.422688 
L 466.970442 452.422688 
" clip-path="url(#p517a110685)" style="fill: none; stroke-dasharray: 3.75,1.5; stroke-dashoffset: 0; stroke: #484848; stroke-width: 1.5"/>
   </g>
   <g id="line2d_21">
    <path d="M 407.072109 441.085824 
L 438.322175 441.085824 
" clip-path="url(#p517a110685)" style="fill: none; stroke-dasharray: 1.875,1.125; stroke-dashoffset: 0; stroke: #484848; stroke-width: 1.5"/>
   </g>
   <g id="line2d_22">
    <path d="M 586.270121 446.72004 
L 630.272109 446.72004 
" clip-path="url(#p517a110685)" style="fill: none; stroke-dasharray: 1.875,1.125; stroke-dashoffset: 0; stroke: #484848; stroke-width: 1.5"/>
   </g>
   <g id="line2d_23">
    <path d="M 586.523419 419.256089 
L 630.272109 419.256089 
" clip-path="url(#p517a110685)" style="fill: none; stroke-dasharray: 3.75,1.5; stroke-dashoffset: 0; stroke: #484848; stroke-width: 1.5"/>
   </g>
   <g id="line2d_24">
    <path d="M 595.679937 401.66152 
L 630.272109 401.66152 
" clip-path="url(#p517a110685)" style="fill: none; stroke-dasharray: 1.875,1.125; stroke-dashoffset: 0; stroke: #484848; stroke-width: 1.5"/>
   </g>
   <g id="line2d_25">
    <path d="M 630.272109 454.209517 
L 638.073307 454.209517 
" clip-path="url(#p517a110685)" style="fill: none; stroke-dasharray: 1.875,1.125; stroke-dashoffset: 0; stroke: #484848; stroke-width: 1.5"/>
   </g>
   <g id="line2d_26">
    <path d="M 630.272109 433.337827 
L 637.255435 433.337827 
" clip-path="url(#p517a110685)" style="fill: none; stroke-dasharray: 3.75,1.5; stroke-dashoffset: 0; stroke: #484848; stroke-width: 1.5"/>
   </g>
   <g id="line2d_27">
    <path d="M 630.272109 399.319633 
L 634.695933 399.319633 
" clip-path="url(#p517a110685)" style="fill: none; stroke-dasharray: 1.875,1.125; stroke-dashoffset: 0; stroke: #484848; stroke-width: 1.5"/>
   </g>
   <g id="patch_5">
    <path d="M 72.272109 478.559062 
L 72.272109 35.039062 
" style="fill: none; stroke: #cccccc; stroke-width: 1.875; stroke-linejoin: miter; stroke-linecap: square"/>
   </g>
   <g id="patch_6">
    <path d="M 741.872109 478.559062 
L 741.872109 35.039062 
" style="fill: none; stroke: #cccccc; stroke-width: 1.875; stroke-linejoin: miter; stroke-linecap: square"/>
   </g>
   <g id="patch_7">
    <path d="M 72.272109 478.559062 
L 741.872109 478.559062 
" style="fill: none; stroke: #cccccc; stroke-width: 1.875; stroke-linejoin: miter; stroke-linecap: square"/>
   </g>
   <g id="patch_8">
    <path d="M 72.272109 35.039062 
L 741.872109 35.039062 
" style="fill: none; stroke: #cccccc; stroke-width: 1.875; stroke-linejoin: miter; stroke-linecap: square"/>
   </g>
   <g id="text_15">
    <!-- Frecuencia de Espera por Segmento y Status -->
    <g style="fill: #262626" transform="translate(84.490078 29.039062) scale(0.3 -0.3)">
     <defs>
      <path id="Arial-BoldMT-46" d="M 472 0 
L 472 4581 
L 3613 4581 
L 3613 3806 
L 1397 3806 
L 1397 2722 
L 3309 2722 
L 3309 1947 
L 1397 1947 
L 1397 0 
L 472 0 
z
" transform="scale(0.015625)"/>
      <path id="Arial-BoldMT-72" d="M 1300 0 
L 422 0 
L 422 3319 
L 1238 3319 
L 1238 2847 
Q 1447 3181 1614 3287 
Q 1781 3394 1994 3394 
Q 2294 3394 2572 3228 
L 2300 2463 
Q 2078 2606 1888 2606 
Q 1703 2606 1575 2504 
Q 1447 2403 1373 2137 
Q 1300 1872 1300 1025 
L 1300 0 
z
" transform="scale(0.015625)"/>
      <path id="Arial-BoldMT-65" d="M 2381 1056 
L 3256 909 
Q 3088 428 2723 176 
Q 2359 -75 1813 -75 
Q 947 -75 531 491 
Q 203 944 203 1634 
Q 203 2459 634 2926 
Q 1066 3394 1725 3394 
Q 2466 3394 2894 2905 
Q 3322 2416 3303 1406 
L 1103 1406 
Q 1113 1016 1316 798 
Q 1519 581 1822 581 
Q 2028 581 2168 693 
Q 2309 806 2381 1056 
z
M 2431 1944 
Q 2422 2325 2234 2523 
Q 2047 2722 1778 2722 
Q 1491 2722 1303 2513 
Q 1116 2303 1119 1944 
L 2431 1944 
z
" transform="scale(0.015625)"/>
      <path id="Arial-BoldMT-63" d="M 3353 2338 
L 2488 2181 
Q 2444 2441 2289 2572 
Q 2134 2703 1888 2703 
Q 1559 2703 1364 2476 
Q 1169 2250 1169 1719 
Q 1169 1128 1367 884 
Q 1566 641 1900 641 
Q 2150 641 2309 783 
Q 2469 925 2534 1272 
L 3397 1125 
Q 3263 531 2881 228 
Q 2500 -75 1859 -75 
Q 1131 -75 698 384 
Q 266 844 266 1656 
Q 266 2478 700 2936 
Q 1134 3394 1875 3394 
Q 2481 3394 2839 3133 
Q 3197 2872 3353 2338 
z
" transform="scale(0.015625)"/>
      <path id="Arial-BoldMT-75" d="M 2644 0 
L 2644 497 
Q 2463 231 2167 78 
Q 1872 -75 1544 -75 
Q 1209 -75 943 72 
Q 678 219 559 484 
Q 441 750 441 1219 
L 441 3319 
L 1319 3319 
L 1319 1794 
Q 1319 1094 1367 936 
Q 1416 778 1544 686 
Q 1672 594 1869 594 
Q 2094 594 2272 717 
Q 2450 841 2515 1023 
Q 2581 1206 2581 1919 
L 2581 3319 
L 3459 3319 
L 3459 0 
L 2644 0 
z
" transform="scale(0.015625)"/>
      <path id="Arial-BoldMT-6e" d="M 3478 0 
L 2600 0 
L 2600 1694 
Q 2600 2231 2544 2389 
Q 2488 2547 2361 2634 
Q 2234 2722 2056 2722 
Q 1828 2722 1647 2597 
Q 1466 2472 1398 2265 
Q 1331 2059 1331 1503 
L 1331 0 
L 453 0 
L 453 3319 
L 1269 3319 
L 1269 2831 
Q 1703 3394 2363 3394 
Q 2653 3394 2893 3289 
Q 3134 3184 3257 3021 
Q 3381 2859 3429 2653 
Q 3478 2447 3478 2063 
L 3478 0 
z
" transform="scale(0.015625)"/>
      <path id="Arial-BoldMT-69" d="M 459 3769 
L 459 4581 
L 1338 4581 
L 1338 3769 
L 459 3769 
z
M 459 0 
L 459 3319 
L 1338 3319 
L 1338 0 
L 459 0 
z
" transform="scale(0.015625)"/>
      <path id="Arial-BoldMT-61" d="M 1116 2306 
L 319 2450 
Q 453 2931 781 3162 
Q 1109 3394 1756 3394 
Q 2344 3394 2631 3255 
Q 2919 3116 3036 2902 
Q 3153 2688 3153 2116 
L 3144 1091 
Q 3144 653 3186 445 
Q 3228 238 3344 0 
L 2475 0 
Q 2441 88 2391 259 
Q 2369 338 2359 363 
Q 2134 144 1878 34 
Q 1622 -75 1331 -75 
Q 819 -75 523 203 
Q 228 481 228 906 
Q 228 1188 362 1408 
Q 497 1628 739 1745 
Q 981 1863 1438 1950 
Q 2053 2066 2291 2166 
L 2291 2253 
Q 2291 2506 2166 2614 
Q 2041 2722 1694 2722 
Q 1459 2722 1328 2630 
Q 1197 2538 1116 2306 
z
M 2291 1594 
Q 2122 1538 1756 1459 
Q 1391 1381 1278 1306 
Q 1106 1184 1106 997 
Q 1106 813 1243 678 
Q 1381 544 1594 544 
Q 1831 544 2047 700 
Q 2206 819 2256 991 
Q 2291 1103 2291 1419 
L 2291 1594 
z
" transform="scale(0.015625)"/>
      <path id="Arial-BoldMT-20" transform="scale(0.015625)"/>
      <path id="Arial-BoldMT-64" d="M 3503 0 
L 2688 0 
L 2688 488 
Q 2484 203 2207 64 
Q 1931 -75 1650 -75 
Q 1078 -75 670 386 
Q 263 847 263 1672 
Q 263 2516 659 2955 
Q 1056 3394 1663 3394 
Q 2219 3394 2625 2931 
L 2625 4581 
L 3503 4581 
L 3503 0 
z
M 1159 1731 
Q 1159 1200 1306 963 
Q 1519 619 1900 619 
Q 2203 619 2415 876 
Q 2628 1134 2628 1647 
Q 2628 2219 2422 2470 
Q 2216 2722 1894 2722 
Q 1581 2722 1370 2473 
Q 1159 2225 1159 1731 
z
" transform="scale(0.015625)"/>
      <path id="Arial-BoldMT-45" d="M 466 0 
L 466 4581 
L 3863 4581 
L 3863 3806 
L 1391 3806 
L 1391 2791 
L 3691 2791 
L 3691 2019 
L 1391 2019 
L 1391 772 
L 3950 772 
L 3950 0 
L 466 0 
z
" transform="scale(0.015625)"/>
      <path id="Arial-BoldMT-73" d="M 150 947 
L 1031 1081 
Q 1088 825 1259 692 
Q 1431 559 1741 559 
Q 2081 559 2253 684 
Q 2369 772 2369 919 
Q 2369 1019 2306 1084 
Q 2241 1147 2013 1200 
Q 950 1434 666 1628 
Q 272 1897 272 2375 
Q 272 2806 612 3100 
Q 953 3394 1669 3394 
Q 2350 3394 2681 3172 
Q 3013 2950 3138 2516 
L 2309 2363 
Q 2256 2556 2107 2659 
Q 1959 2763 1684 2763 
Q 1338 2763 1188 2666 
Q 1088 2597 1088 2488 
Q 1088 2394 1175 2328 
Q 1294 2241 1995 2081 
Q 2697 1922 2975 1691 
Q 3250 1456 3250 1038 
Q 3250 581 2869 253 
Q 2488 -75 1741 -75 
Q 1063 -75 667 200 
Q 272 475 150 947 
z
" transform="scale(0.015625)"/>
      <path id="Arial-BoldMT-70" d="M 434 3319 
L 1253 3319 
L 1253 2831 
Q 1413 3081 1684 3237 
Q 1956 3394 2288 3394 
Q 2866 3394 3269 2941 
Q 3672 2488 3672 1678 
Q 3672 847 3265 386 
Q 2859 -75 2281 -75 
Q 2006 -75 1782 34 
Q 1559 144 1313 409 
L 1313 -1263 
L 434 -1263 
L 434 3319 
z
M 1303 1716 
Q 1303 1156 1525 889 
Q 1747 622 2066 622 
Q 2372 622 2575 867 
Q 2778 1113 2778 1672 
Q 2778 2194 2568 2447 
Q 2359 2700 2050 2700 
Q 1728 2700 1515 2451 
Q 1303 2203 1303 1716 
z
" transform="scale(0.015625)"/>
      <path id="Arial-BoldMT-6f" d="M 256 1706 
Q 256 2144 472 2553 
Q 688 2963 1083 3178 
Q 1478 3394 1966 3394 
Q 2719 3394 3200 2905 
Q 3681 2416 3681 1669 
Q 3681 916 3195 420 
Q 2709 -75 1972 -75 
Q 1516 -75 1102 131 
Q 688 338 472 736 
Q 256 1134 256 1706 
z
M 1156 1659 
Q 1156 1166 1390 903 
Q 1625 641 1969 641 
Q 2313 641 2545 903 
Q 2778 1166 2778 1666 
Q 2778 2153 2545 2415 
Q 2313 2678 1969 2678 
Q 1625 2678 1390 2415 
Q 1156 2153 1156 1659 
z
" transform="scale(0.015625)"/>
      <path id="Arial-BoldMT-53" d="M 231 1491 
L 1131 1578 
Q 1213 1125 1461 912 
Q 1709 700 2131 700 
Q 2578 700 2804 889 
Q 3031 1078 3031 1331 
Q 3031 1494 2936 1608 
Q 2841 1722 2603 1806 
Q 2441 1863 1863 2006 
Q 1119 2191 819 2459 
Q 397 2838 397 3381 
Q 397 3731 595 4036 
Q 794 4341 1167 4500 
Q 1541 4659 2069 4659 
Q 2931 4659 3367 4281 
Q 3803 3903 3825 3272 
L 2900 3231 
Q 2841 3584 2645 3739 
Q 2450 3894 2059 3894 
Q 1656 3894 1428 3728 
Q 1281 3622 1281 3444 
Q 1281 3281 1419 3166 
Q 1594 3019 2269 2859 
Q 2944 2700 3267 2529 
Q 3591 2359 3773 2064 
Q 3956 1769 3956 1334 
Q 3956 941 3737 597 
Q 3519 253 3119 86 
Q 2719 -81 2122 -81 
Q 1253 -81 787 320 
Q 322 722 231 1491 
z
" transform="scale(0.015625)"/>
      <path id="Arial-BoldMT-67" d="M 378 -219 
L 1381 -341 
Q 1406 -516 1497 -581 
Q 1622 -675 1891 -675 
Q 2234 -675 2406 -572 
Q 2522 -503 2581 -350 
Q 2622 -241 2622 53 
L 2622 538 
Q 2228 0 1628 0 
Q 959 0 569 566 
Q 263 1013 263 1678 
Q 263 2513 664 2953 
Q 1066 3394 1663 3394 
Q 2278 3394 2678 2853 
L 2678 3319 
L 3500 3319 
L 3500 341 
Q 3500 -247 3403 -537 
Q 3306 -828 3131 -993 
Q 2956 -1159 2664 -1253 
Q 2372 -1347 1925 -1347 
Q 1081 -1347 728 -1058 
Q 375 -769 375 -325 
Q 375 -281 378 -219 
z
M 1163 1728 
Q 1163 1200 1367 954 
Q 1572 709 1872 709 
Q 2194 709 2416 961 
Q 2638 1213 2638 1706 
Q 2638 2222 2425 2472 
Q 2213 2722 1888 2722 
Q 1572 2722 1367 2476 
Q 1163 2231 1163 1728 
z
" transform="scale(0.015625)"/>
      <path id="Arial-BoldMT-6d" d="M 394 3319 
L 1203 3319 
L 1203 2866 
Q 1638 3394 2238 3394 
Q 2556 3394 2790 3262 
Q 3025 3131 3175 2866 
Q 3394 3131 3647 3262 
Q 3900 3394 4188 3394 
Q 4553 3394 4806 3245 
Q 5059 3097 5184 2809 
Q 5275 2597 5275 2122 
L 5275 0 
L 4397 0 
L 4397 1897 
Q 4397 2391 4306 2534 
Q 4184 2722 3931 2722 
Q 3747 2722 3584 2609 
Q 3422 2497 3350 2280 
Q 3278 2063 3278 1594 
L 3278 0 
L 2400 0 
L 2400 1819 
Q 2400 2303 2353 2443 
Q 2306 2584 2207 2653 
Q 2109 2722 1941 2722 
Q 1738 2722 1575 2612 
Q 1413 2503 1342 2297 
Q 1272 2091 1272 1613 
L 1272 0 
L 394 0 
L 394 3319 
z
" transform="scale(0.015625)"/>
      <path id="Arial-BoldMT-74" d="M 1981 3319 
L 1981 2619 
L 1381 2619 
L 1381 1281 
Q 1381 875 1398 808 
Q 1416 741 1477 697 
Q 1538 653 1625 653 
Q 1747 653 1978 738 
L 2053 56 
Q 1747 -75 1359 -75 
Q 1122 -75 931 4 
Q 741 84 652 211 
Q 563 338 528 553 
Q 500 706 500 1172 
L 500 2619 
L 97 2619 
L 97 3319 
L 500 3319 
L 500 3978 
L 1381 4491 
L 1381 3319 
L 1981 3319 
z
" transform="scale(0.015625)"/>
      <path id="Arial-BoldMT-79" d="M 44 3319 
L 978 3319 
L 1772 963 
L 2547 3319 
L 3456 3319 
L 2284 125 
L 2075 -453 
Q 1959 -744 1854 -897 
Q 1750 -1050 1614 -1145 
Q 1478 -1241 1279 -1294 
Q 1081 -1347 831 -1347 
Q 578 -1347 334 -1294 
L 256 -606 
Q 463 -647 628 -647 
Q 934 -647 1081 -467 
Q 1228 -288 1306 -9 
L 44 3319 
z
" transform="scale(0.015625)"/>
     </defs>
     <use xlink:href="#Arial-BoldMT-46"/>
     <use xlink:href="#Arial-BoldMT-72" x="61.083984"/>
     <use xlink:href="#Arial-BoldMT-65" x="100"/>
     <use xlink:href="#Arial-BoldMT-63" x="155.615234"/>
     <use xlink:href="#Arial-BoldMT-75" x="211.230469"/>
     <use xlink:href="#Arial-BoldMT-65" x="272.314453"/>
     <use xlink:href="#Arial-BoldMT-6e" x="327.929688"/>
     <use xlink:href="#Arial-BoldMT-63" x="389.013672"/>
     <use xlink:href="#Arial-BoldMT-69" x="444.628906"/>
     <use xlink:href="#Arial-BoldMT-61" x="472.412109"/>
     <use xlink:href="#Arial-BoldMT-20" x="528.027344"/>
     <use xlink:href="#Arial-BoldMT-64" x="555.810547"/>
     <use xlink:href="#Arial-BoldMT-65" x="616.894531"/>
     <use xlink:href="#Arial-BoldMT-20" x="672.509766"/>
     <use xlink:href="#Arial-BoldMT-45" x="700.292969"/>
     <use xlink:href="#Arial-BoldMT-73" x="766.992188"/>
     <use xlink:href="#Arial-BoldMT-70" x="822.607422"/>
     <use xlink:href="#Arial-BoldMT-65" x="883.691406"/>
     <use xlink:href="#Arial-BoldMT-72" x="939.306641"/>
     <use xlink:href="#Arial-BoldMT-61" x="978.222656"/>
     <use xlink:href="#Arial-BoldMT-20" x="1033.837891"/>
     <use xlink:href="#Arial-BoldMT-70" x="1061.621094"/>
     <use xlink:href="#Arial-BoldMT-6f" x="1122.705078"/>
     <use xlink:href="#Arial-BoldMT-72" x="1183.789062"/>
     <use xlink:href="#Arial-BoldMT-20" x="1222.705078"/>
     <use xlink:href="#Arial-BoldMT-53" x="1250.488281"/>
     <use xlink:href="#Arial-BoldMT-65" x="1317.1875"/>
     <use xlink:href="#Arial-BoldMT-67" x="1372.802734"/>
     <use xlink:href="#Arial-BoldMT-6d" x="1433.886719"/>
     <use xlink:href="#Arial-BoldMT-65" x="1522.802734"/>
     <use xlink:href="#Arial-BoldMT-6e" x="1578.417969"/>
     <use xlink:href="#Arial-BoldMT-74" x="1639.501953"/>
     <use xlink:href="#Arial-BoldMT-6f" x="1672.802734"/>
     <use xlink:href="#Arial-BoldMT-20" x="1733.886719"/>
     <use xlink:href="#Arial-BoldMT-79" x="1761.669922"/>
     <use xlink:href="#Arial-BoldMT-20" x="1817.285156"/>
     <use xlink:href="#Arial-BoldMT-53" x="1845.068359"/>
     <use xlink:href="#Arial-BoldMT-74" x="1911.767578"/>
     <use xlink:href="#Arial-BoldMT-61" x="1945.068359"/>
     <use xlink:href="#Arial-BoldMT-74" x="2000.683594"/>
     <use xlink:href="#Arial-BoldMT-75" x="2033.984375"/>
     <use xlink:href="#Arial-BoldMT-73" x="2095.068359"/>
    </g>
   </g>
   <g id="legend_1">
    <g id="patch_9">
     <path d="M 83.822109 94.918594 
L 201.755859 94.918594 
Q 205.055859 94.918594 205.055859 91.618594 
L 205.055859 46.589063 
Q 205.055859 43.289062 201.755859 43.289062 
L 83.822109 43.289062 
Q 80.522109 43.289062 80.522109 46.589063 
L 80.522109 91.618594 
Q 80.522109 94.918594 83.822109 94.918594 
z
" style="fill: #ffffff; opacity: 0.8; stroke: #cccccc; stroke-width: 1.5; stroke-linejoin: miter"/>
    </g>
    <g id="patch_10">
     <path d="M 87.122109 61.699453 
L 120.122109 61.699453 
L 120.122109 50.149453 
L 87.122109 50.149453 
z
" style="fill: #e41a1c; stroke: #484848; stroke-width: 1.5; stroke-linejoin: miter"/>
    </g>
    <g id="text_16">
     <!-- Ausente -->
     <g style="fill: #262626" transform="translate(133.322109 61.699453) scale(0.165 -0.165)">
      <defs>
       <path id="ArialMT-75" d="M 2597 0 
L 2597 488 
Q 2209 -75 1544 -75 
Q 1250 -75 995 37 
Q 741 150 617 320 
Q 494 491 444 738 
Q 409 903 409 1263 
L 409 3319 
L 972 3319 
L 972 1478 
Q 972 1038 1006 884 
Q 1059 663 1231 536 
Q 1403 409 1656 409 
Q 1909 409 2131 539 
Q 2353 669 2445 892 
Q 2538 1116 2538 1541 
L 2538 3319 
L 3100 3319 
L 3100 0 
L 2597 0 
z
" transform="scale(0.015625)"/>
      </defs>
      <use xlink:href="#ArialMT-41"/>
      <use xlink:href="#ArialMT-75" x="66.699219"/>
      <use xlink:href="#ArialMT-73" x="122.314453"/>
      <use xlink:href="#ArialMT-65" x="172.314453"/>
      <use xlink:href="#ArialMT-6e" x="227.929688"/>
      <use xlink:href="#ArialMT-74" x="283.544922"/>
      <use xlink:href="#ArialMT-65" x="311.328125"/>
     </g>
    </g>
    <g id="patch_11">
     <path d="M 87.122109 85.039219 
L 120.122109 85.039219 
L 120.122109 73.489219 
L 87.122109 73.489219 
z
" style="fill: #377eb8; stroke: #484848; stroke-width: 1.5; stroke-linejoin: miter"/>
    </g>
    <g id="text_17">
     <!-- Atendido -->
     <g style="fill: #262626" transform="translate(133.322109 85.039219) scale(0.165 -0.165)">
      <defs>
       <path id="ArialMT-64" d="M 2575 0 
L 2575 419 
Q 2259 -75 1647 -75 
Q 1250 -75 917 144 
Q 584 363 401 755 
Q 219 1147 219 1656 
Q 219 2153 384 2558 
Q 550 2963 881 3178 
Q 1213 3394 1622 3394 
Q 1922 3394 2156 3267 
Q 2391 3141 2538 2938 
L 2538 4581 
L 3097 4581 
L 3097 0 
L 2575 0 
z
M 797 1656 
Q 797 1019 1065 703 
Q 1334 388 1700 388 
Q 2069 388 2326 689 
Q 2584 991 2584 1609 
Q 2584 2291 2321 2609 
Q 2059 2928 1675 2928 
Q 1300 2928 1048 2622 
Q 797 2316 797 1656 
z
" transform="scale(0.015625)"/>
      </defs>
      <use xlink:href="#ArialMT-41"/>
      <use xlink:href="#ArialMT-74" x="66.699219"/>
      <use xlink:href="#ArialMT-65" x="94.482422"/>
      <use xlink:href="#ArialMT-6e" x="150.097656"/>
      <use xlink:href="#ArialMT-64" x="205.712891"/>
      <use xlink:href="#ArialMT-69" x="261.328125"/>
      <use xlink:href="#ArialMT-64" x="283.544922"/>
      <use xlink:href="#ArialMT-6f" x="339.160156"/>
     </g>
    </g>
   </g>
  </g>
 </g>
 <defs>
  <clipPath id="p517a110685">
   <rect x="72.272109" y="35.039062" width="669.6" height="443.52"/>
  </clipPath>
 </defs>
</svg>
