<?xml version="1.0" encoding="utf-8" standalone="no"?>
<!DOCTYPE svg PUBLIC "-//W3C//DTD SVG 1.1//EN"
  "http://www.w3.org/Graphics/SVG/1.1/DTD/svg11.dtd">
<svg xmlns:xlink="http://www.w3.org/1999/xlink" width="751.830703pt" height="534.240703pt" viewBox="0 0 751.830703 534.240703" xmlns="http://www.w3.org/2000/svg" version="1.1">
 <metadata>
  <rdf:RDF xmlns:dc="http://purl.org/dc/elements/1.1/" xmlns:cc="http://creativecommons.org/ns#" xmlns:rdf="http://www.w3.org/1999/02/22-rdf-syntax-ns#">
   <cc:Work>
    <dc:type rdf:resource="http://purl.org/dc/dcmitype/StillImage"/>
    <dc:date>2025-03-28T20:19:52.328660</dc:date>
    <dc:format>image/svg+xml</dc:format>
    <dc:creator>
     <cc:Agent>
      <dc:title>Matplotlib v3.8.4, https://matplotlib.org/</dc:title>
     </cc:Agent>
    </dc:creator>
   </cc:Work>
  </rdf:RDF>
 </metadata>
 <defs>
  <style type="text/css">*{stroke-linejoin: round; stroke-linecap: butt}</style>
 </defs>
 <g id="figure_1">
  <g id="patch_1">
   <path d="M 0 534.240703 
L 751.830703 534.240703 
L 751.830703 0 
L 0 0 
z
" style="fill: #ffffff"/>
  </g>
  <g id="axes_1">
   <g id="patch_2">
    <path d="M 72.272109 478.559062 
L 741.872109 478.559062 
L 741.872109 35.039062 
L 72.272109 35.039062 
z
" style="fill: #ffffff"/>
   </g>
   <g id="matplotlib.axis_1">
    <g id="xtick_1">
     <g id="text_1">
      <!-- Retail -->
      <g style="fill: #262626" transform="translate(162.780469 502.869453) scale(0.165 -0.165)">
       <defs>
        <path id="ArialMT-52" d="M 503 0 
L 503 4581 
L 2534 4581 
Q 3147 4581 3465 4457 
Q 3784 4334 3975 4021 
Q 4166 3709 4166 3331 
Q 4166 2844 3850 2509 
Q 3534 2175 2875 2084 
Q 3116 1969 3241 1856 
Q 3506 1613 3744 1247 
L 4541 0 
L 3778 0 
L 3172 953 
Q 2906 1366 2734 1584 
Q 2563 1803 2427 1890 
Q 2291 1978 2150 2013 
Q 2047 2034 1813 2034 
L 1109 2034 
L 1109 0 
L 503 0 
z
M 1109 2559 
L 2413 2559 
Q 2828 2559 3062 2645 
Q 3297 2731 3419 2920 
Q 3541 3109 3541 3331 
Q 3541 3656 3305 3865 
Q 3069 4075 2559 4075 
L 1109 4075 
L 1109 2559 
z
" transform="scale(0.015625)"/>
        <path id="ArialMT-65" d="M 2694 1069 
L 3275 997 
Q 3138 488 2766 206 
Q 2394 -75 1816 -75 
Q 1088 -75 661 373 
Q 234 822 234 1631 
Q 234 2469 665 2931 
Q 1097 3394 1784 3394 
Q 2450 3394 2872 2941 
Q 3294 2488 3294 1666 
Q 3294 1616 3291 1516 
L 816 1516 
Q 847 969 1125 678 
Q 1403 388 1819 388 
Q 2128 388 2347 550 
Q 2566 713 2694 1069 
z
M 847 1978 
L 2700 1978 
Q 2663 2397 2488 2606 
Q 2219 2931 1791 2931 
Q 1403 2931 1139 2672 
Q 875 2413 847 1978 
z
" transform="scale(0.015625)"/>
        <path id="ArialMT-74" d="M 1650 503 
L 1731 6 
Q 1494 -44 1306 -44 
Q 1000 -44 831 53 
Q 663 150 594 308 
Q 525 466 525 972 
L 525 2881 
L 113 2881 
L 113 3319 
L 525 3319 
L 525 4141 
L 1084 4478 
L 1084 3319 
L 1650 3319 
L 1650 2881 
L 1084 2881 
L 1084 941 
Q 1084 700 1114 631 
Q 1144 563 1211 522 
Q 1278 481 1403 481 
Q 1497 481 1650 503 
z
" transform="scale(0.015625)"/>
        <path id="ArialMT-61" d="M 2588 409 
Q 2275 144 1986 34 
Q 1697 -75 1366 -75 
Q 819 -75 525 192 
Q 231 459 231 875 
Q 231 1119 342 1320 
Q 453 1522 633 1644 
Q 813 1766 1038 1828 
Q 1203 1872 1538 1913 
Q 2219 1994 2541 2106 
Q 2544 2222 2544 2253 
Q 2544 2597 2384 2738 
Q 2169 2928 1744 2928 
Q 1347 2928 1158 2789 
Q 969 2650 878 2297 
L 328 2372 
Q 403 2725 575 2942 
Q 747 3159 1072 3276 
Q 1397 3394 1825 3394 
Q 2250 3394 2515 3294 
Q 2781 3194 2906 3042 
Q 3031 2891 3081 2659 
Q 3109 2516 3109 2141 
L 3109 1391 
Q 3109 606 3145 398 
Q 3181 191 3288 0 
L 2700 0 
Q 2613 175 2588 409 
z
M 2541 1666 
Q 2234 1541 1622 1453 
Q 1275 1403 1131 1340 
Q 988 1278 909 1158 
Q 831 1038 831 891 
Q 831 666 1001 516 
Q 1172 366 1500 366 
Q 1825 366 2078 508 
Q 2331 650 2450 897 
Q 2541 1088 2541 1459 
L 2541 1666 
z
" transform="scale(0.015625)"/>
        <path id="ArialMT-69" d="M 425 3934 
L 425 4581 
L 988 4581 
L 988 3934 
L 425 3934 
z
M 425 0 
L 425 3319 
L 988 3319 
L 988 0 
L 425 0 
z
" transform="scale(0.015625)"/>
        <path id="ArialMT-6c" d="M 409 0 
L 409 4581 
L 972 4581 
L 972 0 
L 409 0 
z
" transform="scale(0.015625)"/>
       </defs>
       <use xlink:href="#ArialMT-52"/>
       <use xlink:href="#ArialMT-65" x="72.216797"/>
       <use xlink:href="#ArialMT-74" x="127.832031"/>
       <use xlink:href="#ArialMT-61" x="155.615234"/>
       <use xlink:href="#ArialMT-69" x="211.230469"/>
       <use xlink:href="#ArialMT-6c" x="233.447266"/>
      </g>
     </g>
    </g>
    <g id="xtick_2">
     <g id="text_2">
      <!-- Banco -->
      <g style="fill: #262626" transform="translate(383.680781 502.869453) scale(0.165 -0.165)">
       <defs>
        <path id="ArialMT-42" d="M 469 0 
L 469 4581 
L 2188 4581 
Q 2713 4581 3030 4442 
Q 3347 4303 3526 4014 
Q 3706 3725 3706 3409 
Q 3706 3116 3547 2856 
Q 3388 2597 3066 2438 
Q 3481 2316 3704 2022 
Q 3928 1728 3928 1328 
Q 3928 1006 3792 729 
Q 3656 453 3456 303 
Q 3256 153 2954 76 
Q 2653 0 2216 0 
L 469 0 
z
M 1075 2656 
L 2066 2656 
Q 2469 2656 2644 2709 
Q 2875 2778 2992 2937 
Q 3109 3097 3109 3338 
Q 3109 3566 3000 3739 
Q 2891 3913 2687 3977 
Q 2484 4041 1991 4041 
L 1075 4041 
L 1075 2656 
z
M 1075 541 
L 2216 541 
Q 2509 541 2628 563 
Q 2838 600 2978 687 
Q 3119 775 3209 942 
Q 3300 1109 3300 1328 
Q 3300 1584 3169 1773 
Q 3038 1963 2805 2039 
Q 2572 2116 2134 2116 
L 1075 2116 
L 1075 541 
z
" transform="scale(0.015625)"/>
        <path id="ArialMT-6e" d="M 422 0 
L 422 3319 
L 928 3319 
L 928 2847 
Q 1294 3394 1984 3394 
Q 2284 3394 2536 3286 
Q 2788 3178 2913 3003 
Q 3038 2828 3088 2588 
Q 3119 2431 3119 2041 
L 3119 0 
L 2556 0 
L 2556 2019 
Q 2556 2363 2490 2533 
Q 2425 2703 2258 2804 
Q 2091 2906 1866 2906 
Q 1506 2906 1245 2678 
Q 984 2450 984 1813 
L 984 0 
L 422 0 
z
" transform="scale(0.015625)"/>
        <path id="ArialMT-63" d="M 2588 1216 
L 3141 1144 
Q 3050 572 2676 248 
Q 2303 -75 1759 -75 
Q 1078 -75 664 370 
Q 250 816 250 1647 
Q 250 2184 428 2587 
Q 606 2991 970 3192 
Q 1334 3394 1763 3394 
Q 2303 3394 2647 3120 
Q 2991 2847 3088 2344 
L 2541 2259 
Q 2463 2594 2264 2762 
Q 2066 2931 1784 2931 
Q 1359 2931 1093 2626 
Q 828 2322 828 1663 
Q 828 994 1084 691 
Q 1341 388 1753 388 
Q 2084 388 2306 591 
Q 2528 794 2588 1216 
z
" transform="scale(0.015625)"/>
        <path id="ArialMT-6f" d="M 213 1659 
Q 213 2581 725 3025 
Q 1153 3394 1769 3394 
Q 2453 3394 2887 2945 
Q 3322 2497 3322 1706 
Q 3322 1066 3130 698 
Q 2938 331 2570 128 
Q 2203 -75 1769 -75 
Q 1072 -75 642 372 
Q 213 819 213 1659 
z
M 791 1659 
Q 791 1022 1069 705 
Q 1347 388 1769 388 
Q 2188 388 2466 706 
Q 2744 1025 2744 1678 
Q 2744 2294 2464 2611 
Q 2184 2928 1769 2928 
Q 1347 2928 1069 2612 
Q 791 2297 791 1659 
z
" transform="scale(0.015625)"/>
       </defs>
       <use xlink:href="#ArialMT-42"/>
       <use xlink:href="#ArialMT-61" x="66.699219"/>
       <use xlink:href="#ArialMT-6e" x="122.314453"/>
       <use xlink:href="#ArialMT-63" x="177.929688"/>
       <use xlink:href="#ArialMT-6f" x="227.929688"/>
      </g>
     </g>
    </g>
    <g id="xtick_3">
     <g id="text_3">
      <!-- Afiliacion -->
      <g style="fill: #262626" transform="translate(597.256641 502.869453) scale(0.165 -0.165)">
       <defs>
        <path id="ArialMT-41" d="M -9 0 
L 1750 4581 
L 2403 4581 
L 4278 0 
L 3588 0 
L 3053 1388 
L 1138 1388 
L 634 0 
L -9 0 
z
M 1313 1881 
L 2866 1881 
L 2388 3150 
Q 2169 3728 2063 4100 
Q 1975 3659 1816 3225 
L 1313 1881 
z
" transform="scale(0.015625)"/>
        <path id="ArialMT-66" d="M 556 0 
L 556 2881 
L 59 2881 
L 59 3319 
L 556 3319 
L 556 3672 
Q 556 4006 616 4169 
Q 697 4388 901 4523 
Q 1106 4659 1475 4659 
Q 1713 4659 2000 4603 
L 1916 4113 
Q 1741 4144 1584 4144 
Q 1328 4144 1222 4034 
Q 1116 3925 1116 3625 
L 1116 3319 
L 1763 3319 
L 1763 2881 
L 1116 2881 
L 1116 0 
L 556 0 
z
" transform="scale(0.015625)"/>
       </defs>
       <use xlink:href="#ArialMT-41"/>
       <use xlink:href="#ArialMT-66" x="66.699219"/>
       <use xlink:href="#ArialMT-69" x="94.482422"/>
       <use xlink:href="#ArialMT-6c" x="116.699219"/>
       <use xlink:href="#ArialMT-69" x="138.916016"/>
       <use xlink:href="#ArialMT-61" x="161.132812"/>
       <use xlink:href="#ArialMT-63" x="216.748047"/>
       <use xlink:href="#ArialMT-69" x="266.748047"/>
       <use xlink:href="#ArialMT-6f" x="288.964844"/>
       <use xlink:href="#ArialMT-6e" x="344.580078"/>
      </g>
     </g>
    </g>
    <g id="text_4">
     <!-- Segmento -->
     <g style="fill: #262626" transform="translate(366.047578 523.252266) scale(0.18 -0.18)">
      <defs>
       <path id="ArialMT-53" d="M 288 1472 
L 859 1522 
Q 900 1178 1048 958 
Q 1197 738 1509 602 
Q 1822 466 2213 466 
Q 2559 466 2825 569 
Q 3091 672 3220 851 
Q 3350 1031 3350 1244 
Q 3350 1459 3225 1620 
Q 3100 1781 2813 1891 
Q 2628 1963 1997 2114 
Q 1366 2266 1113 2400 
Q 784 2572 623 2826 
Q 463 3081 463 3397 
Q 463 3744 659 4045 
Q 856 4347 1234 4503 
Q 1613 4659 2075 4659 
Q 2584 4659 2973 4495 
Q 3363 4331 3572 4012 
Q 3781 3694 3797 3291 
L 3216 3247 
Q 3169 3681 2898 3903 
Q 2628 4125 2100 4125 
Q 1550 4125 1298 3923 
Q 1047 3722 1047 3438 
Q 1047 3191 1225 3031 
Q 1400 2872 2139 2705 
Q 2878 2538 3153 2413 
Q 3553 2228 3743 1945 
Q 3934 1663 3934 1294 
Q 3934 928 3725 604 
Q 3516 281 3123 101 
Q 2731 -78 2241 -78 
Q 1619 -78 1198 103 
Q 778 284 539 648 
Q 300 1013 288 1472 
z
" transform="scale(0.015625)"/>
       <path id="ArialMT-67" d="M 319 -275 
L 866 -356 
Q 900 -609 1056 -725 
Q 1266 -881 1628 -881 
Q 2019 -881 2231 -725 
Q 2444 -569 2519 -288 
Q 2563 -116 2559 434 
Q 2191 0 1641 0 
Q 956 0 581 494 
Q 206 988 206 1678 
Q 206 2153 378 2554 
Q 550 2956 876 3175 
Q 1203 3394 1644 3394 
Q 2231 3394 2613 2919 
L 2613 3319 
L 3131 3319 
L 3131 450 
Q 3131 -325 2973 -648 
Q 2816 -972 2473 -1159 
Q 2131 -1347 1631 -1347 
Q 1038 -1347 672 -1080 
Q 306 -813 319 -275 
z
M 784 1719 
Q 784 1066 1043 766 
Q 1303 466 1694 466 
Q 2081 466 2343 764 
Q 2606 1063 2606 1700 
Q 2606 2309 2336 2618 
Q 2066 2928 1684 2928 
Q 1309 2928 1046 2623 
Q 784 2319 784 1719 
z
" transform="scale(0.015625)"/>
       <path id="ArialMT-6d" d="M 422 0 
L 422 3319 
L 925 3319 
L 925 2853 
Q 1081 3097 1340 3245 
Q 1600 3394 1931 3394 
Q 2300 3394 2536 3241 
Q 2772 3088 2869 2813 
Q 3263 3394 3894 3394 
Q 4388 3394 4653 3120 
Q 4919 2847 4919 2278 
L 4919 0 
L 4359 0 
L 4359 2091 
Q 4359 2428 4304 2576 
Q 4250 2725 4106 2815 
Q 3963 2906 3769 2906 
Q 3419 2906 3187 2673 
Q 2956 2441 2956 1928 
L 2956 0 
L 2394 0 
L 2394 2156 
Q 2394 2531 2256 2718 
Q 2119 2906 1806 2906 
Q 1569 2906 1367 2781 
Q 1166 2656 1075 2415 
Q 984 2175 984 1722 
L 984 0 
L 422 0 
z
" transform="scale(0.015625)"/>
      </defs>
      <use xlink:href="#ArialMT-53"/>
      <use xlink:href="#ArialMT-65" x="66.699219"/>
      <use xlink:href="#ArialMT-67" x="122.314453"/>
      <use xlink:href="#ArialMT-6d" x="177.929688"/>
      <use xlink:href="#ArialMT-65" x="261.230469"/>
      <use xlink:href="#ArialMT-6e" x="316.845703"/>
      <use xlink:href="#ArialMT-74" x="372.460938"/>
      <use xlink:href="#ArialMT-6f" x="400.244141"/>
     </g>
    </g>
   </g>
   <g id="matplotlib.axis_2">
    <g id="ytick_1">
     <g id="line2d_1">
      <path d="M 72.272109 458.573382 
L 741.872109 458.573382 
" clip-path="url(#p65f4b37828)" style="fill: none; stroke: #cccccc; stroke-width: 1.5; stroke-linecap: round"/>
     </g>
     <g id="text_5">
      <!-- 0.00 -->
      <g style="fill: #262626" transform="translate(27.661563 464.478577) scale(0.165 -0.165)">
       <defs>
        <path id="ArialMT-30" d="M 266 2259 
Q 266 3072 433 3567 
Q 600 4063 929 4331 
Q 1259 4600 1759 4600 
Q 2128 4600 2406 4451 
Q 2684 4303 2865 4023 
Q 3047 3744 3150 3342 
Q 3253 2941 3253 2259 
Q 3253 1453 3087 958 
Q 2922 463 2592 192 
Q 2263 -78 1759 -78 
Q 1097 -78 719 397 
Q 266 969 266 2259 
z
M 844 2259 
Q 844 1131 1108 757 
Q 1372 384 1759 384 
Q 2147 384 2411 759 
Q 2675 1134 2675 2259 
Q 2675 3391 2411 3762 
Q 2147 4134 1753 4134 
Q 1366 4134 1134 3806 
Q 844 3388 844 2259 
z
" transform="scale(0.015625)"/>
        <path id="ArialMT-2e" d="M 581 0 
L 581 641 
L 1222 641 
L 1222 0 
L 581 0 
z
" transform="scale(0.015625)"/>
       </defs>
       <use xlink:href="#ArialMT-30"/>
       <use xlink:href="#ArialMT-2e" x="55.615234"/>
       <use xlink:href="#ArialMT-30" x="83.398438"/>
       <use xlink:href="#ArialMT-30" x="139.013672"/>
      </g>
     </g>
    </g>
    <g id="ytick_2">
     <g id="line2d_2">
      <path d="M 72.272109 408.369491 
L 741.872109 408.369491 
" clip-path="url(#p65f4b37828)" style="fill: none; stroke: #cccccc; stroke-width: 1.5; stroke-linecap: round"/>
     </g>
     <g id="text_6">
      <!-- 0.02 -->
      <g style="fill: #262626" transform="translate(27.661563 414.274686) scale(0.165 -0.165)">
       <defs>
        <path id="ArialMT-32" d="M 3222 541 
L 3222 0 
L 194 0 
Q 188 203 259 391 
Q 375 700 629 1000 
Q 884 1300 1366 1694 
Q 2113 2306 2375 2664 
Q 2638 3022 2638 3341 
Q 2638 3675 2398 3904 
Q 2159 4134 1775 4134 
Q 1369 4134 1125 3890 
Q 881 3647 878 3216 
L 300 3275 
Q 359 3922 746 4261 
Q 1134 4600 1788 4600 
Q 2447 4600 2831 4234 
Q 3216 3869 3216 3328 
Q 3216 3053 3103 2787 
Q 2991 2522 2730 2228 
Q 2469 1934 1863 1422 
Q 1356 997 1212 845 
Q 1069 694 975 541 
L 3222 541 
z
" transform="scale(0.015625)"/>
       </defs>
       <use xlink:href="#ArialMT-30"/>
       <use xlink:href="#ArialMT-2e" x="55.615234"/>
       <use xlink:href="#ArialMT-30" x="83.398438"/>
       <use xlink:href="#ArialMT-32" x="139.013672"/>
      </g>
     </g>
    </g>
    <g id="ytick_3">
     <g id="line2d_3">
      <path d="M 72.272109 358.165599 
L 741.872109 358.165599 
" clip-path="url(#p65f4b37828)" style="fill: none; stroke: #cccccc; stroke-width: 1.5; stroke-linecap: round"/>
     </g>
     <g id="text_7">
      <!-- 0.04 -->
      <g style="fill: #262626" transform="translate(27.661563 364.070795) scale(0.165 -0.165)">
       <defs>
        <path id="ArialMT-34" d="M 2069 0 
L 2069 1097 
L 81 1097 
L 81 1613 
L 2172 4581 
L 2631 4581 
L 2631 1613 
L 3250 1613 
L 3250 1097 
L 2631 1097 
L 2631 0 
L 2069 0 
z
M 2069 1613 
L 2069 3678 
L 634 1613 
L 2069 1613 
z
" transform="scale(0.015625)"/>
       </defs>
       <use xlink:href="#ArialMT-30"/>
       <use xlink:href="#ArialMT-2e" x="55.615234"/>
       <use xlink:href="#ArialMT-30" x="83.398438"/>
       <use xlink:href="#ArialMT-34" x="139.013672"/>
      </g>
     </g>
    </g>
    <g id="ytick_4">
     <g id="line2d_4">
      <path d="M 72.272109 307.961708 
L 741.872109 307.961708 
" clip-path="url(#p65f4b37828)" style="fill: none; stroke: #cccccc; stroke-width: 1.5; stroke-linecap: round"/>
     </g>
     <g id="text_8">
      <!-- 0.06 -->
      <g style="fill: #262626" transform="translate(27.661563 313.866904) scale(0.165 -0.165)">
       <defs>
        <path id="ArialMT-36" d="M 3184 3459 
L 2625 3416 
Q 2550 3747 2413 3897 
Q 2184 4138 1850 4138 
Q 1581 4138 1378 3988 
Q 1113 3794 959 3422 
Q 806 3050 800 2363 
Q 1003 2672 1297 2822 
Q 1591 2972 1913 2972 
Q 2475 2972 2870 2558 
Q 3266 2144 3266 1488 
Q 3266 1056 3080 686 
Q 2894 316 2569 119 
Q 2244 -78 1831 -78 
Q 1128 -78 684 439 
Q 241 956 241 2144 
Q 241 3472 731 4075 
Q 1159 4600 1884 4600 
Q 2425 4600 2770 4297 
Q 3116 3994 3184 3459 
z
M 888 1484 
Q 888 1194 1011 928 
Q 1134 663 1356 523 
Q 1578 384 1822 384 
Q 2178 384 2434 671 
Q 2691 959 2691 1453 
Q 2691 1928 2437 2201 
Q 2184 2475 1800 2475 
Q 1419 2475 1153 2201 
Q 888 1928 888 1484 
z
" transform="scale(0.015625)"/>
       </defs>
       <use xlink:href="#ArialMT-30"/>
       <use xlink:href="#ArialMT-2e" x="55.615234"/>
       <use xlink:href="#ArialMT-30" x="83.398438"/>
       <use xlink:href="#ArialMT-36" x="139.013672"/>
      </g>
     </g>
    </g>
    <g id="ytick_5">
     <g id="line2d_5">
      <path d="M 72.272109 257.757817 
L 741.872109 257.757817 
" clip-path="url(#p65f4b37828)" style="fill: none; stroke: #cccccc; stroke-width: 1.5; stroke-linecap: round"/>
     </g>
     <g id="text_9">
      <!-- 0.08 -->
      <g style="fill: #262626" transform="translate(27.661563 263.663013) scale(0.165 -0.165)">
       <defs>
        <path id="ArialMT-38" d="M 1131 2484 
Q 781 2613 612 2850 
Q 444 3088 444 3419 
Q 444 3919 803 4259 
Q 1163 4600 1759 4600 
Q 2359 4600 2725 4251 
Q 3091 3903 3091 3403 
Q 3091 3084 2923 2848 
Q 2756 2613 2416 2484 
Q 2838 2347 3058 2040 
Q 3278 1734 3278 1309 
Q 3278 722 2862 322 
Q 2447 -78 1769 -78 
Q 1091 -78 675 323 
Q 259 725 259 1325 
Q 259 1772 486 2073 
Q 713 2375 1131 2484 
z
M 1019 3438 
Q 1019 3113 1228 2906 
Q 1438 2700 1772 2700 
Q 2097 2700 2305 2904 
Q 2513 3109 2513 3406 
Q 2513 3716 2298 3927 
Q 2084 4138 1766 4138 
Q 1444 4138 1231 3931 
Q 1019 3725 1019 3438 
z
M 838 1322 
Q 838 1081 952 856 
Q 1066 631 1291 507 
Q 1516 384 1775 384 
Q 2178 384 2440 643 
Q 2703 903 2703 1303 
Q 2703 1709 2433 1975 
Q 2163 2241 1756 2241 
Q 1359 2241 1098 1978 
Q 838 1716 838 1322 
z
" transform="scale(0.015625)"/>
       </defs>
       <use xlink:href="#ArialMT-30"/>
       <use xlink:href="#ArialMT-2e" x="55.615234"/>
       <use xlink:href="#ArialMT-30" x="83.398438"/>
       <use xlink:href="#ArialMT-38" x="139.013672"/>
      </g>
     </g>
    </g>
    <g id="ytick_6">
     <g id="line2d_6">
      <path d="M 72.272109 207.553926 
L 741.872109 207.553926 
" clip-path="url(#p65f4b37828)" style="fill: none; stroke: #cccccc; stroke-width: 1.5; stroke-linecap: round"/>
     </g>
     <g id="text_10">
      <!-- 0.10 -->
      <g style="fill: #262626" transform="translate(27.661563 213.459122) scale(0.165 -0.165)">
       <defs>
        <path id="ArialMT-31" d="M 2384 0 
L 1822 0 
L 1822 3584 
Q 1619 3391 1289 3197 
Q 959 3003 697 2906 
L 697 3450 
Q 1169 3672 1522 3987 
Q 1875 4303 2022 4600 
L 2384 4600 
L 2384 0 
z
" transform="scale(0.015625)"/>
       </defs>
       <use xlink:href="#ArialMT-30"/>
       <use xlink:href="#ArialMT-2e" x="55.615234"/>
       <use xlink:href="#ArialMT-31" x="83.398438"/>
       <use xlink:href="#ArialMT-30" x="139.013672"/>
      </g>
     </g>
    </g>
    <g id="ytick_7">
     <g id="line2d_7">
      <path d="M 72.272109 157.350035 
L 741.872109 157.350035 
" clip-path="url(#p65f4b37828)" style="fill: none; stroke: #cccccc; stroke-width: 1.5; stroke-linecap: round"/>
     </g>
     <g id="text_11">
      <!-- 0.12 -->
      <g style="fill: #262626" transform="translate(27.661563 163.255231) scale(0.165 -0.165)">
       <use xlink:href="#ArialMT-30"/>
       <use xlink:href="#ArialMT-2e" x="55.615234"/>
       <use xlink:href="#ArialMT-31" x="83.398438"/>
       <use xlink:href="#ArialMT-32" x="139.013672"/>
      </g>
     </g>
    </g>
    <g id="ytick_8">
     <g id="line2d_8">
      <path d="M 72.272109 107.146144 
L 741.872109 107.146144 
" clip-path="url(#p65f4b37828)" style="fill: none; stroke: #cccccc; stroke-width: 1.5; stroke-linecap: round"/>
     </g>
     <g id="text_12">
      <!-- 0.14 -->
      <g style="fill: #262626" transform="translate(27.661563 113.05134) scale(0.165 -0.165)">
       <use xlink:href="#ArialMT-30"/>
       <use xlink:href="#ArialMT-2e" x="55.615234"/>
       <use xlink:href="#ArialMT-31" x="83.398438"/>
       <use xlink:href="#ArialMT-34" x="139.013672"/>
      </g>
     </g>
    </g>
    <g id="ytick_9">
     <g id="line2d_9">
      <path d="M 72.272109 56.942253 
L 741.872109 56.942253 
" clip-path="url(#p65f4b37828)" style="fill: none; stroke: #cccccc; stroke-width: 1.5; stroke-linecap: round"/>
     </g>
     <g id="text_13">
      <!-- 0.16 -->
      <g style="fill: #262626" transform="translate(27.661563 62.847448) scale(0.165 -0.165)">
       <use xlink:href="#ArialMT-30"/>
       <use xlink:href="#ArialMT-2e" x="55.615234"/>
       <use xlink:href="#ArialMT-31" x="83.398438"/>
       <use xlink:href="#ArialMT-36" x="139.013672"/>
      </g>
     </g>
    </g>
    <g id="text_14">
     <!-- Duración -->
     <g style="fill: #262626" transform="translate(20.084063 292.814531) rotate(-90) scale(0.18 -0.18)">
      <defs>
       <path id="ArialMT-44" d="M 494 0 
L 494 4581 
L 2072 4581 
Q 2606 4581 2888 4516 
Q 3281 4425 3559 4188 
Q 3922 3881 4101 3404 
Q 4281 2928 4281 2316 
Q 4281 1794 4159 1391 
Q 4038 988 3847 723 
Q 3656 459 3429 307 
Q 3203 156 2883 78 
Q 2563 0 2147 0 
L 494 0 
z
M 1100 541 
L 2078 541 
Q 2531 541 2789 625 
Q 3047 709 3200 863 
Q 3416 1078 3536 1442 
Q 3656 1806 3656 2325 
Q 3656 3044 3420 3430 
Q 3184 3816 2847 3947 
Q 2603 4041 2063 4041 
L 1100 4041 
L 1100 541 
z
" transform="scale(0.015625)"/>
       <path id="ArialMT-75" d="M 2597 0 
L 2597 488 
Q 2209 -75 1544 -75 
Q 1250 -75 995 37 
Q 741 150 617 320 
Q 494 491 444 738 
Q 409 903 409 1263 
L 409 3319 
L 972 3319 
L 972 1478 
Q 972 1038 1006 884 
Q 1059 663 1231 536 
Q 1403 409 1656 409 
Q 1909 409 2131 539 
Q 2353 669 2445 892 
Q 2538 1116 2538 1541 
L 2538 3319 
L 3100 3319 
L 3100 0 
L 2597 0 
z
" transform="scale(0.015625)"/>
       <path id="ArialMT-72" d="M 416 0 
L 416 3319 
L 922 3319 
L 922 2816 
Q 1116 3169 1280 3281 
Q 1444 3394 1641 3394 
Q 1925 3394 2219 3213 
L 2025 2691 
Q 1819 2813 1613 2813 
Q 1428 2813 1281 2702 
Q 1134 2591 1072 2394 
Q 978 2094 978 1738 
L 978 0 
L 416 0 
z
" transform="scale(0.015625)"/>
       <path id="ArialMT-f3" d="M 213 1659 
Q 213 2581 725 3025 
Q 1153 3394 1769 3394 
Q 2453 3394 2887 2945 
Q 3322 2497 3322 1706 
Q 3322 1066 3130 698 
Q 2938 331 2570 128 
Q 2203 -75 1769 -75 
Q 1072 -75 642 372 
Q 213 819 213 1659 
z
M 791 1659 
Q 791 1022 1069 705 
Q 1347 388 1769 388 
Q 2188 388 2466 706 
Q 2744 1025 2744 1678 
Q 2744 2294 2464 2611 
Q 2184 2928 1769 2928 
Q 1347 2928 1069 2612 
Q 791 2297 791 1659 
z
M 1454 3731 
L 1869 4606 
L 2607 4606 
L 1919 3731 
L 1454 3731 
z
" transform="scale(0.015625)"/>
      </defs>
      <use xlink:href="#ArialMT-44"/>
      <use xlink:href="#ArialMT-75" x="72.216797"/>
      <use xlink:href="#ArialMT-72" x="127.832031"/>
      <use xlink:href="#ArialMT-61" x="161.132812"/>
      <use xlink:href="#ArialMT-63" x="216.748047"/>
      <use xlink:href="#ArialMT-69" x="266.748047"/>
      <use xlink:href="#ArialMT-f3" x="288.964844"/>
      <use xlink:href="#ArialMT-6e" x="344.580078"/>
     </g>
    </g>
   </g>
   <g id="PolyCollection_1">
    <defs>
     <path id="m70294e6b57" d="M 183.872109 -76.422704 
L 139.976425 -76.422704 
L 137.459156 -77.363851 
L 135.178641 -78.304998 
L 133.177644 -79.246145 
L 131.493335 -80.187292 
L 130.156067 -81.128439 
L 129.188436 -82.069585 
L 128.604658 -83.010732 
L 128.410291 -83.951879 
L 128.602306 -84.893026 
L 129.169471 -85.834173 
L 130.093036 -86.77532 
L 131.347639 -87.716467 
L 132.902397 -88.657614 
L 134.722094 -89.59876 
L 136.768416 -90.539907 
L 139.001177 -91.481054 
L 141.379465 -92.422201 
L 143.862694 -93.363348 
L 146.411525 -94.304495 
L 148.988636 -95.245642 
L 151.559349 -96.186789 
L 154.092115 -97.127935 
L 156.558861 -98.069082 
L 158.935227 -99.010229 
L 161.200689 -99.951376 
L 163.338608 -100.892523 
L 165.336191 -101.83367 
L 167.184391 -102.774817 
L 168.877747 -103.715964 
L 170.414169 -104.65711 
L 171.794676 -105.598257 
L 173.023082 -106.539404 
L 174.105651 -107.480551 
L 175.050704 -108.421698 
L 175.868214 -109.362845 
L 176.569375 -110.303992 
L 177.166173 -111.245139 
L 177.670966 -112.186286 
L 178.096086 -113.127432 
L 178.453482 -114.068579 
L 178.754408 -115.009726 
L 179.00917 -115.950873 
L 179.226938 -116.89202 
L 179.415629 -117.833167 
L 179.581853 -118.774314 
L 179.730925 -119.715461 
L 179.866936 -120.656607 
L 179.992867 -121.597754 
L 180.110741 -122.538901 
L 180.221798 -123.480048 
L 180.326681 -124.421195 
L 180.425613 -125.362342 
L 180.518566 -126.303489 
L 180.605409 -127.244636 
L 180.686012 -128.185782 
L 180.760335 -129.126929 
L 180.828467 -130.068076 
L 180.890642 -131.009223 
L 180.947223 -131.95037 
L 180.998666 -132.891517 
L 181.045474 -133.832664 
L 181.088138 -134.773811 
L 181.127093 -135.714957 
L 181.162674 -136.656104 
L 181.195092 -137.597251 
L 181.224425 -138.538398 
L 181.250635 -139.479545 
L 181.273589 -140.420692 
L 181.293105 -141.361839 
L 181.308996 -142.302986 
L 181.321123 -143.244132 
L 181.329439 -144.185279 
L 181.334019 -145.126426 
L 181.335088 -146.067573 
L 181.333016 -147.00872 
L 181.32831 -147.949867 
L 181.321584 -148.891014 
L 181.313518 -149.832161 
L 181.304814 -150.773307 
L 181.296148 -151.714454 
L 181.28813 -152.655601 
L 181.281274 -153.596748 
L 181.275979 -154.537895 
L 181.272534 -155.479042 
L 181.27113 -156.420189 
L 181.271895 -157.361336 
L 181.274933 -158.302483 
L 181.280369 -159.243629 
L 181.288398 -160.184776 
L 181.299323 -161.125923 
L 181.313579 -162.06707 
L 181.331745 -163.008217 
L 181.354532 -163.949364 
L 181.382759 -164.890511 
L 181.417303 -165.831658 
L 181.459045 -166.772804 
L 181.508793 -167.713951 
L 181.567223 -168.655098 
L 181.6348 -169.596245 
L 183.872109 -169.596245 
L 183.872109 -169.596245 
L 183.872109 -168.655098 
L 183.872109 -167.713951 
L 183.872109 -166.772804 
L 183.872109 -165.831658 
L 183.872109 -164.890511 
L 183.872109 -163.949364 
L 183.872109 -163.008217 
L 183.872109 -162.06707 
L 183.872109 -161.125923 
L 183.872109 -160.184776 
L 183.872109 -159.243629 
L 183.872109 -158.302483 
L 183.872109 -157.361336 
L 183.872109 -156.420189 
L 183.872109 -155.479042 
L 183.872109 -154.537895 
L 183.872109 -153.596748 
L 183.872109 -152.655601 
L 183.872109 -151.714454 
L 183.872109 -150.773307 
L 183.872109 -149.832161 
L 183.872109 -148.891014 
L 183.872109 -147.949867 
L 183.872109 -147.00872 
L 183.872109 -146.067573 
L 183.872109 -145.126426 
L 183.872109 -144.185279 
L 183.872109 -143.244132 
L 183.872109 -142.302986 
L 183.872109 -141.361839 
L 183.872109 -140.420692 
L 183.872109 -139.479545 
L 183.872109 -138.538398 
L 183.872109 -137.597251 
L 183.872109 -136.656104 
L 183.872109 -135.714957 
L 183.872109 -134.773811 
L 183.872109 -133.832664 
L 183.872109 -132.891517 
L 183.872109 -131.95037 
L 183.872109 -131.009223 
L 183.872109 -130.068076 
L 183.872109 -129.126929 
L 183.872109 -128.185782 
L 183.872109 -127.244636 
L 183.872109 -126.303489 
L 183.872109 -125.362342 
L 183.872109 -124.421195 
L 183.872109 -123.480048 
L 183.872109 -122.538901 
L 183.872109 -121.597754 
L 183.872109 -120.656607 
L 183.872109 -119.715461 
L 183.872109 -118.774314 
L 183.872109 -117.833167 
L 183.872109 -116.89202 
L 183.872109 -115.950873 
L 183.872109 -115.009726 
L 183.872109 -114.068579 
L 183.872109 -113.127432 
L 183.872109 -112.186286 
L 183.872109 -111.245139 
L 183.872109 -110.303992 
L 183.872109 -109.362845 
L 183.872109 -108.421698 
L 183.872109 -107.480551 
L 183.872109 -106.539404 
L 183.872109 -105.598257 
L 183.872109 -104.65711 
L 183.872109 -103.715964 
L 183.872109 -102.774817 
L 183.872109 -101.83367 
L 183.872109 -100.892523 
L 183.872109 -99.951376 
L 183.872109 -99.010229 
L 183.872109 -98.069082 
L 183.872109 -97.127935 
L 183.872109 -96.186789 
L 183.872109 -95.245642 
L 183.872109 -94.304495 
L 183.872109 -93.363348 
L 183.872109 -92.422201 
L 183.872109 -91.481054 
L 183.872109 -90.539907 
L 183.872109 -89.59876 
L 183.872109 -88.657614 
L 183.872109 -87.716467 
L 183.872109 -86.77532 
L 183.872109 -85.834173 
L 183.872109 -84.893026 
L 183.872109 -83.951879 
L 183.872109 -83.010732 
L 183.872109 -82.069585 
L 183.872109 -81.128439 
L 183.872109 -80.187292 
L 183.872109 -79.246145 
L 183.872109 -78.304998 
L 183.872109 -77.363851 
L 183.872109 -76.422704 
z
" style="stroke: #484848; stroke-width: 1.5"/>
    </defs>
    <g clip-path="url(#p65f4b37828)">
     <use xlink:href="#m70294e6b57" x="0" y="534.240703" style="fill: #e41a1c; stroke: #484848; stroke-width: 1.5"/>
    </g>
   </g>
   <g id="PolyCollection_2">
    <defs>
     <path id="m6b873977b7" d="M 233.82617 -76.480811 
L 183.872109 -76.480811 
L 183.872109 -79.728604 
L 183.872109 -82.976397 
L 183.872109 -86.22419 
L 183.872109 -89.471983 
L 183.872109 -92.719776 
L 183.872109 -95.967569 
L 183.872109 -99.215362 
L 183.872109 -102.463155 
L 183.872109 -105.710948 
L 183.872109 -108.958742 
L 183.872109 -112.206535 
L 183.872109 -115.454328 
L 183.872109 -118.702121 
L 183.872109 -121.949914 
L 183.872109 -125.197707 
L 183.872109 -128.4455 
L 183.872109 -131.693293 
L 183.872109 -134.941086 
L 183.872109 -138.18888 
L 183.872109 -141.436673 
L 183.872109 -144.684466 
L 183.872109 -147.932259 
L 183.872109 -151.180052 
L 183.872109 -154.427845 
L 183.872109 -157.675638 
L 183.872109 -160.923431 
L 183.872109 -164.171224 
L 183.872109 -167.419018 
L 183.872109 -170.666811 
L 183.872109 -173.914604 
L 183.872109 -177.162397 
L 183.872109 -180.41019 
L 183.872109 -183.657983 
L 183.872109 -186.905776 
L 183.872109 -190.153569 
L 183.872109 -193.401362 
L 183.872109 -196.649155 
L 183.872109 -199.896949 
L 183.872109 -203.144742 
L 183.872109 -206.392535 
L 183.872109 -209.640328 
L 183.872109 -212.888121 
L 183.872109 -216.135914 
L 183.872109 -219.383707 
L 183.872109 -222.6315 
L 183.872109 -225.879293 
L 183.872109 -229.127087 
L 183.872109 -232.37488 
L 183.872109 -235.622673 
L 183.872109 -238.870466 
L 183.872109 -242.118259 
L 183.872109 -245.366052 
L 183.872109 -248.613845 
L 183.872109 -251.861638 
L 183.872109 -255.109431 
L 183.872109 -258.357224 
L 183.872109 -261.605018 
L 183.872109 -264.852811 
L 183.872109 -268.100604 
L 183.872109 -271.348397 
L 183.872109 -274.59619 
L 183.872109 -277.843983 
L 183.872109 -281.091776 
L 183.872109 -284.339569 
L 183.872109 -287.587362 
L 183.872109 -290.835156 
L 183.872109 -294.082949 
L 183.872109 -297.330742 
L 183.872109 -300.578535 
L 183.872109 -303.826328 
L 183.872109 -307.074121 
L 183.872109 -310.321914 
L 183.872109 -313.569707 
L 183.872109 -316.8175 
L 183.872109 -320.065293 
L 183.872109 -323.313087 
L 183.872109 -326.56088 
L 183.872109 -329.808673 
L 183.872109 -333.056466 
L 183.872109 -336.304259 
L 183.872109 -339.552052 
L 183.872109 -342.799845 
L 183.872109 -346.047638 
L 183.872109 -349.295431 
L 183.872109 -352.543225 
L 183.872109 -355.791018 
L 183.872109 -359.038811 
L 183.872109 -362.286604 
L 183.872109 -365.534397 
L 183.872109 -368.78219 
L 183.872109 -372.029983 
L 183.872109 -375.277776 
L 183.872109 -378.525569 
L 183.872109 -381.773363 
L 183.872109 -385.021156 
L 183.872109 -388.268949 
L 183.872109 -391.516742 
L 183.872109 -394.764535 
L 183.872109 -398.012328 
L 184.037665 -398.012328 
L 184.037665 -398.012328 
L 183.99979 -394.764535 
L 183.930678 -391.516742 
L 183.888089 -388.268949 
L 183.874703 -385.021156 
L 183.87236 -381.773363 
L 183.872124 -378.525569 
L 183.87211 -375.277776 
L 183.872109 -372.029983 
L 183.872109 -368.78219 
L 183.872109 -365.534397 
L 183.872109 -362.286604 
L 183.872109 -359.038811 
L 183.872109 -355.791018 
L 183.872109 -352.543225 
L 183.872109 -349.295431 
L 183.872109 -346.047638 
L 183.872109 -342.799845 
L 183.872109 -339.552052 
L 183.872109 -336.304259 
L 183.872109 -333.056466 
L 183.872109 -329.808673 
L 183.872109 -326.56088 
L 183.872109 -323.313087 
L 183.872109 -320.065293 
L 183.872109 -316.8175 
L 183.87211 -313.569707 
L 183.872129 -310.321914 
L 183.872432 -307.074121 
L 183.875283 -303.826328 
L 183.890691 -300.578535 
L 183.936821 -297.330742 
L 184.006149 -294.082949 
L 184.037249 -290.835156 
L 183.993121 -287.587362 
L 183.924853 -284.339569 
L 183.885783 -281.091776 
L 183.874218 -277.843983 
L 183.872303 -274.59619 
L 183.87212 -271.348397 
L 183.87211 -268.100604 
L 183.872109 -264.852811 
L 183.872109 -261.605018 
L 183.872109 -258.357224 
L 183.872109 -255.109431 
L 183.872109 -251.861638 
L 183.872109 -248.613845 
L 183.872109 -245.366052 
L 183.872109 -242.118259 
L 183.872109 -238.870466 
L 183.872109 -235.622673 
L 183.872109 -232.37488 
L 183.87211 -229.127087 
L 183.872122 -225.879293 
L 183.872329 -222.6315 
L 183.874448 -219.383707 
L 183.886897 -216.135914 
L 183.927716 -212.888121 
L 183.99648 -209.640328 
L 184.03756 -206.392535 
L 184.003022 -203.144742 
L 183.93372 -199.896949 
L 183.889361 -196.649155 
L 183.875093 -193.401362 
L 183.873894 -190.153569 
L 183.884327 -186.905776 
L 183.933472 -183.657983 
L 184.066854 -180.41019 
L 184.274732 -177.162397 
L 184.440488 -173.914604 
L 184.460624 -170.666811 
L 184.37704 -167.419018 
L 184.30097 -164.171224 
L 184.282215 -160.923431 
L 184.319994 -157.675638 
L 184.377673 -154.427845 
L 184.364479 -151.180052 
L 184.256357 -147.932259 
L 184.154353 -144.684466 
L 184.130366 -141.436673 
L 184.181411 -138.18888 
L 184.344983 -134.941086 
L 184.699524 -131.693293 
L 185.305533 -128.4455 
L 186.135366 -125.197707 
L 187.089439 -121.949914 
L 188.114978 -118.702121 
L 189.14222 -115.454328 
L 190.25755 -112.206535 
L 191.815757 -108.958742 
L 194.183721 -105.710948 
L 197.955299 -102.463155 
L 203.908292 -99.215362 
L 212.512082 -95.967569 
L 224.750476 -92.719776 
L 242.150563 -89.471983 
L 262.099336 -86.22419 
L 273.152109 -82.976397 
L 262.621644 -79.728604 
L 233.82617 -76.480811 
z
" style="stroke: #484848; stroke-width: 1.5"/>
    </defs>
    <g clip-path="url(#p65f4b37828)">
     <use xlink:href="#m6b873977b7" x="0" y="534.240703" style="fill: #377eb8; stroke: #484848; stroke-width: 1.5"/>
    </g>
   </g>
   <g id="PolyCollection_3">
    <defs>
     <path id="m02b72d19ac" d="M 407.072109 -75.957853 
L 334.905074 -75.957853 
L 330.664523 -77.196869 
L 326.913955 -78.435884 
L 323.734942 -79.674899 
L 321.194133 -80.913915 
L 319.340513 -82.15293 
L 318.203521 -83.391945 
L 317.792109 -84.630961 
L 318.09481 -85.869976 
L 319.080757 -87.108991 
L 320.701595 -88.348006 
L 322.89412 -89.587022 
L 325.583472 -90.826037 
L 328.686674 -92.065052 
L 332.116296 -93.304068 
L 335.784039 -94.543083 
L 339.604054 -95.782098 
L 343.495835 -97.021114 
L 347.386579 -98.260129 
L 351.212945 -99.499144 
L 354.922167 -100.73816 
L 358.472558 -101.977175 
L 361.833432 -103.21619 
L 364.984524 -104.455206 
L 367.915008 -105.694221 
L 370.622209 -106.933236 
L 373.110121 -108.172252 
L 375.387843 -109.411267 
L 377.46802 -110.650282 
L 379.36539 -111.889297 
L 381.095494 -113.128313 
L 382.673602 -114.367328 
L 384.113902 -115.606343 
L 385.428949 -116.845359 
L 386.629382 -118.084374 
L 387.723888 -119.323389 
L 388.71938 -120.562405 
L 389.621339 -121.80142 
L 390.434281 -123.040435 
L 391.16228 -124.279451 
L 391.809495 -125.518466 
L 392.380651 -126.757481 
L 392.88142 -127.996497 
L 393.318668 -129.235512 
L 393.700543 -130.474527 
L 394.03639 -131.713543 
L 394.336508 -132.952558 
L 394.611752 -134.191573 
L 394.873028 -135.430588 
L 395.130718 -136.669604 
L 395.394088 -137.908619 
L 395.670732 -139.147634 
L 395.966102 -140.38665 
L 396.283177 -141.625665 
L 396.622292 -142.86468 
L 396.981162 -144.103696 
L 397.355088 -145.342711 
L 397.737349 -146.581726 
L 398.119742 -147.820742 
L 398.493224 -149.059757 
L 398.848625 -150.298772 
L 399.177355 -151.537788 
L 399.472068 -152.776803 
L 399.727219 -154.015818 
L 399.93949 -155.254834 
L 400.108039 -156.493849 
L 400.234574 -157.732864 
L 400.32323 -158.971879 
L 400.380291 -160.210895 
L 400.413751 -161.44991 
L 400.432782 -162.688925 
L 400.447117 -163.927941 
L 400.466423 -165.166956 
L 400.499693 -166.405971 
L 400.554697 -167.644987 
L 400.637535 -168.884002 
L 400.752313 -170.123017 
L 400.900965 -171.362033 
L 401.083213 -172.601048 
L 401.296681 -173.840063 
L 401.537132 -175.079079 
L 401.798818 -176.318094 
L 402.074902 -177.557109 
L 402.357941 -178.796125 
L 402.64037 -180.03514 
L 402.91498 -181.274155 
L 403.175336 -182.51317 
L 403.416134 -183.752186 
L 403.633459 -184.991201 
L 403.824938 -186.230216 
L 403.989789 -187.469232 
L 404.128765 -188.708247 
L 404.243998 -189.947262 
L 404.338774 -191.186278 
L 404.417237 -192.425293 
L 404.484067 -193.664308 
L 404.544141 -194.903324 
L 404.60221 -196.142339 
L 404.662607 -197.381354 
L 404.729004 -198.62037 
L 407.072109 -198.62037 
L 407.072109 -198.62037 
L 407.072109 -197.381354 
L 407.072109 -196.142339 
L 407.072109 -194.903324 
L 407.072109 -193.664308 
L 407.072109 -192.425293 
L 407.072109 -191.186278 
L 407.072109 -189.947262 
L 407.072109 -188.708247 
L 407.072109 -187.469232 
L 407.072109 -186.230216 
L 407.072109 -184.991201 
L 407.072109 -183.752186 
L 407.072109 -182.51317 
L 407.072109 -181.274155 
L 407.072109 -180.03514 
L 407.072109 -178.796125 
L 407.072109 -177.557109 
L 407.072109 -176.318094 
L 407.072109 -175.079079 
L 407.072109 -173.840063 
L 407.072109 -172.601048 
L 407.072109 -171.362033 
L 407.072109 -170.123017 
L 407.072109 -168.884002 
L 407.072109 -167.644987 
L 407.072109 -166.405971 
L 407.072109 -165.166956 
L 407.072109 -163.927941 
L 407.072109 -162.688925 
L 407.072109 -161.44991 
L 407.072109 -160.210895 
L 407.072109 -158.971879 
L 407.072109 -157.732864 
L 407.072109 -156.493849 
L 407.072109 -155.254834 
L 407.072109 -154.015818 
L 407.072109 -152.776803 
L 407.072109 -151.537788 
L 407.072109 -150.298772 
L 407.072109 -149.059757 
L 407.072109 -147.820742 
L 407.072109 -146.581726 
L 407.072109 -145.342711 
L 407.072109 -144.103696 
L 407.072109 -142.86468 
L 407.072109 -141.625665 
L 407.072109 -140.38665 
L 407.072109 -139.147634 
L 407.072109 -137.908619 
L 407.072109 -136.669604 
L 407.072109 -135.430588 
L 407.072109 -134.191573 
L 407.072109 -132.952558 
L 407.072109 -131.713543 
L 407.072109 -130.474527 
L 407.072109 -129.235512 
L 407.072109 -127.996497 
L 407.072109 -126.757481 
L 407.072109 -125.518466 
L 407.072109 -124.279451 
L 407.072109 -123.040435 
L 407.072109 -121.80142 
L 407.072109 -120.562405 
L 407.072109 -119.323389 
L 407.072109 -118.084374 
L 407.072109 -116.845359 
L 407.072109 -115.606343 
L 407.072109 -114.367328 
L 407.072109 -113.128313 
L 407.072109 -111.889297 
L 407.072109 -110.650282 
L 407.072109 -109.411267 
L 407.072109 -108.172252 
L 407.072109 -106.933236 
L 407.072109 -105.694221 
L 407.072109 -104.455206 
L 407.072109 -103.21619 
L 407.072109 -101.977175 
L 407.072109 -100.73816 
L 407.072109 -99.499144 
L 407.072109 -98.260129 
L 407.072109 -97.021114 
L 407.072109 -95.782098 
L 407.072109 -94.543083 
L 407.072109 -93.304068 
L 407.072109 -92.065052 
L 407.072109 -90.826037 
L 407.072109 -89.587022 
L 407.072109 -88.348006 
L 407.072109 -87.108991 
L 407.072109 -85.869976 
L 407.072109 -84.630961 
L 407.072109 -83.391945 
L 407.072109 -82.15293 
L 407.072109 -80.913915 
L 407.072109 -79.674899 
L 407.072109 -78.435884 
L 407.072109 -77.196869 
L 407.072109 -75.957853 
z
" style="stroke: #484848; stroke-width: 1.5"/>
    </defs>
    <g clip-path="url(#p65f4b37828)">
     <use xlink:href="#m02b72d19ac" x="0" y="534.240703" style="fill: #e41a1c; stroke: #484848; stroke-width: 1.5"/>
    </g>
   </g>
   <g id="PolyCollection_4">
    <defs>
     <path id="ma3d7cb835e" d="M 447.866531 -75.841641 
L 407.072109 -75.841641 
L 407.072109 -79.914368 
L 407.072109 -83.987095 
L 407.072109 -88.059822 
L 407.072109 -92.13255 
L 407.072109 -96.205277 
L 407.072109 -100.278004 
L 407.072109 -104.350732 
L 407.072109 -108.423459 
L 407.072109 -112.496186 
L 407.072109 -116.568913 
L 407.072109 -120.641641 
L 407.072109 -124.714368 
L 407.072109 -128.787095 
L 407.072109 -132.859822 
L 407.072109 -136.93255 
L 407.072109 -141.005277 
L 407.072109 -145.078004 
L 407.072109 -149.150732 
L 407.072109 -153.223459 
L 407.072109 -157.296186 
L 407.072109 -161.368913 
L 407.072109 -165.441641 
L 407.072109 -169.514368 
L 407.072109 -173.587095 
L 407.072109 -177.659822 
L 407.072109 -181.73255 
L 407.072109 -185.805277 
L 407.072109 -189.878004 
L 407.072109 -193.950732 
L 407.072109 -198.023459 
L 407.072109 -202.096186 
L 407.072109 -206.168913 
L 407.072109 -210.241641 
L 407.072109 -214.314368 
L 407.072109 -218.387095 
L 407.072109 -222.459822 
L 407.072109 -226.53255 
L 407.072109 -230.605277 
L 407.072109 -234.678004 
L 407.072109 -238.750732 
L 407.072109 -242.823459 
L 407.072109 -246.896186 
L 407.072109 -250.968913 
L 407.072109 -255.041641 
L 407.072109 -259.114368 
L 407.072109 -263.187095 
L 407.072109 -267.259822 
L 407.072109 -271.33255 
L 407.072109 -275.405277 
L 407.072109 -279.478004 
L 407.072109 -283.550732 
L 407.072109 -287.623459 
L 407.072109 -291.696186 
L 407.072109 -295.768913 
L 407.072109 -299.841641 
L 407.072109 -303.914368 
L 407.072109 -307.987095 
L 407.072109 -312.059822 
L 407.072109 -316.13255 
L 407.072109 -320.205277 
L 407.072109 -324.278004 
L 407.072109 -328.350732 
L 407.072109 -332.423459 
L 407.072109 -336.496186 
L 407.072109 -340.568913 
L 407.072109 -344.641641 
L 407.072109 -348.714368 
L 407.072109 -352.787095 
L 407.072109 -356.859822 
L 407.072109 -360.93255 
L 407.072109 -365.005277 
L 407.072109 -369.078004 
L 407.072109 -373.150732 
L 407.072109 -377.223459 
L 407.072109 -381.296186 
L 407.072109 -385.368913 
L 407.072109 -389.441641 
L 407.072109 -393.514368 
L 407.072109 -397.587095 
L 407.072109 -401.659822 
L 407.072109 -405.73255 
L 407.072109 -409.805277 
L 407.072109 -413.878004 
L 407.072109 -417.950732 
L 407.072109 -422.023459 
L 407.072109 -426.096186 
L 407.072109 -430.168913 
L 407.072109 -434.241641 
L 407.072109 -438.314368 
L 407.072109 -442.387095 
L 407.072109 -446.459822 
L 407.072109 -450.53255 
L 407.072109 -454.605277 
L 407.072109 -458.678004 
L 407.072109 -462.750732 
L 407.072109 -466.823459 
L 407.072109 -470.896186 
L 407.072109 -474.968913 
L 407.072109 -479.041641 
L 407.232652 -479.041641 
L 407.232652 -479.041641 
L 407.210376 -474.968913 
L 407.160439 -470.896186 
L 407.113965 -466.823459 
L 407.086821 -462.750732 
L 407.075945 -458.678004 
L 407.072851 -454.605277 
L 407.072216 -450.53255 
L 407.072121 -446.459822 
L 407.07211 -442.387095 
L 407.072109 -438.314368 
L 407.072109 -434.241641 
L 407.072109 -430.168913 
L 407.072109 -426.096186 
L 407.072109 -422.023459 
L 407.072109 -417.950732 
L 407.072109 -413.878004 
L 407.072109 -409.805277 
L 407.072109 -405.73255 
L 407.072109 -401.659822 
L 407.072109 -397.587095 
L 407.072109 -393.514368 
L 407.072109 -389.441641 
L 407.072109 -385.368913 
L 407.072109 -381.296186 
L 407.072109 -377.223459 
L 407.072109 -373.150732 
L 407.072109 -369.078004 
L 407.072109 -365.005277 
L 407.072109 -360.93255 
L 407.072109 -356.859822 
L 407.072109 -352.787095 
L 407.072109 -348.714368 
L 407.07211 -344.641641 
L 407.072113 -340.568913 
L 407.072145 -336.496186 
L 407.072402 -332.423459 
L 407.073879 -328.350732 
L 407.080092 -324.278004 
L 407.099117 -320.205277 
L 407.141247 -316.13255 
L 407.208017 -312.059822 
L 407.281735 -307.987095 
L 407.332251 -303.914368 
L 407.336825 -299.841641 
L 407.29339 -295.768913 
L 407.221574 -291.696186 
L 407.15178 -287.623459 
L 407.105547 -283.550732 
L 407.08638 -279.478004 
L 407.090065 -275.405277 
L 407.116227 -271.33255 
L 407.163065 -267.259822 
L 407.212358 -263.187095 
L 407.232618 -259.114368 
L 407.208543 -255.041641 
L 407.159318 -250.968913 
L 407.119532 -246.896186 
L 407.114099 -242.823459 
L 407.155679 -238.750732 
L 407.24261 -234.678004 
L 407.34112 -230.605277 
L 407.389832 -226.53255 
L 407.352181 -222.459822 
L 407.256318 -218.387095 
L 407.162549 -214.314368 
L 407.105622 -210.241641 
L 407.083606 -206.168913 
L 407.084477 -202.096186 
L 407.10627 -198.023459 
L 407.155654 -193.950732 
L 407.234662 -189.878004 
L 407.335218 -185.805277 
L 407.45101 -181.73255 
L 407.582519 -177.659822 
L 407.716323 -173.587095 
L 407.816517 -169.514368 
L 407.862375 -165.441641 
L 407.89126 -161.368913 
L 407.99881 -157.296186 
L 408.305957 -153.223459 
L 408.899263 -149.150732 
L 409.75493 -145.078004 
L 410.724557 -141.005277 
L 411.616179 -136.93255 
L 412.295564 -132.859822 
L 412.779366 -128.787095 
L 413.322025 -124.714368 
L 414.385534 -120.641641 
L 416.414041 -116.568913 
L 419.568059 -112.496186 
L 423.72639 -108.423459 
L 428.891005 -104.350732 
L 435.601523 -100.278004 
L 444.622532 -96.205277 
L 455.620518 -92.13255 
L 465.654648 -88.059822 
L 469.462849 -83.987095 
L 463.022645 -79.914368 
L 447.866531 -75.841641 
z
" style="stroke: #484848; stroke-width: 1.5"/>
    </defs>
    <g clip-path="url(#p65f4b37828)">
     <use xlink:href="#ma3d7cb835e" x="0" y="534.240703" style="fill: #377eb8; stroke: #484848; stroke-width: 1.5"/>
    </g>
   </g>
   <g id="PolyCollection_5">
    <defs>
     <path id="me5e22a9fff" d="M 630.272109 -78.630746 
L 598.973247 -78.630746 
L 597.085537 -80.398294 
L 595.280013 -82.165842 
L 593.573065 -83.933391 
L 591.978474 -85.700939 
L 590.507113 -87.468488 
L 589.166802 -89.236036 
L 587.962323 -91.003584 
L 586.895588 -92.771133 
L 585.965953 -94.538681 
L 585.170636 -96.306229 
L 584.505236 -98.073778 
L 583.964283 -99.841326 
L 583.5418 -101.608875 
L 583.231834 -103.376423 
L 583.028908 -105.143971 
L 582.928377 -106.91152 
L 582.926655 -108.679068 
L 583.021308 -110.446616 
L 583.211011 -112.214165 
L 583.495376 -113.981713 
L 583.87467 -115.749262 
L 584.349458 -117.51681 
L 584.920195 -119.284358 
L 585.586806 -121.051907 
L 586.348292 -122.819455 
L 587.202394 -124.587003 
L 588.145338 -126.354552 
L 589.17169 -128.1221 
L 590.27432 -129.889649 
L 591.44449 -131.657197 
L 592.672053 -133.424745 
L 593.945747 -135.192294 
L 595.253563 -136.959842 
L 596.583171 -138.72739 
L 597.922358 -140.494939 
L 599.259465 -142.262487 
L 600.583785 -144.030036 
L 601.885913 -145.797584 
L 603.158003 -147.565132 
L 604.39395 -149.332681 
L 605.58947 -151.100229 
L 606.742082 -152.867777 
L 607.851003 -154.635326 
L 608.916956 -156.402874 
L 609.941924 -158.170423 
L 610.928841 -159.937971 
L 611.881272 -161.705519 
L 612.803068 -163.473068 
L 613.698044 -165.240616 
L 614.569682 -167.008164 
L 615.420874 -168.775713 
L 616.253724 -170.543261 
L 617.069413 -172.31081 
L 617.868127 -174.078358 
L 618.649057 -175.845906 
L 619.410461 -177.613455 
L 620.149781 -179.381003 
L 620.863811 -181.148551 
L 621.548897 -182.9161 
L 622.201164 -184.683648 
L 622.816748 -186.451197 
L 623.392024 -188.218745 
L 623.923822 -189.986293 
L 624.409607 -191.753842 
L 624.847625 -193.52139 
L 625.237007 -195.288939 
L 625.577822 -197.056487 
L 625.871082 -198.824035 
L 626.118698 -200.591584 
L 626.323396 -202.359132 
L 626.488591 -204.12668 
L 626.618239 -205.894229 
L 626.716664 -207.661777 
L 626.788384 -209.429326 
L 626.837926 -211.196874 
L 626.86967 -212.964422 
L 626.8877 -214.731971 
L 626.895687 -216.499519 
L 626.896809 -218.267067 
L 626.893702 -220.034616 
L 626.888448 -221.802164 
L 626.882605 -223.569713 
L 626.877256 -225.337261 
L 626.873094 -227.104809 
L 626.870516 -228.872358 
L 626.869733 -230.639906 
L 626.870872 -232.407454 
L 626.874079 -234.175003 
L 626.8796 -235.942551 
L 626.887841 -237.7101 
L 626.899407 -239.477648 
L 626.915112 -241.245196 
L 626.935956 -243.012745 
L 626.963086 -244.780293 
L 626.997732 -246.547841 
L 627.04113 -248.31539 
L 627.094438 -250.082938 
L 627.158646 -251.850487 
L 627.234502 -253.618035 
L 630.272109 -253.618035 
L 630.272109 -253.618035 
L 630.272109 -251.850487 
L 630.272109 -250.082938 
L 630.272109 -248.31539 
L 630.272109 -246.547841 
L 630.272109 -244.780293 
L 630.272109 -243.012745 
L 630.272109 -241.245196 
L 630.272109 -239.477648 
L 630.272109 -237.7101 
L 630.272109 -235.942551 
L 630.272109 -234.175003 
L 630.272109 -232.407454 
L 630.272109 -230.639906 
L 630.272109 -228.872358 
L 630.272109 -227.104809 
L 630.272109 -225.337261 
L 630.272109 -223.569713 
L 630.272109 -221.802164 
L 630.272109 -220.034616 
L 630.272109 -218.267067 
L 630.272109 -216.499519 
L 630.272109 -214.731971 
L 630.272109 -212.964422 
L 630.272109 -211.196874 
L 630.272109 -209.429326 
L 630.272109 -207.661777 
L 630.272109 -205.894229 
L 630.272109 -204.12668 
L 630.272109 -202.359132 
L 630.272109 -200.591584 
L 630.272109 -198.824035 
L 630.272109 -197.056487 
L 630.272109 -195.288939 
L 630.272109 -193.52139 
L 630.272109 -191.753842 
L 630.272109 -189.986293 
L 630.272109 -188.218745 
L 630.272109 -186.451197 
L 630.272109 -184.683648 
L 630.272109 -182.9161 
L 630.272109 -181.148551 
L 630.272109 -179.381003 
L 630.272109 -177.613455 
L 630.272109 -175.845906 
L 630.272109 -174.078358 
L 630.272109 -172.31081 
L 630.272109 -170.543261 
L 630.272109 -168.775713 
L 630.272109 -167.008164 
L 630.272109 -165.240616 
L 630.272109 -163.473068 
L 630.272109 -161.705519 
L 630.272109 -159.937971 
L 630.272109 -158.170423 
L 630.272109 -156.402874 
L 630.272109 -154.635326 
L 630.272109 -152.867777 
L 630.272109 -151.100229 
L 630.272109 -149.332681 
L 630.272109 -147.565132 
L 630.272109 -145.797584 
L 630.272109 -144.030036 
L 630.272109 -142.262487 
L 630.272109 -140.494939 
L 630.272109 -138.72739 
L 630.272109 -136.959842 
L 630.272109 -135.192294 
L 630.272109 -133.424745 
L 630.272109 -131.657197 
L 630.272109 -129.889649 
L 630.272109 -128.1221 
L 630.272109 -126.354552 
L 630.272109 -124.587003 
L 630.272109 -122.819455 
L 630.272109 -121.051907 
L 630.272109 -119.284358 
L 630.272109 -117.51681 
L 630.272109 -115.749262 
L 630.272109 -113.981713 
L 630.272109 -112.214165 
L 630.272109 -110.446616 
L 630.272109 -108.679068 
L 630.272109 -106.91152 
L 630.272109 -105.143971 
L 630.272109 -103.376423 
L 630.272109 -101.608875 
L 630.272109 -99.841326 
L 630.272109 -98.073778 
L 630.272109 -96.306229 
L 630.272109 -94.538681 
L 630.272109 -92.771133 
L 630.272109 -91.003584 
L 630.272109 -89.236036 
L 630.272109 -87.468488 
L 630.272109 -85.700939 
L 630.272109 -83.933391 
L 630.272109 -82.165842 
L 630.272109 -80.398294 
L 630.272109 -78.630746 
z
" style="stroke: #484848; stroke-width: 1.5"/>
    </defs>
    <g clip-path="url(#p65f4b37828)">
     <use xlink:href="#me5e22a9fff" x="0" y="534.240703" style="fill: #e41a1c; stroke: #484848; stroke-width: 1.5"/>
    </g>
   </g>
   <g id="PolyCollection_6">
    <defs>
     <path id="mc0e5fc519a" d="M 635.311346 -77.090927 
L 630.272109 -77.090927 
L 630.272109 -79.311588 
L 630.272109 -81.532248 
L 630.272109 -83.752909 
L 630.272109 -85.97357 
L 630.272109 -88.19423 
L 630.272109 -90.414891 
L 630.272109 -92.635551 
L 630.272109 -94.856212 
L 630.272109 -97.076872 
L 630.272109 -99.297533 
L 630.272109 -101.518193 
L 630.272109 -103.738854 
L 630.272109 -105.959515 
L 630.272109 -108.180175 
L 630.272109 -110.400836 
L 630.272109 -112.621496 
L 630.272109 -114.842157 
L 630.272109 -117.062817 
L 630.272109 -119.283478 
L 630.272109 -121.504138 
L 630.272109 -123.724799 
L 630.272109 -125.94546 
L 630.272109 -128.16612 
L 630.272109 -130.386781 
L 630.272109 -132.607441 
L 630.272109 -134.828102 
L 630.272109 -137.048762 
L 630.272109 -139.269423 
L 630.272109 -141.490084 
L 630.272109 -143.710744 
L 630.272109 -145.931405 
L 630.272109 -148.152065 
L 630.272109 -150.372726 
L 630.272109 -152.593386 
L 630.272109 -154.814047 
L 630.272109 -157.034707 
L 630.272109 -159.255368 
L 630.272109 -161.476029 
L 630.272109 -163.696689 
L 630.272109 -165.91735 
L 630.272109 -168.13801 
L 630.272109 -170.358671 
L 630.272109 -172.579331 
L 630.272109 -174.799992 
L 630.272109 -177.020653 
L 630.272109 -179.241313 
L 630.272109 -181.461974 
L 630.272109 -183.682634 
L 630.272109 -185.903295 
L 630.272109 -188.123955 
L 630.272109 -190.344616 
L 630.272109 -192.565276 
L 630.272109 -194.785937 
L 630.272109 -197.006598 
L 630.272109 -199.227258 
L 630.272109 -201.447919 
L 630.272109 -203.668579 
L 630.272109 -205.88924 
L 630.272109 -208.1099 
L 630.272109 -210.330561 
L 630.272109 -212.551222 
L 630.272109 -214.771882 
L 630.272109 -216.992543 
L 630.272109 -219.213203 
L 630.272109 -221.433864 
L 630.272109 -223.654524 
L 630.272109 -225.875185 
L 630.272109 -228.095845 
L 630.272109 -230.316506 
L 630.272109 -232.537167 
L 630.272109 -234.757827 
L 630.272109 -236.978488 
L 630.272109 -239.199148 
L 630.272109 -241.419809 
L 630.272109 -243.640469 
L 630.272109 -245.86113 
L 630.272109 -248.081791 
L 630.272109 -250.302451 
L 630.272109 -252.523112 
L 630.272109 -254.743772 
L 630.272109 -256.964433 
L 630.272109 -259.185093 
L 630.272109 -261.405754 
L 630.272109 -263.626414 
L 630.272109 -265.847075 
L 630.272109 -268.067736 
L 630.272109 -270.288396 
L 630.272109 -272.509057 
L 630.272109 -274.729717 
L 630.272109 -276.950378 
L 630.272109 -279.171038 
L 630.272109 -281.391699 
L 630.272109 -283.612359 
L 630.272109 -285.83302 
L 630.272109 -288.053681 
L 630.272109 -290.274341 
L 630.272109 -292.495002 
L 630.272109 -294.715662 
L 630.272109 -296.936323 
L 630.642907 -296.936323 
L 630.642907 -296.936323 
L 630.667358 -294.715662 
L 630.690946 -292.495002 
L 630.713476 -290.274341 
L 630.734787 -288.053681 
L 630.754759 -285.83302 
L 630.773326 -283.612359 
L 630.790486 -281.391699 
L 630.80631 -279.171038 
L 630.820952 -276.950378 
L 630.834658 -274.729717 
L 630.847771 -272.509057 
L 630.86073 -270.288396 
L 630.874065 -268.067736 
L 630.888386 -265.847075 
L 630.904365 -263.626414 
L 630.922715 -261.405754 
L 630.944157 -259.185093 
L 630.969392 -256.964433 
L 630.999068 -254.743772 
L 631.033744 -252.523112 
L 631.073863 -250.302451 
L 631.119723 -248.081791 
L 631.171454 -245.86113 
L 631.229007 -243.640469 
L 631.292145 -241.419809 
L 631.360438 -239.199148 
L 631.433278 -236.978488 
L 631.509882 -234.757827 
L 631.589317 -232.537167 
L 631.670528 -230.316506 
L 631.75236 -228.095845 
L 631.833603 -225.875185 
L 631.91303 -223.654524 
L 631.989442 -221.433864 
L 632.061717 -219.213203 
L 632.128863 -216.992543 
L 632.190071 -214.771882 
L 632.244762 -212.551222 
L 632.292634 -210.330561 
L 632.333704 -208.1099 
L 632.368329 -205.88924 
L 632.39723 -203.668579 
L 632.421481 -201.447919 
L 632.4425 -199.227258 
L 632.46201 -197.006598 
L 632.481987 -194.785937 
L 632.504598 -192.565276 
L 632.532118 -190.344616 
L 632.566853 -188.123955 
L 632.611048 -185.903295 
L 632.666805 -183.682634 
L 632.736001 -181.461974 
L 632.820225 -179.241313 
L 632.920718 -177.020653 
L 633.038333 -174.799992 
L 633.173514 -172.579331 
L 633.326284 -170.358671 
L 633.496254 -168.13801 
L 633.682638 -165.91735 
L 633.884286 -163.696689 
L 634.099724 -161.476029 
L 634.327198 -159.255368 
L 634.564728 -157.034707 
L 634.810166 -154.814047 
L 635.061251 -152.593386 
L 635.315671 -150.372726 
L 635.571122 -148.152065 
L 635.825361 -145.931405 
L 636.076262 -143.710744 
L 636.321857 -141.490084 
L 636.560368 -139.269423 
L 636.790228 -137.048762 
L 637.010087 -134.828102 
L 637.218795 -132.607441 
L 637.415376 -130.386781 
L 637.598976 -128.16612 
L 637.768803 -125.94546 
L 637.924055 -123.724799 
L 638.06384 -121.504138 
L 638.187106 -119.283478 
L 638.292578 -117.062817 
L 638.378714 -114.842157 
L 638.443688 -112.621496 
L 638.485407 -110.400836 
L 638.501563 -108.180175 
L 638.489719 -105.959515 
L 638.447434 -103.738854 
L 638.372406 -101.518193 
L 638.262639 -99.297533 
L 638.116617 -97.076872 
L 637.93346 -94.856212 
L 637.713071 -92.635551 
L 637.45624 -90.414891 
L 637.16471 -88.19423 
L 636.841188 -85.97357 
L 636.489305 -83.752909 
L 636.113522 -81.532248 
L 635.718985 -79.311588 
L 635.311346 -77.090927 
z
" style="stroke: #484848; stroke-width: 1.5"/>
    </defs>
    <g clip-path="url(#p65f4b37828)">
     <use xlink:href="#mc0e5fc519a" x="0" y="534.240703" style="fill: #377eb8; stroke: #484848; stroke-width: 1.5"/>
    </g>
   </g>
   <g id="patch_3">
    <path d="M 183.872109 458.573382 
L 183.872109 458.573382 
L 183.872109 458.573382 
L 183.872109 458.573382 
z
" clip-path="url(#p65f4b37828)" style="fill: #e41a1c; stroke: #484848; stroke-width: 1.5; stroke-linejoin: miter"/>
   </g>
   <g id="patch_4">
    <path d="M 183.872109 458.573382 
L 183.872109 458.573382 
L 183.872109 458.573382 
L 183.872109 458.573382 
z
" clip-path="url(#p65f4b37828)" style="fill: #377eb8; stroke: #484848; stroke-width: 1.5; stroke-linejoin: miter"/>
   </g>
   <g id="line2d_10">
    <path d="M 130.155162 453.111384 
L 183.872109 453.111384 
" clip-path="url(#p65f4b37828)" style="fill: none; stroke-dasharray: 1.875,1.125; stroke-dashoffset: 0; stroke: #484848; stroke-width: 1.5"/>
   </g>
   <g id="line2d_11">
    <path d="M 128.459201 450.525651 
L 183.872109 450.525651 
" clip-path="url(#p65f4b37828)" style="fill: none; stroke-dasharray: 3.75,1.5; stroke-dashoffset: 0; stroke: #484848; stroke-width: 1.5"/>
   </g>
   <g id="line2d_12">
    <path d="M 144.642365 440.589465 
L 183.872109 440.589465 
" clip-path="url(#p65f4b37828)" style="fill: none; stroke-dasharray: 1.875,1.125; stroke-dashoffset: 0; stroke: #484848; stroke-width: 1.5"/>
   </g>
   <g id="line2d_13">
    <path d="M 183.872109 453.169491 
L 266.974845 453.169491 
" clip-path="url(#p65f4b37828)" style="fill: none; stroke-dasharray: 1.875,1.125; stroke-dashoffset: 0; stroke: #484848; stroke-width: 1.5"/>
   </g>
   <g id="line2d_14">
    <path d="M 183.872109 449.59595 
L 267.474417 449.59595 
" clip-path="url(#p65f4b37828)" style="fill: none; stroke-dasharray: 3.75,1.5; stroke-dashoffset: 0; stroke: #484848; stroke-width: 1.5"/>
   </g>
   <g id="line2d_15">
    <path d="M 183.872109 442.855612 
L 231.901068 442.855612 
" clip-path="url(#p65f4b37828)" style="fill: none; stroke-dasharray: 1.875,1.125; stroke-dashoffset: 0; stroke: #484848; stroke-width: 1.5"/>
   </g>
   <g id="line2d_16">
    <path d="M 320.176442 452.646533 
L 407.072109 452.646533 
" clip-path="url(#p65f4b37828)" style="fill: none; stroke-dasharray: 1.875,1.125; stroke-dashoffset: 0; stroke: #484848; stroke-width: 1.5"/>
   </g>
   <g id="line2d_17">
    <path d="M 319.125674 447.097376 
L 407.072109 447.097376 
" clip-path="url(#p65f4b37828)" style="fill: none; stroke-dasharray: 3.75,1.5; stroke-dashoffset: 0; stroke: #484848; stroke-width: 1.5"/>
   </g>
   <g id="line2d_18">
    <path d="M 362.888398 430.609698 
L 407.072109 430.609698 
" clip-path="url(#p65f4b37828)" style="fill: none; stroke-dasharray: 1.875,1.125; stroke-dashoffset: 0; stroke: #484848; stroke-width: 1.5"/>
   </g>
   <g id="line2d_19">
    <path d="M 407.072109 452.770009 
L 465.483663 452.770009 
" clip-path="url(#p65f4b37828)" style="fill: none; stroke-dasharray: 1.875,1.125; stroke-dashoffset: 0; stroke: #484848; stroke-width: 1.5"/>
   </g>
   <g id="line2d_20">
    <path d="M 407.072109 447.184536 
L 466.593115 447.184536 
" clip-path="url(#p65f4b37828)" style="fill: none; stroke-dasharray: 3.75,1.5; stroke-dashoffset: 0; stroke: #484848; stroke-width: 1.5"/>
   </g>
   <g id="line2d_21">
    <path d="M 407.072109 435.374419 
L 438.728455 435.374419 
" clip-path="url(#p65f4b37828)" style="fill: none; stroke-dasharray: 1.875,1.125; stroke-dashoffset: 0; stroke: #484848; stroke-width: 1.5"/>
   </g>
   <g id="line2d_22">
    <path d="M 586.80707 441.301267 
L 630.272109 441.301267 
" clip-path="url(#p65f4b37828)" style="fill: none; stroke-dasharray: 1.875,1.125; stroke-dashoffset: 0; stroke: #484848; stroke-width: 1.5"/>
   </g>
   <g id="line2d_23">
    <path d="M 583.708796 419.264432 
L 630.272109 419.264432 
" clip-path="url(#p65f4b37828)" style="fill: none; stroke-dasharray: 3.75,1.5; stroke-dashoffset: 0; stroke: #484848; stroke-width: 1.5"/>
   </g>
   <g id="line2d_24">
    <path d="M 591.875248 401.963265 
L 630.272109 401.963265 
" clip-path="url(#p65f4b37828)" style="fill: none; stroke-dasharray: 1.875,1.125; stroke-dashoffset: 0; stroke: #484848; stroke-width: 1.5"/>
   </g>
   <g id="line2d_25">
    <path d="M 630.272109 437.415405 
L 638.095868 437.415405 
" clip-path="url(#p65f4b37828)" style="fill: none; stroke-dasharray: 1.875,1.125; stroke-dashoffset: 0; stroke: #484848; stroke-width: 1.5"/>
   </g>
   <g id="line2d_26">
    <path d="M 630.272109 412.378829 
L 638.041321 412.378829 
" clip-path="url(#p65f4b37828)" style="fill: none; stroke-dasharray: 3.75,1.5; stroke-dashoffset: 0; stroke: #484848; stroke-width: 1.5"/>
   </g>
   <g id="line2d_27">
    <path d="M 630.272109 382.686481 
L 635.180308 382.686481 
" clip-path="url(#p65f4b37828)" style="fill: none; stroke-dasharray: 1.875,1.125; stroke-dashoffset: 0; stroke: #484848; stroke-width: 1.5"/>
   </g>
   <g id="patch_5">
    <path d="M 72.272109 478.559062 
L 72.272109 35.039062 
" style="fill: none; stroke: #cccccc; stroke-width: 1.875; stroke-linejoin: miter; stroke-linecap: square"/>
   </g>
   <g id="patch_6">
    <path d="M 741.872109 478.559062 
L 741.872109 35.039062 
" style="fill: none; stroke: #cccccc; stroke-width: 1.875; stroke-linejoin: miter; stroke-linecap: square"/>
   </g>
   <g id="patch_7">
    <path d="M 72.272109 478.559062 
L 741.872109 478.559062 
" style="fill: none; stroke: #cccccc; stroke-width: 1.875; stroke-linejoin: miter; stroke-linecap: square"/>
   </g>
   <g id="patch_8">
    <path d="M 72.272109 35.039062 
L 741.872109 35.039062 
" style="fill: none; stroke: #cccccc; stroke-width: 1.875; stroke-linejoin: miter; stroke-linecap: square"/>
   </g>
   <g id="text_15">
    <!-- Frecuencia de Duración por Segmento y Status -->
    <g style="fill: #262626" transform="translate(69.513516 29.039062) scale(0.3 -0.3)">
     <defs>
      <path id="Arial-BoldMT-46" d="M 472 0 
L 472 4581 
L 3613 4581 
L 3613 3806 
L 1397 3806 
L 1397 2722 
L 3309 2722 
L 3309 1947 
L 1397 1947 
L 1397 0 
L 472 0 
z
" transform="scale(0.015625)"/>
      <path id="Arial-BoldMT-72" d="M 1300 0 
L 422 0 
L 422 3319 
L 1238 3319 
L 1238 2847 
Q 1447 3181 1614 3287 
Q 1781 3394 1994 3394 
Q 2294 3394 2572 3228 
L 2300 2463 
Q 2078 2606 1888 2606 
Q 1703 2606 1575 2504 
Q 1447 2403 1373 2137 
Q 1300 1872 1300 1025 
L 1300 0 
z
" transform="scale(0.015625)"/>
      <path id="Arial-BoldMT-65" d="M 2381 1056 
L 3256 909 
Q 3088 428 2723 176 
Q 2359 -75 1813 -75 
Q 947 -75 531 491 
Q 203 944 203 1634 
Q 203 2459 634 2926 
Q 1066 3394 1725 3394 
Q 2466 3394 2894 2905 
Q 3322 2416 3303 1406 
L 1103 1406 
Q 1113 1016 1316 798 
Q 1519 581 1822 581 
Q 2028 581 2168 693 
Q 2309 806 2381 1056 
z
M 2431 1944 
Q 2422 2325 2234 2523 
Q 2047 2722 1778 2722 
Q 1491 2722 1303 2513 
Q 1116 2303 1119 1944 
L 2431 1944 
z
" transform="scale(0.015625)"/>
      <path id="Arial-BoldMT-63" d="M 3353 2338 
L 2488 2181 
Q 2444 2441 2289 2572 
Q 2134 2703 1888 2703 
Q 1559 2703 1364 2476 
Q 1169 2250 1169 1719 
Q 1169 1128 1367 884 
Q 1566 641 1900 641 
Q 2150 641 2309 783 
Q 2469 925 2534 1272 
L 3397 1125 
Q 3263 531 2881 228 
Q 2500 -75 1859 -75 
Q 1131 -75 698 384 
Q 266 844 266 1656 
Q 266 2478 700 2936 
Q 1134 3394 1875 3394 
Q 2481 3394 2839 3133 
Q 3197 2872 3353 2338 
z
" transform="scale(0.015625)"/>
      <path id="Arial-BoldMT-75" d="M 2644 0 
L 2644 497 
Q 2463 231 2167 78 
Q 1872 -75 1544 -75 
Q 1209 -75 943 72 
Q 678 219 559 484 
Q 441 750 441 1219 
L 441 3319 
L 1319 3319 
L 1319 1794 
Q 1319 1094 1367 936 
Q 1416 778 1544 686 
Q 1672 594 1869 594 
Q 2094 594 2272 717 
Q 2450 841 2515 1023 
Q 2581 1206 2581 1919 
L 2581 3319 
L 3459 3319 
L 3459 0 
L 2644 0 
z
" transform="scale(0.015625)"/>
      <path id="Arial-BoldMT-6e" d="M 3478 0 
L 2600 0 
L 2600 1694 
Q 2600 2231 2544 2389 
Q 2488 2547 2361 2634 
Q 2234 2722 2056 2722 
Q 1828 2722 1647 2597 
Q 1466 2472 1398 2265 
Q 1331 2059 1331 1503 
L 1331 0 
L 453 0 
L 453 3319 
L 1269 3319 
L 1269 2831 
Q 1703 3394 2363 3394 
Q 2653 3394 2893 3289 
Q 3134 3184 3257 3021 
Q 3381 2859 3429 2653 
Q 3478 2447 3478 2063 
L 3478 0 
z
" transform="scale(0.015625)"/>
      <path id="Arial-BoldMT-69" d="M 459 3769 
L 459 4581 
L 1338 4581 
L 1338 3769 
L 459 3769 
z
M 459 0 
L 459 3319 
L 1338 3319 
L 1338 0 
L 459 0 
z
" transform="scale(0.015625)"/>
      <path id="Arial-BoldMT-61" d="M 1116 2306 
L 319 2450 
Q 453 2931 781 3162 
Q 1109 3394 1756 3394 
Q 2344 3394 2631 3255 
Q 2919 3116 3036 2902 
Q 3153 2688 3153 2116 
L 3144 1091 
Q 3144 653 3186 445 
Q 3228 238 3344 0 
L 2475 0 
Q 2441 88 2391 259 
Q 2369 338 2359 363 
Q 2134 144 1878 34 
Q 1622 -75 1331 -75 
Q 819 -75 523 203 
Q 228 481 228 906 
Q 228 1188 362 1408 
Q 497 1628 739 1745 
Q 981 1863 1438 1950 
Q 2053 2066 2291 2166 
L 2291 2253 
Q 2291 2506 2166 2614 
Q 2041 2722 1694 2722 
Q 1459 2722 1328 2630 
Q 1197 2538 1116 2306 
z
M 2291 1594 
Q 2122 1538 1756 1459 
Q 1391 1381 1278 1306 
Q 1106 1184 1106 997 
Q 1106 813 1243 678 
Q 1381 544 1594 544 
Q 1831 544 2047 700 
Q 2206 819 2256 991 
Q 2291 1103 2291 1419 
L 2291 1594 
z
" transform="scale(0.015625)"/>
      <path id="Arial-BoldMT-20" transform="scale(0.015625)"/>
      <path id="Arial-BoldMT-64" d="M 3503 0 
L 2688 0 
L 2688 488 
Q 2484 203 2207 64 
Q 1931 -75 1650 -75 
Q 1078 -75 670 386 
Q 263 847 263 1672 
Q 263 2516 659 2955 
Q 1056 3394 1663 3394 
Q 2219 3394 2625 2931 
L 2625 4581 
L 3503 4581 
L 3503 0 
z
M 1159 1731 
Q 1159 1200 1306 963 
Q 1519 619 1900 619 
Q 2203 619 2415 876 
Q 2628 1134 2628 1647 
Q 2628 2219 2422 2470 
Q 2216 2722 1894 2722 
Q 1581 2722 1370 2473 
Q 1159 2225 1159 1731 
z
" transform="scale(0.015625)"/>
      <path id="Arial-BoldMT-44" d="M 463 4581 
L 2153 4581 
Q 2725 4581 3025 4494 
Q 3428 4375 3715 4072 
Q 4003 3769 4153 3330 
Q 4303 2891 4303 2247 
Q 4303 1681 4163 1272 
Q 3991 772 3672 463 
Q 3431 228 3022 97 
Q 2716 0 2203 0 
L 463 0 
L 463 4581 
z
M 1388 3806 
L 1388 772 
L 2078 772 
Q 2466 772 2638 816 
Q 2863 872 3011 1006 
Q 3159 1141 3253 1448 
Q 3347 1756 3347 2288 
Q 3347 2819 3253 3103 
Q 3159 3388 2990 3547 
Q 2822 3706 2563 3763 
Q 2369 3806 1803 3806 
L 1388 3806 
z
" transform="scale(0.015625)"/>
      <path id="Arial-BoldMT-f3" d="M 256 1706 
Q 256 2144 472 2553 
Q 688 2963 1083 3178 
Q 1478 3394 1966 3394 
Q 2719 3394 3200 2905 
Q 3681 2416 3681 1669 
Q 3681 916 3195 420 
Q 2709 -75 1972 -75 
Q 1516 -75 1102 131 
Q 688 338 472 736 
Q 256 1134 256 1706 
z
M 1156 1659 
Q 1156 1166 1390 903 
Q 1625 641 1969 641 
Q 2313 641 2545 903 
Q 2778 1166 2778 1666 
Q 2778 2153 2545 2415 
Q 2313 2678 1969 2678 
Q 1625 2678 1390 2415 
Q 1156 2153 1156 1659 
z
M 1528 3725 
L 1960 4659 
L 2944 4659 
L 2085 3725 
L 1528 3725 
z
" transform="scale(0.015625)"/>
      <path id="Arial-BoldMT-70" d="M 434 3319 
L 1253 3319 
L 1253 2831 
Q 1413 3081 1684 3237 
Q 1956 3394 2288 3394 
Q 2866 3394 3269 2941 
Q 3672 2488 3672 1678 
Q 3672 847 3265 386 
Q 2859 -75 2281 -75 
Q 2006 -75 1782 34 
Q 1559 144 1313 409 
L 1313 -1263 
L 434 -1263 
L 434 3319 
z
M 1303 1716 
Q 1303 1156 1525 889 
Q 1747 622 2066 622 
Q 2372 622 2575 867 
Q 2778 1113 2778 1672 
Q 2778 2194 2568 2447 
Q 2359 2700 2050 2700 
Q 1728 2700 1515 2451 
Q 1303 2203 1303 1716 
z
" transform="scale(0.015625)"/>
      <path id="Arial-BoldMT-6f" d="M 256 1706 
Q 256 2144 472 2553 
Q 688 2963 1083 3178 
Q 1478 3394 1966 3394 
Q 2719 3394 3200 2905 
Q 3681 2416 3681 1669 
Q 3681 916 3195 420 
Q 2709 -75 1972 -75 
Q 1516 -75 1102 131 
Q 688 338 472 736 
Q 256 1134 256 1706 
z
M 1156 1659 
Q 1156 1166 1390 903 
Q 1625 641 1969 641 
Q 2313 641 2545 903 
Q 2778 1166 2778 1666 
Q 2778 2153 2545 2415 
Q 2313 2678 1969 2678 
Q 1625 2678 1390 2415 
Q 1156 2153 1156 1659 
z
" transform="scale(0.015625)"/>
      <path id="Arial-BoldMT-53" d="M 231 1491 
L 1131 1578 
Q 1213 1125 1461 912 
Q 1709 700 2131 700 
Q 2578 700 2804 889 
Q 3031 1078 3031 1331 
Q 3031 1494 2936 1608 
Q 2841 1722 2603 1806 
Q 2441 1863 1863 2006 
Q 1119 2191 819 2459 
Q 397 2838 397 3381 
Q 397 3731 595 4036 
Q 794 4341 1167 4500 
Q 1541 4659 2069 4659 
Q 2931 4659 3367 4281 
Q 3803 3903 3825 3272 
L 2900 3231 
Q 2841 3584 2645 3739 
Q 2450 3894 2059 3894 
Q 1656 3894 1428 3728 
Q 1281 3622 1281 3444 
Q 1281 3281 1419 3166 
Q 1594 3019 2269 2859 
Q 2944 2700 3267 2529 
Q 3591 2359 3773 2064 
Q 3956 1769 3956 1334 
Q 3956 941 3737 597 
Q 3519 253 3119 86 
Q 2719 -81 2122 -81 
Q 1253 -81 787 320 
Q 322 722 231 1491 
z
" transform="scale(0.015625)"/>
      <path id="Arial-BoldMT-67" d="M 378 -219 
L 1381 -341 
Q 1406 -516 1497 -581 
Q 1622 -675 1891 -675 
Q 2234 -675 2406 -572 
Q 2522 -503 2581 -350 
Q 2622 -241 2622 53 
L 2622 538 
Q 2228 0 1628 0 
Q 959 0 569 566 
Q 263 1013 263 1678 
Q 263 2513 664 2953 
Q 1066 3394 1663 3394 
Q 2278 3394 2678 2853 
L 2678 3319 
L 3500 3319 
L 3500 341 
Q 3500 -247 3403 -537 
Q 3306 -828 3131 -993 
Q 2956 -1159 2664 -1253 
Q 2372 -1347 1925 -1347 
Q 1081 -1347 728 -1058 
Q 375 -769 375 -325 
Q 375 -281 378 -219 
z
M 1163 1728 
Q 1163 1200 1367 954 
Q 1572 709 1872 709 
Q 2194 709 2416 961 
Q 2638 1213 2638 1706 
Q 2638 2222 2425 2472 
Q 2213 2722 1888 2722 
Q 1572 2722 1367 2476 
Q 1163 2231 1163 1728 
z
" transform="scale(0.015625)"/>
      <path id="Arial-BoldMT-6d" d="M 394 3319 
L 1203 3319 
L 1203 2866 
Q 1638 3394 2238 3394 
Q 2556 3394 2790 3262 
Q 3025 3131 3175 2866 
Q 3394 3131 3647 3262 
Q 3900 3394 4188 3394 
Q 4553 3394 4806 3245 
Q 5059 3097 5184 2809 
Q 5275 2597 5275 2122 
L 5275 0 
L 4397 0 
L 4397 1897 
Q 4397 2391 4306 2534 
Q 4184 2722 3931 2722 
Q 3747 2722 3584 2609 
Q 3422 2497 3350 2280 
Q 3278 2063 3278 1594 
L 3278 0 
L 2400 0 
L 2400 1819 
Q 2400 2303 2353 2443 
Q 2306 2584 2207 2653 
Q 2109 2722 1941 2722 
Q 1738 2722 1575 2612 
Q 1413 2503 1342 2297 
Q 1272 2091 1272 1613 
L 1272 0 
L 394 0 
L 394 3319 
z
" transform="scale(0.015625)"/>
      <path id="Arial-BoldMT-74" d="M 1981 3319 
L 1981 2619 
L 1381 2619 
L 1381 1281 
Q 1381 875 1398 808 
Q 1416 741 1477 697 
Q 1538 653 1625 653 
Q 1747 653 1978 738 
L 2053 56 
Q 1747 -75 1359 -75 
Q 1122 -75 931 4 
Q 741 84 652 211 
Q 563 338 528 553 
Q 500 706 500 1172 
L 500 2619 
L 97 2619 
L 97 3319 
L 500 3319 
L 500 3978 
L 1381 4491 
L 1381 3319 
L 1981 3319 
z
" transform="scale(0.015625)"/>
      <path id="Arial-BoldMT-79" d="M 44 3319 
L 978 3319 
L 1772 963 
L 2547 3319 
L 3456 3319 
L 2284 125 
L 2075 -453 
Q 1959 -744 1854 -897 
Q 1750 -1050 1614 -1145 
Q 1478 -1241 1279 -1294 
Q 1081 -1347 831 -1347 
Q 578 -1347 334 -1294 
L 256 -606 
Q 463 -647 628 -647 
Q 934 -647 1081 -467 
Q 1228 -288 1306 -9 
L 44 3319 
z
" transform="scale(0.015625)"/>
      <path id="Arial-BoldMT-73" d="M 150 947 
L 1031 1081 
Q 1088 825 1259 692 
Q 1431 559 1741 559 
Q 2081 559 2253 684 
Q 2369 772 2369 919 
Q 2369 1019 2306 1084 
Q 2241 1147 2013 1200 
Q 950 1434 666 1628 
Q 272 1897 272 2375 
Q 272 2806 612 3100 
Q 953 3394 1669 3394 
Q 2350 3394 2681 3172 
Q 3013 2950 3138 2516 
L 2309 2363 
Q 2256 2556 2107 2659 
Q 1959 2763 1684 2763 
Q 1338 2763 1188 2666 
Q 1088 2597 1088 2488 
Q 1088 2394 1175 2328 
Q 1294 2241 1995 2081 
Q 2697 1922 2975 1691 
Q 3250 1456 3250 1038 
Q 3250 581 2869 253 
Q 2488 -75 1741 -75 
Q 1063 -75 667 200 
Q 272 475 150 947 
z
" transform="scale(0.015625)"/>
     </defs>
     <use xlink:href="#Arial-BoldMT-46"/>
     <use xlink:href="#Arial-BoldMT-72" x="61.083984"/>
     <use xlink:href="#Arial-BoldMT-65" x="100"/>
     <use xlink:href="#Arial-BoldMT-63" x="155.615234"/>
     <use xlink:href="#Arial-BoldMT-75" x="211.230469"/>
     <use xlink:href="#Arial-BoldMT-65" x="272.314453"/>
     <use xlink:href="#Arial-BoldMT-6e" x="327.929688"/>
     <use xlink:href="#Arial-BoldMT-63" x="389.013672"/>
     <use xlink:href="#Arial-BoldMT-69" x="444.628906"/>
     <use xlink:href="#Arial-BoldMT-61" x="472.412109"/>
     <use xlink:href="#Arial-BoldMT-20" x="528.027344"/>
     <use xlink:href="#Arial-BoldMT-64" x="555.810547"/>
     <use xlink:href="#Arial-BoldMT-65" x="616.894531"/>
     <use xlink:href="#Arial-BoldMT-20" x="672.509766"/>
     <use xlink:href="#Arial-BoldMT-44" x="700.292969"/>
     <use xlink:href="#Arial-BoldMT-75" x="772.509766"/>
     <use xlink:href="#Arial-BoldMT-72" x="833.59375"/>
     <use xlink:href="#Arial-BoldMT-61" x="872.509766"/>
     <use xlink:href="#Arial-BoldMT-63" x="928.125"/>
     <use xlink:href="#Arial-BoldMT-69" x="983.740234"/>
     <use xlink:href="#Arial-BoldMT-f3" x="1011.523438"/>
     <use xlink:href="#Arial-BoldMT-6e" x="1072.607422"/>
     <use xlink:href="#Arial-BoldMT-20" x="1133.691406"/>
     <use xlink:href="#Arial-BoldMT-70" x="1161.474609"/>
     <use xlink:href="#Arial-BoldMT-6f" x="1222.558594"/>
     <use xlink:href="#Arial-BoldMT-72" x="1283.642578"/>
     <use xlink:href="#Arial-BoldMT-20" x="1322.558594"/>
     <use xlink:href="#Arial-BoldMT-53" x="1350.341797"/>
     <use xlink:href="#Arial-BoldMT-65" x="1417.041016"/>
     <use xlink:href="#Arial-BoldMT-67" x="1472.65625"/>
     <use xlink:href="#Arial-BoldMT-6d" x="1533.740234"/>
     <use xlink:href="#Arial-BoldMT-65" x="1622.65625"/>
     <use xlink:href="#Arial-BoldMT-6e" x="1678.271484"/>
     <use xlink:href="#Arial-BoldMT-74" x="1739.355469"/>
     <use xlink:href="#Arial-BoldMT-6f" x="1772.65625"/>
     <use xlink:href="#Arial-BoldMT-20" x="1833.740234"/>
     <use xlink:href="#Arial-BoldMT-79" x="1861.523438"/>
     <use xlink:href="#Arial-BoldMT-20" x="1917.138672"/>
     <use xlink:href="#Arial-BoldMT-53" x="1944.921875"/>
     <use xlink:href="#Arial-BoldMT-74" x="2011.621094"/>
     <use xlink:href="#Arial-BoldMT-61" x="2044.921875"/>
     <use xlink:href="#Arial-BoldMT-74" x="2100.537109"/>
     <use xlink:href="#Arial-BoldMT-75" x="2133.837891"/>
     <use xlink:href="#Arial-BoldMT-73" x="2194.921875"/>
    </g>
   </g>
   <g id="legend_1">
    <g id="patch_9">
     <path d="M 83.822109 94.918594 
L 201.755859 94.918594 
Q 205.055859 94.918594 205.055859 91.618594 
L 205.055859 46.589063 
Q 205.055859 43.289062 201.755859 43.289062 
L 83.822109 43.289062 
Q 80.522109 43.289062 80.522109 46.589063 
L 80.522109 91.618594 
Q 80.522109 94.918594 83.822109 94.918594 
z
" style="fill: #ffffff; opacity: 0.8; stroke: #cccccc; stroke-width: 1.5; stroke-linejoin: miter"/>
    </g>
    <g id="patch_10">
     <path d="M 87.122109 61.699453 
L 120.122109 61.699453 
L 120.122109 50.149453 
L 87.122109 50.149453 
z
" style="fill: #e41a1c; stroke: #484848; stroke-width: 1.5; stroke-linejoin: miter"/>
    </g>
    <g id="text_16">
     <!-- Ausente -->
     <g style="fill: #262626" transform="translate(133.322109 61.699453) scale(0.165 -0.165)">
      <defs>
       <path id="ArialMT-73" d="M 197 991 
L 753 1078 
Q 800 744 1014 566 
Q 1228 388 1613 388 
Q 2000 388 2187 545 
Q 2375 703 2375 916 
Q 2375 1106 2209 1216 
Q 2094 1291 1634 1406 
Q 1016 1563 777 1677 
Q 538 1791 414 1992 
Q 291 2194 291 2438 
Q 291 2659 392 2848 
Q 494 3038 669 3163 
Q 800 3259 1026 3326 
Q 1253 3394 1513 3394 
Q 1903 3394 2198 3281 
Q 2494 3169 2634 2976 
Q 2775 2784 2828 2463 
L 2278 2388 
Q 2241 2644 2061 2787 
Q 1881 2931 1553 2931 
Q 1166 2931 1000 2803 
Q 834 2675 834 2503 
Q 834 2394 903 2306 
Q 972 2216 1119 2156 
Q 1203 2125 1616 2013 
Q 2213 1853 2448 1751 
Q 2684 1650 2818 1456 
Q 2953 1263 2953 975 
Q 2953 694 2789 445 
Q 2625 197 2315 61 
Q 2006 -75 1616 -75 
Q 969 -75 630 194 
Q 291 463 197 991 
z
" transform="scale(0.015625)"/>
      </defs>
      <use xlink:href="#ArialMT-41"/>
      <use xlink:href="#ArialMT-75" x="66.699219"/>
      <use xlink:href="#ArialMT-73" x="122.314453"/>
      <use xlink:href="#ArialMT-65" x="172.314453"/>
      <use xlink:href="#ArialMT-6e" x="227.929688"/>
      <use xlink:href="#ArialMT-74" x="283.544922"/>
      <use xlink:href="#ArialMT-65" x="311.328125"/>
     </g>
    </g>
    <g id="patch_11">
     <path d="M 87.122109 85.039219 
L 120.122109 85.039219 
L 120.122109 73.489219 
L 87.122109 73.489219 
z
" style="fill: #377eb8; stroke: #484848; stroke-width: 1.5; stroke-linejoin: miter"/>
    </g>
    <g id="text_17">
     <!-- Atendido -->
     <g style="fill: #262626" transform="translate(133.322109 85.039219) scale(0.165 -0.165)">
      <defs>
       <path id="ArialMT-64" d="M 2575 0 
L 2575 419 
Q 2259 -75 1647 -75 
Q 1250 -75 917 144 
Q 584 363 401 755 
Q 219 1147 219 1656 
Q 219 2153 384 2558 
Q 550 2963 881 3178 
Q 1213 3394 1622 3394 
Q 1922 3394 2156 3267 
Q 2391 3141 2538 2938 
L 2538 4581 
L 3097 4581 
L 3097 0 
L 2575 0 
z
M 797 1656 
Q 797 1019 1065 703 
Q 1334 388 1700 388 
Q 2069 388 2326 689 
Q 2584 991 2584 1609 
Q 2584 2291 2321 2609 
Q 2059 2928 1675 2928 
Q 1300 2928 1048 2622 
Q 797 2316 797 1656 
z
" transform="scale(0.015625)"/>
      </defs>
      <use xlink:href="#ArialMT-41"/>
      <use xlink:href="#ArialMT-74" x="66.699219"/>
      <use xlink:href="#ArialMT-65" x="94.482422"/>
      <use xlink:href="#ArialMT-6e" x="150.097656"/>
      <use xlink:href="#ArialMT-64" x="205.712891"/>
      <use xlink:href="#ArialMT-69" x="261.328125"/>
      <use xlink:href="#ArialMT-64" x="283.544922"/>
      <use xlink:href="#ArialMT-6f" x="339.160156"/>
     </g>
    </g>
   </g>
  </g>
 </g>
 <defs>
  <clipPath id="p65f4b37828">
   <rect x="72.272109" y="35.039062" width="669.6" height="443.52"/>
  </clipPath>
 </defs>
</svg>
